<?xml version="1.0" encoding="UTF-8" standalone="no"?>
<svg
   xmlns:dc="http://purl.org/dc/elements/1.1/"
   xmlns:cc="http://creativecommons.org/ns#"
   xmlns:rdf="http://www.w3.org/1999/02/22-rdf-syntax-ns#"
   xmlns:svg="http://www.w3.org/2000/svg"
   xmlns="http://www.w3.org/2000/svg"
   xmlns:sodipodi="http://sodipodi.sourceforge.net/DTD/sodipodi-0.dtd"
   xmlns:inkscape="http://www.inkscape.org/namespaces/inkscape"
   width="72"
   height="24"
   viewBox="0 0 19.05 6.3500002"
   version="1.1"
   id="svg8"
   inkscape:version="1.0.1 (3bc2e813f5, 2020-09-07)"
   sodipodi:docname="about.svg">
  <defs
     id="defs2" />
  <sodipodi:namedview
     id="base"
     pagecolor="#ffffff"
     bordercolor="#666666"
     borderopacity="1.0"
     inkscape:pageopacity="0.0"
     inkscape:pageshadow="2"
     inkscape:zoom="1"
     inkscape:cx="349"
     inkscape:cy="86"
     inkscape:document-units="px"
     inkscape:current-layer="layer1"
     inkscape:document-rotation="0"
     showgrid="false"
     units="px"
     width="90mm"
     fit-margin-top="0"
     fit-margin-left="0"
     fit-margin-right="0"
     fit-margin-bottom="0"
     inkscape:window-width="1080"
     inkscape:window-height="658"
     inkscape:window-x="-6"
     inkscape:window-y="-6"
     inkscape:window-maximized="1" />
  <metadata
     id="metadata5">
    <rdf:RDF>
      <cc:Work
         rdf:about="">
        <dc:format>image/svg+xml</dc:format>
        <dc:type
           rdf:resource="http://purl.org/dc/dcmitype/StillImage" />
        <dc:title />
      </cc:Work>
    </rdf:RDF>
  </metadata>
  <g
     inkscape:label="Layer 1"
     inkscape:groupmode="layer"
     id="layer1"
     transform="translate(-13.49375,-8.9958334)">
    <rect
       style="fill:#ffd700;fill-opacity:1;fill-rule:evenodd;stroke-width:0.264583"
       id="rect10"
       width="19.049999"
       height="6.3499999"
       x="13.49375"
       y="8.9958334" />
    <g
       aria-label="關於我們"
       transform="scale(0.9823866,1.0179292)"
       id="text837"
       style="font-size:4.52532px;line-height:1.25;font-family:Iansui;-inkscape-font-specification:'Iansui, Normal';word-spacing:0px;fill:#00a86b;fill-opacity:1;stroke-width:0.212196;stroke-miterlimit:4;stroke-dasharray:none">
      <path
         d="m 14.862776,10.46537 q 0,-0.140285 -0.0362,-0.253418 -0.01358,-0.0362 -0.01358,-0.05883 0,-0.0362 0.04073,-0.0362 0.06788,0 0.266994,0.08146 l 1.045349,-0.06788 0.0362,-0.0045 q 0.04073,0 0.104082,0.04978 0.06335,0.04525 0.06335,0.09051 0,0.02263 -0.01358,0.04978 -0.0091,0.02715 -0.01358,0.04978 l -0.06335,0.733102 q 0.09503,0.108608 0.09503,0.153861 0,0.03168 -0.02715,0.04073 -0.02715,0.0091 -0.09051,0.01358 l -1.135855,0.06335 -0.0045,2.547755 q 0,0.0543 -0.02263,0.08598 -0.02263,0.03168 -0.06335,0.03168 -0.0181,0 -0.0724,-0.02715 -0.0543,-0.02263 -0.09956,-0.06335 -0.04073,-0.04073 -0.04073,-0.08598 0,-0.02715 0.0045,-0.04073 0.02715,-0.167436 0.02715,-0.334873 z M 16.958,13.796006 q 0,0.104082 -0.06788,0.104082 -0.04978,0 -0.126709,-0.04525 -0.0724,-0.04525 -0.0724,-0.122184 0,-0.0362 0.0045,-0.05883 0.0362,-0.171962 0.0362,-0.298671 l -0.0091,-0.443481 q 0,-0.153861 -0.0543,-0.285096 -0.0091,-0.02715 -0.0091,-0.03168 0,-0.0362 0.04978,-0.0362 0.04525,0 0.13576,0.03168 0.05883,0.0181 0.08145,0.0543 0.02263,0.03168 0.02263,0.09956 l 0.0045,0.28057 0.380127,-0.0091 0.0091,-0.21269 v -0.0091 q 0,-0.0724 -0.0724,-0.176487 -0.0181,-0.03168 -0.0181,-0.04978 0,-0.03168 0.04978,-0.03168 0.0724,0 0.162911,0.0362 0.09503,0.0362 0.09503,0.122183 v 0.0181 l -0.0181,0.266993 q 0.01358,0.0045 0.0543,0.02715 0.04525,0.02263 0.08598,0.05883 0.04073,0.03168 0.04073,0.06788 0,0.0181 -0.0181,0.03168 -0.0181,0.01358 -0.04525,0.01358 l -0.70595,0.02263 z m -1.086077,-0.547564 q -0.03168,0.0045 -0.07693,0.0181 -0.04525,0.01358 -0.08146,0.01358 -0.0362,0 -0.07693,-0.02715 -0.06788,-0.06335 -0.06788,-0.122183 v -0.02715 l 0.01358,-0.171962 v -0.02263 q 0,-0.09956 -0.0543,-0.185538 -0.0091,-0.0181 -0.0091,-0.02715 0,-0.02715 0.04978,-0.02715 0.06788,0 0.153861,0.0362 0.09051,0.03168 0.09051,0.104082 v 0.0181 l -0.02263,0.239842 0.384652,-0.02263 q 0.0045,-0.04525 0.0045,-0.131235 0,-0.0181 -0.0045,-0.06335 0,-0.04525 -0.009,-0.09051 -0.0091,-0.04525 -0.03168,-0.09956 -0.0045,-0.0091 -0.0045,-0.02263 0,-0.03168 0.04073,-0.03168 0.06788,0 0.158386,0.0362 0.09503,0.0362 0.09503,0.108608 v 0.08146 q 0,0.230791 -0.04073,0.380126 -0.0362,0.144811 -0.117658,0.253418 -0.108608,0.144811 -0.257944,0.226266 -0.14481,0.08598 -0.271519,0.117659 -0.122183,0.03168 -0.185538,0.03168 -0.05883,0 -0.05883,-0.02715 0,-0.0181 0.0362,-0.04978 0.0362,-0.02715 0.104083,-0.0543 0.203639,-0.09051 0.339399,-0.226266 0.135759,-0.13576 0.167437,-0.248893 z m 1.158482,-2.461774 0.0091,0.266994 1.040824,-0.05883 0.0045,-0.27152 z m -1.909685,0.08598 v 0.294146 l 0.923165,-0.0543 0.0181,-0.294146 z m 1.887058,-0.533988 0.01358,0.248893 1.06345,-0.06336 v -0.248892 z m -1.887058,0.08146 v 0.248893 l 0.954842,-0.0543 0.0181,-0.257943 z m 1.859906,0.914115 q -0.0543,0 -0.126709,-0.04525 -0.0724,-0.04978 -0.0724,-0.104082 0,-0.02715 0.0045,-0.04073 0.01358,-0.07693 0.01358,-0.149335 v -0.04978 l -0.02715,-0.588291 q -0.009,-0.126709 -0.04978,-0.217216 -0.02263,-0.04525 -0.02263,-0.06335 0,-0.02715 0.04073,-0.02715 0.0543,0 0.262469,0.06788 l 1.163007,-0.07693 h 0.03168 q 0.04978,0 0.113133,0.04525 0.06788,0.04073 0.06788,0.09503 0,0.0181 -0.01358,0.0543 -0.01358,0.03168 -0.01358,0.04978 l -0.0181,3.366839 0.0045,0.14481 q 0,0.08598 -0.06788,0.153861 -0.06788,0.06788 -0.135759,0.06788 -0.0724,0 -0.253418,-0.113133 -0.176488,-0.108607 -0.330348,-0.239842 -0.149336,-0.131234 -0.149336,-0.190063 0,-0.02715 0.0362,-0.02715 0.04073,0 0.122183,0.04073 0.208165,0.117658 0.511361,0.217215 l 0.0091,-2.511552 -1.031773,0.0543 v 0.02263 q 0.04978,0.01358 0.113133,0.06335 0.06335,0.04525 0.06335,0.09503 0,0.01358 -0.0091,0.02263 -0.05883,0.108608 -0.122184,0.190063 -0.05883,0.08146 -0.167437,0.185539 l 0.27152,-0.02715 q 0.126709,-0.171963 0.131234,-0.217216 0.009,-0.04525 0.0362,-0.04525 0.02715,0 0.09503,0.06335 0.0724,0.05883 0.0724,0.108607 0,0.01358 -0.01358,0.02715 -0.009,0.0091 -0.01358,0.0181 -0.14481,0.162912 -0.28057,0.307722 -0.135759,0.140285 -0.276044,0.271519 l 0.158386,-0.02263 q 0.04978,-0.0091 0.122184,-0.0181 0.07693,-0.01358 0.190063,-0.02715 -0.09503,-0.13576 -0.09503,-0.158387 0,-0.0362 0.04525,-0.06335 0.04525,-0.03168 0.06788,-0.03168 0.03168,0 0.113133,0.113133 0.08598,0.108607 0.158386,0.239842 0.0724,0.126709 0.0724,0.158386 0,0.03168 -0.04073,0.0724 -0.04073,0.0362 -0.09051,0.0362 -0.02263,0 -0.04073,-0.0181 -0.0181,-0.0181 -0.02715,-0.04525 -0.0362,-0.09051 -0.06788,-0.14481 -0.162912,0.02715 -0.294146,0.0543 -0.398228,0.0724 -0.457057,0.0724 -0.04978,0 -0.117659,-0.04978 -0.06335,-0.0543 -0.06335,-0.104082 0,-0.02263 0.03168,-0.03168 0.0362,-0.0091 0.0724,-0.02263 0.04073,-0.01358 0.08146,-0.04978 0.131234,-0.117658 0.294146,-0.316772 L 16.958,11.990403 q -0.230792,0.0362 -0.307722,0.0362 -0.0362,0 -0.06336,-0.04978 -0.02715,-0.04978 -0.02715,-0.09503 0,-0.04525 0.05883,-0.04978 0.03168,0 0.140284,-0.09956 0.217216,-0.208165 0.235317,-0.398228 z m -0.77383,0.85076 q -0.0181,-0.02263 -0.0181,-0.0543 0,-0.04073 0.04978,-0.06788 0.0362,-0.01358 0.05883,-0.01358 0.04073,0 0.06788,0.04073 0.09051,0.158386 0.14481,0.285095 0.0543,0.126709 0.0543,0.153861 0,0.04978 -0.04978,0.07693 -0.04978,0.02715 -0.07693,0.02715 -0.0543,0 -0.07693,-0.07241 l -0.03168,-0.09956 -0.262468,0.04978 q -0.488735,0.09051 -0.556615,0.09051 -0.04978,0 -0.09956,-0.04978 -0.04978,-0.0543 -0.04978,-0.104083 0,-0.02263 0.0362,-0.03168 0.0362,-0.0091 0.07241,-0.0181 0.0362,-0.01358 0.07693,-0.04978 0.06335,-0.06335 0.131234,-0.117658 0.08146,-0.06788 0.181013,-0.167437 l -0.13576,0.02263 q -0.0543,0.0045 -0.126709,0.0181 -0.07241,0.0091 -0.09956,0.0091 -0.0362,0 -0.06335,-0.04978 -0.02715,-0.04978 -0.02715,-0.09956 0,-0.04073 0.0543,-0.04525 0.02715,0 0.06788,-0.02715 0.04073,-0.03168 0.07693,-0.07693 0.131234,-0.153861 0.190063,-0.244368 0.05883,-0.09503 0.0724,-0.190063 0.0091,-0.03168 0.03168,-0.03168 0.04073,0 0.117658,0.0543 0.07693,0.0543 0.07693,0.104083 l -0.009,0.02263 q -0.126709,0.221741 -0.330349,0.384653 l 0.285096,-0.03168 q 0.09956,-0.09956 0.126709,-0.153861 0.03168,-0.0543 0.04073,-0.117658 0.0091,-0.04978 0.0362,-0.04978 0.03168,0 0.108608,0.06335 0.08145,0.05883 0.08145,0.108608 0,0.0181 -0.01358,0.03168 -0.009,0.01358 -0.01357,0.0181 -0.27152,0.303197 -0.633545,0.588292 0.185538,-0.01358 0.371076,-0.04525 l 0.126709,-0.0181 z"
         style="fill:#00a86b;fill-opacity:1;stroke-width:0.212196;stroke-miterlimit:4;stroke-dasharray:none"
         id="path18" />
      <path
         d="m 20.012582,11.895371 q -0.126709,0.615444 -0.321298,1.031773 -0.194588,0.411804 -0.366551,0.615444 -0.167436,0.199114 -0.226266,0.199114 -0.02263,0 -0.02263,-0.02715 0,-0.04073 0.0543,-0.13576 0.276044,-0.452532 0.452532,-1.090602 0.181012,-0.642595 0.244367,-1.384748 l -0.393703,0.02715 h -0.04525 q -0.113133,0 -0.149336,-0.02715 -0.04978,-0.04073 -0.09051,-0.122183 -0.04073,-0.08598 -0.04073,-0.113133 0,-0.03168 0.03168,-0.03168 0.01358,0 0.02263,0.0045 0.09503,0.02715 0.190063,0.02715 h 0.03168 l 1.430001,-0.08146 q 0.0543,-0.0045 0.158386,-0.0362 0.02263,-0.0091 0.05883,-0.0091 0.06336,0 0.14481,0.08146 0.08146,0.08146 0.08146,0.131235 0,0.05883 -0.108608,0.06788 l -1.018197,0.06335 q -0.04073,0.362026 -0.0724,0.56114 l 0.588292,-0.03168 0.04978,-0.0045 q 0.0543,0 0.122184,0.04978 0.0724,0.04978 0.0724,0.122183 0,0.02263 -0.0181,0.05883 -0.0181,0.03168 -0.0181,0.04525 -0.0362,0.398228 -0.113133,0.85076 -0.07693,0.452532 -0.149336,0.719526 -0.04525,0.153861 -0.07693,0.22174 -0.02715,0.07241 -0.09956,0.117659 -0.09503,0.0543 -0.13576,0.0543 -0.06788,0 -0.21269,-0.13576 -0.14481,-0.13576 -0.266994,-0.298671 -0.122184,-0.167437 -0.122184,-0.226266 0,-0.0362 0.03168,-0.0362 0.04525,0 0.122183,0.06336 0.117659,0.09956 0.20364,0.167437 0.08598,0.06335 0.190063,0.122183 0.0045,0.0045 0.0181,0.0045 0.02715,0 0.03168,-0.02715 0.208164,-0.651646 0.298671,-1.620065 z m 1.936837,-1.027247 q -0.185538,0.466108 -0.411804,0.819083 -0.226266,0.352975 -0.411804,0.547563 -0.181013,0.190064 -0.239842,0.190064 -0.02715,0 -0.02715,-0.03168 0,-0.04978 0.04978,-0.122184 0.235317,-0.352975 0.443482,-0.778355 0.21269,-0.429906 0.334873,-0.787406 0.126709,-0.362025 0.126709,-0.524937 0,-0.07693 -0.0181,-0.153861 l -0.0045,-0.0181 q 0,-0.040728 0.04978,-0.040728 0.07693,0 0.20364,0.07693 0.131234,0.07693 0.131234,0.144811 0,0.02263 -0.0045,0.03168 -0.0362,0.126709 -0.0724,0.226266 l -0.0362,0.113133 q 0.226266,0.411804 0.506836,0.760254 0.28057,0.343924 0.692374,0.687848 0.04525,0.04073 0.04525,0.06335 0,0.04073 -0.09956,0.108607 -0.09956,0.06336 -0.140285,0.06336 -0.04525,0 -0.248893,-0.203639 -0.203639,-0.20364 -0.448006,-0.520412 -0.239842,-0.316773 -0.420855,-0.651646 z m 0.56114,3.077217 q -0.0362,0 -0.07693,-0.04073 -0.217215,-0.226266 -0.506836,-0.466108 -0.28962,-0.244367 -0.524937,-0.398228 -0.04978,-0.02715 -0.04978,-0.06788 0,-0.01358 0.0181,-0.05883 0.02263,-0.04525 0.05883,-0.08146 0.0362,-0.04073 0.08146,-0.04073 0.04073,0 0.0724,0.02715 0.248893,0.162911 0.529463,0.384652 0.285095,0.221741 0.515886,0.42538 0.04073,0.0362 0.05883,0.06335 0.0181,0.02715 0.0181,0.0543 0,0.0181 -0.03168,0.06788 -0.03168,0.04978 -0.07693,0.09051 -0.04525,0.04073 -0.08598,0.04073 z m -0.09503,-1.289716 q -0.02715,0 -0.08146,-0.04525 -0.398228,-0.339399 -0.696899,-0.520412 -0.0543,-0.0362 -0.0543,-0.0724 0.0045,-0.0181 0.0181,-0.0543 0.0181,-0.04073 0.04978,-0.0724 0.03168,-0.0362 0.0724,-0.0362 0.0362,0 0.257943,0.131235 0.221741,0.131234 0.411804,0.271519 0.194589,0.140285 0.194589,0.185538 0,0.04978 -0.06788,0.131234 -0.06788,0.08146 -0.104082,0.08146 z m -1.814653,-2.077122 q 0.01358,0.05883 -0.04978,0.131234 -0.05883,0.06788 -0.09503,0.07693 l -0.0181,0.0045 q -0.02715,0 -0.08146,-0.04525 -0.389177,-0.307722 -0.561139,-0.42538 -0.03168,-0.02263 -0.04525,-0.04073 -0.01357,-0.0181 -0.01357,-0.04073 0,-0.04073 0.0362,-0.09051 0.04073,-0.0543 0.0724,-0.06335 0.0091,-0.0045 0.02715,-0.0045 0.03168,0 0.0724,0.02715 0.02263,0.01358 0.09051,0.0543 0.547563,0.334873 0.565665,0.416329 z"
         style="fill:#00a86b;fill-opacity:1;stroke-width:0.212196;stroke-miterlimit:4;stroke-dasharray:none"
         id="path20" />
      <path
         d="m 26.986092,11.117016 q -0.02715,0 -0.06788,-0.04073 -0.262469,-0.298671 -0.497785,-0.488734 -0.04978,-0.04073 -0.04978,-0.07241 0,-0.04073 0.05883,-0.09051 0.05883,-0.0543 0.09956,-0.0543 0.0362,0 0.190064,0.126709 0.153861,0.122184 0.294146,0.262469 0.14481,0.13576 0.14481,0.167437 0,0.04978 -0.06336,0.122183 -0.06335,0.06788 -0.108607,0.06788 z m -0.70595,0.466108 q 0.09503,0.502311 0.276044,0.932216 0.113133,-0.153861 0.253418,-0.420855 0.14481,-0.266993 0.14481,-0.362025 l -0.0045,-0.04073 v -0.02263 q 0,-0.04525 0.03168,-0.04525 0.02263,0 0.09051,0.04073 0.06788,0.04073 0.122183,0.09503 0.0543,0.0543 0.0543,0.09956 0,0.02715 -0.01358,0.04978 -0.266994,0.524937 -0.552089,0.855286 0.285095,0.538513 0.669748,0.85076 0.0181,0.0181 0.0362,0.0181 0.0181,0 0.03168,-0.02715 0.07241,-0.208164 0.153861,-0.615443 0.0181,-0.09956 0.04073,-0.149336 0.02715,-0.0543 0.04978,-0.0543 0.0543,0 0.05883,0.230792 0,0.402753 -0.0362,0.615443 -0.0362,0.21269 -0.09503,0.28057 -0.0543,0.06788 -0.140285,0.06788 -0.208165,0 -0.488735,-0.316773 -0.28057,-0.316772 -0.49326,-0.692373 -0.194589,0.190063 -0.420855,0.352974 -0.22174,0.162912 -0.402753,0.257944 -0.176488,0.09503 -0.230791,0.09503 -0.04073,0 -0.04073,-0.02715 0,-0.04978 0.117658,-0.13576 0.529462,-0.384652 0.864336,-0.764779 -0.122183,-0.253418 -0.203639,-0.506836 -0.07693,-0.257943 -0.158386,-0.647121 l -0.850761,0.04525 0.0045,0.656172 q 0.325823,-0.09956 0.552089,-0.181013 0.05883,-0.02263 0.108607,-0.02263 0.06788,0 0.06788,0.04073 0,0.0362 -0.04978,0.07693 -0.04978,0.0362 -0.20364,0.108607 -0.153861,0.07241 -0.470633,0.208165 l 0.0045,0.977469 q 0,0.07693 0.0045,0.126709 0.0045,0.04978 0.0045,0.08146 0,0.08598 -0.07693,0.149336 -0.07693,0.06335 -0.140285,0.06335 -0.0724,0 -0.257944,-0.122184 -0.185538,-0.117658 -0.339399,-0.262468 -0.153861,-0.149336 -0.153861,-0.221741 0,-0.0362 0.04525,-0.0362 0.04525,0 0.122183,0.04525 0.262469,0.153861 0.506836,0.244367 l -0.0045,-0.941266 q -0.719526,0.253417 -0.787406,0.253417 -0.03168,0 -0.104082,-0.04525 -0.06788,-0.04525 -0.14481,-0.199114 -0.0091,-0.01358 -0.0091,-0.0362 0,-0.02263 0.04525,-0.02263 h 0.0543 q 0.194589,0 0.945792,-0.203639 l -0.0045,-0.719526 -0.76478,0.04073 h -0.09051 q -0.09956,0 -0.13576,-0.02263 -0.04525,-0.04073 -0.07693,-0.09503 -0.03168,-0.05883 -0.04073,-0.117658 l -0.0045,-0.02715 q 0,-0.0181 0.0181,-0.0181 l 0.02715,0.0045 q 0.113133,0.02263 0.181013,0.02263 h 0.0362 l 0.850761,-0.04978 -0.0045,-0.529462 q -0.248892,0.09051 -0.443481,0.140285 -0.194589,0.04525 -0.253418,0.04525 -0.07693,0 -0.07693,-0.0362 0,-0.04525 0.131235,-0.09503 0.325823,-0.117659 0.737627,-0.334874 0.416329,-0.221741 0.452532,-0.330349 0.0181,-0.04525 0.04073,-0.04525 0.02715,0 0.07241,0.04978 0.04978,0.04525 0.08598,0.108607 0.0362,0.06335 0.0362,0.113133 0,0.03168 -0.02715,0.05883 -0.02263,0.02263 -0.144811,0.08146 -0.117658,0.0543 -0.330348,0.144811 l 0.0045,0.615443 0.810033,-0.04525 q -0.08598,-0.506836 -0.126709,-1.077026 -0.0091,-0.09051 -0.02263,-0.14481 -0.01358,-0.0543 -0.04978,-0.104083 -0.03168,-0.036202 -0.03168,-0.063354 0,-0.027152 0.04978,-0.027152 0.07693,0 0.199114,0.040728 0.122184,0.036202 0.126709,0.099557 0.06335,0.791931 0.140285,1.262564 l 0.891488,-0.04978 q 0.09503,-0.0091 0.185538,-0.03168 0.0362,-0.0091 0.04978,-0.0091 0.0543,0 0.140284,0.08146 0.08598,0.07693 0.08598,0.131235 0,0.05883 -0.117659,0.06788 z"
         style="fill:#00a86b;fill-opacity:1;stroke-width:0.212196;stroke-miterlimit:4;stroke-dasharray:none"
         id="path22" />
      <path
         d="m 31.203681,11.80034 v 0.04073 q 0,0.104083 -0.0724,0.104083 -0.04978,0 -0.131234,-0.0543 -0.07693,-0.0543 -0.07693,-0.09956 0,-0.02715 0.0045,-0.04525 0.01358,-0.104083 0.01358,-0.217216 l -0.02263,-1.058924 q 0,-0.149336 -0.04073,-0.244368 -0.01358,-0.0362 -0.01358,-0.0543 0,-0.02715 0.03168,-0.02715 0.06335,0 0.271519,0.09051 l 0.665222,-0.04525 h 0.04073 q 0.05883,0 0.117658,0.04978 0.05883,0.04525 0.05883,0.09503 0,0.0181 -0.01358,0.04978 -0.0091,0.03168 -0.0091,0.04525 v 3.244654 q 0,0.0362 0.0045,0.06788 0.0045,0.0362 0.0045,0.06788 0,0.08598 -0.04525,0.135759 -0.04525,0.04978 -0.09956,0.06788 -0.04978,0.02263 -0.06788,0.02263 -0.08146,0 -0.28962,-0.126709 -0.208165,-0.122184 -0.384652,-0.271519 -0.176488,-0.149336 -0.176488,-0.217216 0,-0.03168 0.0362,-0.03168 0.04073,0 0.140285,0.04978 0.266993,0.13576 0.588291,0.239842 l 0.0091,-1.900634 z m -1.606488,-1.26709 q 0,-0.07693 -0.0091,-0.13576 -0.0091,-0.05883 -0.0362,-0.135759 -0.0091,-0.02715 -0.0091,-0.04073 0,-0.02263 0.02715,-0.02263 0.06335,0 0.285095,0.09956 l 0.597342,-0.04073 h 0.0181 q 0.06788,0 0.126708,0.04978 0.05883,0.04978 0.05883,0.09051 0,0.0181 -0.01358,0.0543 -0.01358,0.03168 -0.01358,0.04978 l -0.04073,1.135855 q 0.09051,0.117658 0.09051,0.158386 0,0.02715 -0.02715,0.0362 -0.02715,0.0091 -0.08598,0.01358 l -0.70595,0.04073 -0.0045,2.004716 q 0,0.108608 -0.07241,0.108608 -0.04073,0 -0.108608,-0.04073 -0.0724,-0.04073 -0.09956,-0.0724 -0.02263,-0.02715 -0.02263,-0.06788 0,-0.02715 0.0045,-0.04073 0.02263,-0.14481 0.02263,-0.266993 l 0.0181,-2.927882 z m -0.796457,0.963893 q -0.04525,0.0724 -0.190063,0.257943 -0.140285,0.181013 -0.285095,0.330349 -0.14481,0.149335 -0.208165,0.149335 -0.02715,0 -0.02715,-0.03168 0,-0.04978 0.05883,-0.126709 0.276045,-0.375601 0.511361,-0.814557 0.235317,-0.438957 0.375602,-0.787406 0.14481,-0.352975 0.14481,-0.457057 0,-0.018102 -0.009,-0.072406 l -0.0045,-0.022627 q 0,-0.045253 0.0543,-0.045253 0.06788,0 0.176488,0.06788 0.113133,0.063355 0.113133,0.1176586 0,0.02263 -0.01358,0.04978 -0.226266,0.606393 -0.443482,0.98652 l -0.0045,2.792122 q 0,0.04073 -0.02263,0.06335 -0.02263,0.02263 -0.05883,0.02263 -0.09051,-0.01358 -0.153861,-0.05883 -0.06335,-0.04525 -0.06335,-0.126709 0,-0.03168 0.0045,-0.04978 0.02263,-0.126709 0.02263,-0.244367 z m 2.389369,-0.384652 0.0091,0.470633 0.547564,-0.02715 v -0.475158 z m -0.01358,-0.656171 0.0091,0.443481 0.565665,-0.0362 v -0.443481 z m -1.316868,0.728576 v 0.479684 l 0.479684,-0.03168 0.01358,-0.484209 z m 0,-0.665222 v 0.443481 l 0.497786,-0.03168 0.009,-0.443481 z"
         style="fill:#00a86b;fill-opacity:1;stroke-width:0.212196;stroke-miterlimit:4;stroke-dasharray:none"
         id="path24" />
    </g>
  </g>
</svg>
