<?xml version="1.0" encoding="UTF-8" standalone="no"?>
<svg
   xmlns:dc="http://purl.org/dc/elements/1.1/"
   xmlns:cc="http://creativecommons.org/ns#"
   xmlns:rdf="http://www.w3.org/1999/02/22-rdf-syntax-ns#"
   xmlns:svg="http://www.w3.org/2000/svg"
   xmlns="http://www.w3.org/2000/svg"
   width="72"
   height="24"
   viewBox="0 0 19.05 6.3500001"
   version="1.1"
   id="svg8">
  <defs
     id="defs2">
    <rect
       x="61.988094"
       y="87.690475"
       width="71.059525"
       height="37.041668"
       id="rect837" />
  </defs>
  <metadata
     id="metadata5">
    <rdf:RDF>
      <cc:Work
         rdf:about="">
        <dc:format>image/svg+xml</dc:format>
        <dc:type
           rdf:resource="http://purl.org/dc/dcmitype/StillImage" />
        <dc:title></dc:title>
      </cc:Work>
    </rdf:RDF>
  </metadata>
  <g
     id="layer1"
     transform="translate(-33.261906,-63.5)">
    <g
       id="g1059">
      <rect
         style="fill:#ffd700;fill-opacity:1;stroke-width:0.0236903"
         id="rect10"
         width="19.049999"
         height="6.3499999"
         x="33.261906"
         y="63.5" />
      <g
         aria-label="關於我們"
         transform="matrix(1.0314619,0,0,1.0845996,-29.280322,-31.239358)"
         id="text835"
         style="font-size:4.00241px;line-height:1.25;font-family:Iansui;-inkscape-font-specification:'Iansui, Normal';word-spacing:0px;white-space:pre;shape-inside:url(#rect837);fill:#00a86b;fill-opacity:1">
        <path
           d="m 62.428546,88.952165 q 0,-0.124074 -0.03202,-0.224135 -0.01201,-0.03202 -0.01201,-0.05203 0,-0.03202 0.03602,-0.03202 0.06004,0 0.236142,0.07204 l 0.924556,-0.06004 0.03202,-0.004 q 0.03602,0 0.09206,0.04403 0.05603,0.04002 0.05603,0.08005 0,0.02001 -0.01201,0.04403 -0.008,0.02401 -0.01201,0.04403 l -0.05603,0.648391 q 0.08405,0.09606 0.08405,0.136082 0,0.02802 -0.02401,0.03602 -0.02401,0.008 -0.08005,0.01201 l -1.004605,0.05603 -0.004,2.253357 q 0,0.04803 -0.02001,0.07605 -0.02001,0.02802 -0.05603,0.02802 -0.01601,0 -0.06404,-0.02402 -0.04803,-0.02001 -0.08805,-0.05603 -0.03602,-0.03602 -0.03602,-0.07605 0,-0.02402 0.004,-0.03602 0.02401,-0.148089 0.02401,-0.296178 z m 1.853116,2.945774 q 0,0.09206 -0.06004,0.09206 -0.04403,0 -0.112067,-0.04002 -0.06404,-0.04002 -0.06404,-0.108065 0,-0.03202 0.004,-0.05203 0.03202,-0.152092 0.03202,-0.264159 l -0.008,-0.392236 q 0,-0.136082 -0.04803,-0.252152 -0.008,-0.02401 -0.008,-0.02802 0,-0.03202 0.04403,-0.03202 0.04002,0 0.120072,0.02802 0.05203,0.01601 0.07204,0.04803 0.02001,0.02802 0.02001,0.08805 l 0.004,0.248149 0.336202,-0.008 0.008,-0.188113 v -0.008 q 0,-0.06404 -0.06404,-0.156094 -0.01601,-0.02802 -0.01601,-0.04403 0,-0.02802 0.04403,-0.02802 0.06404,0 0.144087,0.03202 0.08405,0.03202 0.08405,0.108065 v 0.01601 l -0.01601,0.236142 q 0.01201,0.004 0.04803,0.02401 0.04002,0.02001 0.07605,0.05203 0.03602,0.02802 0.03602,0.06004 0,0.01601 -0.01601,0.02802 -0.01601,0.01201 -0.04002,0.01201 l -0.624376,0.02001 z m -0.960578,-0.484292 q -0.02802,0.004 -0.06804,0.01601 -0.04002,0.01201 -0.07204,0.01201 -0.03202,0 -0.06804,-0.02401 -0.06004,-0.05603 -0.06004,-0.108065 v -0.02401 l 0.01201,-0.152091 v -0.02001 q 0,-0.08805 -0.04803,-0.164099 -0.008,-0.01601 -0.008,-0.02402 0,-0.02401 0.04403,-0.02401 0.06004,0 0.136082,0.03202 0.08005,0.02802 0.08005,0.09206 v 0.01601 l -0.02001,0.212128 0.340205,-0.02001 q 0.004,-0.04002 0.004,-0.11607 0,-0.01601 -0.004,-0.05603 0,-0.04002 -0.008,-0.08005 -0.008,-0.04002 -0.02802,-0.08805 -0.004,-0.008 -0.004,-0.02001 0,-0.02802 0.03602,-0.02802 0.06004,0 0.140084,0.03202 0.08405,0.03202 0.08405,0.09606 v 0.07204 q 0,0.204123 -0.03602,0.336202 -0.03202,0.128077 -0.104063,0.224135 -0.09606,0.128077 -0.228137,0.200121 -0.128077,0.07604 -0.240145,0.104062 -0.108065,0.02802 -0.164098,0.02802 -0.05203,0 -0.05203,-0.02401 0,-0.01601 0.03202,-0.04403 0.03202,-0.02401 0.09206,-0.04803 0.180108,-0.08005 0.300181,-0.20012 0.120072,-0.120072 0.148089,-0.220133 z m 1.024617,-2.177311 0.008,0.236143 0.920554,-0.05203 0.004,-0.240144 z m -1.689017,0.07605 v 0.260157 l 0.816491,-0.04803 0.01601,-0.260157 z m 1.669005,-0.472284 0.01201,0.220132 0.940566,-0.05603 v -0.220133 z m -1.669005,0.07204 v 0.220133 l 0.844508,-0.04803 0.01601,-0.228137 z m 1.64499,0.808487 q -0.04803,0 -0.112067,-0.04002 -0.06404,-0.04403 -0.06404,-0.09206 0,-0.02402 0.004,-0.03602 0.01201,-0.06804 0.01201,-0.13208 v -0.04403 l -0.02401,-0.520313 q -0.008,-0.112068 -0.04403,-0.192116 -0.02001,-0.04002 -0.02001,-0.05603 0,-0.02401 0.03602,-0.02401 0.04803,0 0.23214,0.06004 l 1.02862,-0.06804 h 0.02802 q 0.04403,0 0.100061,0.04002 0.06004,0.03602 0.06004,0.08405 0,0.01601 -0.01201,0.04803 -0.01201,0.02802 -0.01201,0.04403 l -0.01601,2.977793 0.004,0.128077 q 0,0.07605 -0.06004,0.136082 -0.06004,0.06004 -0.120072,0.06004 -0.06404,0 -0.224135,-0.10006 -0.156094,-0.09606 -0.292176,-0.212128 -0.13208,-0.11607 -0.13208,-0.168101 0,-0.02401 0.03202,-0.02401 0.03602,0 0.108065,0.03602 0.184111,0.104063 0.452272,0.192116 l 0.008,-2.221338 -0.91255,0.04803 v 0.02001 q 0.04403,0.01201 0.100061,0.05603 0.05603,0.04002 0.05603,0.08405 0,0.01201 -0.008,0.02001 -0.05203,0.09606 -0.108066,0.168101 -0.05203,0.07204 -0.148089,0.164099 l 0.240145,-0.02402 q 0.112067,-0.152091 0.11607,-0.192115 0.008,-0.04002 0.03202,-0.04002 0.02401,0 0.08405,0.05603 0.06404,0.05203 0.06404,0.09606 0,0.01201 -0.01201,0.02401 -0.008,0.008 -0.01201,0.01601 -0.128077,0.144087 -0.24815,0.272164 -0.120072,0.124075 -0.244147,0.240145 l 0.140085,-0.02001 q 0.04403,-0.008 0.108065,-0.01601 0.06804,-0.01201 0.168101,-0.02401 -0.08405,-0.120073 -0.08405,-0.140085 0,-0.03202 0.04002,-0.05603 0.04002,-0.02802 0.06004,-0.02802 0.02802,0 0.10006,0.10006 0.07605,0.09606 0.140084,0.212128 0.06404,0.112067 0.06404,0.140084 0,0.02802 -0.03602,0.06404 -0.03602,0.03202 -0.08005,0.03202 -0.02001,0 -0.03602,-0.01601 -0.01601,-0.01601 -0.02401,-0.04002 -0.03202,-0.08005 -0.06004,-0.128077 -0.144087,0.02401 -0.260157,0.04803 -0.352212,0.06404 -0.404243,0.06404 -0.04403,0 -0.104063,-0.04403 -0.05603,-0.04803 -0.05603,-0.09206 0,-0.02001 0.02802,-0.02802 0.03202,-0.008 0.06404,-0.02001 0.03602,-0.01201 0.07204,-0.04403 0.11607,-0.104063 0.260157,-0.280169 l -0.09206,0.01201 q -0.204123,0.03202 -0.272164,0.03202 -0.03202,0 -0.05603,-0.04403 -0.02401,-0.04403 -0.02401,-0.08405 0,-0.04002 0.05203,-0.04403 0.02802,0 0.124075,-0.08805 0.192116,-0.184111 0.208125,-0.352212 z m -0.684412,0.752453 q -0.01601,-0.02001 -0.01601,-0.04803 0,-0.03602 0.04403,-0.06004 0.03202,-0.01201 0.05203,-0.01201 0.03602,0 0.06004,0.03602 0.08005,0.140084 0.128078,0.252151 0.04803,0.112068 0.04803,0.136082 0,0.04403 -0.04403,0.06804 -0.04403,0.02402 -0.06804,0.02402 -0.04803,0 -0.06804,-0.06404 l -0.02802,-0.08805 -0.23214,0.04403 q -0.43226,0.08005 -0.492296,0.08005 -0.04403,0 -0.08805,-0.04403 -0.04403,-0.04803 -0.04403,-0.09206 0,-0.02001 0.03202,-0.02802 0.03202,-0.008 0.06404,-0.01601 0.03202,-0.01201 0.06804,-0.04403 0.05603,-0.05603 0.11607,-0.104063 0.07204,-0.06004 0.160097,-0.148089 l -0.120073,0.02001 q -0.04803,0.004 -0.112067,0.01601 -0.06404,0.008 -0.08805,0.008 -0.03202,0 -0.05603,-0.04403 -0.02401,-0.04403 -0.02401,-0.08805 0,-0.03602 0.04803,-0.04002 0.02401,0 0.06004,-0.02401 0.03602,-0.02802 0.06804,-0.06804 0.116069,-0.136082 0.168101,-0.216131 0.05203,-0.08405 0.06404,-0.168101 0.008,-0.02802 0.02802,-0.02802 0.03602,0 0.104063,0.04803 0.06804,0.04803 0.06804,0.09206 l -0.008,0.02001 q -0.112067,0.196118 -0.292176,0.340205 l 0.252152,-0.02802 q 0.08805,-0.08805 0.112067,-0.136082 0.02802,-0.04803 0.03602,-0.104063 0.008,-0.04403 0.03202,-0.04403 0.02802,0 0.09606,0.05603 0.07204,0.05203 0.07204,0.09606 0,0.01601 -0.01201,0.02802 -0.008,0.01201 -0.01201,0.01601 -0.240144,0.268161 -0.560337,0.520313 0.164099,-0.01201 0.328197,-0.04002 l 0.112068,-0.01601 z"
           id="path1044" />
        <path
           d="m 66.983281,90.216927 q -0.112067,0.544328 -0.284171,0.912549 -0.172104,0.36422 -0.324195,0.544328 -0.148089,0.176106 -0.200121,0.176106 -0.02001,0 -0.02001,-0.02401 0,-0.03602 0.04803,-0.120073 0.244147,-0.400241 0.400241,-0.96458 0.160097,-0.568343 0.21613,-1.224738 l -0.348209,0.02402 h -0.04002 q -0.100061,0 -0.13208,-0.02402 -0.04403,-0.03602 -0.08005,-0.108065 -0.03602,-0.07605 -0.03602,-0.10006 0,-0.02802 0.02802,-0.02802 0.01201,0 0.02001,0.004 0.08405,0.02402 0.168101,0.02402 h 0.02802 l 1.264762,-0.07204 q 0.04803,-0.004 0.140084,-0.03202 0.02001,-0.008 0.05203,-0.008 0.05603,0 0.128078,0.07204 0.07204,0.07204 0.07204,0.11607 0,0.05203 -0.09606,0.06004 l -0.900542,0.05603 q -0.03602,0.320192 -0.06404,0.496298 l 0.520314,-0.02802 0.04403,-0.004 q 0.04803,0 0.108065,0.04403 0.06404,0.04403 0.06404,0.108065 0,0.02001 -0.01601,0.05203 -0.01601,0.02802 -0.01601,0.04002 -0.03202,0.352212 -0.10006,0.752453 -0.06804,0.400241 -0.132079,0.636383 -0.04002,0.136082 -0.06804,0.196118 -0.02402,0.06404 -0.08805,0.104063 -0.08405,0.04803 -0.120073,0.04803 -0.06004,0 -0.188113,-0.120072 -0.128077,-0.120073 -0.236142,-0.264159 -0.108065,-0.14809 -0.108065,-0.200121 0,-0.03202 0.02802,-0.03202 0.04002,0 0.108065,0.05603 0.104062,0.08805 0.180108,0.148089 0.07605,0.05603 0.168101,0.108065 0.004,0.004 0.01601,0.004 0.02402,0 0.02802,-0.02401 0.184111,-0.576347 0.264159,-1.432863 z m 1.713032,-0.908547 q -0.164099,0.412248 -0.36422,0.724436 -0.20012,0.312188 -0.364219,0.484292 -0.160096,0.168101 -0.212128,0.168101 -0.02401,0 -0.02401,-0.02802 0,-0.04403 0.04403,-0.108065 0.208126,-0.312188 0.392237,-0.688415 0.188113,-0.380229 0.296178,-0.696419 0.112067,-0.320193 0.112067,-0.464279 0,-0.06804 -0.01601,-0.136082 l -0.004,-0.01601 q 0,-0.03602 0.04403,-0.03602 0.06804,0 0.180108,0.06804 0.11607,0.06804 0.11607,0.128077 0,0.02001 -0.004,0.02802 -0.03202,0.112068 -0.06404,0.200121 l -0.03202,0.10006 q 0.20012,0.364219 0.44827,0.672405 0.248149,0.304183 0.612369,0.608366 0.04002,0.03602 0.04002,0.05603 0,0.03602 -0.08805,0.09606 -0.08805,0.05603 -0.124075,0.05603 -0.04002,0 -0.220133,-0.180108 -0.180108,-0.180108 -0.396238,-0.460277 -0.212128,-0.280169 -0.372224,-0.576347 z m 0.496299,2.721639 q -0.03202,0 -0.06804,-0.03602 -0.192116,-0.200121 -0.44827,-0.412248 -0.256155,-0.21613 -0.46428,-0.352212 -0.04403,-0.02401 -0.04403,-0.06004 0,-0.01201 0.01601,-0.05203 0.02001,-0.04002 0.05203,-0.07204 0.03202,-0.03602 0.07204,-0.03602 0.03602,0 0.06404,0.02401 0.220133,0.144086 0.468282,0.340204 0.252152,0.196118 0.456275,0.376227 0.03602,0.03202 0.05203,0.05603 0.01601,0.02401 0.01601,0.04803 0,0.01601 -0.02802,0.06004 -0.02802,0.04403 -0.06804,0.08005 -0.04002,0.03602 -0.07605,0.03602 z m -0.08405,-1.140687 q -0.02401,0 -0.07204,-0.04002 -0.352213,-0.300181 -0.616372,-0.460277 -0.04803,-0.03202 -0.04803,-0.06404 0.004,-0.01601 0.01601,-0.04803 0.01601,-0.03602 0.04403,-0.06404 0.02802,-0.03202 0.06404,-0.03202 0.03202,0 0.228138,0.11607 0.196118,0.11607 0.364219,0.240145 0.172103,0.124074 0.172103,0.164099 0,0.04403 -0.06004,0.116069 -0.06004,0.07204 -0.09206,0.07204 z m -1.604966,-1.837106 q 0.01201,0.05203 -0.04403,0.11607 -0.05203,0.06004 -0.08405,0.06804 l -0.01601,0.004 q -0.02402,0 -0.07204,-0.04002 -0.344207,-0.272164 -0.496298,-0.376227 -0.02802,-0.02001 -0.04002,-0.03602 -0.01201,-0.01601 -0.01201,-0.03602 0,-0.03602 0.03202,-0.08005 0.03602,-0.04803 0.06404,-0.05603 0.008,-0.004 0.02401,-0.004 0.02802,0 0.06404,0.02401 0.02001,0.01201 0.08005,0.04803 0.484292,0.296178 0.500302,0.368222 z"
           id="path1046" />
        <path
           d="m 73.150987,89.528512 q -0.02401,0 -0.06004,-0.03602 -0.23214,-0.264159 -0.440265,-0.432261 -0.04403,-0.03602 -0.04403,-0.06404 0,-0.03602 0.05203,-0.08005 0.05203,-0.04803 0.08805,-0.04803 0.03202,0 0.168101,0.112067 0.136082,0.108065 0.260157,0.23214 0.128077,0.120072 0.128077,0.148089 0,0.04403 -0.05603,0.108065 -0.05603,0.06004 -0.09606,0.06004 z m -0.624376,0.412249 q 0.08405,0.444267 0.244147,0.824496 0.100061,-0.136082 0.224135,-0.372224 0.128077,-0.236142 0.128077,-0.320193 l -0.004,-0.03602 v -0.02001 q 0,-0.04002 0.02802,-0.04002 0.02001,0 0.08005,0.03602 0.06004,0.03602 0.108065,0.08405 0.04803,0.04803 0.04803,0.08805 0,0.02401 -0.01201,0.04403 -0.236142,0.46428 -0.488294,0.756456 0.252152,0.476286 0.592357,0.752453 0.01601,0.01601 0.03202,0.01601 0.01601,0 0.02802,-0.02401 0.06404,-0.184111 0.136082,-0.544328 0.01601,-0.08805 0.03602,-0.132079 0.02401,-0.04803 0.04403,-0.04803 0.04803,0 0.05203,0.204123 0,0.356214 -0.03202,0.544327 -0.03202,0.188114 -0.08405,0.24815 -0.04803,0.06004 -0.124074,0.06004 -0.184111,0 -0.432261,-0.280169 -0.248149,-0.280168 -0.436262,-0.612369 -0.172104,0.168102 -0.372225,0.312188 -0.196118,0.144087 -0.356214,0.228138 -0.156094,0.08405 -0.204123,0.08405 -0.03602,0 -0.03602,-0.02401 0,-0.04403 0.104063,-0.120072 0.468282,-0.340205 0.76446,-0.676408 -0.108065,-0.224135 -0.180108,-0.44827 -0.06804,-0.228137 -0.140084,-0.572344 l -0.752454,0.04002 0.004,0.580349 q 0.288173,-0.08805 0.488294,-0.160096 0.05203,-0.02001 0.09606,-0.02001 0.06004,0 0.06004,0.03602 0,0.03202 -0.04403,0.06804 -0.04403,0.03202 -0.180108,0.09606 -0.136082,0.06404 -0.416251,0.184111 l 0.004,0.864521 q 0,0.06804 0.004,0.112067 0.004,0.04403 0.004,0.07204 0,0.07605 -0.06804,0.132079 -0.06804,0.05603 -0.124075,0.05603 -0.06404,0 -0.228138,-0.108065 -0.164098,-0.104063 -0.30018,-0.23214 -0.136082,-0.132079 -0.136082,-0.196118 0,-0.03202 0.04002,-0.03202 0.04002,0 0.108065,0.04002 0.23214,0.136082 0.44827,0.21613 l -0.004,-0.832501 q -0.636383,0.224135 -0.696419,0.224135 -0.02802,0 -0.09206,-0.04002 -0.06004,-0.04002 -0.128077,-0.176106 -0.008,-0.01201 -0.008,-0.03202 0,-0.02001 0.04002,-0.02001 h 0.04803 q 0.172103,0 0.836503,-0.180108 l -0.004,-0.636383 -0.676407,0.03602 h -0.08005 q -0.08805,0 -0.120073,-0.02001 -0.04002,-0.03602 -0.06804,-0.08405 -0.02802,-0.05203 -0.03602,-0.104063 l -0.004,-0.02401 q 0,-0.01601 0.01601,-0.01601 l 0.02401,0.004 q 0.100061,0.02001 0.160097,0.02001 h 0.03202 l 0.752453,-0.04403 -0.004,-0.468282 q -0.220133,0.08005 -0.392237,0.124075 -0.172103,0.04002 -0.224134,0.04002 -0.06804,0 -0.06804,-0.03202 0,-0.04002 0.116069,-0.08405 0.288174,-0.104063 0.652393,-0.296179 0.368222,-0.196118 0.400241,-0.292175 0.01601,-0.04002 0.03602,-0.04002 0.02401,0 0.06404,0.04403 0.04403,0.04002 0.07605,0.09606 0.03202,0.05603 0.03202,0.10006 0,0.02802 -0.02402,0.05203 -0.02001,0.02001 -0.128077,0.07204 -0.104063,0.04803 -0.292176,0.128077 l 0.004,0.544328 0.716432,-0.04002 q -0.07605,-0.448269 -0.112068,-0.952573 -0.008,-0.08005 -0.02001,-0.128077 -0.01201,-0.04803 -0.04403,-0.09206 -0.02802,-0.03202 -0.02802,-0.05603 0,-0.02402 0.04403,-0.02402 0.06804,0 0.176106,0.03602 0.108066,0.03202 0.112068,0.08805 0.05603,0.700422 0.124075,1.116672 l 0.788474,-0.04403 q 0.08405,-0.008 0.164099,-0.02802 0.03202,-0.008 0.04403,-0.008 0.04803,0 0.124074,0.07204 0.07605,0.06804 0.07605,0.11607 0,0.05203 -0.104062,0.06004 z"
           id="path1048" />
        <path
           d="m 76.881226,90.132876 v 0.03602 q 0,0.09206 -0.06404,0.09206 -0.04403,0 -0.11607,-0.04803 -0.06804,-0.04803 -0.06804,-0.08805 0,-0.02401 0.004,-0.04002 0.01201,-0.09206 0.01201,-0.192115 l -0.02001,-0.936564 q 0,-0.13208 -0.03602,-0.21613 -0.01201,-0.03202 -0.01201,-0.04803 0,-0.02402 0.02802,-0.02402 0.05603,0 0.240144,0.08005 l 0.588355,-0.04002 h 0.03602 q 0.05203,0 0.104063,0.04403 0.05203,0.04002 0.05203,0.08405 0,0.01601 -0.01201,0.04403 -0.008,0.02802 -0.008,0.04002 v 2.869728 q 0,0.03202 0.004,0.06004 0.004,0.03202 0.004,0.06004 0,0.07605 -0.04002,0.120073 -0.04002,0.04403 -0.08805,0.06004 -0.04403,0.02001 -0.06004,0.02001 -0.07204,0 -0.256154,-0.112068 -0.184111,-0.108065 -0.340205,-0.240144 -0.156094,-0.13208 -0.156094,-0.192116 0,-0.02802 0.03202,-0.02802 0.03602,0 0.124075,0.04403 0.236142,0.120072 0.520313,0.212127 l 0.008,-1.681012 z M 75.46037,89.012202 q 0,-0.06804 -0.008,-0.120073 -0.008,-0.05203 -0.03202,-0.120072 -0.008,-0.02402 -0.008,-0.03602 0,-0.02001 0.02402,-0.02001 0.05603,0 0.252152,0.08805 l 0.528318,-0.03602 h 0.01601 q 0.06004,0 0.112068,0.04403 0.05203,0.04403 0.05203,0.08005 0,0.01601 -0.01201,0.04803 -0.01201,0.02802 -0.01201,0.04403 l -0.03602,1.004605 q 0.08005,0.104062 0.08005,0.140084 0,0.02401 -0.02401,0.03202 -0.02402,0.008 -0.07605,0.01201 l -0.624376,0.03602 -0.004,1.773068 q 0,0.09606 -0.06404,0.09606 -0.03602,0 -0.09606,-0.03602 -0.06404,-0.03602 -0.08805,-0.06404 -0.02001,-0.02401 -0.02001,-0.06004 0,-0.02401 0.004,-0.03602 0.02001,-0.128077 0.02001,-0.236142 l 0.01601,-2.589559 z m -0.704424,0.852513 q -0.04002,0.06404 -0.168101,0.228137 -0.124075,0.160097 -0.252152,0.292176 -0.128077,0.13208 -0.184111,0.13208 -0.02401,0 -0.02401,-0.02802 0,-0.04403 0.05203,-0.112068 0.244147,-0.3322 0.452272,-0.720433 0.208126,-0.388234 0.3322,-0.69642 0.128077,-0.312188 0.128077,-0.404243 0,-0.01601 -0.008,-0.06404 l -0.004,-0.02001 q 0,-0.04002 0.04803,-0.04002 0.06004,0 0.156094,0.06004 0.10006,0.05603 0.10006,0.104063 0,0.02001 -0.01201,0.04403 -0.20012,0.536323 -0.392236,0.872526 l -0.004,2.469487 q 0,0.03602 -0.02001,0.05603 -0.02001,0.02001 -0.05203,0.02001 -0.08005,-0.01201 -0.136082,-0.05203 -0.05603,-0.04002 -0.05603,-0.112067 0,-0.02802 0.004,-0.04403 0.02001,-0.112067 0.02001,-0.21613 z m 2.113273,-0.340205 0.008,0.416251 0.484292,-0.02401 v -0.420253 z m -0.01201,-0.580349 0.008,0.392236 0.500301,-0.03202 v -0.392236 z m -1.164701,0.644388 v 0.424255 l 0.424255,-0.02802 0.01201,-0.428258 z m 0,-0.588355 v 0.392236 l 0.440265,-0.02802 0.008,-0.392237 z"
           id="path1050" />
      </g>
    </g>
  </g>
</svg>
