<?xml version="1.0" encoding="UTF-8" standalone="no"?>
<svg
   xmlns:dc="http://purl.org/dc/elements/1.1/"
   xmlns:cc="http://creativecommons.org/ns#"
   xmlns:rdf="http://www.w3.org/1999/02/22-rdf-syntax-ns#"
   xmlns:svg="http://www.w3.org/2000/svg"
   xmlns="http://www.w3.org/2000/svg"
   width="90mm"
   height="54mm"
   viewBox="0 0 89.999995 54.000004"
   version="1.1"
   id="svg756">
  <defs
     id="defs750">
    <clipPath
       clipPathUnits="userSpaceOnUse"
       id="clipPath776">
      <path
         d="m 2.76,130.42 h 255.36 v 25.464 H 2.76 Z"
         clip-rule="evenodd"
         id="path774" />
    </clipPath>
    <clipPath
       clipPathUnits="userSpaceOnUse"
       id="clipPath784">
      <path
         d="m 2.76,130.42 h 255.36 v 25.464 H 2.76 Z"
         clip-rule="evenodd"
         id="path782" />
    </clipPath>
    <clipPath
       clipPathUnits="userSpaceOnUse"
       id="clipPath792">
      <path
         d="m 2.76,79.368 h 255.36 v 51.048 H 2.76 Z"
         clip-rule="evenodd"
         id="path790" />
    </clipPath>
    <clipPath
       clipPathUnits="userSpaceOnUse"
       id="clipPath800">
      <path
         d="m 2.76,79.368 h 255.36 v 51.048 H 2.76 Z"
         clip-rule="evenodd"
         id="path798" />
    </clipPath>
    <clipPath
       clipPathUnits="userSpaceOnUse"
       id="clipPath812">
      <path
         d="m 2.76,79.368 h 255.36 v 51.048 H 2.76 Z"
         clip-rule="evenodd"
         id="path810" />
    </clipPath>
    <clipPath
       clipPathUnits="userSpaceOnUse"
       id="clipPath820">
      <path
         d="M 2.76,28.344 H 258.12 V 79.368 H 2.76 Z"
         clip-rule="evenodd"
         id="path818" />
    </clipPath>
    <clipPath
       clipPathUnits="userSpaceOnUse"
       id="clipPath828">
      <path
         d="M 2.76,28.344 H 258.12 V 79.368 H 2.76 Z"
         clip-rule="evenodd"
         id="path826" />
    </clipPath>
    <clipPath
       clipPathUnits="userSpaceOnUse"
       id="clipPath840">
      <path
         d="M 2.76,28.344 H 258.12 V 79.368 H 2.76 Z"
         clip-rule="evenodd"
         id="path838" />
    </clipPath>
    <clipPath
       clipPathUnits="userSpaceOnUse"
       id="clipPath848">
      <path
         d="M 2.76,2.76 H 258.12 V 28.344 H 2.76 Z"
         clip-rule="evenodd"
         id="path846" />
    </clipPath>
    <clipPath
       clipPathUnits="userSpaceOnUse"
       id="clipPath856">
      <path
         d="M 2.76,2.76 H 258.12 V 28.344 H 2.76 Z"
         clip-rule="evenodd"
         id="path854" />
    </clipPath>
  </defs>
  <metadata
     id="metadata753">
    <rdf:RDF>
      <cc:Work
         rdf:about="">
        <dc:format>image/svg+xml</dc:format>
        <dc:type
           rdf:resource="http://purl.org/dc/dcmitype/StillImage" />
        <dc:title></dc:title>
      </cc:Work>
    </rdf:RDF>
  </metadata>
  <g
     id="layer1"
     transform="translate(2.1367526,38.24785)">
    <rect
       style="fill:#e3f8f4;fill-opacity:1;stroke-width:0.802"
       id="rect60"
       width="90"
       height="54"
       x="-2.1367526"
       y="-38.247849" />
    <g
       id="g770"
       transform="matrix(0.35277777,0,0,-0.35277777,-10.481279,-1.0510238)">
      <g
         id="g772"
         clip-path="url(#clipPath776)">
        <g
           id="g778">
          <g
             id="g780"
             clip-path="url(#clipPath784)" />
        </g>
      </g>
    </g>
    <g
       id="g954"
       transform="translate(7.1501079,18.038453)">
      <g
         id="g786"
         transform="matrix(0.35277777,0,0,-0.35277777,-10.481279,-1.0510238)">
        <g
           id="g788"
           clip-path="url(#clipPath792)">
          <g
             id="g794">
            <g
               id="g796"
               clip-path="url(#clipPath800)">
              <g
                 aria-label="我們幫助患者找到治癒之路"
                 transform="matrix(1,0,0,-1,22.32,90.552)"
                 id="text804"
                 style="font-style:normal;font-variant:normal;font-weight:normal;font-stretch:normal;font-size:18.024px;font-family:Iansui;-inkscape-font-specification:'Iansui, Normal';font-variant-ligatures:normal;font-variant-caps:normal;font-variant-numeric:normal;font-variant-east-asian:normal;writing-mode:lr-tb;fill:#0000ff;fill-opacity:1;fill-rule:nonzero;stroke:none">
                <path
                   d="m 14.220936,-9.8411041 q -0.108144,0 -0.27036,-0.1622159 -1.045392,-1.189584 -1.98264,-1.946592 -0.198264,-0.162216 -0.198264,-0.288384 0,-0.162216 0.234312,-0.36048 0.234312,-0.216288 0.396528,-0.216288 0.144192,0 0.757008,0.504672 0.612816,0.486648 1.17156,1.045392 0.576768,0.54072 0.576768,0.666888 0,0.198264 -0.252336,0.486648 -0.252336,0.2703599 -0.432576,0.2703599 z m -2.811744,1.856472 q 0.378504,2.000664 1.099464,3.7129441 0.4506,-0.612816 1.009344,-1.6762321 0.576768,-1.063416 0.576768,-1.44192 l -0.01802,-0.162216 v -0.09012 q 0,-0.18024 0.126168,-0.18024 0.09012,0 0.36048,0.162216 0.27036,0.162216 0.486648,0.378504 0.216288,0.216288 0.216288,0.396528 0,0.108144 -0.05407,0.198264 -1.063416,2.0907841 -2.198928,3.4065361 1.135512,2.144856 2.667552,3.388512 0.0721,0.072096 0.144192,0.072096 0.0721,0 0.126168,-0.108144 0.288384,-0.82910401 0.612816,-2.451264 0.0721,-0.396528 0.162216,-0.594792 0.108144,-0.216288 0.198264,-0.216288 0.216288,0 0.234312,0.919224 0,1.60413599 -0.144192,2.451264 -0.144192,0.847128 -0.378504,1.117488 -0.216288,0.27036 -0.558744,0.27036 -0.829104,0 -1.946592,-1.26168 -1.117488,-1.26168001 -1.964616,-2.757672 -0.775032,0.757008 -1.676232,1.405872 -0.8831759,0.648864 -1.6041359,1.027368 -0.702936,0.378504 -0.919224,0.378504 -0.162216,0 -0.162216,-0.108144 0,-0.198264 0.468624,-0.54072 2.1088079,-1.53204 3.4425839,-3.046056 -0.486648,-1.009344 -0.81108,-2.018688 -0.306408,-1.0273681 -0.63084,-2.5774321 l -3.3885119,0.18024 0.018024,2.6134801 q 1.297728,-0.3965281 2.198928,-0.7209601 0.234312,-0.09012 0.432576,-0.09012 0.27036,0 0.27036,0.162216 0,0.144192 -0.198264,0.306408 -0.198264,0.1441921 -0.81108,0.4325761 -0.612816,0.288384 -1.874496,0.829104 l 0.018024,3.893184 q 0,0.306408 0.018024,0.504672 0.018024,0.198264 0.018024,0.324432 0,0.34245601 -0.306408,0.594792 Q 6.3624721,1.3518 6.1101361,1.3518 5.8217521,1.3518 5.082768,0.86515201 4.343784,0.396528 3.730968,-0.18024 3.118152,-0.77503201 3.118152,-1.063416 q 0,-0.144192 0.18024,-0.144192 0.18024,0 0.486648,0.18024 1.045392,0.612816 2.0186881,0.973296 L 5.7857041,-3.803064 Q 2.919888,-2.79372 2.649528,-2.79372 2.52336,-2.79372 2.234976,-2.97396 1.964616,-3.1542 1.658208,-3.767016 1.62216,-3.821088 1.62216,-3.911208 q 0,-0.09012 0.18024,-0.09012 h 0.216288 q 0.775032,0 3.7670161,-0.81108 l -0.018024,-2.8658161 -3.0460561,0.162216 h -0.36048 q -0.396528,0 -0.54072,-0.09012 -0.18024,-0.162216 -0.306408,-0.378504 -0.126168,-0.234312 -0.162216,-0.468624 l -0.018024,-0.108144 q 0,-0.072096 0.072096,-0.072096 l 0.108144,0.018024 q 0.4506,0.09012 0.72096,0.09012 h 0.144192 l 3.3885121,-0.198264 -0.018024,-2.1088079 q -0.9913201,0.36048 -1.7663521,0.558744 -0.775032,0.18024 -1.009344,0.18024 -0.306408,0 -0.306408,-0.144192 0,-0.18024 0.522696,-0.378504 1.297728,-0.468624 2.9379121,-1.333776 1.658208,-0.883176 1.8024,-1.315752 0.072096,-0.18024 0.162216,-0.18024 0.108144,0 0.288384,0.198264 0.198264,0.18024 0.342456,0.432576 0.144192,0.252336 0.144192,0.4506 0,0.126168 -0.108144,0.234312 -0.09012,0.09012 -0.576768,0.324432 -0.468624,0.216288 -1.315752,0.576768 l 0.018024,2.4512639 3.2262959,-0.18024 Q 9.7690081,-10.976616 9.6067921,-13.24764 q -0.036048,-0.36048 -0.09012,-0.576768 -0.054072,-0.216288 -0.198264,-0.414552 -0.126168,-0.144192 -0.126168,-0.252336 0,-0.108144 0.198264,-0.108144 0.306408,0 0.7930559,0.162216 0.486648,0.144192 0.504672,0.396528 0.252336,3.1542 0.558744,5.0286959 l 3.550728,-0.198264 q 0.378504,-0.036048 0.738984,-0.126168 0.144192,-0.036048 0.198264,-0.036048 0.216288,0 0.558744,0.324432 0.342456,0.306408 0.342456,0.522696 0,0.234312 -0.468624,0.27036 z"
                   id="path885" />
                <path
                   d="m 30.995304,-7.1194801 v 0.162216 q 0,0.414552 -0.288384,0.414552 -0.198264,0 -0.522696,-0.216288 -0.306408,-0.216288 -0.306408,-0.396528 0,-0.108144 0.01802,-0.18024 0.05407,-0.414552 0.05407,-0.865152 l -0.09012,-4.2176159 q 0,-0.594792 -0.162216,-0.973296 -0.05407,-0.144192 -0.05407,-0.216288 0,-0.108144 0.126168,-0.108144 0.252336,0 1.08144,0.36048 l 2.649528,-0.18024 h 0.162216 q 0.234312,0 0.468624,0.198264 0.234312,0.18024 0.234312,0.378504 0,0.0721 -0.05407,0.198264 -0.03605,0.126168 -0.03605,0.18024 V 0.342456 q 0,0.144192 0.01802,0.27036001 0.01802,0.144192 0.01802,0.27036 0,0.34245599 -0.18024,0.54071999 -0.18024,0.198264 -0.396528,0.27036 -0.198264,0.09012 -0.27036,0.09012 -0.324432,0 -1.153536,-0.504672 -0.829104,-0.48664799 -1.53204,-1.08144 -0.702936,-0.594792 -0.702936,-0.86515201 0,-0.126168 0.144192,-0.126168 0.162216,0 0.558744,0.198264 1.063416,0.54072001 2.34312,0.95527201 l 0.03605,-7.5700801 z M 24.596784,-12.1662 q 0,-0.306408 -0.03605,-0.54072 -0.03605,-0.234312 -0.144192,-0.54072 -0.03605,-0.108144 -0.03605,-0.162216 0,-0.09012 0.108144,-0.09012 0.252336,0 1.135512,0.396528 l 2.379168,-0.162216 h 0.0721 q 0.27036,0 0.504672,0.198264 0.234312,0.198264 0.234312,0.36048 0,0.0721 -0.05407,0.216288 -0.05407,0.126168 -0.05407,0.198264 l -0.162216,4.5240239 q 0.36048,0.468624 0.36048,0.63084 0,0.108144 -0.108144,0.144192 -0.108144,0.036048 -0.342456,0.054072 l -2.811744,0.162216 -0.01802,7.9846321 q 0,0.432576 -0.288384,0.432576 -0.162216,0 -0.432576,-0.162216 -0.288384,-0.162216 -0.396528,-0.288384 -0.09012,-0.108144 -0.09012,-0.27035999 0,-0.108144 0.01802,-0.162216 0.09012,-0.57676801 0.09012,-1.06341601 l 0.0721,-11.661528 z m -3.172224,3.8391119 q -0.18024,0.288384 -0.757008,1.027368 -0.558744,0.72096 -1.135512,1.315752 -0.576768,0.594792 -0.829104,0.594792 -0.108144,0 -0.108144,-0.126168 0,-0.198264 0.234312,-0.504672 1.099464,-1.495992 2.036712,-3.24432 0.937248,-1.7483279 1.495992,-3.1361759 0.576768,-1.405872 0.576768,-1.820424 0,-0.0721 -0.03605,-0.288384 l -0.01802,-0.09012 q 0,-0.18024 0.216288,-0.18024 0.27036,0 0.702936,0.27036 0.4506,0.252336 0.4506,0.468624 0,0.09012 -0.05407,0.198264 -0.9012,2.415216 -1.766352,3.9292319 L 22.41588,1.207608 q 0,0.162216 -0.09012,0.252336 -0.09012,0.09012 -0.234312,0.09012 -0.36048,-0.054072 -0.612816,-0.234312 -0.252336,-0.18024 -0.252336,-0.50467199 0,-0.126168 0.01802,-0.198264 Q 21.33444,0.108144 21.33444,-0.36048 Z m 9.516672,-1.53204 0.03605,1.874496 2.180904,-0.108144 v -1.89252 z m -0.05407,-2.6134799 0.03605,1.766352 2.253,-0.144192 V -12.6168 Z m -5.244984,2.9018639 v 1.910544 l 1.910544,-0.126168 0.05407,-1.928568 z m 0,-2.6495279 v 1.766352 l 1.98264,-0.126168 0.03605,-1.766352 z"
                   id="path887" />
                <path
                   d="M 45.534696,-1.946592 V 1.44192 q 0,0.54072 -0.27036,0.54072 -0.09012,0 -0.324432,-0.126168 -0.234312,-0.108144 -0.414552,-0.27036 -0.18024,-0.162216 -0.18024,-0.342456 l 0.01802,-0.144192 q 0.09012,-0.48664799 0.09012,-1.08144 V -1.89252 l -3.388512,0.126168 0.126168,2.000664 v 0.09012 q 0,0.46862401 -0.252336,0.46862401 -0.252336,0 -0.576768,-0.198264 Q 40.0554,0.396528 40.0554,0.108144 V 0.054072 q 0.03605,-0.54072 0.03605,-0.73898401 v -0.234312 L 40.037376,-1.568088 q -0.05407,-0.558744 -0.252336,-0.99132 -0.09012,-0.18024 -0.09012,-0.288384 0,-0.144192 0.18024,-0.144192 0.234312,0 1.099464,0.342456 L 44.453256,-2.79372 V -3.6048 l -2.34312,0.108144 0.01802,0.126168 v 0.036048 q 0,0.144192 -0.09012,0.252336 -0.09012,0.09012 -0.252336,0.09012 -0.27036,0 -0.558744,-0.198264 Q 40.9566,-3.406536 40.9566,-3.658872 V -3.78504 q 0.03605,-0.288384 0.03605,-0.378504 0,-0.162216 -0.05407,-0.432576 l -0.306408,-1.6401841 q -0.09012,-0.504672 -0.306408,-0.847128 -0.09012,-0.126168 -0.09012,-0.198264 0,-0.108144 0.198264,-0.108144 0.27036,0 1.135512,0.234312 l 1.964616,-0.126168 q 0.234312,-0.126168 0.612816,-0.486648 0.396528,-0.36048 0.432576,-0.775032 0,-0.072096 0.01802,-0.09012 -1.694256,0.486648 -3.767016,0.955272 -2.054736,0.4506 -2.43324,0.4506 -0.234312,0 -0.4506,-0.18024 -0.198264,-0.198264 -0.324432,-0.432576 -0.126168,-0.252336 -0.126168,-0.342456 0,-0.072096 0.09012,-0.072096 l 0.0721,0.018024 q 0.324432,0.036048 0.486648,0.036048 0.18024,0 0.955272,-0.072096 0.775032,-0.09012 2.090784,-0.288384 l -0.01802,-0.9012 -1.550064,0.126168 q -0.162216,0.018024 -0.396528,0.018024 -0.306408,0 -0.414552,-0.108144 -0.234312,-0.234312 -0.36048,-0.4506 -0.108144,-0.2162879 -0.108144,-0.2703599 0,-0.0721 0.0721,-0.0721 0.0721,0 0.108144,0.01802 0.27036,0.09012 0.648864,0.09012 h 0.18024 l 1.820424,-0.126168 v -0.162216 q 0,-0.252336 -0.126168,-0.396528 -0.108144,-0.108144 -0.108144,-0.198264 0,-0.108144 0.198264,-0.108144 0.216288,0 0.648864,0.162216 0.216288,0.09012 0.306408,0.18024 0.09012,0.09012 0.09012,0.27036 v 0.18024 l 1.26168,-0.108144 q 0.378504,-0.03605 0.666888,-0.126168 0.216288,-0.0721 0.288384,-0.0721 0.216288,0 0.468624,0.252336 0.27036,0.234312 0.27036,0.4145519 0,0.18024 -0.378504,0.216288 l -2.577432,0.198264 -0.01802,0.81108 q 1.730304,-0.288384 2.991984,-0.54072 0.144192,-0.036048 0.36048,-0.036048 0.288384,0 0.288384,0.126168 0,0.072096 -0.144192,0.18024 -0.144192,0.09012 -0.414552,0.162216 l -0.252336,0.072096 q 0.162216,0.072096 0.378504,0.27036 0.342456,0.324432 0.342456,0.4506 0,0.036048 -0.03605,0.072096 -0.63084,0.468624 -0.937248,0.63084 l 3.69492,-0.27036 0.216288,-0.018024 q 0.306408,0 0.558744,0.234312 0.27036,0.234312 0.27036,0.396528 0,0.054072 -0.05407,0.144192 -0.03605,0.072096 -0.05407,0.126168 L 48.905184,-4.68624 q 0.4506,0.504672 0.4506,0.702936 0,0.108144 -0.126168,0.144192 -0.108144,0.036048 -0.378504,0.054072 l -3.316416,0.144192 v 0.793056 l 3.947256,-0.18024 h 0.18024 q 0.36048,0 0.576768,0.198264 0.234312,0.18024 0.234312,0.414552 0,0.072096 -0.03605,0.198264 -0.01802,0.108144 -0.03605,0.198264 l -0.108144,1.20760799 q -0.01802,0.144192 -0.01802,0.39652801 0,0.288384 -0.03605,0.4506 -0.03605,0.162216 -0.198264,0.306408 -0.144192,0.126168 -0.252336,0.18024 -0.108144,0.072096 -0.234312,0.072096 -0.27036,0 -0.955272,-0.34245601 -0.684912,-0.342456 -1.279704,-0.738984 -0.576768,-0.41455201 -0.576768,-0.576768 0,-0.072096 0.144192,-0.072096 0.18024,0 0.558744,0.108144 0.955272,0.28838399 1.730304,0.41455199 L 49.319736,-2.126832 Z m 1.279704,-9.877152 q -0.18024,0.01802 -0.486648,0.01802 h -0.18024 q -0.378504,-0.03605 -0.522696,-0.18024 l -0.09012,-0.09012 q -0.36048,-0.36048 -0.378504,-0.63084 0,-0.09012 0.108144,-0.09012 0.09012,0 0.144192,0.01802 0.306408,0.0721 0.702936,0.0721 h 0.216288 l 3.280368,-0.162216 v -0.829104 q 0,-0.234312 -0.03605,-0.378504 -0.01802,-0.144192 -0.126168,-0.306408 -0.09012,-0.18024 -0.09012,-0.216288 0,-0.108144 0.162216,-0.108144 0.252336,0 0.684912,0.162216 0.432576,0.162216 0.432576,0.468624 v 1.135512 l 0.738984,-0.05407 q 0.4506,-0.01802 0.847128,-0.162216 0.03605,-0.01802 0.0721,-0.03605 0.05407,-0.01802 0.126168,-0.01802 0.198264,0 0.522696,0.306408 0.324432,0.306408 0.324432,0.522696 0,0.198264 -0.234312,0.198264 l -2.379168,0.144192 0.01802,3.2443199 0.01802,0.54072 q 0,0.36048 -0.216288,0.612816 -0.198264,0.252336 -0.522696,0.252336 -0.234312,0 -0.937248,-0.36048 -0.702936,-0.378504 -1.315752,-0.81108 -0.594792,-0.432576 -0.594792,-0.612816 0,-0.09012 0.18024,-0.09012 0.198264,0 0.54072,0.108144 0.883176,0.306408 1.8024,0.486648 L 49.60812,-11.98596 Z m -8.092776,0.829104 q -0.162216,0.01802 -0.396528,0.01802 -0.252336,0 -0.36048,-0.05407 -0.03605,0 -0.18024,-0.126168 -0.126168,-0.144192 -0.234312,-0.306408 -0.108144,-0.18024 -0.108144,-0.342456 0,-0.0721 0.0721,-0.0721 0.0721,0 0.108144,0.01802 0.306408,0.108144 0.666888,0.108144 h 0.144192 l 2.757672,-0.18024 -0.01802,-0.738984 -1.477968,0.108144 q -0.162216,0.01802 -0.396528,0.01802 -0.306408,0 -0.414552,-0.108144 -0.468624,-0.468624 -0.468624,-0.684912 0,-0.0721 0.0721,-0.0721 0.0721,0 0.108144,0.01802 0.27036,0.09012 0.648864,0.09012 h 0.18024 l 1.748328,-0.126168 v -0.288384 q 0,-0.36048 -0.216288,-0.775032 -0.05407,-0.108144 -0.05407,-0.162216 0,-0.108144 0.162216,-0.108144 0.198264,0 0.63084,0.162216 0.288384,0.108144 0.378504,0.234312 0.108144,0.108144 0.108144,0.36048 v 0.522696 l 0.937248,-0.0721 q 0.378504,-0.03605 0.666888,-0.126168 0.216288,-0.0721 0.27036,-0.0721 0.198264,0 0.468624,0.252336 0.288384,0.252336 0.288384,0.432576 0,0.144192 -0.378504,0.18024 l -2.271024,0.162216 v 0.738984 l 1.676232,-0.108144 q 0.4506,-0.03605 0.757008,-0.162216 0.108144,-0.03605 0.162216,-0.03605 0.18024,0 0.504672,0.27036 0.324432,0.252336 0.324432,0.4506 0,0.162216 -0.378504,0.198264 z m 2.955936,4.5961199 0.09012,0.612816 6.326424,-0.252336 0.126168,-0.702936 z m 0.198264,1.3878481 0.09012,0.684912 5.893848,-0.27036 0.144192,-0.72096 z m 6.434568,-4.4699521 q -0.162216,0 -0.342456,-0.18024 -0.486648,-0.4866479 -1.514016,-1.1715599 -0.18024,-0.126168 -0.18024,-0.216288 0,-0.126168 0.162216,-0.342456 0.18024,-0.234312 0.324432,-0.234312 0.108144,0 0.648864,0.324432 0.54072,0.324432 0.99132,0.684912 0.468624,0.342456 0.468624,0.486648 0,0.1441919 -0.198264,0.3965279 -0.18024,0.252336 -0.36048,0.252336 z"
                   id="path889" />
                <path
                   d="m 62.903856,-3.010008 q 0.108144,-0.036048 0.27036,-0.036048 0.126168,0 0.198264,0.054072 0.09012,0.036048 0.09012,0.108144 0,0.198264 -0.4506,0.414552 -2.180904,0.937248 -4.163544,1.58611199 -1.964616,0.64886401 -3.33444,0.93724801 -0.198264,0 -0.342456,-0.108144 -0.414552,-0.252336 -0.72096,-0.84712801 -0.03605,-0.14419199 -0.03605,-0.16221599 0,-0.126168 0.252336,-0.126168 h 0.126168 q 0.612816,0 1.658208,-0.234312 l -0.09012,-9.696912 q 0,-0.36048 -0.03605,-0.558744 -0.01802,-0.198264 -0.108144,-0.36048 -0.126168,-0.216288 -0.126168,-0.324432 0,-0.126168 0.162216,-0.126168 0.252336,0 1.17156,0.342456 l 3.226296,-0.234312 0.27036,-0.01802 q 0.234312,0 0.468624,0.198264 0.252336,0.198264 0.252336,0.4506 0,0.09012 -0.03605,0.198264 -0.03605,0.108144 -0.03605,0.18024 l -0.0721,8.74164 z m 3.839112,-5.6415121 q -0.504672,3.5687521 -1.766352,5.9298961 -1.243656,2.361144 -3.51468,4.019352 -0.252336,0.18024 -0.432576,0.18024 -0.162216,0 -0.162216,-0.144192 0,-0.162216 0.234312,-0.39652799 1.71228,-1.69425602 2.88384,-3.91120801 1.17156,-2.234976 1.586112,-5.6234881 l -1.550064,0.09012 q -0.468624,0.036048 -0.594792,0.036048 -0.288384,0 -0.486648,-0.216288 -0.198264,-0.234312 -0.432576,-0.648864 -0.05407,-0.108144 -0.05407,-0.162216 0,-0.108144 0.144192,-0.108144 0.0721,0 0.108144,0.018024 0.288384,0.072096 0.738984,0.072096 h 0.216288 l 2.036712,-0.108144 q 0.144192,-1.4419199 0.144192,-3.0460559 v -0.504672 q 0,-0.504672 -0.162216,-0.81108 -0.0721,-0.126168 -0.0721,-0.216288 0,-0.108144 0.198264,-0.108144 0.306408,0 0.793056,0.144192 0.486648,0.126168 0.486648,0.522696 0,1.946592 -0.216288,3.9472559 l 2.469288,-0.144192 h 0.162216 q 0.342456,0 0.594792,0.216288 0.252336,0.198264 0.252336,0.432576 0,0.108144 -0.0721,0.27036 -0.05407,0.162216 -0.05407,0.216288 -0.126168,3.4425841 -0.9012,8.09277609 Q 69.176208,0.252336 68.905848,0.86515201 68.653512,1.495992 68.05872,1.495992 q -0.288384,0 -0.648864,-0.252336 -0.847128,-0.61281599 -1.694256,-1.387848 -0.847128,-0.77503201 -0.847128,-1.009344 0,-0.126168 0.162216,-0.126168 0.162216,0 0.4506,0.162216 0.108144,0.072096 0.324432,0.18023999 0.648864,0.378504 1.045392,0.59479201 0.396528,0.198264 0.919224,0.396528 0.03605,0.018024 0.09012,0.018024 0.108144,0 0.108144,-0.108144 0.432576,-1.387848 0.775032,-3.96528 0.342456,-2.5774321 0.36048,-4.7943841 z m -9.264336,3.9652801 0.01802,3.06408 q 0.9012,-0.198264 2.919888,-0.702936 l 0.01802,-2.52336 z m -0.05407,-6.48864 0.01802,2.2349759 3.010008,-0.162216 v -2.2710239 z m 0.01802,3.2262959 0.01802,2.289048 2.97396,-0.18024 v -2.271024 z"
                   id="path891" />
                <path
                   d="m 81.426552,-4.199592 q 0,0.432576 -0.324432,0.432576 -0.162216,0 -0.378504,-0.108144 -0.486648,-0.198264 -0.486648,-0.594792 0,-0.126168 0.01802,-0.198264 0.0721,-0.396528 0.09012,-0.7029361 l -3.406536,0.1802401 0.01802,0.216288 v 0.072096 q 0,0.306408 -0.342456,0.306408 -0.252336,0 -0.54072,-0.162216 -0.288384,-0.18024 -0.288384,-0.504672 v -0.1081441 q 0.03605,-0.396528 0.03605,-0.522696 0,-0.162216 -0.03605,-0.486648 l -0.126168,-1.063416 q -0.05407,-0.414552 -0.36048,-0.9012 -0.09012,-0.144192 -0.09012,-0.252336 0,-0.126168 0.198264,-0.126168 0.288384,0 1.08144,0.324432 l 3.857136,-0.216288 v -1.189584 l -2.937912,0.162216 0.03605,0.252336 v 0.09012 q 0,0.288384 -0.288384,0.288384 -0.324432,0 -0.594792,-0.18024 -0.27036,-0.18024 -0.27036,-0.486648 v -0.108144 q 0.01802,-0.162216 0.01802,-0.4505999 0,-0.36048 -0.03605,-0.558744 L 76.14552,-11.7156 q -0.05407,-0.4506 -0.36048,-0.919224 -0.108144,-0.18024 -0.108144,-0.252336 0,-0.144192 0.234312,-0.144192 0.342456,0 1.063416,0.288384 l 3.370488,-0.198264 V -13.518 q 0,-0.414552 -0.216288,-0.757008 -0.09012,-0.18024 -0.09012,-0.234312 0,-0.162216 0.234312,-0.162216 0.216288,0 0.612816,0.144192 0.342456,0.144192 0.432576,0.252336 0.108144,0.108144 0.108144,0.324432 v 0.937248 l 3.262344,-0.198264 q 0.126168,-0.01802 0.324432,-0.01802 0.342456,0 0.576768,0.252336 0.252336,0.234312 0.252336,0.432576 0,0.09012 -0.0721,0.18024 -0.05407,0.0721 -0.0721,0.108144 l -0.288384,1.315752 q 0.378504,0.486648 0.378504,0.648864 0,0.126168 -0.126168,0.162216 -0.126168,0.03605 -0.414552,0.05407 l -3.821088,0.2162879 v 1.17156 l 3.87516,-0.216288 h 0.306408 q 0.306408,0 0.486648,0.144192 0.198264,0.126168 0.27036,0.288384 0.09012,0.162216 0.09012,0.216288 0,0.09012 -0.0721,0.162216 -0.05407,0.072096 -0.0721,0.108144 l -0.288384,1.423896 q 0.396528,0.468624 0.396528,0.666888 0,0.126168 -0.144192,0.18024 -0.126168,0.036048 -0.414552,0.054072 l -4.433904,0.234312 z M 86.05872,0.91922401 Q 85.770336,1.153536 85.229616,1.243656 q -0.54072,0.09012 -1.694256,0.09012 -1.297728,0 -2.451264,-0.198264 Q 79.948584,0.93724801 79.227624,0.504672 78.416544,0.018024 77.911872,-0.82910401 77.425224,-1.676232 77.208936,-2.415216 q -0.216288,-0.738984 -0.216288,-0.9012 0,-0.234312 0.234312,-0.306408 0.252336,-0.09012 0.432576,-0.09012 0.162216,0 0.252336,0.09012 0.09012,0.09012 0.144192,0.306408 0.288384,1.225632 0.81108,1.98264 0.522696,0.75700799 1.53204,1.153536 1.027368,0.396528 2.775696,0.396528 1.550064,0 1.550064,-0.162216 l -0.03605,-0.108144 q -0.162216,-0.414552 -0.4506,-1.225632 -0.27036,-0.829104 -0.27036,-1.17156 0,-0.27036 0.162216,-0.27036 0.09012,0 0.216288,0.126168 0.126168,0.108144 0.234312,0.342456 0.522696,0.937248 1.423896,2.126832 0.306408,0.414552 0.306408,0.63084 0,0.21628801 -0.252336,0.41455201 z M 81.426552,-7.8043921 v 1.495992 l 3.532704,-0.198264 0.216288,-1.495992 z m -4.77636,0.27036 0.18024,1.477968 3.51468,-0.198264 v -1.477968 z M 74.43324,0.504672 q -0.198264,0.30640801 -0.396528,0.30640801 -0.05407,0 -0.252336,-0.09012 -0.18024,-0.09012 -0.342456,-0.23431201 -0.162216,-0.144192 -0.162216,-0.306408 0,-0.108144 0.144192,-0.342456 1.045392,-1.53204 1.694256,-3.42456 0.108144,-0.324432 0.324432,-0.324432 0.198264,0 0.432576,0.126168 0.234312,0.108144 0.234312,0.288384 0,0.054072 -0.03605,0.234312 -0.288384,0.919224 -0.738984,1.928568 -0.432576,1.009344 -0.9012,1.838448 z m 13.950576,-1.18958401 q -0.162216,0 -0.36048,-0.252336 -1.207608,-1.42389599 -2.43324,-2.46928799 -0.234312,-0.216288 -0.234312,-0.342456 0,-0.144192 0.162216,-0.324432 0.216288,-0.252336 0.378504,-0.252336 0.18024,0 0.973296,0.648864 0.81108,0.648864 1.514016,1.3518 0.702936,0.702936 0.702936,0.919224 0,0.162216 -0.27036,0.45059999 -0.252336,0.27036 -0.432576,0.27036 z M 77.13684,-11.841768 l 0.162216,1.333776 3.046056,-0.18024 v -1.333776 z m 4.289712,-0.252336 v 1.3518 l 2.919888,-0.18024 0.216288,-1.3518 z m 0.63084,11.15685599 q -0.144192,0 -0.342456,-0.25233599 -0.793056,-0.99132 -1.730304,-1.748328 -0.27036,-0.216288 -0.27036,-0.36048 0,-0.108144 0.144192,-0.306408 0.162216,-0.216288 0.36048,-0.216288 0.144192,0 0.324432,0.162216 0.757008,0.558744 1.459944,1.17156 0.72096,0.612816 0.72096,0.847128 0,0.126168 -0.252336,0.414552 -0.234312,0.28838399 -0.414552,0.28838399 z"
                   id="path893" />
                <path
                   d="m 96.93924,1.405872 v 0.054072 q 0,0.414552 -0.324432,0.414552 -0.306408,0 -0.63084,-0.198264 Q 95.67756,1.477968 95.67756,1.135512 l 0.01802,-0.126168 q 0.05407,-0.39652799 0.05407,-0.829104 v -0.252336 l -0.216288,-4.14552 q -2.180904,1.207608 -4.59612,2.271024 -0.27036,0.108144 -0.432576,0.108144 -0.18024,0 -0.18024,-0.108144 0,-0.198264 0.432576,-0.432576 2.52336,-1.423896 4.524024,-2.7036 2.018688,-1.2797041 3.730968,-2.6495281 l -6.48864,0.36048 -0.486648,0.018024 q -0.378504,0 -0.63084,-0.18024 -0.234312,-0.18024 -0.342456,-0.396528 -0.108144,-0.234312 -0.108144,-0.36048 0,-0.126168 0.108144,-0.126168 0.0721,0 0.108144,0.018024 0.396528,0.09012 0.81108,0.09012 h 0.18024 l 5.929896,-0.342456 v -2.2169519 l -2.505336,0.162216 q -0.18024,0.01802 -0.4506,0.01802 -0.396528,0 -0.504672,-0.108144 -0.414552,-0.36048 -0.522696,-0.648864 -0.03605,-0.0721 -0.03605,-0.18024 0,-0.09012 0.108144,-0.09012 0.0721,0 0.126168,0.01802 0.306408,0.0721 0.666888,0.0721 l 0.27036,-0.01802 2.847792,-0.18024 v -1.89252 q 0,-0.396528 -0.252336,-0.793056 -0.0721,-0.126168 -0.0721,-0.198264 0,-0.144192 0.234312,-0.144192 0.306408,0 0.775032,0.18024 0.486648,0.162216 0.486648,0.522696 v 2.271024 l 1.351804,-0.09012 q 0.43257,-0.03605 0.72096,-0.144192 0.10814,-0.03605 0.18024,-0.03605 0.18024,0 0.55874,0.306408 0.39653,0.306408 0.39653,0.522696 0,0.18024 -0.43258,0.216288 l -2.793718,0.162216 v 2.2169519 l 1.009348,-0.054072 q 1.78437,-1.5861119 3.10012,-3.3524639 0.27036,-0.36048 0.27036,-0.81108 0,-0.288384 0.19827,-0.288384 0.25233,0 0.66689,0.378504 0.43257,0.378504 0.43257,0.576768 0,0.234312 -0.88317,1.243656 -0.86516,0.99132 -2.07276,2.1628799 l 3.38851,-0.198264 q 0.48665,-0.036048 0.93725,-0.18024 0.036,-0.018024 0.14419,-0.018024 0.19826,0 0.59479,0.342456 0.41455,0.324432 0.41455,0.522696 0,0.198264 -0.4506,0.234312 l -6.20025,0.342456 q -1.24366,1.045392 -2.613484,1.964616 l 4.433904,-0.234312 h 0.16222 q 0.25233,0 0.41455,0.144192 0.18024,0.126168 0.27036,0.306408 0.10814,0.162216 0.10814,0.234312 0,0.072096 -0.0541,0.1982641 -0.0541,0.126168 -0.0541,0.198264 l -0.30641,4.704264 q 0.48665,0.63084 0.48665,0.86515201 0,0.126168 -0.10815,0.162216 -0.10814,0.036048 -0.25233,0.036048 -0.14419,0.018024 -0.19827,0.018024 l -6.164204,0.162216 z m -0.18024,-3.460608 0.108144,1.98264 5.208936,-0.144192 0.0901,-2.054736 z m -0.144192,-2.739648 0.09012,1.748328 5.515342,-0.216288 0.0721,-1.8024 z"
                   id="path895" />
                <path
                   d="m 119.17488,-8.2730161 q 0.34246,1.910544 0.88318,3.4245601 1.00934,-1.1174881 1.71228,-2.3070721 0.16221,-0.252336 0.16221,-0.648864 v -0.072096 q 0,-0.27036 0.14419,-0.27036 0.0721,0 0.34246,0.162216 0.27036,0.162216 0.48665,0.396528 0.23431,0.216288 0.23431,0.432576 0,0.252336 -1.09946,1.550064 -1.08144,1.2977281 -1.53204,1.7483281 0.61281,1.17156 1.29772,2.054736 0.70294,0.88317599 1.26168,1.369824 0.57677,0.468624 0.72096,0.468624 0.10815,0 0.16222,-0.162216 0.30641,-0.79305601 0.73898,-2.451264 l 0.10815,-0.414552 q 0.0901,-0.324432 0.19826,-0.504672 0.12617,-0.18024 0.21629,-0.18024 0.0901,0 0.14419,0.144192 0.0541,0.126168 0.0541,0.378504 0,0.162216 -0.018,0.252336 -0.16222,1.856472 -0.32443,2.757672 -0.14419,0.90120001 -0.36048,1.225632 -0.21629,0.324432 -0.57677,0.324432 -1.26168,0 -2.50534,-1.53204 -1.22563,-1.53204 -1.94659,-2.955936 -0.84713,0.72096 -1.85647,1.315752 -0.99132,0.576768 -1.78438,0.91922399 -0.79305,0.32443201 -1.00934,0.32443201 -0.18024,0 -0.18024,-0.10814401 0,-0.126168 0.32443,-0.342456 2.61348,-1.65820799 4.0554,-3.04605599 -0.77503,-1.8204241 -1.13551,-4.0914481 l -2.03671,0.324432 q -0.25234,0.036048 -0.34246,0.036048 -0.28838,0 -0.48665,-0.198264 -0.19826,-0.198264 -0.39652,-0.54072 l -0.0361,-0.108144 q 0,-0.126168 0.16221,-0.126168 h 0.036 q 0.10815,0.018024 0.30641,0.018024 0.27036,0 0.59479,-0.054072 l 2.03671,-0.324432 q -0.10814,-0.738984 -0.16221,-1.3157519 -0.0541,-0.594792 -0.10815,-1.009344 -0.0541,-0.468624 -0.12616,-0.99132 -0.0541,-0.54072 -0.12617,-1.153536 -0.0721,-0.504672 -0.4506,-0.829104 -0.0901,-0.05407 -0.0901,-0.108144 0,-0.126168 0.3785,-0.126168 1.17156,0 1.22563,0.558744 0.12617,1.099464 0.19827,1.856472 0.23431,2.090784 0.34245,2.9559359 l 3.64085,-0.558744 q 0.28839,-0.054072 0.54072,-0.162216 0.10815,-0.054072 0.19827,-0.054072 0.25233,0 0.54072,0.2883839 0.3064,0.27036 0.3064,0.432576 0,0.252336 -0.46862,0.306408 z m -6.8311,3.6768961 q -0.93724,0.468624 -1.7303,0.793056 -0.79306,0.324432 -0.9733,0.324432 -0.21628,0 -0.4506,-0.162216 -0.21628,-0.18024 -0.3785,-0.396528 -0.14419,-0.234312 -0.14419,-0.378504 0,-0.036048 0.0541,-0.054072 0.0721,-0.018024 0.18024,-0.018024 0.4506,-0.018024 1.60414,-0.414552 1.17156,-0.414552 1.85647,-0.7029361 l 0.018,-3.550728 -1.82042,0.126168 q -0.18024,0.018024 -0.43258,0.018024 -0.32443,0 -0.52269,-0.144192 -0.18024,-0.162216 -0.37851,-0.594792 -0.036,-0.054072 -0.036,-0.144192 0,-0.1081439 0.12617,-0.1081439 l 0.10815,0.018024 q 0.36048,0.036048 0.48664,0.036048 l 0.41456,-0.018024 2.05473,-0.1441919 0.018,-3.046056 q 0,-0.612816 -0.27036,-0.937248 -0.0721,-0.0721 -0.0721,-0.144192 0,-0.0721 0.16222,-0.0721 0.3064,0 0.77503,0.144192 0.48665,0.144192 0.48665,0.594792 l -0.018,3.388512 0.99132,-0.0721 q 0.36048,-0.03605 0.64887,-0.126168 0.14419,-0.03605 0.21628,-0.03605 0.18024,0 0.50468,0.306408 0.34245,0.2883839 0.34245,0.4866479 0,0.198264 -0.41455,0.234312 l -2.28905,0.162216 -0.018,3.190248 2.07276,-0.937248 q 0.32443,-0.144192 0.46862,-0.144192 0.16222,0 0.16222,0.108144 0,0.252336 -1.08144,0.919224 -1.08144,0.666888 -1.64019,0.9372481 l -0.018,5.04672 0.018,0.54072 q 0,0.45060001 -0.3064,0.684912 -0.28839,0.252336 -0.55875,0.252336 -0.27036,0 -0.93725,-0.50467199 -0.66688,-0.50467201 -1.24365,-1.08144001 -0.55875,-0.59479201 -0.55875,-0.81108 0,-0.108144 0.12617,-0.108144 0.16222,0 0.4506,0.18023999 Q 111.47863,-0.288384 112.32576,0 Z m 9.66087,-5.695584 q -0.14419,0 -0.39653,-0.306408 -0.95527,-1.225632 -1.98264,-2.07276 -0.27036,-0.234312 -0.27036,-0.36048 0,-0.108144 0.19826,-0.306408 0.19827,-0.216288 0.39653,-0.216288 0.16222,0 0.39653,0.198264 0.3785,0.306408 1.33378,1.225632 0.97329,0.919224 0.97329,1.17156 0,0.198264 -0.25233,0.432576 -0.23432,0.234312 -0.39653,0.234312 z"
                   id="path897" />
                <path
                   d="m 132.03804,-11.877816 q -1.26168,2.5954559 -2.1809,3.6408479 1.56808,-0.198264 3.71294,-0.612816 l -0.48665,-0.576768 q -0.018,-0.018024 -0.34245,-0.396528 -0.18024,-0.1982639 -0.18024,-0.3424559 0,-0.162216 0.12616,-0.288384 0.1442,-0.126168 0.28839,-0.18024 0.14419,-0.0721 0.19826,-0.09012 0.21629,0 0.86515,0.7750319 0.64887,0.775032 1.24366,1.658208 0.61282,0.883176 0.61282,1.063416 0,0.18024 -0.28839,0.396528 -0.28838,0.216288 -0.48665,0.216288 -0.23431,0 -0.41455,-0.396528 -0.23431,-0.486648 -0.57677,-1.045392 -2.07276,0.468624 -3.83911,0.684912 -0.19826,0.036048 -0.34245,0.072096 -0.1442,0.036048 -0.25234,0.054072 -0.14419,0.018024 -0.3785,0.072096 -0.21629,0.036048 -0.32444,0.036048 -0.21628,0 -0.55874,-0.27036 -0.34246,-0.27036 -0.32443,-0.414552 0.018,-0.126168 0.14419,-0.198264 0.25234,-0.144192 0.39653,-0.27036 0.16221,-0.144192 0.39653,-0.468624 0.64886,-1.027368 1.00934,-1.6762319 0.36048,-0.666888 0.66689,-1.369824 l -1.96462,0.126168 h -0.19826 q -0.36048,0 -0.59479,-0.162216 -0.18024,-0.162216 -0.30641,-0.414552 -0.10815,-0.252336 -0.10815,-0.396528 0,-0.09012 0.0901,-0.09012 l 0.0901,0.01802 q 0.46863,0.0721 0.70294,0.0721 h 0.14419 l 6.05607,-0.378504 q 0.25233,-0.01802 0.54072,-0.108144 0.0541,-0.01802 0.18024,-0.01802 0.21628,0 0.50467,0.288384 0.28838,0.288384 0.28838,0.504672 0,0.216288 -0.41455,0.252336 z m 8.77769,-1.62216 q 0,-0.396528 -0.27036,-0.81108 -0.0721,-0.126168 -0.0721,-0.198264 0,-0.162216 0.23431,-0.162216 0.25234,0 0.70294,0.162216 0.3785,0.144192 0.48665,0.27036 0.10814,0.108144 0.10814,0.306408 l -0.0361,14.32908 0.018,0.48664801 q 0,0.50467199 -0.27036,0.77503199 -0.27036,0.27036 -0.55875,0.27036 -0.28838,0 -1.08144,-0.54072 -0.77503,-0.52269599 -1.45994,-1.135512 -0.68491,-0.612816 -0.68491,-0.81108001 0,-0.126168 0.16221,-0.126168 0.18024,0 0.43258,0.126168 1.26168,0.66688801 2.253,0.99132001 z m -8.6335,12.058056 q 1.55007,-0.414552 3.31642,-0.955272 0.23431,-0.072096 0.43257,-0.072096 0.1442,0 0.21629,0.054072 0.0901,0.036048 0.0901,0.108144 0,0.09012 -0.12617,0.216288 -0.12616,0.108144 -0.36048,0.198264 -2.77569,1.11748799 -5.15486,1.89252 -2.36114,0.77503201 -2.68558,0.77503201 -0.25233,0 -0.48664,-0.234312 -0.21629,-0.21628801 -0.36048,-0.50467201 -0.1442,-0.27036 -0.1442,-0.342456 0,-0.126168 0.18024,-0.126168 h 0.0901 q 0.10815,0 0.21629,0.018024 0.12617,0.018024 0.23431,0.018024 0.18024,0 0.99132,-0.14419201 0.82911,-0.162216 2.43324,-0.59479199 l 0.018,-2.79372 -1.94659,0.108144 h -0.21629 q -0.41455,0 -0.61282,-0.18024 -0.18024,-0.162216 -0.30641,-0.432576 -0.12616,-0.27036 -0.12616,-0.36048 0,-0.072096 0.0901,-0.072096 0.018,0 0.19826,0.036048 0.32443,0.054072 0.63084,0.054072 h 0.23431 l 2.07276,-0.108144 v -1.2797041 q 0,-0.342456 -0.19826,-0.684912 -0.0721,-0.09012 -0.0721,-0.162216 0,-0.144192 0.25234,-0.144192 0.32443,0 0.73898,0.162216 0.41455,0.144192 0.41455,0.414552 l -0.018,1.6582081 1.60414,-0.09012 q 0.41455,-0.036048 0.63084,-0.108144 0.14419,-0.054072 0.23431,-0.054072 0.21629,0 0.54072,0.288384 0.32443,0.288384 0.32443,0.504672 0,0.234312 -0.4506,0.27036 l -2.88384,0.144192 z m 4.99265,-8.975952 q 0,-0.414552 -0.21629,-0.757008 -0.0721,-0.126168 -0.0721,-0.216288 0,-0.144192 0.19826,-0.144192 0.21629,0 0.64886,0.162216 0.36048,0.126168 0.4506,0.234312 0.10815,0.108144 0.10815,0.342456 l 0.0541,8.074752 q 0,0.432576 -0.36048,0.432576 -0.30641,0 -0.59479,-0.216288 -0.28839,-0.234312 -0.28839,-0.558744 0,-0.144192 0.018,-0.216288 0.0721,-0.342456 0.0721,-0.955272 z"
                   id="path899" />
                <path
                   d="m 152.75966,1.315752 v 0.09012 q 0,0.378504 -0.28838,0.378504 -0.0901,-0.018024 -0.34246,-0.09012 -0.25233,-0.072096 -0.48664,-0.252336 -0.23432,-0.162216 -0.23432,-0.396528 l 0.018,-0.12616799 q 0.0541,-0.27036 0.0541,-0.59479201 0,-0.27036 -0.018,-0.432576 L 151.2096,-3.78504 q -0.036,-0.612816 -0.21629,-1.009344 -0.0901,-0.18024 -0.0901,-0.288384 0,-0.126168 0.18024,-0.126168 0.32443,0 1.24366,0.324432 l 6.14618,-0.288384 h 0.12617 q 0.36048,0 0.63084,0.252336 0.28838,0.234312 0.28838,0.4506 0,0.108144 -0.0721,0.252336 -0.0721,0.126168 -0.0721,0.18024 l -0.50467,3.46060799 Q 159.3204,0 159.3204,0.252336 q 0,0.252336 -0.50467,0.252336 l -6.11014,0.16221601 z m -0.23431,-8.0026561 q -0.21629,0.036048 -0.39653,0.09012 -0.18024,0.036048 -0.32443,0.072096 -0.46862,0.126168 -0.59479,0.126168 -0.23431,0 -0.54072,-0.306408 -0.28838,-0.324432 -0.28838,-0.54072 0,-0.162216 0.16221,-0.27036 0.27036,-0.18024 0.41455,-0.306408 0.16222,-0.144192 0.39653,-0.522696 2.7757,-4.7222879 2.7757,-5.4612719 0,-0.162216 -0.0541,-0.342456 l -0.018,-0.108144 q 0,-0.144192 0.16222,-0.144192 0.12617,0 0.43257,0.144192 0.32444,0.126168 0.57677,0.324432 0.27036,0.18024 0.27036,0.342456 0,0.09012 -0.43257,0.937248 -0.43258,0.829104 -1.18959,2.144856 -0.73898,1.2977279 -1.67623,2.7576719 3.40654,-0.36048 5.96594,-0.775032 -0.52269,-0.702936 -1.36982,-1.6582079 -0.25234,-0.288384 -0.25234,-0.432576 0,-0.162216 0.25234,-0.324432 0.27036,-0.18024 0.3785,-0.18024 0.18024,0 0.41456,0.252336 1.09946,1.1715599 2.19892,2.5594079 1.11749,1.387848 1.11749,1.658208 0,0.18024 -0.30641,0.4506 -0.28838,0.27036 -0.50467,0.27036 -0.19826,0 -0.41455,-0.342456 -0.46862,-0.738984 -0.88318,-1.369824 -3.9112,0.684912 -6.27235,0.955272 z m -0.14419,2.8297681 0.25234,3.478632 5.08276,-0.16221601 0.39653,-3.55072799 z m -6.14618,4.72228801 q -0.27036,0 -0.54072,-0.126168 -0.25234,-0.126168 -0.43258,-0.30640801 -0.16222,-0.162216 -0.16222,-0.234312 0,-0.09012 0.1442,-0.162216 0.18024,-0.09012 0.3785,-0.252336 0.19826,-0.162216 0.32443,-0.36048001 1.69426,-2.37916799 2.91989,-4.68623999 0.30641,-0.5407201 0.50467,-0.5407201 0.12617,0 0.12617,0.234312 0,0.18024 -0.10814,0.5407201 -0.79306,2.325096 -2.36115,5.100792 -0.27036,0.46862401 -0.41455,0.63084001 -0.12617,0.162216 -0.32443,0.162216 z m 3.82108,-11.98596001 q 0,0.216288 -0.28838,0.468624 -0.27036,0.252336 -0.43258,0.252336 -0.14419,0 -0.34245,-0.216288 -0.95527,-1.153536 -2.10881,-2.108808 -0.23431,-0.18024 -0.23431,-0.36048 0,-0.126168 0.18024,-0.36048 0.18024,-0.234312 0.39653,-0.234312 0.19826,0 0.88317,0.576768 0.70294,0.558744 1.31575,1.189584 0.63084,0.63084 0.63084,0.793056 z m -2.23497,4.5059999 q -0.14419,0 -0.32443,-0.18024 -1.17156,-1.117488 -2.36115,-1.910544 -0.23431,-0.162216 -0.23431,-0.306408 0,-0.126168 0.16222,-0.378504 0.16221,-0.27036 0.36048,-0.27036 0.34245,0 2.77569,1.856472 0.28839,0.234312 0.28839,0.396528 0,0.198264 -0.25234,0.504672 -0.23431,0.288384 -0.41455,0.288384 z"
                   id="path901" />
                <path
                   d="m 168.50666,-7.9485841 q -1.13551,0.486648 -1.40587,0.486648 -0.14419,2.8297681 -0.86515,4.8484561 -0.72096,2.01868799 -1.55006,3.06408 -0.81108,1.063416 -1.15354,1.063416 -0.12617,0 -0.12617,-0.126168 0,-0.162216 0.18024,-0.45059999 0.86515,-1.40587201 1.44192,-3.06408001 0.59479,-1.676232 0.81108,-3.3524641 -0.52269,0.6308401 -1.18958,1.2797041 -0.66689,0.648864 -0.99132,0.648864 -0.28839,0 -0.68491,-0.288384 -0.39653,-0.288384 -0.39653,-0.432576 0,-0.072096 0.19826,-0.162216 0.34246,-0.09012 1.22563,-0.666888 0.9012,-0.5767681 1.9466,-1.4058721 0.12616,-1.514016 0.12616,-3.24432 0,-1.4238959 -0.0721,-1.9826399 -0.0541,-0.576768 -0.16222,-0.829104 -0.12617,-0.288384 -0.12617,-0.36048 0,-0.126168 0.16222,-0.126168 0.28838,0 1.31575,0.414552 l 5.0287,-0.288384 q -0.39653,-0.486648 -1.27971,-1.26168 -0.10814,-0.09012 -0.10814,-0.18024 0,-0.09012 0.16222,-0.288384 0.16221,-0.216288 0.3064,-0.216288 0.12617,0 0.61282,0.36048 0.48665,0.36048 0.9012,0.775032 0.41455,0.396528 0.41455,0.54072 0,0.108144 -0.0541,0.216288 l 3.5327,-0.216288 q 0.4506,-0.03605 0.81108,-0.162216 0.036,-0.01802 0.12617,-0.01802 0.21629,0 0.4506,0.162216 0.23431,0.144192 0.37851,0.342456 0.16221,0.198264 0.16221,0.288384 0,0.162216 -0.36048,0.198264 l -5.28103,0.324432 q 0.18024,0.05407 0.34246,0.252336 0.18024,0.18024 0.21628,0.27036 l 0.018,0.05407 q 0.0361,0.108144 0.0361,0.108144 0,0.05407 -0.0541,0.108144 l -0.0901,0.09012 q 1.33378,0.847128 2.50534,1.3878479 1.18958,0.54072 3.26234,1.315752 0.23432,0.072096 0.23432,0.216288 0,0.162216 -0.32444,0.4506 -0.3064,0.288384 -0.46862,0.288384 l -0.0541,-0.018024 q -1.83845,-0.757008 -3.06408,-1.405872 -1.22563,-0.648864 -2.73965,-1.6762319 -0.86515,0.7209599 -1.89252,1.3698239 0.0721,0 0.10814,0.018024 0.36048,0.072096 0.54072,0.072096 h 0.12617 l 1.82043,-0.126168 q 0.32443,-0.018024 0.48664,-0.09012 0.0721,-0.036048 0.12617,-0.036048 0.21629,0 0.48665,0.252336 0.27036,0.234312 0.27036,0.36048 0,0.198264 -0.36048,0.234312 l -2.61348,0.18024 -0.30641,0.018024 q -0.36048,0 -0.59479,-0.27036 -0.21629,-0.288384 -0.21629,-0.486648 v -0.036048 q -1.44192,0.829104 -2.28905,1.207608 z m -1.33377,-2.8117439 q 0,1.5500639 -0.0541,2.9559359 0.23431,-0.18024 0.3064,-0.216288 1.83845,-1.099464 2.91989,-1.838448 1.08144,-0.7570079 2.01869,-1.7122799 0.18024,-0.27036 0.21629,-0.414552 l 0.018,-0.05407 -5.42522,0.324432 z m 9.85913,11.98596 q -0.25234,0.198264 -0.48665,0.27036 -0.23431,0.09012 -0.68491,0.126168 -0.43258,0.036048 -1.3518,0.036048 -1.89252,0 -3.04606,-0.558744 -0.70294,-0.32443199 -1.13551,-0.883176 -0.41455,-0.54072 -0.61282,-1.02736801 -0.18024,-0.48664799 -0.18024,-0.61281599 0,-0.216288 0.21629,-0.288384 0.21629,-0.09012 0.36048,-0.09012 0.16222,0 0.27036,0.09012 0.12617,0.072096 0.16222,0.216288 0.39652,1.225632 1.31575,1.730304 0.93725,0.50467201 2.55941,0.50467201 0.8291,0 1.09946,-0.036048 0.28838,-0.036048 0.28838,-0.144192 l -0.018,-0.072096 q -0.39653,-0.973296 -0.55874,-1.36982401 -0.1442,-0.39652799 -0.1442,-0.48664799 0,-0.198264 0.1442,-0.198264 0.21628,0 0.52269,0.468624 0.61282,0.9012 1.13551,1.459944 0.30641,0.30640801 0.30641,0.55874401 0,0.19826399 -0.16221,0.30640799 z m -0.72096,-8.4712801 q 0,-0.342456 -0.1442,-0.594792 -0.0541,-0.09012 -0.0541,-0.162216 0,-0.126168 0.21629,-0.126168 0.25234,0 0.59479,0.108144 0.36048,0.108144 0.36048,0.324432 l 0.0541,4.1094721 0.018,0.504672 q 0,0.486648 -0.23431,0.648864 -0.21629,0.144192 -0.41456,0.144192 -0.3064,0 -0.9012,-0.288384 -0.59479,-0.288384 -1.09946,-0.648864 -0.48665,-0.36048 -0.48665,-0.522696 0,-0.126168 0.19827,-0.126168 0.18024,0 0.46862,0.108144 0.72096,0.288384 1.45994,0.36048 z m -10.48997,-0.306408 q 0,0.234312 -0.28839,0.396528 -0.28838,0.162216 -0.46862,0.162216 -0.25234,0 -0.39653,-0.396528 -0.52269,-1.315752 -1.11749,-2.198928 -0.12616,-0.18024 -0.12616,-0.306408 0,-0.1622159 0.25233,-0.3244319 0.25234,-0.162216 0.37851,-0.162216 0.14419,0 0.55874,0.6308399 0.41455,0.63084 0.81108,1.369824 0.39653,0.72096 0.39653,0.829104 z m 1.49599,8.7596641 q -0.14419,0 -0.41455,-0.18024 -0.25234,-0.16221599 -0.25234,-0.36047999 0,-0.108144 0.12617,-0.30640801 0.68491,-0.97329601 1.13551,-2.198928 0.0541,-0.126168 0.10815,-0.18024 0.0541,-0.072096 0.16221,-0.072096 0.18024,0 0.39653,0.108144 0.23431,0.108144 0.23431,0.27036 0,0.162216 -0.30641,0.91922399 -0.28838,0.73898401 -0.64886,1.36982402 -0.34246,0.63083999 -0.54072,0.63083999 z m 6.6869,-5.983968 q 0,-0.162216 0.018,-0.378504 0.0361,-0.2343121 0.0361,-0.4145521 l -0.018,-1.063416 q 0,-0.378504 -0.14419,-0.648864 -0.0541,-0.09012 -0.0541,-0.144192 0,-0.144192 0.23431,-0.144192 0.27036,0 0.57677,0.126168 0.32443,0.108144 0.32443,0.396528 l 0.036,2.5413841 q 0,0.324432 -0.23431,0.324432 -0.23432,0 -0.50468,-0.126168 -0.27036,-0.126168 -0.27036,-0.342456 z m 5.06475,5.028696 q -0.23431,0.32443201 -0.43258,0.32443201 -0.14419,0 -0.32443,-0.21628801 -0.79306,-1.04539201 -1.56809,-1.694256 -0.18024,-0.162216 -0.18024,-0.27036 0,-0.126168 0.19827,-0.324432 0.19826,-0.216288 0.32443,-0.216288 0.0721,0 0.25233,0.126168 1.20761,0.973296 1.55007,1.36982399 0.34245,0.37850401 0.34245,0.54072001 0,0.144192 -0.16221,0.36048 z m -5.28103,-0.4506 q -0.1442,0 -0.34246,-0.216288 -0.55874,-0.612816 -1.26168,-1.207608 -0.10814,-0.108144 -0.10814,-0.198264 0,-0.126168 0.14419,-0.324432 0.16221,-0.216288 0.32443,-0.216288 0.12617,0 0.57677,0.342456 0.4506,0.324432 0.8291,0.702936 0.39653,0.37850399 0.39653,0.50467199 0,0.108144 -0.18024,0.36048001 -0.18024,0.252336 -0.3785,0.252336 z m -3.94726,-4.848456 2.10881,-0.09012 v -0.6128161 l -2.01869,0.09012 q -0.0361,0.3424561 -0.0721,0.5226961 z m -1.83845,2.667552 q 0,-0.144192 0.0721,-0.306408 0.36048,-0.684912 0.52269,-1.153536 0.18024,-0.486648 0.27036,-1.153536 0.0901,-0.6668881 0.0901,-1.7483281 0,-0.36048 -0.018,-0.594792 0,-0.234312 -0.0541,-0.36048 -0.0901,-0.09012 -0.0901,-0.216288 0,-0.036048 0.0541,-0.072096 0.0541,-0.036048 0.10814,-0.036048 0.46863,0 1.0454,0.288384 l 2.12683,-0.126168 h 0.12617 q 0.23431,0 0.43257,0.162216 0.21629,0.162216 0.21629,0.342456 0,0.072096 -0.036,0.144192 -0.018,0.054072 -0.018,0.144192 l 0.018,3.3344401 0.018,0.486648 q 0,0.288384 -0.21629,0.558744 -0.19827,0.252336 -0.50467,0.252336 -0.27036,0 -0.79306,-0.252336 -0.50467,-0.27036 -0.91922,-0.576768 -0.41456,-0.324432 -0.41456,-0.468624 0,-0.108144 0.18024,-0.108144 0.16222,0 0.43258,0.108144 0.55874,0.198264 1.29773,0.306408 v -1.009344 l -2.30707,0.108144 q -0.28839,0.9012 -0.73899,1.459944 -0.4506,0.558744 -0.79305,0.576768 -0.10815,0 -0.10815,-0.09012 z m 3.94726,-4.0554001 v -0.63084 l -1.98264,0.108144 q 0,0.432576 -0.018,0.648864 z"
                   id="path903" />
                <path
                   d="m 193.26566,-10.291704 q 0.16222,-0.01802 0.41456,-0.01802 0.34245,0 0.63084,0.27036 0.3064,0.2523359 0.3064,0.5407199 0,0.216288 -0.3064,0.486648 -1.92857,1.766352 -4.23564,3.42456 -2.30708,1.6401841 -4.72229,3.0100081 3.01001,1.117488 5.8578,1.78437599 2.84779,0.64886401 5.71361,0.70293601 0.21628,0.018024 0.3064,0.054072 0.0901,0.036048 0.0901,0.126168 -0.12616,0.45060001 -0.34245,0.75700801 -0.21629,0.30640799 -0.5227,0.30640799 h -0.16221 q -2.81175,-0.25233599 -5.65954,-0.937248 -2.84779,-0.684912 -5.3351,-1.676232 -0.99132,-0.378504 -1.92857,-0.378504 -0.81108,0 -1.62216,0.288384 -0.10815,0.054072 -0.23431,0.054072 -0.21629,0 -0.37851,-0.234312 -0.14419,-0.252336 -0.14419,-0.468624 0,-0.18024 0.0901,-0.27036 0.10814,-0.108144 0.32443,-0.18024 1.00935,-0.306408 1.85647,-0.306408 0.16222,0 0.55875,0.036048 2.64953,-1.44192 4.75833,-2.9559361 2.12684,-1.514016 4.1996,-3.316416 l -8.255,0.684912 q -0.14419,0.018024 -0.3064,0.036048 -0.16222,0.018024 -0.32444,0.018024 -0.61281,0 -0.91922,-0.847128 -0.0541,-0.144192 -0.0541,-0.216288 0,-0.126168 0.14419,-0.126168 0.0721,0 0.10814,0.018024 0.36048,0.09012 0.72096,0.09012 0.19827,0 0.28839,-0.018024 z m -2.48731,-0.54072 q -0.14419,0 -0.32443,-0.126168 -1.96462,-1.315752 -4.01935,-2.16288 -0.30641,-0.144192 -0.30641,-0.342456 0,-0.144192 0.10814,-0.396528 0.10815,-0.252336 0.36048,-0.252336 0.34246,0 1.98264,0.793056 1.64019,0.793056 2.3972,1.243656 0.36048,0.198264 0.36048,0.432576 0,0.252336 -0.19827,0.54072 -0.18024,0.27036 -0.36048,0.27036 z"
                   id="path905" />
                <path
                   d="M 208.79638,1.297728 V 1.3518 q 0,0.432576 -0.32444,0.432576 -0.16221,0 -0.3785,-0.108144 -0.25234,-0.108144 -0.36048,-0.252336 -0.10814,-0.144192 -0.10814,-0.378504 V 0.93724801 q 0.036,-0.50467201 0.036,-0.70293601 l -0.018,-0.432576 -0.23431,-2.919888 q -0.018,-0.198264 -0.10815,-0.504672 -0.0721,-0.306408 -0.18024,-0.504672 l -0.0901,-0.18024 q -0.77503,0.4506 -1.44192,0.775032 -0.66688,0.306408 -0.84712,0.306408 -0.1442,0 -0.1442,-0.09012 0,-0.162216 0.41456,-0.4506 1.44192,-0.973296 2.61348,-1.9285681 1.18958,-0.955272 2.09078,-2.000664 -0.30641,-0.306408 -0.66689,-0.775032 -0.34245,-0.486648 -0.4506,-0.63084 -0.50467,-0.702936 -0.57677,-0.775032 -0.50467,0.72096 -1.29772,1.640184 -0.79306,0.9012 -1.11749,0.9012 -0.0901,0 -0.0901,-0.108144 0,-0.162216 0.19826,-0.432576 0.75701,-1.027368 1.51402,-2.3791679 0.75701,-1.369824 1.22563,-2.52336 0.48665,-1.153536 0.48665,-1.62216 l -0.018,-0.216288 v -0.05407 q 0,-0.216288 0.18024,-0.216288 0.27036,0 0.68492,0.288384 0.41455,0.27036 0.41455,0.486648 0,0.108144 -0.0541,0.216288 -0.36048,0.937248 -0.68492,1.53204 l 3.11816,-0.27036 h 0.18024 q 0.25233,0 0.54072,0.216288 0.28838,0.198264 0.28838,0.432576 0,0.126168 -0.10814,0.27036 -0.0901,0.144192 -0.12617,0.216288 -0.43258,0.955272 -1.02737,1.9826399 -0.59479,1.009344 -1.20761,1.766352 2.21695,1.928568 4.46995,2.9379121 0.32444,0.126168 0.32444,0.288384 0,0.162216 -0.37851,0.468624 -0.3785,0.288384 -0.57677,0.288384 -0.16221,0 -0.9012,-0.432576 -0.72096,-0.4506 -1.71228,-1.1715601 -0.97329,-0.738984 -1.89252,-1.586112 -1.11748,1.189584 -3.10012,2.4512641 0.28838,0.018024 1.13551,0.306408 l 4.21761,-0.252336 h 0.16222 q 0.25234,0 0.5227,0.234312 0.27036,0.234312 0.27036,0.432576 0,0.09012 -0.0541,0.18024 -0.036,0.09012 -0.0541,0.162216 l -0.3785,3.190248 q 0.41455,0.54072 0.41455,0.775032 0,0.12616801 -0.12617,0.16221601 -0.10814,0.036048 -0.3785,0.054072 l -4.30774,0.198264 z m -7.3538,-9.7509841 v 0.18024 q 0,0.432576 -0.3064,0.432576 -0.25234,0 -0.57677,-0.18024 -0.30641,-0.18024 -0.30641,-0.504672 l 0.018,-0.144192 q 0.0361,-0.432576 0.0361,-0.666888 0,-0.27036 -0.018,-0.396528 l -0.19827,-2.3250959 q -0.0541,-0.594792 -0.25233,-0.9012 -0.12617,-0.216288 -0.12617,-0.306408 0,-0.108144 0.18024,-0.108144 0.27036,0 1.2797,0.342456 l 3.73097,-0.27036 h 0.16222 q 0.27036,0 0.52269,0.198264 0.25234,0.198264 0.25234,0.4506 0,0.09012 -0.0721,0.252336 -0.0541,0.144192 -0.0541,0.234312 l -0.34245,2.5594079 q 0.39652,0.486648 0.39652,0.702936 0,0.126168 -0.12616,0.162216 -0.10815,0.036048 -0.37851,0.054072 l -1.76635,0.108144 -0.018,2.469288 0.61281,-0.036048 q 0.37851,-0.036048 0.77503,-0.162216 0.10815,-0.036048 0.18024,-0.036048 0.21629,0 0.5948,0.324432 0.3785,0.306408 0.3785,0.504672 0,0.2162881 -0.43258,0.2523361 l -2.12683,0.108144 -0.0361,3.550728 q 1.06342,-0.324432 2.66756,-0.865152 0.3064,-0.09012 0.41455,-0.09012 0.0901,0 0.14419,0.036048 0.0541,0.036048 0.0541,0.072096 0,0.27036 -1.55006,1.009344 -1.55007,0.73898399 -3.35247,1.405872 -1.8024,0.64886401 -2.21695,0.64886401 -0.32443,0 -0.59479,-0.30640801 Q 198.72096,0 198.59479,-0.252336 q -0.0541,-0.108144 -0.0541,-0.162216 0,-0.12616801 0.23431,-0.12616801 0.50467,0 1.51402,-0.234312 l -0.14419,-5.10079209 q 0,-0.378504 -0.19827,-0.738984 -0.0721,-0.144192 -0.0721,-0.234312 0,-0.126168 0.19826,-0.126168 0.23431,0 0.68491,0.108144 0.46863,0.108144 0.46863,0.396528 l 0.0721,5.4612721 1.06342,-0.288384 0.0541,-7.2096001 z m 7.02936,5.2449841 0.21629,3.118152 3.42456,-0.144192 0.27036,-3.190248 z m -7.31774,-8.92188 0.19826,2.7756959 3.01001,-0.198264 0.23431,-2.7937199 z m 7.40786,1.459944 q 1.15354,1.5500639 1.78438,2.1989279 0.50467,-0.666888 0.93725,-1.477968 0.4506,-0.8110799 0.73898,-1.6041359 l -3.06408,0.234312 z"
                   id="path907" />
              </g>
            </g>
          </g>
          <g
             id="g806">
            <g
               id="g808"
               clip-path="url(#clipPath812)" />
          </g>
        </g>
      </g>
      <g
         id="g814"
         transform="matrix(0.35277777,0,0,-0.35277777,-10.481279,-1.0510238)">
        <g
           id="g816"
           clip-path="url(#clipPath820)">
          <g
             id="g822">
            <g
               id="g824"
               clip-path="url(#clipPath828)">
              <g
                 aria-label="您也能"
                 transform="matrix(1,0,0,-1,109.37,55.968)"
                 id="text832"
                 style="font-variant:normal;font-weight:normal;font-size:14.04px;writing-mode:lr-tb;fill:#0000ff;fill-opacity:1;fill-rule:nonzero;stroke:none">
                <path
                   d="m 3.11688,-7.90452 q -0.51948,0.58968 -1.16532,1.17936 -0.6318,0.58968 -0.87048,0.58968 -0.08424,0 -0.08424,-0.0702 0,-0.15444 0.2808,-0.47736 1.76904,-2.02176 2.8782,-4.0716 0.04212,-0.0702 0.0702,-0.22464 0.04212,-0.15444 0.04212,-0.26676 0,-0.12636 0.09828,-0.12636 0.19656,0 0.51948,0.23868 0.32292,0.23868 0.32292,0.40716 0,0.12636 -0.39312,0.73008 -0.37908,0.58968 -0.92664,1.23552 l 0.01404,5.23692 q 0,0.08424 -0.0702,0.15444 -0.0702,0.05616 -0.18252,0.05616 -0.18252,0 -0.4212,-0.16848 -0.22464,-0.18252 -0.22464,-0.40716 l 0.01404,-0.1404 q 0.0702,-0.5616 0.0702,-1.31976 z m 4.78764,6.69708 q -0.11232,0 -0.26676,-0.19656 -0.68796,-0.8424 -1.4742,-1.48824 -0.2106,-0.18252 -0.2106,-0.29484 0,-0.12636 0.1404,-0.2808 0.15444,-0.16848 0.26676,-0.16848 0.11232,0 0.6318,0.4212 Q 7.5114,-2.808 7.96068,-2.35872 8.424,-1.90944 8.424,-1.755 q 0,0.09828 -0.19656,0.32292 -0.18252,0.22464 -0.32292,0.22464 z m 4.85784,0.67392 q -0.12636,0 -0.2808,-0.19656 Q 11.583,-1.79712 10.57212,-2.65356 10.3896,-2.82204 10.3896,-2.9484 q 0,-0.11232 0.12636,-0.25272 0.16848,-0.19656 0.29484,-0.19656 0.1404,0 0.75816,0.50544 0.6318,0.50544 1.17936,1.06704 0.5616,0.54756 0.5616,0.73008 0,0.12636 -0.2106,0.351 -0.19656,0.2106 -0.33696,0.2106 z M 1.8954,0.39312 Q 1.74096,0.6318 1.58652,0.6318 1.5444,0.6318 1.38996,0.5616 1.24956,0.4914 1.1232,0.37908 0.99684,0.26676 0.99684,0.1404 q 0,-0.08424 0.11232,-0.26676 0.81432,-1.1934 1.31976,-2.6676 0.08424,-0.25272 0.25272,-0.25272 0.15444,0 0.33696,0.09828 0.18252,0.08424 0.18252,0.22464 0,0.04212 -0.02808,0.18252 Q 2.9484,-1.8252 2.5974,-1.03896 2.26044,-0.25272 1.8954,0.39312 Z m 9.0558,0.32292 q -0.22464,0.18252 -0.64584,0.25272 -0.4212,0.0702 -1.31976,0.0702 -1.01088,0 -1.90944,-0.15444 Q 6.19164,0.73008 5.63004,0.39312 4.99824,0.01404 4.60512,-0.64584 4.22604,-1.30572 4.05756,-1.88136 3.88908,-2.457 3.88908,-2.58336 q 0,-0.18252 0.18252,-0.23868 0.19656,-0.0702 0.33696,-0.0702 0.12636,0 0.19656,0.0702 0.0702,0.0702 0.11232,0.23868 0.22464,0.95472 0.6318,1.5444 0.40716,0.58968 1.1934,0.89856 0.80028,0.30888 2.16216,0.30888 1.20744,0 1.20744,-0.12636 L 9.88416,-0.04212 q -0.12636,-0.32292 -0.351,-0.95472 -0.2106,-0.64584 -0.2106,-0.9126 0,-0.2106 0.12636,-0.2106 0.0702,0 0.16848,0.09828 0.09828,0.08424 0.18252,0.26676 0.40716,0.73008 1.10916,1.65672 0.23868,0.32292 0.23868,0.4914 0,0.16848 -0.19656,0.32292 z M 6.55668,-9.09792 q -0.64584,1.08108 -1.30572,1.69884 -0.0702,0.0702 -0.0702,0.0702 -0.08424,0.0702 -0.02808,0.11232 0.05616,0.02808 0.04212,0.02808 -0.0702,0 -0.2106,-0.01404 -0.1404,-0.02808 -0.1404,-0.0702 0,-0.1404 0.15444,-0.36504 0.51948,-0.81432 0.92664,-1.85328 0.4212,-1.053 0.4212,-1.51632 0,-0.09828 -0.02808,-0.32292 l -0.01404,-0.0702 q 0,-0.12636 0.15444,-0.12636 0.11232,0 0.33696,0.11232 0.22464,0.09828 0.39312,0.25272 0.18252,0.15444 0.18252,0.30888 0,0.16848 -0.4212,1.01088 l 4.29624,-0.22464 q 0.1404,-0.01404 0.33696,-0.01404 0.15444,0 0.36504,0.16848 0.2106,0.16848 0.2106,0.351 0,0.11232 -0.09828,0.2106 -0.09828,0.09828 -0.12636,0.1404 -0.43524,0.61776 -0.9828,1.23552 -0.54756,0.60372 -0.73008,0.60372 -0.0702,0 -0.0702,-0.09828 0,-0.1404 0.1404,-0.37908 0.46332,-0.78624 0.71604,-1.48824 z m 2.49912,3.80484 -0.01404,1.8954 q 0,0.11232 -0.0702,0.19656 -0.0702,0.0702 -0.19656,0.0702 -0.2106,0 -0.47736,-0.18252 Q 8.04492,-3.51 8.04492,-3.69252 L 8.05896,-3.81888 Q 8.12916,-4.4928 8.1432,-4.97016 v -0.51948 l 0.02808,-2.2464 q 0,-0.36504 -0.22464,-0.64584 -0.09828,-0.11232 -0.09828,-0.19656 0,-0.08424 0.1404,-0.08424 0.18252,0 0.5616,0.12636 0.30888,0.09828 0.40716,0.19656 0.09828,0.08424 0.09828,0.29484 z m 3.59424,0.8424 q 0,0.1404 -0.12636,0.26676 -0.11232,0.12636 -0.25272,0.22464 -0.1404,0.08424 -0.19656,0.08424 -0.11232,0 -0.23868,-0.15444 -0.92664,-1.29168 -1.95156,-2.34468 -0.01404,-0.01404 -0.0702,-0.0702 -0.04212,-0.0702 -0.04212,-0.1404 0,-0.11232 0.1404,-0.2808 0.15444,-0.18252 0.33696,-0.18252 0.04212,0 0.0702,0.01404 0.1404,0 0.87048,0.81432 0.74412,0.80028 1.36188,1.55844 0.09828,0.09828 0.09828,0.2106 z m -6.318,-2.79396 q 0,-0.15444 0.11232,-0.15444 0.08424,0 0.30888,0.11232 0.22464,0.11232 0.39312,0.26676 0.18252,0.15444 0.18252,0.2808 0,0.19656 -0.53352,0.96876 -0.53352,0.75816 -1.13724,1.41804 -0.60372,0.64584 -0.85644,0.64584 -0.09828,0 -0.09828,-0.11232 0,-0.12636 0.15444,-0.33696 0.39312,-0.51948 0.92664,-1.44612 0.54756,-0.94068 0.54756,-1.48824 z"
                   style="font-style:normal;font-variant:normal;font-weight:normal;font-stretch:normal;font-size:14.04px;font-family:Iansui;-inkscape-font-specification:'Iansui, Normal';font-variant-ligatures:normal;font-variant-caps:normal;font-variant-numeric:normal;font-variant-east-asian:normal"
                   id="path910" />
                <path
                   d="m 20.8494,-10.19304 q 0,-0.46332 -0.19656,-0.85644 -0.04212,-0.0702 -0.04212,-0.12636 0,-0.08424 0.1404,-0.08424 0.18252,0 0.47736,0.11232 0.2808,0.09828 0.37908,0.2106 0.11232,0.09828 0.11232,0.30888 l -0.01404,2.85012 2.90628,-1.03896 q 0.12636,-0.05616 0.26676,-0.05616 0.19656,0 0.4212,0.11232 0.23868,0.09828 0.23868,0.37908 0,0.11232 -0.02808,0.25272 -0.02808,0.12636 -0.04212,0.18252 -0.4212,1.92348 -0.64584,2.63952 -0.87048,2.65356 -1.44612,2.70972 h -0.01404 q -0.05616,0 -0.08424,-0.04212 -0.02808,-0.04212 -0.02808,-0.09828 v -0.04212 q 0,-0.09828 0.0702,-0.30888 0.30888,-0.81432 0.71604,-2.37276 0.40716,-1.55844 0.54756,-2.44296 l -2.8782,1.03896 -0.02808,5.1948 q 0,0.30888 -0.22464,0.30888 -0.09828,0 -0.2808,-0.08424 Q 20.9898,-1.53036 20.8494,-1.67076 20.709,-1.8252 20.709,-1.99368 q 0,-0.0702 0.01404,-0.11232 0.08424,-0.4212 0.08424,-1.03896 l 0.01404,-3.41172 -2.54124,0.9126 -0.02808,3.94524 v 0.08424 q 0,0.57564 0.11232,0.85644 0.12636,0.26676 0.40716,0.39312 0.2808,0.11232 0.87048,0.18252 1.06704,0.1404 2.35872,0.1404 1.755,0 3.28536,-0.25272 0.47736,-0.08424 0.71604,-0.18252 0.25272,-0.11232 0.37908,-0.29484 0.12636,-0.19656 0.22464,-0.5616 0.22464,-0.87048 0.32292,-1.8252 0.02808,-0.25272 0.09828,-0.39312 0.0702,-0.15444 0.15444,-0.15444 0.1404,0 0.2106,0.4212 0.0702,0.40716 0.0702,1.51632 0,0.85644 -0.09828,1.27764 -0.08424,0.4212 -0.47736,0.68796 -0.39312,0.26676 -1.27764,0.37908 -1.8252,0.23868 -3.5802,0.23868 -1.36188,0 -2.72376,-0.15444 Q 18.63108,0.57564 18.20988,0.39312 17.80272,0.2106 17.57808,-0.22464 17.35344,-0.65988 17.35344,-1.43208 V -1.4742 l 0.02808,-3.84696 -1.51632,0.54756 q -0.05616,0.01404 -0.25272,0.08424 -0.18252,0.0702 -0.30888,0.0702 -0.36504,0 -0.73008,-0.44928 -0.04212,-0.0702 -0.04212,-0.11232 0,-0.09828 0.11232,-0.11232 0.37908,-0.02808 0.8424,-0.19656 l 1.8954,-0.702 0.01404,-1.69884 q 0,-0.29484 -0.05616,-0.4914 -0.04212,-0.2106 -0.15444,-0.43524 -0.04212,-0.11232 -0.04212,-0.15444 0,-0.08424 0.12636,-0.08424 0.12636,0 0.4914,0.11232 0.33696,0.11232 0.43524,0.22464 0.09828,0.09828 0.09828,0.29484 l -0.01404,1.90944 2.55528,-0.95472 z"
                   style="font-style:normal;font-variant:normal;font-weight:normal;font-stretch:normal;font-size:14.04px;font-family:Iansui;-inkscape-font-specification:'Iansui, Normal';font-variant-ligatures:normal;font-variant-caps:normal;font-variant-numeric:normal;font-variant-east-asian:normal"
                   id="path912" />
                <path
                   d="m 33.30288,-3.31344 q -0.02808,0 -0.1404,-0.01404 -0.11232,-0.01404 -0.26676,-0.0702 -0.7722,-0.22464 -1.51632,-0.36504 -0.15444,-0.02808 -0.22464,-0.0702 -0.05616,1.13724 -0.1404,1.58652 0.02808,-0.01404 0.12636,-0.01404 0.44928,0 1.1934,-0.1404 l 0.74412,-0.12636 q -0.19656,0.04212 0.7722,-0.1404 l -0.02808,-2.808 -2.63952,0.18252 Q 31.1688,-4.99824 31.1688,-4.33836 31.25304,-4.4226 31.42152,-4.4226 L 31.59,-4.39452 q 1.17936,0.15444 1.76904,0.30888 0.16848,0.05616 0.25272,0.15444 0.08424,0.09828 0.08424,0.2106 -0.01404,0.15444 -0.12636,0.2808 -0.09828,0.12636 -0.26676,0.12636 z m -1.67076,-7.7922 q 0,-0.15444 0.12636,-0.15444 0.08424,0 0.29484,0.12636 0.2106,0.11232 0.37908,0.2808 0.18252,0.16848 0.18252,0.33696 0,0.15444 -0.46332,1.01088 -0.44928,0.8424 -1.10916,1.755 1.53036,-0.16848 2.72376,-0.43524 -0.36504,-0.46332 -0.64584,-0.75816 -0.18252,-0.18252 -0.18252,-0.2808 0,-0.11232 0.15444,-0.26676 0.15444,-0.15444 0.29484,-0.15444 0.1404,0 0.351,0.23868 0.33696,0.33696 1.06704,1.24956 0.74412,0.9126 0.74412,1.1232 0,0.12636 -0.12636,0.25272 -0.11232,0.11232 -0.23868,0.18252 -0.12636,0.05616 -0.18252,0.0702 -0.15444,0 -0.33696,-0.33696 -0.18252,-0.351 -0.43524,-0.702 l -0.30888,0.0702 q -0.2106,0.04212 -1.13724,0.23868 -0.9126,0.18252 -1.65672,0.29484 -0.0702,0.01404 -0.46332,0.09828 -0.37908,0.08424 -0.4914,0.0702 -0.15444,-0.02808 -0.351,-0.23868 -0.19656,-0.22464 -0.19656,-0.36504 0,-0.0702 0.02808,-0.11232 0.04212,-0.04212 0.09828,-0.08424 0.16848,-0.08424 0.2808,-0.18252 0.11232,-0.11232 0.29484,-0.37908 1.30572,-2.13408 1.30572,-2.76588 z m 7.39908,7.48332 q 0.36504,-0.04212 0.60372,-0.12636 0.04212,-0.02808 0.11232,-0.02808 0.15444,-0.01404 0.37908,0.26676 0.23868,0.2808 0.25272,0.40716 0,0.15444 -0.33696,0.18252 l -3.17304,0.2808 -0.02808,2.06388 q 0,0.2106 0.09828,0.32292 0.11232,0.11232 0.44928,0.16848 0.33696,0.04212 1.053,0.04212 1.1232,0 1.72692,-0.15444 0.23868,-0.0702 0.36504,-0.2106 0.12636,-0.15444 0.2106,-0.57564 0.08424,-0.43524 0.16848,-1.34784 0.01404,-0.22464 0.0702,-0.33696 0.0702,-0.12636 0.15444,-0.12636 0.23868,0 0.23868,1.24956 0,0.89856 -0.04212,1.29168 Q 41.29164,0.1404 41.09508,0.36504 40.91256,0.58968 40.47732,0.65988 39.5226,0.8424 38.3994,0.8424 37.40256,0.8424 36.91116,0.74412 36.41976,0.64584 36.19512,0.351 35.98452,0.0702 35.98452,-0.51948 L 36.0126,-4.563 q 0,-0.36504 -0.2106,-0.64584 l -0.02808,-0.0702 q 0,-0.11232 0.2106,-0.11232 0.25272,0 0.57564,0.1404 0.33696,0.1404 0.33696,0.351 l -0.01404,1.48824 z M 38.8908,-9.126 q 0.32292,-0.04212 0.54756,-0.12636 0.16848,-0.04212 0.16848,-0.04212 0.19656,0 0.40716,0.23868 0.22464,0.23868 0.22464,0.37908 v 0.01404 q 0,0.12636 -0.32292,0.16848 l -2.97648,0.36504 v 0.04212 l -0.01404,0.351 -0.01404,1.053 q 0,0.2106 0.08424,0.30888 0.09828,0.09828 0.39312,0.15444 0.29484,0.04212 0.89856,0.04212 0.46332,0 0.9126,-0.08424 0.26676,-0.02808 0.53352,-0.19656 0.01404,-0.02808 0.08424,-0.02808 0.16848,-0.02808 0.43524,0.18252 0.26676,0.2106 0.29484,0.39312 v 0.01404 q 0,0.15444 -0.26676,0.26676 l -0.26676,0.0702 q -0.43524,0.11232 -0.57564,0.12636 -0.64584,0.05616 -1.15128,0.05616 -0.702,0 -1.24956,-0.05616 -0.44928,-0.04212 -0.71604,-0.36504 -0.26676,-0.32292 -0.26676,-0.8424 l 0.02808,-3.90312 q 0,-0.36504 -0.18252,-0.61776 -0.04212,-0.0702 -0.04212,-0.09828 0,-0.0702 0.1404,-0.0702 0.26676,0 0.61776,0.1404 0.351,0.1404 0.351,0.36504 l -0.01404,1.92348 z M 29.00664,1.16532 q 0,-0.16848 0.11232,-0.351 Q 29.59632,0 29.84904,-0.68796 q 0.25272,-0.702 0.37908,-1.62864 0.12636,-0.94068 0.12636,-2.34468 0,-0.57564 -0.02808,-0.8424 -0.01404,-0.26676 -0.0702,-0.40716 -0.08424,-0.12636 -0.08424,-0.2106 0,-0.08424 0.11232,-0.08424 0.25272,0 0.75816,0.19656 l 2.90628,-0.22464 0.18252,-0.01404 q 0.1404,0 0.30888,0.15444 0.26676,0.19656 0.26676,0.37908 0,0.05616 -0.04212,0.15444 -0.02808,0.09828 -0.02808,0.1404 l 0.09828,5.44752 0.01404,0.50544 q 0,0.36504 -0.25272,0.57564 Q 34.2576,1.3338 34.047,1.3338 33.85044,1.3338 33.345,1.02492 32.8536,0.71604 32.4324,0.351 32.0112,0 32.0112,-0.16848 q 0,-0.08424 0.11232,-0.08424 0.09828,0 0.30888,0.08424 0.68796,0.30888 1.44612,0.4914 l -0.02808,-2.47104 q -0.51948,0.26676 -1.29168,0.50544 -0.75816,0.22464 -1.08108,0.22464 -0.37908,0 -0.51948,-0.51948 -0.18252,0.89856 -0.53352,1.62864 -0.33696,0.73008 -0.71604,1.13724 -0.36504,0.4212 -0.60372,0.43524 -0.09828,0 -0.09828,-0.09828 z"
                   style="font-style:normal;font-variant:normal;font-weight:normal;font-stretch:normal;font-size:14.04px;font-family:Iansui;-inkscape-font-specification:'Iansui, Normal';font-variant-ligatures:normal;font-variant-caps:normal;font-variant-numeric:normal;font-variant-east-asian:normal"
                   id="path914" />
              </g>
            </g>
          </g>
          <g
             id="g834">
            <g
               id="g836"
               clip-path="url(#clipPath840)" />
          </g>
        </g>
      </g>
    </g>
    <g
       id="g842"
       transform="matrix(0.35277777,0,0,-0.35277777,-10.481279,-1.0510238)">
      <g
         id="g844"
         clip-path="url(#clipPath848)">
        <g
           id="g850">
          <g
             id="g852"
             clip-path="url(#clipPath856)" />
        </g>
      </g>
    </g>
  </g>
</svg>
