<?xml version="1.0" encoding="UTF-8" standalone="no"?>
<svg
   xmlns:dc="http://purl.org/dc/elements/1.1/"
   xmlns:cc="http://creativecommons.org/ns#"
   xmlns:rdf="http://www.w3.org/1999/02/22-rdf-syntax-ns#"
   xmlns:svg="http://www.w3.org/2000/svg"
   xmlns="http://www.w3.org/2000/svg"
   xmlns:sodipodi="http://sodipodi.sourceforge.net/DTD/sodipodi-0.dtd"
   xmlns:inkscape="http://www.inkscape.org/namespaces/inkscape"
   width="1.4016979in"
   height="0.18745834in"
   viewBox="0 0 35.603126 4.7614419"
   version="1.1"
   id="svg8"
   inkscape:version="1.0.1 (3bc2e813f5, 2020-09-07)"
   sodipodi:docname="tm_path.svg">
  <defs
     id="defs2">
    <rect
       x="24.190475"
       y="59.720238"
       width="37.442127"
       height="14.866422"
       id="rect46" />
    <rect
       x="21.922619"
       y="57.452381"
       width="161.7738"
       height="58.208332"
       id="rect18" />
    <pattern
       id="EMFhbasepattern"
       patternUnits="userSpaceOnUse"
       width="6"
       height="6"
       x="0"
       y="0" />
  </defs>
  <sodipodi:namedview
     id="base"
     pagecolor="#ffffff"
     bordercolor="#666666"
     borderopacity="1.0"
     inkscape:pageopacity="0"
     inkscape:pageshadow="2"
     inkscape:zoom="2"
     inkscape:cx="107.96087"
     inkscape:cy="31.498143"
     inkscape:document-units="px"
     inkscape:current-layer="layer1"
     inkscape:document-rotation="0"
     showgrid="false"
     units="in"
     fit-margin-top="0"
     fit-margin-left="0"
     fit-margin-right="0"
     fit-margin-bottom="0"
     inkscape:window-width="1080"
     inkscape:window-height="658"
     inkscape:window-x="-6"
     inkscape:window-y="-6"
     inkscape:window-maximized="1" />
  <metadata
     id="metadata5">
    <rdf:RDF>
      <cc:Work
         rdf:about="">
        <dc:format>image/svg+xml</dc:format>
        <dc:type
           rdf:resource="http://purl.org/dc/dcmitype/StillImage" />
        <dc:title></dc:title>
      </cc:Work>
    </rdf:RDF>
  </metadata>
  <g
     inkscape:label="Layer 1"
     inkscape:groupmode="layer"
     id="layer1"
     transform="translate(-35.932495,-26.444605)">
    <g
       id="g924">
      <path
         id="rect911"
         style="fill:#ffffff;fill-opacity:1;stroke-width:0.212196"
         d="m 35.932495,26.444605 h 35.603127 v 4.761442 H 35.932495 Z" />
      <g
         aria-label="金枝御液™偵探醫學 Powered by AI"
         transform="matrix(4.530767,0,0,5.2578487,-72.95892,-288.34341)"
         id="text44"
         style="font-size:2.20274px;line-height:0px;font-family:Iansui;-inkscape-font-specification:'Iansui, Normal';word-spacing:0px;white-space:pre;shape-inside:url(#rect46)">
        <path
           d="m 24.508855,60.121252 q -0.05855,0.07351 -0.122946,0.125549 -0.06375,0.05139 -0.113189,0.07871 -0.04879,0.02667 -0.05789,0.02667 -0.0059,0 -0.0059,-0.0046 0,-0.0033 0.0039,-0.0078 0.0039,-0.0052 0.01171,-0.01041 0.180192,-0.124898 0.271913,-0.271913 0.0072,-0.01171 0.0072,-0.02602 0,-0.01041 0.0072,-0.01041 0.0091,0 0.02537,0.01366 0.01691,0.01366 0.01691,0.02082 0,0.0065 -0.02212,0.03513 0.132054,0.119694 0.288176,0.200357 0.0098,0.0046 0.0098,0.01041 0,0.0072 -0.01366,0.01821 -0.01301,0.01106 -0.01952,0.01106 -0.0052,0 -0.0085,-0.0026 -0.07025,-0.04098 -0.142461,-0.09432 -0.07156,-0.05334 -0.135957,-0.112538 z m -0.234183,0.474222 q -0.01301,0 -0.01691,-0.0039 -0.0078,-0.0078 -0.01301,-0.01691 -0.0046,-0.0085 -0.0046,-0.01626 0,-0.0039 0.0033,-0.0039 0.0026,0 0.0039,6.5e-4 0.01171,0.0033 0.02927,0.0033 l 0.21662,-0.0059 -6.51e-4,-0.160676 -0.135956,0.0065 -0.01366,6.51e-4 q -0.01106,0 -0.01886,-0.0052 -0.0078,-0.0059 -0.01496,-0.02537 l -0.0013,-0.0059 q 0,-0.0039 0.0039,-0.0039 0.0026,0 0.0039,6.51e-4 0.0098,0.0026 0.02147,0.0026 h 0.0078 l 0.147665,-0.0065 -6.5e-4,-0.07221 -0.05334,0.0033 -0.01366,6.5e-4 q -0.0098,0 -0.01886,-0.0052 -0.0085,-0.0052 -0.01496,-0.02277 l -0.0013,-0.0059 q 0,-0.0039 0.0039,-0.0039 0.0026,0 0.0039,6.5e-4 0.0098,0.0026 0.02147,0.0026 h 0.0078 l 0.148316,-0.0098 q 0.01301,-6.5e-4 0.02537,-0.0052 0.0013,-6.5e-4 0.0046,-6.5e-4 0.0072,0 0.02016,0.01041 0.01366,0.01041 0.01366,0.01887 0,0.0078 -0.01561,0.0091 l -0.08912,0.0052 -6.5e-4,0.07286 0.127499,-0.0059 q 0.01366,-6.51e-4 0.02602,-0.0052 0.0013,-6.5e-4 0.0039,-6.5e-4 0.0033,0 0.01171,0.0052 0.0085,0.0052 0.01496,0.01236 0.0072,0.0072 0.0072,0.01236 0,0.0085 -0.01496,0.0098 l -0.176288,0.0085 -0.0013,0.161326 0.199057,-0.0052 q 0.01236,0 0.02602,-0.0052 0.0013,-6.5e-4 0.0039,-6.5e-4 0.0065,0 0.02082,0.01236 0.01496,0.01236 0.01496,0.01952 0,0.0085 -0.01691,0.0098 l -0.491135,0.01301 z m 0.303788,-0.05594 q -0.0052,0 -0.0052,-0.0046 0,-0.0065 0.0085,-0.01691 0.05855,-0.07611 0.0605,-0.111237 6.5e-4,-0.0059 0.002,-0.0085 0.0013,-0.0033 0.0052,-0.0033 0.0033,0 0.01236,0.0059 0.0098,0.0059 0.01691,0.01366 0.0078,0.0072 0.0078,0.01366 0,0.0078 -0.02277,0.03578 -0.02277,0.02797 -0.04879,0.05204 -0.02602,0.02342 -0.03643,0.02342 z m -0.124898,-0.02017 q 0,0.0052 -0.01041,0.01366 -0.0098,0.0078 -0.01756,0.0078 -0.0059,0 -0.01171,-0.01041 -0.02602,-0.04619 -0.0631,-0.08717 -0.0046,-0.0059 -0.0046,-0.0091 0,-0.0065 0.0085,-0.01301 0.0085,-0.0072 0.01171,-0.0072 0.0059,0 0.02732,0.02342 0.02147,0.02277 0.04033,0.04944 0.01952,0.02602 0.01952,0.03252 z"
           style="font-size:0.65051px;fill:#ffd700;fill-opacity:1"
           id="path927" />
        <path
           d="m 25.184734,60.343076 q -0.0072,6.51e-4 -0.01886,6.51e-4 -0.01236,0 -0.01626,-0.0033 -0.0091,-0.0078 -0.01496,-0.01756 -0.0059,-0.0098 -0.0059,-0.01496 0,-0.0039 0.0052,-0.0039 h 0.0033 q 0.01691,0.0026 0.02862,0.0026 h 0.0052 l 0.07741,-0.0046 6.5e-4,-0.09042 -0.07221,0.0046 q -0.0072,6.5e-4 -0.01887,6.5e-4 -0.01236,0 -0.01626,-0.0033 -0.0085,-0.0078 -0.01496,-0.01691 -0.0059,-0.0091 -0.0059,-0.01561 0,-0.0039 0.0046,-0.0039 0.0026,0 0.0039,6.5e-4 0.01106,0.0026 0.02537,0.0026 h 0.0085 l 0.08587,-0.0052 6.51e-4,-0.104081 q 0,-0.01171 -0.0091,-0.02667 -0.002,-0.0033 -0.002,-0.0059 0,-0.0052 0.0085,-0.0052 0.0085,0 0.02277,0.0052 0.01366,0.0052 0.01691,0.0091 0.0039,0.0033 0.0039,0.01041 l -0.0013,0.114489 0.06765,-0.0046 q 0.01561,-6.51e-4 0.02797,-0.0052 0.002,-6.51e-4 0.0052,-6.51e-4 0.0072,0 0.02017,0.01041 0.01366,0.01041 0.01366,0.01886 0,0.0085 -0.01561,0.0098 l -0.119694,0.0078 -0.0013,0.09042 0.07741,-0.0046 h 0.0078 q 0.01041,0 0.01886,0.0072 0.0091,0.0065 0.0091,0.01496 0,0.0052 -0.0033,0.0098 -0.0033,0.0046 -0.0039,0.0059 -0.03253,0.08196 -0.09172,0.146365 0.08261,0.06765 0.167831,0.101479 0.01301,0.0059 0.01301,0.0098 0,0.002 -0.0065,0.0091 -0.0065,0.0072 -0.01496,0.01236 -0.0078,0.0059 -0.01431,0.0059 -0.0065,0 -0.03643,-0.01626 -0.02992,-0.01626 -0.06765,-0.04228 -0.03708,-0.02537 -0.0683,-0.05269 -0.04033,0.03773 -0.08131,0.06245 -0.04098,0.02537 -0.0709,0.03708 -0.02992,0.01236 -0.03903,0.01236 -0.0078,0 -0.0078,-0.0046 0,-0.0085 0.02147,-0.01952 0.07806,-0.04293 0.150268,-0.113189 -0.03318,-0.03318 -0.05724,-0.0657 -0.02407,-0.03253 -0.02407,-0.03903 0,-0.0046 0.0078,-0.01106 0.0085,-0.0072 0.01561,-0.0072 0.0059,0 0.01171,0.0091 0.02992,0.04619 0.07221,0.08652 0.05009,-0.0566 0.07546,-0.122947 z m -0.148967,0.261505 q 0,0.01626 -0.01171,0.01626 -0.0026,0 -0.01041,-0.0026 -0.0078,-0.0026 -0.01496,-0.0091 -0.0065,-0.0059 -0.0065,-0.01561 0,-0.0046 6.5e-4,-0.0065 0.0052,-0.02212 0.0052,-0.04098 l 0.0026,-0.190599 q 0,-0.01431 0.0013,-0.04098 -0.0078,0.02992 -0.03448,0.07286 -0.02667,0.04228 -0.05529,0.07481 -0.02862,0.03253 -0.03903,0.03253 -0.0033,0 -0.0033,-0.0046 0,-0.0052 0.0065,-0.01561 0.07416,-0.107334 0.119043,-0.232883 l -0.04879,0.0033 q -0.0072,6.51e-4 -0.01886,6.51e-4 -0.01171,0 -0.01496,-0.0033 -0.0085,-0.0085 -0.01366,-0.01821 -0.0052,-0.0098 -0.0052,-0.01366 0,-0.0033 0.0046,-0.0033 l 0.0033,6.51e-4 q 0.01691,0.0026 0.02602,0.0026 h 0.0059 l 0.06895,-0.0046 0.0013,-0.118392 q 0,-0.01301 -0.0085,-0.02667 -0.0033,-0.0052 -0.0033,-0.0072 0,-0.0059 0.0085,-0.0059 0.0072,0 0.02082,0.0052 0.01366,0.0052 0.01756,0.0091 0.0039,0.0039 0.0039,0.01171 l -0.002,0.129451 0.02862,-0.002 q 0.01366,-0.0013 0.02407,-0.0046 0.0013,-6.5e-4 0.0046,-6.5e-4 0.0085,0 0.02017,0.01041 0.01236,0.01041 0.01236,0.01756 0,0.0039 -0.0046,0.0065 -0.0039,0.002 -0.01041,0.0026 l -0.07481,0.0052 -6.5e-4,0.05269 q 0.0072,-0.0059 0.01236,-0.0059 0.0065,0 0.02472,0.01951 0.01821,0.01951 0.03448,0.04228 0.01691,0.02277 0.01691,0.02732 0,0.0059 -0.0059,0.01106 -0.0052,0.0052 -0.01171,0.0085 -0.0065,0.0026 -0.0085,0.0026 -0.0065,0 -0.01301,-0.01041 -0.0091,-0.01496 -0.02407,-0.03513 -0.01431,-0.02017 -0.02602,-0.03448 z"
           style="font-size:0.65051px;fill:#ffd700;fill-opacity:1"
           id="path929" />
        <path
           d="m 25.936072,60.178497 q 0,-0.02667 -0.0046,-0.03708 -0.0039,-0.0091 -0.0039,-0.01496 0,-0.0046 0.0046,-0.0046 0.0091,0 0.04293,0.01821 l 0.09302,-0.0072 h 0.0065 q 0.0085,0 0.01822,0.0072 0.0098,0.0065 0.0098,0.01691 0,0.002 -0.0013,0.0065 -0.0013,0.0046 -0.0013,0.0072 -0.0033,0.110587 -0.0072,0.16588 -0.0039,0.05529 -0.0078,0.07416 -0.0039,0.01821 -0.01041,0.02537 -0.01041,0.01236 -0.02147,0.01236 -0.0078,0 -0.02472,-0.01171 -0.01691,-0.01171 -0.03318,-0.02732 -0.01626,-0.01561 -0.02082,-0.02407 l 6.5e-4,0.223125 q 0,0.01626 -0.01106,0.01626 -0.0085,0 -0.02017,-0.0078 -0.01106,-0.0078 -0.01106,-0.01886 0,-0.0046 6.51e-4,-0.0072 0.0033,-0.02277 0.0033,-0.03903 z m -0.109937,0.299885 q 0.03578,-0.0091 0.07871,-0.02407 0.01171,-0.0039 0.01756,-0.0039 0.0085,0 0.0085,0.0046 0,0.0098 -0.04228,0.03122 -0.04228,0.02147 -0.09888,0.04358 -0.01496,0.0065 -0.02472,0.01106 -0.0098,0.0039 -0.01496,0.0065 -0.02537,0.01171 -0.03122,0.01236 -0.0065,0 -0.01431,-0.01106 -0.0078,-0.01106 -0.0046,-0.01691 0.0039,-0.0059 0.0039,-0.05724 l -6.51e-4,-0.08977 q 0,-0.01366 -0.0072,-0.02667 -0.0026,-0.0065 -0.0026,-0.0078 0,-0.0052 0.0078,-0.0052 0.0046,0 0.01952,0.0046 0.01301,0.0046 0.01626,0.0085 0.0039,0.0033 0.0039,0.01106 l 0.002,0.136608 0.04554,-0.01691 0.0013,-0.195153 -0.0605,0.0033 -0.01496,6.5e-4 q -0.0059,0 -0.0085,-6.5e-4 -0.0091,0 -0.01756,-0.01301 -0.0078,-0.01301 -0.0078,-0.02017 0,-0.0026 0.0033,-0.0026 0.0026,0 0.0046,6.5e-4 0.0078,0.0026 0.01886,0.0026 l 0.0098,-6.5e-4 0.07286,-0.0039 6.5e-4,-0.07156 -0.02927,0.002 q -0.01626,0.02472 -0.02927,0.03903 -0.01301,0.01366 -0.02147,0.01887 -0.0078,0.0046 -0.01041,0.0046 -0.0033,0 -0.0033,-0.0039 0,-0.0072 0.0072,-0.01756 0.01886,-0.02862 0.03383,-0.06245 0.01561,-0.03448 0.02407,-0.06245 0.0085,-0.02862 0.0085,-0.04098 v -0.0039 q 0,-0.0098 0.0065,-0.0098 0.0039,0 0.01301,0.0052 0.0098,0.0046 0.01691,0.01106 0.0078,0.0065 0.0078,0.01301 0,0.0026 -0.01041,0.02732 -0.0098,0.02407 -0.02277,0.04749 l 0.06895,-0.0039 q 0.01626,-0.0013 0.02472,-0.0046 0.0039,-0.0013 0.0065,-0.0013 0.0085,0 0.02017,0.01041 0.01171,0.01041 0.01171,0.01756 0,0.0072 -0.01496,0.0085 l -0.0696,0.0039 -6.5e-4,0.07156 0.03773,-0.002 q 0.01431,-0.0013 0.02472,-0.0052 0.0039,-0.0013 0.0065,-0.0013 0.0078,0 0.02017,0.01041 0.01236,0.01041 0.01236,0.01821 0,0.0072 -0.01561,0.0085 l -0.08587,0.0046 -6.51e-4,0.0657 0.01887,-6.51e-4 q 0.01106,0 0.02472,-0.0052 0.0039,-0.0013 0.0065,-0.0013 0.0065,0 0.01366,0.0059 0.0078,0.0052 0.01301,0.01236 0.0059,0.0072 0.0059,0.0098 0,0.0072 -0.01561,0.0085 l -0.06765,0.0033 z m -0.228329,-0.116441 q -0.01951,0.02342 -0.04944,0.05139 -0.02992,0.02732 -0.04098,0.02732 -0.0046,0 -0.0046,-0.0039 0,-0.0059 0.01106,-0.01886 0.02147,-0.02472 0.05399,-0.07025 0.03318,-0.04554 0.0579,-0.08847 0.02472,-0.04358 0.02472,-0.0631 v -0.0046 q 0,-0.0072 0.0072,-0.0072 0.0033,0 0.01236,0.0052 0.0091,0.0046 0.01626,0.01171 0.0078,0.0065 0.0078,0.01301 0,0.0059 -0.02342,0.04358 -0.02277,0.03708 -0.03708,0.05724 v 0.288176 q 0,0.01301 -0.01106,0.01301 -0.0026,0 -0.01041,-0.0033 -0.0078,-0.0026 -0.01431,-0.0085 -0.0065,-0.0052 -0.0065,-0.01301 0,-0.002 0.0013,-0.0072 0.0033,-0.01431 0.0033,-0.03448 z m 0.379898,0.01431 q 0.0065,0 0.01887,0.0065 0.02862,0.01496 0.04424,0.01887 0.0013,6.5e-4 0.0039,6.5e-4 0.0052,0 0.0091,-0.06765 0.0046,-0.0683 0.0072,-0.16588 l -0.08652,0.0065 v 0.201659 z m -0.282321,-0.291428 q -0.03513,0.05269 -0.07091,0.08912 -0.03513,0.03643 -0.0618,0.05464 -0.02602,0.01821 -0.03318,0.01821 -0.0046,0 -0.0046,-0.0039 0,-0.0065 0.01171,-0.01821 0.03643,-0.03838 0.0631,-0.07351 0.02667,-0.03513 0.04033,-0.05985 0.01431,-0.02537 0.01431,-0.03448 0,-0.01041 0.0078,-0.01041 0.0078,0 0.02212,0.01171 0.01431,0.01171 0.01431,0.01952 0,0.0026 -0.0033,0.0072 z"
           style="font-size:0.65051px;fill:#00a86b;fill-opacity:1"
           id="path931" />
        <path
           d="m 26.690662,60.235742 q 0.0065,0 0.01821,0.0085 0.01171,0.0078 0.01171,0.01561 0,0.0046 -0.0033,0.0098 -0.0033,0.0046 -0.0039,0.0072 -0.03057,0.109286 -0.08652,0.186046 0.03318,0.03057 0.07025,0.05529 0.03773,0.02407 0.08522,0.04554 0.0098,0.0046 0.0098,0.0098 0,0.0059 -0.01106,0.01561 -0.01106,0.01041 -0.01756,0.01041 -0.0033,0 -0.02732,-0.01236 -0.02407,-0.01236 -0.0592,-0.03643 -0.03448,-0.02407 -0.07156,-0.05985 -0.02862,0.03318 -0.0605,0.05725 -0.03188,0.02407 -0.05725,0.03643 -0.02472,0.01301 -0.03122,0.01301 -0.0052,0 -0.0052,-0.0033 0,-0.0065 0.01431,-0.01691 0.06635,-0.04944 0.112538,-0.111888 -0.03578,-0.03903 -0.07025,-0.08782 -0.01041,0.01171 -0.02732,0.02797 -0.01691,0.01626 -0.02537,0.01626 -0.0039,0 -0.0039,-0.0039 0,-0.0059 0.0091,-0.01886 0.03383,-0.04684 0.05724,-0.09042 0.02407,-0.04424 0.03513,-0.07481 0.01171,-0.03122 0.01171,-0.04163 0,-0.0046 -6.5e-4,-0.0065 -6.51e-4,-0.002 -6.51e-4,-0.0052 0,-0.0065 0.0065,-0.0065 0.0072,0 0.02342,0.0098 0.01561,0.01041 0.01561,0.02147 0,0.002 -0.0013,0.0059 l -0.01366,0.03122 0.08847,-0.0059 z m -0.294681,0.349324 q 0.0033,-0.02407 0.0033,-0.04358 l 0.0033,-0.184095 q -0.03643,0.04814 -0.0683,0.07611 -0.01236,0.01041 -0.01821,0.01041 -0.0039,0 -0.0039,-0.0039 0,-0.0059 0.0078,-0.01626 0.01952,-0.02667 0.04944,-0.07481 0.03057,-0.04814 0.05334,-0.09367 0.02342,-0.04554 0.02342,-0.0657 v -0.0072 q 0,-0.0085 0.0065,-0.0085 0.0098,0 0.02342,0.01041 0.01431,0.0098 0.01431,0.01952 0,0.0026 -0.0013,0.0065 -0.02342,0.05139 -0.04879,0.09367 l -6.51e-4,0.298584 q 0,0.01236 -0.0098,0.01236 -0.0026,0 -0.01106,-0.0026 -0.0078,-0.002 -0.01561,-0.0078 -0.0072,-0.0052 -0.0072,-0.01496 z m 0.0065,-0.413725 q -0.01951,0.0013 -0.02277,0.0013 -0.01561,0 -0.02342,-0.0085 -0.0078,-0.0091 -0.01366,-0.02472 -6.5e-4,-0.0013 -6.5e-4,-0.0039 0,-0.0033 0.0039,-0.0033 l 0.0033,6.5e-4 q 0.01431,0.0039 0.03448,0.0039 h 0.0098 l 0.271913,-0.01626 q 0.02342,-0.0013 0.04228,-0.0078 0.0039,-0.0013 0.0059,-0.0013 0.0072,0 0.02212,0.01301 0.01366,0.01236 0.01366,0.01951 0,0.0065 -0.01106,0.0078 z m 0.174337,0.105383 q -0.01887,0.03643 -0.04619,0.07286 0.03318,0.05074 0.06765,0.08717 0.01301,-0.01886 0.03122,-0.05269 -0.02277,-0.02082 -0.05725,-0.04749 -0.0098,-0.0072 -0.0098,-0.01236 0,-0.0059 0.0078,-0.01236 0.0078,-0.0072 0.01171,-0.0072 0.0098,0 0.03578,0.02212 0.02667,0.02212 0.02732,0.02277 0.01431,-0.03318 0.02667,-0.07871 z m -0.349975,0.305089 q -0.02082,0 -0.03903,-0.01431 -0.0052,-0.0033 -0.0052,-0.0059 0,-0.0026 0.0052,-0.0059 0.02147,-0.01496 0.05855,-0.08652 0.03773,-0.07156 0.05529,-0.111888 0.01171,-0.02407 0.01756,-0.02407 0.0039,0 0.0039,0.0085 0,0.01561 -0.02212,0.08131 -0.02147,0.06505 -0.05074,0.134005 -0.0059,0.01431 -0.01041,0.01951 -0.0039,0.0052 -0.01171,0.0052 z m 0.08131,-0.394209 q -0.0052,0 -0.01041,-0.0065 -0.02602,-0.03188 -0.07806,-0.07416 -0.0059,-0.0052 -0.0059,-0.0091 0,-0.0039 0.0072,-0.01366 0.0078,-0.0098 0.01496,-0.0098 0.0052,0 0.02927,0.01886 0.02472,0.01821 0.04554,0.03838 0.02147,0.02017 0.02147,0.02667 0,0.0078 -0.0098,0.01887 -0.0091,0.01041 -0.01431,0.01041 z m -0.03187,0.136607 q -0.0033,0 -0.0065,-0.0026 -0.0033,-0.0026 -0.0039,-0.0033 -0.04163,-0.04098 -0.08196,-0.06895 -0.0065,-0.0046 -0.0065,-0.01041 0,-0.0078 0.0059,-0.01496 0.0065,-0.0078 0.01431,-0.0078 0.0052,0 0.03057,0.01756 0.02602,0.01756 0.04879,0.03643 0.02277,0.01887 0.02277,0.02407 0,0.0059 -0.0085,0.01821 -0.0078,0.01171 -0.01496,0.01171 z m 0.295982,-0.199706 q -0.0033,0 -0.0072,-0.0026 -0.0033,-0.0033 -0.0059,-0.0052 -0.002,-0.0026 -0.0033,-0.0039 -0.01171,-0.01236 -0.02407,-0.02212 -0.01171,-0.0098 -0.02277,-0.01691 -0.01041,-0.0078 -0.01431,-0.01041 -0.0085,-0.0065 -0.0085,-0.01171 0,-0.0059 0.0059,-0.01236 0.0065,-0.0072 0.01236,-0.0072 0.0052,0 0.02732,0.01496 0.02277,0.01431 0.04228,0.03057 0.01951,0.01626 0.01951,0.02277 0,0.0052 -0.0072,0.01496 -0.0072,0.0091 -0.01431,0.0091 z"
           style="font-size:0.65051px;fill:#00a86b;fill-opacity:1"
           id="path933" />
        <path
           d="m 27.274819,60.313803 q 0,0.0059 -0.0078,0.0098 -0.0078,0.0039 -0.01756,0.0039 -0.0078,0 -0.01301,-0.0033 -0.0052,-0.0033 -0.0052,-0.0098 -0.0013,-0.03448 -0.0065,-0.08587 -0.0046,-0.05204 -0.0078,-0.07611 -0.03188,0.07481 -0.04554,0.112538 l -0.0039,0.01171 q -6.51e-4,0.0078 -0.0085,0.01236 -0.0072,0.0046 -0.01691,0.0046 -0.01626,0 -0.02017,-0.01106 -0.0013,-0.0046 -0.0033,-0.0098 -0.002,-0.0052 -0.0033,-0.0078 -0.02472,-0.06245 -0.03773,-0.09953 -0.01171,0.135956 -0.01171,0.148316 0,0.0052 -0.0065,0.0085 -0.0059,0.0033 -0.01431,0.0033 -0.0091,0 -0.01561,-0.0033 -0.0065,-0.0033 -0.0065,-0.0091 v -0.0013 q 0.0065,-0.04228 0.01952,-0.195153 v -0.0033 l -6.51e-4,-0.01171 v -0.0026 q 0.0013,-0.0065 0.01171,-0.01236 0.01106,-0.0065 0.02017,-0.0065 0.01106,0 0.01952,0.01951 0.01886,0.0566 0.05009,0.137258 0.02017,-0.05074 0.03643,-0.08912 0.0065,-0.01691 0.01171,-0.02927 0.0052,-0.01236 0.0085,-0.02082 0.0052,-0.01106 0.0085,-0.01496 0.0039,-0.0046 0.01236,-0.0046 0.0078,0 0.02082,0.0078 0.01301,0.0078 0.01301,0.01366 0,0.0033 -6.51e-4,0.0065 -6.5e-4,0.0033 -6.5e-4,0.0065 v 0.0026 q 0.0039,0.03903 0.01106,0.110587 0.0078,0.07156 0.01041,0.08652 z m -0.415026,-0.189949 -0.02667,0.0033 h -6.5e-4 q -0.0072,0 -0.01236,-0.0085 -0.0046,-0.0091 -0.0046,-0.01887 0,-0.01301 0.0091,-0.01301 h 6.5e-4 q 0.0059,6.51e-4 0.02277,6.51e-4 h 0.0098 l 0.11449,-0.0059 q 0.01236,-6.51e-4 0.02602,-0.0033 h 0.002 q 0.0072,0 0.01171,0.0085 0.0046,0.0078 0.0046,0.01691 0,0.01431 -0.0098,0.01431 -0.0052,-6.51e-4 -0.01626,-6.51e-4 -0.01041,0 -0.01626,6.51e-4 l -0.03773,0.002 v 0.154171 l 6.51e-4,0.02667 q 6.51e-4,0.0072 6.51e-4,0.01626 0,0.0039 -0.0052,0.0065 -0.0052,0.002 -0.01236,0.002 -0.0098,0 -0.01756,-0.0039 -0.0078,-0.0039 -0.0078,-0.01106 l 6.5e-4,-0.03643 v -0.152219 z"
           style="font-size:0.65051px"
           id="path935" />
        <path
           d="m 27.535672,60.501638 q 0,0.0093 -0.0083,0.0093 -0.0083,0 -0.01659,-0.0063 -0.0078,-0.0063 -0.0078,-0.01268 l 4.88e-4,-0.0039 q 0.0015,-0.01024 0.0015,-0.01805 v -0.0049 l -0.0063,-0.144901 q -9.76e-4,-0.01464 -0.0059,-0.02586 -0.0034,-0.0059 -0.0034,-0.0088 0,-0.0029 0.0054,-0.0029 0.0088,0 0.03318,0.0073 l 0.06001,-0.0029 -9.76e-4,-0.0966 q 0,-0.0073 -9.76e-4,-0.01122 -9.76e-4,-0.0044 -0.0039,-0.0088 -0.002,-0.0034 -0.002,-0.0059 0,-0.0034 0.0054,-0.0034 0.0078,0 0.01951,0.0049 0.01171,0.0044 0.01171,0.01366 v 0.04001 l 0.0766,-0.0044 q 0.0093,-4.88e-4 0.02098,-0.0054 9.76e-4,-4.87e-4 0.0029,-4.87e-4 0.0054,0 0.01561,0.0088 0.01073,0.0083 0.01073,0.01415 0,0.0054 -0.01025,0.0063 l -0.116603,0.0073 v 0.03903 l 0.08831,-0.0044 q 0.002,-4.88e-4 0.0059,-4.88e-4 0.0078,0 0.01415,0.0063 0.0063,0.0059 0.0063,0.01073 0,0.002 -0.0015,0.0054 -9.75e-4,0.0034 -9.75e-4,0.0049 l -0.0063,0.157098 q 0.0122,0.01268 0.0122,0.01903 0,0.0039 -0.0034,0.0054 -0.0034,9.76e-4 -0.0098,0.0015 l -0.185883,0.0059 z m -0.129776,-0.165392 q -0.02586,0.03464 -0.04928,0.05757 -0.02342,0.02293 -0.02976,0.02293 -0.0029,0 -0.0029,-0.0034 0,-0.0049 0.0063,-0.01317 0.03659,-0.0483 0.06635,-0.09953 0.03025,-0.05123 0.04732,-0.09758 0.0024,-0.0098 0.0024,-0.01512 0,-0.0024 -9.76e-4,-0.0073 l -4.88e-4,-0.002 q 0,-0.0049 0.0059,-0.0049 0.0078,0 0.01952,0.0073 0.0122,0.0073 0.0122,0.01317 0,0.0044 -0.01415,0.03562 -0.01415,0.03074 -0.03464,0.06489 v 0.294193 q 0,0.0098 -0.0083,0.0098 -0.0078,0 -0.0161,-0.0059 -0.0083,-0.0059 -0.0083,-0.01464 0,-0.0034 4.88e-4,-0.0054 0.0024,-0.01171 0.0024,-0.02732 z m 0.126849,0.09562 0.0015,0.03903 0.159049,-0.0054 0.0015,-0.04001 z m -0.0049,-0.116116 0.0015,0.03415 0.167831,-0.0078 9.76e-4,-0.03513 z m 0.0024,0.05757 0.0015,0.03513 0.163441,-0.0063 9.75e-4,-0.03561 z m 0.218571,0.224914 q -0.0034,0 -0.01073,-0.0059 -0.02147,-0.01756 -0.04732,-0.03561 -0.02586,-0.01805 -0.04733,-0.02976 -0.0034,-0.002 -0.0059,-0.0039 -0.002,-0.002 -0.002,-0.0044 4.88e-4,-0.002 0.0024,-0.0063 0.0024,-0.0044 0.0059,-0.0083 0.0034,-0.0044 0.0073,-0.0044 0.0068,0 0.04245,0.02244 0.0361,0.02195 0.06342,0.04391 0.0073,0.0059 0.0073,0.01122 0,0.0039 -0.0054,0.0122 -0.0049,0.0088 -0.01025,0.0088 z m -0.153683,-0.06587 q -0.0283,0.02244 -0.05562,0.03757 -0.02732,0.01512 -0.04684,0.02195 -0.01952,0.0073 -0.02537,0.0073 -0.0063,0 -0.0063,-0.0034 0,-0.0034 0.0083,-0.0083 0.06001,-0.03415 0.0888,-0.06635 0.0063,-0.0073 0.0083,-0.01756 9.76e-4,-0.0044 0.0044,-0.0044 0.0059,0 0.01464,0.0083 0.0093,0.0083 0.0122,0.0161 4.88e-4,9.75e-4 4.88e-4,0.0029 0,0.0034 -0.0029,0.0059 z"
           style="font-size:0.487882px;fill:#e3d4b4;fill-opacity:1"
           id="path937" />
        <path
           d="m 28.126984,60.409916 q 0.06342,0.07172 0.143438,0.114652 0.0073,0.0034 0.0073,0.0073 0,0.0015 -0.0039,0.0068 -0.0039,0.0054 -0.0093,0.01025 -0.0049,0.0044 -0.0093,0.0044 -0.0039,0 -0.02683,-0.0161 -0.02293,-0.0161 -0.05367,-0.04391 -0.03074,-0.0283 -0.06001,-0.06294 l 4.88e-4,0.161489 q 0,0.01317 -0.0093,0.01317 -0.0063,0 -0.01415,-0.0049 -0.0073,-0.0049 -0.0073,-0.01171 0,-0.0039 4.88e-4,-0.0059 0.002,-0.01171 0.002,-0.04196 l 4.88e-4,-0.10587 q -0.04928,0.07904 -0.125874,0.119531 l -0.0024,0.0015 q -0.0054,0.0024 -0.0093,0.0024 -0.0039,0 -0.0039,-0.0029 0,-0.0049 0.01025,-0.01317 0.07172,-0.05708 0.117091,-0.129777 l -0.05415,0.0029 -0.01512,9.76e-4 q -0.0083,0 -0.01415,-0.0054 -0.0054,-0.0059 -0.0083,-0.01268 -0.0024,-0.0068 -0.0024,-0.0098 0,-0.0024 0.0029,-0.0024 0.002,0 0.0034,4.88e-4 0.0088,0.0029 0.01756,0.0029 h 0.0059 l 0.07855,-0.0039 v -0.03415 q 0,-0.01561 -0.0044,-0.02293 -0.0029,-0.0044 -0.0029,-0.0063 0,-0.0034 0.0054,-0.0034 0.0093,0 0.01903,0.0034 0.01025,0.0034 0.01025,0.0122 v 0.04976 l 0.07074,-0.0039 q 0.01269,-9.76e-4 0.02195,-0.0044 0.0015,-4.88e-4 0.0039,-4.88e-4 0.0024,0 0.0083,0.0039 0.0059,0.0034 0.01025,0.0088 0.0049,0.0049 0.0049,0.0098 0,0.0059 -0.0073,0.0068 z m -0.23028,0.02391 q -0.04684,0.03171 -0.05806,0.03171 -0.0068,0 -0.01756,-0.0083 -0.01073,-0.0088 -0.01073,-0.01415 0,-0.0034 0.0049,-0.0039 0.0088,-0.0015 0.02439,-0.0078 0.01561,-0.0063 0.05757,-0.02732 l 4.88e-4,-0.09367 -0.03659,0.0029 q -0.01366,9.76e-4 -0.01708,9.76e-4 -0.0078,0 -0.01073,-0.0029 -0.0098,-0.0093 -0.01366,-0.02049 -4.88e-4,-9.76e-4 -4.88e-4,-0.0024 0,-0.0024 0.0024,-0.0024 l 0.0024,4.88e-4 q 0.0073,0.0015 0.01512,0.0015 0.0073,0 0.01171,-4.88e-4 l 0.04684,-0.0034 4.88e-4,-0.07855 q 0,-0.0088 -0.0015,-0.01415 -0.0015,-0.0054 -0.0063,-0.01268 -0.0015,-0.0024 -0.0015,-0.0039 0,-0.0034 0.0054,-0.0034 0.0059,0 0.01756,0.0044 0.0093,0.0034 0.01269,0.0073 0.0034,0.0034 0.0034,0.0093 l -4.88e-4,0.08977 0.0093,-4.88e-4 q 0.0088,-4.88e-4 0.01854,-0.0054 9.76e-4,-4.87e-4 0.0029,-4.87e-4 0.0063,0 0.0161,0.0083 0.0098,0.0083 0.0098,0.01366 0,0.0029 -0.0034,0.0049 -0.0029,0.002 -0.0078,0.0024 l -0.04537,0.0034 -4.88e-4,0.08001 q 0.02195,-0.0122 0.04001,-0.02342 0.0054,-0.0034 0.0098,-0.0034 0.0039,0 0.0039,0.0034 0,0.0083 -0.05367,0.0483 l -9.76e-4,0.136119 4.88e-4,0.01708 q 0,0.01415 -0.0083,0.02147 -0.0078,0.0078 -0.01659,0.0078 -0.0083,0 -0.02488,-0.01366 -0.0161,-0.01317 -0.02976,-0.02927 -0.01317,-0.0161 -0.01317,-0.02342 0,-0.0024 0.0024,-0.0024 0.0034,0 0.01317,0.0068 0.01854,0.01317 0.04684,0.02439 z m 0.127825,-0.203447 q -0.01073,0.03757 -0.0161,0.04879 -0.0049,0.01073 -0.01025,0.01073 -0.0044,0 -0.0122,-0.0039 -0.0078,-0.0044 -0.0078,-0.01122 0,-0.0029 0.0024,-0.0078 0.01756,-0.03854 0.02732,-0.08392 9.76e-4,-0.0054 0.0029,-0.0078 0.002,-0.0029 0.0059,-0.0029 0.0054,0 0.01171,0.0024 0.0068,0.0024 0.0068,0.0093 0,0.0029 -4.88e-4,0.0044 l -0.0029,0.01366 0.190274,-0.01317 q 0.0015,-4.88e-4 0.0054,-4.88e-4 0.0088,0 0.01464,0.0068 0.0059,0.0068 0.0059,0.0122 0,0.0039 -0.0029,0.0068 -0.0029,0.0029 -0.0039,0.0039 -0.0088,0.01366 -0.02878,0.03805 -0.01952,0.02439 -0.02927,0.02439 -0.0039,0 -0.0039,-0.0044 0,-0.0054 0.0054,-0.01317 0.01025,-0.01561 0.02342,-0.04537 z m 0.147341,0.07952 q 0.01952,0 0.02781,-0.0015 0.0083,-0.0015 0.01415,-0.0044 0.0029,-0.0015 0.0073,-0.0015 0.0063,0 0.01366,0.0073 0.0078,0.0068 0.0078,0.01268 0,0.01366 -0.06147,0.01366 -0.02098,0 -0.03318,-0.0024 -0.0122,-0.0024 -0.02,-0.01171 -0.0073,-0.0093 -0.0073,-0.02878 v -0.0034 l 9.76e-4,-0.02976 q 0,-0.01025 -0.0034,-0.01659 -0.0015,-0.0029 -0.0015,-0.0049 0,-0.0034 0.0054,-0.0034 0.0054,0 0.01464,0.0029 0.0083,0.0024 0.01073,0.0054 0.0029,0.0029 0.0029,0.0068 l -0.002,0.03757 v 0.0049 q 0,0.01025 0.0029,0.01317 0.0029,0.0029 0.01171,0.0039 z m -0.177589,0.05074 q -0.0029,0 -0.0029,-0.0029 0,-0.0039 0.0063,-0.01073 0.02293,-0.02634 0.04001,-0.05513 0.01756,-0.02927 0.01756,-0.04147 l -4.88e-4,-0.0044 -4.88e-4,-0.0044 q 0,-0.0059 0.0049,-0.0059 0.0063,0 0.01756,0.0073 0.01122,0.0068 0.01122,0.01317 0,0.0034 -0.002,0.0068 -0.01415,0.0283 -0.03366,0.05074 -0.01951,0.02195 -0.03659,0.03464 -0.01659,0.0122 -0.02147,0.0122 z"
           style="font-size:0.487882px;fill:#e3d4b4;fill-opacity:1"
           id="path939" />
        <path
           d="m 28.420201,60.593848 v 0.002 q 0,0.0093 -0.0068,0.0093 -0.002,0 -0.0083,-0.0024 -0.0063,-0.0024 -0.01171,-0.0063 -0.0049,-0.0039 -0.0049,-0.0088 v -0.002 q 0,-0.0059 4.88e-4,-0.01122 9.76e-4,-0.0049 9.76e-4,-0.0093 v -0.0068 l -0.0054,-0.08782 q -4.88e-4,-0.0093 -0.002,-0.0161 -0.0015,-0.0068 -0.0054,-0.01366 -0.0034,-0.0054 -0.0034,-0.0073 0,-0.0024 0.0044,-0.0024 0.0063,0 0.0361,0.0088 l 0.06196,-0.0024 q 0.002,-0.01464 0.002,-0.02342 l -0.136607,0.0054 h -0.0063 q -0.0083,0 -0.01268,-9.76e-4 -0.0044,-9.76e-4 -0.0088,-0.0039 -0.0054,-0.0039 -0.0088,-0.01025 -0.0029,-0.0063 -0.0029,-0.0088 0,-0.002 0.002,-0.002 0.0015,0 0.0024,4.88e-4 0.01122,0.002 0.02391,0.002 h 0.0068 l 0.363472,-0.01268 q 0.0093,-4.88e-4 0.02537,-0.0034 0.0015,-4.88e-4 0.0044,-4.88e-4 0.0063,0 0.01415,0.0068 0.0078,0.0068 0.0078,0.01171 0,0.0059 -0.0073,0.0059 l -0.177101,0.0068 -4.88e-4,0.02293 0.09123,-0.0039 0.0054,-4.88e-4 q 0.0088,0 0.01415,0.0059 0.0054,0.0054 0.0054,0.0098 0,0.0029 -0.0015,0.0063 -0.0015,0.0029 -0.002,0.0044 l -0.01025,0.10148 q 0.01268,0.01317 0.01268,0.01951 0,0.0049 -0.0098,0.0049 l -0.253211,0.0049 z m 0.01708,-0.3825 q 0.0059,0.0029 0.0083,0.0054 0.0024,0.002 0.0024,0.0044 0,0.0024 -0.0063,0.0122 l 0.02781,-0.0024 q 0.0068,-4.88e-4 0.01903,-0.0034 l 0.0024,-4.88e-4 q 0.0044,0 0.01171,0.0059 0.0073,0.0054 0.0073,0.0098 0,0.0034 -0.0049,0.0039 l -0.03415,0.0024 q -9.75e-4,0.01512 -0.0024,0.02244 l 0.01903,-0.0015 q 0.0093,-4.88e-4 0.01708,-0.0039 0.0029,-9.76e-4 0.0039,-9.76e-4 0.0054,0 0.0122,0.0063 0.0068,0.0063 0.0068,0.01073 0,0.0029 -0.0059,0.0039 l -0.05562,0.0039 -4.88e-4,0.0015 q 0.03318,0.01268 0.04245,0.01903 0.0093,0.0059 0.0093,0.01025 -0.0015,0.0063 -0.0049,0.01122 -0.0029,0.0044 -0.0068,0.0044 -0.002,0 -0.0073,-0.0034 -0.01854,-0.01317 -0.04196,-0.02488 -0.0088,0.01317 -0.02683,0.02439 -0.01805,0.01122 -0.02878,0.01122 -0.0044,0 -0.0044,-0.0024 0,-0.0034 0.0073,-0.0083 0.02634,-0.01708 0.03659,-0.04098 l -0.02342,0.0015 q -0.0044,4.88e-4 -0.01073,4.88e-4 -0.0088,0 -0.01268,-0.0029 -0.0039,-0.0034 -0.0078,-0.01415 l -4.88e-4,-0.0015 q 0,-0.002 0.002,-0.002 0.0015,0 0.0024,4.88e-4 0.0068,0.0015 0.01659,0.0015 h 0.0063 l 0.03171,-0.0024 q 0.002,-0.01366 0.002,-0.02244 l -0.01756,0.0015 q -0.0049,0.0063 -0.01317,0.01415 -0.0078,0.0078 -0.01269,0.0078 -0.002,0 -0.002,-0.002 0,-0.0034 0.0039,-0.0088 0.0039,-0.0054 0.01122,-0.02098 0.0078,-0.0161 0.0078,-0.0283 v -0.0049 l -0.02635,0.0015 q -0.0015,0 -0.01317,0.0015 l -0.002,0.115628 v 0.0015 q 0,0.01464 0.0063,0.01903 0.0068,0.0039 0.02147,0.0039 0.03805,0 0.06635,-0.0034 0.02879,-0.0039 0.03757,-0.0073 0.0029,-0.0015 0.0054,-0.0015 0.0068,0 0.01561,0.0059 0.0093,0.0059 0.0093,0.01268 0,0.0029 -0.0029,0.0054 -0.0029,0.0024 -0.0078,0.0029 -0.0322,0.0039 -0.06733,0.0063 -0.03464,0.0024 -0.04928,0.0024 -0.01805,0 -0.03074,-0.0024 -0.01269,-0.0024 -0.02147,-0.01171 -0.0083,-0.0093 -0.0083,-0.02781 v -9.76e-4 l 0.0015,-0.120995 q -0.0059,-9.76e-4 -0.0093,-0.0034 -0.0049,-0.0049 -0.0093,-0.01025 -0.0039,-0.0059 -0.0039,-0.0083 0,-0.0024 0.0029,-0.0024 0.0024,0 0.0034,4.88e-4 0.0083,0.002 0.02195,0.002 h 0.0049 l 0.114165,-0.0073 q 0.01122,0 0.02488,-0.0039 0.0015,-4.88e-4 0.0044,-4.88e-4 0.0059,0 0.01415,0.0073 0.0083,0.0068 0.0083,0.01122 0,0.0054 -0.0093,0.0063 l -0.09367,0.0059 z m 0.203446,0.34786 0.0083,-0.106846 -0.08245,0.0034 v 0.0068 q 0,0.0073 0.0024,0.0098 0.0024,0.0024 0.0098,0.0034 l 0.01073,4.88e-4 q 0.02147,0 0.03269,-0.0049 0.0029,-9.76e-4 0.0034,-9.76e-4 0.0039,0 0.01025,0.0068 0.0059,0.0063 0.0059,0.01024 0,0.0044 -0.01903,0.0073 -0.01903,0.0024 -0.03708,0.0024 -0.01854,0 -0.0283,-0.0029 -0.0093,-0.0029 -0.01317,-0.0098 -0.0034,-0.0068 -0.0034,-0.02 v -0.0078 l -0.04342,0.002 q -0.0059,0.01805 -0.02098,0.02976 -0.01512,0.01122 -0.03074,0.01659 -0.01561,0.0054 -0.01561,0.0039 0,-0.0034 0.0088,-0.0093 0.02391,-0.0161 0.0322,-0.04001 l -0.05806,0.0024 0.0059,0.10148 z m -0.136119,-0.146365 q -9.75e-4,0.01561 -0.002,0.02293 l 0.03903,-0.0015 4.88e-4,-0.02244 z m -0.05367,0.126362 q -0.0088,0 -0.01269,-0.0034 -9.75e-4,-9.76e-4 -0.0049,-0.0054 -0.0034,-0.0044 -0.0049,-0.0098 l -4.88e-4,-0.002 q 0,-0.0024 0.0029,-0.0024 h 0.0015 q 0.01122,0.0024 0.01952,0.0024 h 0.0034 l 0.129289,-0.0054 q 0.0122,-9.76e-4 0.01951,-0.0034 9.76e-4,-4.88e-4 0.0034,-4.88e-4 h 0.0039 q 0.0054,0 0.0098,0.0039 0.0063,0.0068 0.0063,0.0122 0,0.0029 -0.0024,0.0049 -0.002,0.002 -0.0059,0.002 l -0.158074,0.0063 z m 0.250772,-0.185395 q 9.75e-4,0.0029 9.75e-4,0.0039 0,0.0049 -0.0029,0.0098 -0.0029,0.0049 -0.0054,0.0059 -9.75e-4,4.88e-4 -0.0024,4.88e-4 -0.0024,0 -0.0073,-0.0024 -0.03074,-0.01854 -0.0566,-0.03074 -0.03269,0.02244 -0.05806,0.03171 -0.02537,0.0093 -0.03415,0.0093 -0.0059,0 -0.0059,-0.0029 0,-0.0044 0.01073,-0.0093 0.03269,-0.01415 0.06586,-0.03903 l -0.03708,-0.01464 q -0.0068,-0.0024 -0.0083,-0.0044 -9.76e-4,-0.0034 0.002,-0.0098 0.0029,-0.0063 0.0068,-0.0063 0.0098,0 0.05611,0.01951 0.01708,-0.01659 0.02781,-0.03415 l -0.0766,0.0068 q -0.0044,4.88e-4 -0.01073,4.88e-4 -0.01708,0 -0.02244,-0.01854 v -0.002 q 0,-0.002 0.0015,-0.002 h 0.002 q 0.0049,9.76e-4 0.01464,9.76e-4 0.0083,0 0.01366,-4.88e-4 l 0.08684,-0.0068 0.0078,-4.88e-4 q 0.0083,0 0.01317,0.0049 0.0049,0.0044 0.0049,0.0078 0,0.0034 -0.01317,0.02147 -0.01269,0.01756 -0.02732,0.03171 0.02098,0.0093 0.0361,0.01756 0.01561,0.0083 0.01756,0.01171 z m -0.03366,-0.125386 q 0.01073,0 0.01464,-0.0015 0.0083,-0.0015 0.01269,-0.0054 4.88e-4,-4.88e-4 0.0029,-4.88e-4 0.0039,0 0.01025,0.0049 0.0063,0.0049 0.0068,0.0093 v 9.76e-4 q 0,0.0039 -0.0063,0.0059 -0.01561,0.0049 -0.02049,0.0054 -0.01561,9.76e-4 -0.02976,9.76e-4 -0.01171,0 -0.01854,-0.0054 -0.0063,-0.0059 -0.0063,-0.0161 v -9.75e-4 l 0.0015,-0.02781 -0.04537,0.0039 q 0,0.02098 -0.01025,0.03415 -0.01024,0.01317 -0.02342,0.01951 -0.01317,0.0059 -0.02049,0.0059 -0.0039,0 -0.0039,-0.002 0,-0.0034 0.0083,-0.0093 0.0122,-0.0088 0.01854,-0.01903 0.0063,-0.01073 0.0063,-0.02781 v -0.0044 q 0,-0.01024 -0.0044,-0.01756 -0.002,-0.0039 -0.002,-0.0049 0,-0.002 0.0034,-0.002 0.0073,0 0.02879,0.0073 l 0.04928,-0.0049 0.0049,-4.88e-4 q 0.0054,0 0.01122,0.0039 0.0063,0.0034 0.0063,0.0088 0,0.002 -9.76e-4,0.0044 -9.75e-4,0.0024 -9.75e-4,0.0039 l -0.0015,0.02147 v 0.0015 q 0,0.0044 0.002,0.0063 0.002,0.0015 0.0068,0.0015 z"
           style="font-size:0.487882px;fill:#0000ff;fill-opacity:1"
           id="path941" />
        <path
           d="m 28.850511,60.378204 q -0.0098,0.04147 -0.01512,0.05318 -0.0049,0.01122 -0.0093,0.01122 -0.0073,0 -0.01464,-0.0054 -0.0073,-0.0054 -0.0073,-0.01073 0,-0.0029 0.0015,-0.0049 0.01854,-0.0361 0.02537,-0.08148 9.76e-4,-0.0059 0.0024,-0.0078 0.002,-0.0024 0.0078,-0.0024 l 0.0049,4.88e-4 q 0.01073,0.0034 0.01073,0.01122 0,0.0029 -4.88e-4,0.0049 l -0.0015,0.0088 0.01513,-4.88e-4 -0.0098,-0.12197 q -0.002,-0.01952 -0.0044,-0.02878 -0.0024,-0.0073 -0.0024,-0.01025 0,-0.0034 0.0039,-0.0034 0.0054,0 0.02439,0.0073 0.01756,-0.0059 0.03025,-0.0161 0.01317,-0.01024 0.0161,-0.01805 0.0015,-0.0049 0.0049,-0.0049 0.0054,0 0.0122,0.01025 0.0073,0.01025 0.0073,0.01659 0,0.0039 -0.0034,0.0059 -0.02147,0.01073 -0.03464,0.01659 -0.01269,0.0059 -0.02781,0.01073 l 0.002,0.02537 0.02439,-0.0024 q 0.0083,-9.76e-4 0.01708,-0.0034 0.0039,-9.76e-4 0.0059,-9.76e-4 0.0073,0 0.01415,0.0073 0.0068,0.0068 0.0068,0.01073 0,0.0059 -0.01122,0.0068 l -0.05562,0.0044 0.002,0.02781 0.02488,-0.002 q 0.0098,-4.88e-4 0.01659,-0.0034 0.0029,-9.75e-4 0.0049,-9.75e-4 0.0044,0 0.01317,0.0059 0.0088,0.0059 0.0088,0.01171 0,0.0029 -0.0034,0.0049 -0.0029,0.002 -0.0083,0.0024 l -0.05464,0.0039 0.0029,0.03659 0.236135,-0.0122 0.0029,-0.03464 -0.03805,0.0024 -0.0093,4.88e-4 q -0.0078,0 -0.01269,-0.0049 -0.0049,-0.0049 -0.0068,-0.01025 -0.0015,-0.0054 -0.0015,-0.0073 0,-0.0024 0.0029,-0.0024 l 0.0024,4.88e-4 q 0.0083,0.0015 0.01561,0.0015 h 0.0049 l 0.04391,-0.0029 0.002,-0.02781 -0.04001,0.0029 -0.0073,4.88e-4 q -0.0088,0 -0.01415,-0.0044 -0.0049,-0.0049 -0.0068,-0.0098 -0.002,-0.0054 -0.002,-0.0073 0,-0.0029 0.0029,-0.0029 l 0.0024,4.88e-4 q 0.0083,0.0015 0.0161,0.0015 h 0.0049 l 0.04586,-0.0034 0.002,-0.03025 -0.04342,0.0029 -0.0093,4.88e-4 q -0.01415,0 -0.01903,-0.0088 -0.0049,-0.0093 -0.0049,-0.01512 0,-0.0024 0.0024,-0.0024 l 0.0029,4.88e-4 q 0.0073,0.0015 0.01561,0.0015 h 0.0054 l 0.05708,-0.0044 h 0.0039 q 0.0059,0 0.01366,0.0044 0.0083,0.0044 0.0083,0.01122 0,0.002 -9.76e-4,0.0044 -4.88e-4,0.002 -4.88e-4,0.0039 l -0.01366,0.138071 0.03269,-0.0015 0.0093,-4.87e-4 q 0.0068,0 0.01317,0.0059 0.0068,0.0054 0.0068,0.01122 0,0.0039 -0.0034,0.0068 -0.0029,0.0029 -0.0034,0.0039 -0.02635,0.03366 -0.04245,0.04635 -0.0161,0.01269 -0.02195,0.01269 -0.0039,0 -0.0039,-0.0039 0,-0.0054 0.0063,-0.01317 0.01951,-0.02342 0.02927,-0.04537 z m 0.189786,0.124898 q 0.0034,0.01756 0.0039,0.03561 l 4.88e-4,0.01317 q 0,0.03269 -0.0098,0.04391 -0.0093,0.01122 -0.02098,0.01122 -0.01025,0 -0.0322,-0.01122 -0.02196,-0.01073 -0.04049,-0.02391 -0.01805,-0.01317 -0.01805,-0.01903 0,-0.0024 0.0044,-0.0024 0.0044,0 0.01317,0.0029 0.0161,0.0063 0.03952,0.01317 0.02342,0.0068 0.02878,0.0068 0.0024,0 0.0039,-0.0029 l 4.88e-4,-0.0024 q 0.0015,-0.01415 0.0015,-0.0283 0,-0.01903 -0.0029,-0.03562 l -0.161489,0.0059 -0.01415,4.88e-4 q -0.01317,0 -0.02,-0.0073 -0.0068,-0.0078 -0.0093,-0.01561 -4.88e-4,-9.75e-4 -4.88e-4,-0.0029 0,-0.0029 0.0034,-0.0029 l 0.0024,4.88e-4 q 0.01464,0.0029 0.02683,0.0029 h 0.0063 l 0.159049,-0.0063 q -0.0049,-0.01122 -0.01073,-0.01903 -0.0034,-0.0054 -0.0034,-0.0078 0,-0.0049 0.0068,-0.0083 0.0073,-0.0034 0.01122,-0.0034 0.0063,0 0.01171,0.0093 0.01854,-0.0078 0.03074,-0.01464 0.01269,-0.0073 0.02488,-0.01659 l -0.132216,0.0088 q -0.0063,4.88e-4 -0.01513,4.88e-4 -0.01171,0 -0.01854,-0.0054 -0.0068,-0.0059 -0.01171,-0.01512 -0.0015,-0.0024 -0.0015,-0.0039 0,-0.0034 0.0049,-0.0034 0.002,0 0.0034,4.87e-4 0.0078,0.0024 0.02196,0.0024 h 0.0068 l 0.154171,-0.0088 0.0093,-4.88e-4 q 0.0068,0 0.0122,0.0039 0.0059,0.0034 0.0088,0.0083 0.0034,0.0044 0.0034,0.0063 0,0.0044 -0.0049,0.0073 -0.0049,0.0024 -0.0059,0.0029 -0.02,0.01512 -0.03805,0.02537 -0.01805,0.0098 -0.04245,0.02098 l 0.0034,0.0088 0.126849,-0.0049 q 0.01903,-4.88e-4 0.03464,-0.0049 0.0015,-4.88e-4 0.0049,-4.88e-4 0.0068,0 0.01317,0.0049 0.0063,0.0044 0.01025,0.01025 0.0044,0.0054 0.0044,0.0073 0,0.0059 -0.0088,0.0068 z M 29.01444,60.31234 q -0.04293,0.03318 -0.05708,0.03318 -0.0034,0 -0.0034,-0.0024 0,-0.0044 0.0122,-0.01366 0.02,-0.01513 0.03123,-0.02927 -0.01854,-0.01366 -0.02586,-0.01756 -0.0063,-0.0034 -0.0063,-0.0068 0,-0.0039 0.0039,-0.0088 0.0039,-0.0049 0.0068,-0.0049 0.0044,0 0.03708,0.02098 0.01415,-0.01659 0.01659,-0.02976 9.76e-4,-0.0039 0.0049,-0.0039 0.0054,0 0.01366,0.0068 0.0088,0.0063 0.0088,0.0122 0,0.0034 -0.0098,0.01366 -0.0098,0.01025 -0.01366,0.01366 0.0073,0.0044 0.01854,0.01268 0.01171,0.0083 0.01171,0.01317 0,0.0044 -0.0049,0.01073 -0.0044,0.0063 -0.0088,0.0063 -0.0039,0 -0.0093,-0.0044 l -0.0088,-0.0073 q -0.0088,-0.0083 -0.01756,-0.01464 z m 4.88e-4,-0.08684 q -0.04147,0.03318 -0.05367,0.03318 -0.0034,0 -0.0034,-0.0024 0,-0.0049 0.01025,-0.01317 0.0161,-0.01317 0.03025,-0.02878 -0.02391,-0.0161 -0.02976,-0.01951 -0.0054,-0.0034 -0.0054,-0.0073 0,-0.0029 0.0029,-0.0073 0.0044,-0.0059 0.0083,-0.0059 0.0078,0 0.04001,0.02195 0.0024,-0.0024 0.0078,-0.01122 0.0059,-0.0088 0.0093,-0.01903 0.0015,-0.0039 0.0054,-0.0039 0.0054,0 0.01317,0.0073 0.0078,0.0068 0.0078,0.01317 0,0.0034 -0.002,0.0054 0,0 -0.0098,0.0098 -0.01122,0.01122 -0.01122,0.01122 0.0161,0.01122 0.02049,0.0161 0.0049,0.0044 0.0049,0.0073 0,0.0034 -0.0049,0.01025 -0.0044,0.0063 -0.0083,0.0063 -0.0044,0 -0.0093,-0.0049 -0.0122,-0.01073 -0.02293,-0.01854 z"
           style="font-size:0.487882px;fill:#0000ff;fill-opacity:1"
           id="path943" />
        <path
           d="m 29.406858,60.356737 q -0.0046,0 -0.0098,-0.0055 -0.0049,-0.0059 -0.0049,-0.01041 0,-0.0033 0.0029,-0.0036 0.04033,-0.0078 0.05172,-0.0091 0.01171,-0.0016 0.02992,-0.0016 0.04163,0 0.06212,0.01399 0.02082,0.01366 0.02082,0.03936 0,0.02797 -0.01756,0.04521 -0.01724,0.01724 -0.04846,0.02342 -0.0098,0.002 -0.02472,0.0036 -0.01464,0.0016 -0.02635,0.0016 -0.0068,0 -0.0094,-3.26e-4 -0.002,-6.5e-4 -0.0033,-0.0013 v 0.0683 q 0,0.01041 6.51e-4,0.02472 l 3.25e-4,0.01301 q 0,0.0033 -0.0068,0.0033 -0.0059,0 -0.01171,-0.0026 -0.0059,-0.0026 -0.0059,-0.0065 0,-0.0055 3.25e-4,-0.0098 l 3.25e-4,-0.02244 v -0.163278 z m 0.02309,0.08326 q 0.0026,-0.0013 0.0042,-0.0013 0.06375,-0.0042 0.08294,-0.02212 0.01919,-0.01821 0.01919,-0.0348 0,-0.0348 -0.06017,-0.0348 -0.02277,0 -0.04619,0.0065 z"
           style="font-size:0.325255px"
           id="path945" />
        <path
           d="m 29.617297,60.413006 q 0.0078,-0.0059 0.01691,-0.0094 0.0091,-0.0039 0.02147,-0.0039 0.01854,0 0.03285,0.0094 0.01431,0.0094 0.02212,0.02732 0.0081,0.01756 0.0081,0.04163 0,0.02147 -0.0094,0.04131 -0.0091,0.01952 -0.02667,0.03187 -0.01756,0.01236 -0.04163,0.01236 -0.03253,0 -0.05074,-0.01952 -0.01789,-0.01952 -0.01789,-0.05367 0,-0.01756 0.0075,-0.0361 0.0075,-0.01886 0.01691,-0.03155 0.0098,-0.01268 0.01496,-0.01268 0.0033,0 0.0055,0.0029 z m 0.02374,0.130752 q 0.01561,0 0.0283,-0.0085 0.01301,-0.0088 0.02017,-0.02374 0.0075,-0.01496 0.0075,-0.0335 0,-0.02765 -0.01106,-0.04326 -0.01073,-0.01561 -0.0322,-0.01561 -0.01659,0 -0.03025,0.01041 -0.01366,0.01041 -0.02147,0.027 -0.0078,0.01659 -0.0078,0.0335 0,0.02667 0.01203,0.04033 0.01203,0.01333 0.0348,0.01333 z"
           style="font-size:0.325255px"
           id="path947" />
        <path
           d="m 29.937022,60.425691 q 0.0026,-0.0075 0.0055,-0.02212 9.75e-4,-0.0036 0.0072,-0.0036 0.0055,0 0.01106,0.0026 0.0055,0.0026 0.0055,0.0059 0,9.76e-4 -3.25e-4,0.0016 -0.0062,0.01431 -0.0088,0.02179 l -0.03675,0.104732 q -0.0042,0.01333 -0.0059,0.01951 -0.0023,0.0075 -0.01008,0.0075 -0.0042,0 -0.0088,-0.002 -0.0042,-0.002 -0.0062,-0.0042 -0.0016,-0.0016 -0.0026,-0.0042 -9.76e-4,-0.0029 -0.0016,-0.0055 -3.26e-4,-0.0026 -9.76e-4,-0.0049 l -0.0296,-0.104407 -0.0335,0.09823 q -0.0016,0.0046 -0.0059,0.01951 -0.0023,0.0075 -0.0098,0.0075 -0.0036,0 -0.0078,-0.002 -0.0042,-0.002 -0.0062,-0.0042 -0.0016,-0.0016 -0.0026,-0.0036 -9.76e-4,-0.0023 -0.0016,-0.0049 -6.51e-4,-0.0029 -0.0016,-0.0062 l -0.03318,-0.114815 q -0.0026,-0.0078 -0.0072,-0.01919 -3.25e-4,-3.26e-4 -3.25e-4,-0.0013 0,-0.0026 0.0033,-0.0039 0.0033,-0.0013 0.0081,-0.0013 0.0055,0 0.0098,0.002 0.0046,0.0016 0.0049,0.0049 0.002,0.01236 0.0029,0.01594 l 0.02797,0.105383 0.03513,-0.100829 q 0.0013,-0.0049 0.002,-0.01106 9.75e-4,-0.0062 0.0013,-0.0091 3.25e-4,-0.002 0.0026,-0.0029 0.0023,-9.76e-4 0.0059,-9.76e-4 0.0065,0 0.01301,0.0023 0.0068,0.0023 0.0072,0.0052 3.25e-4,0.0016 6.5e-4,0.0062 6.51e-4,0.0042 0.0016,0.0075 l 0.0309,0.103756 z"
           style="font-size:0.325255px"
           id="path949" />
        <path
           d="m 30.015734,60.497247 q 0,0.02114 0.01073,0.03415 0.01073,0.01301 0.02732,0.01301 0.04261,0 0.06863,-0.02732 0.0039,-0.0049 0.0075,-0.0049 0.0013,0 0.0023,0.0013 9.76e-4,9.75e-4 9.76e-4,0.0026 0,0.0052 -0.0098,0.01691 -0.0094,0.01171 -0.02732,0.02114 -0.01789,0.0094 -0.04228,0.0094 -0.01691,0 -0.03025,-0.0085 -0.01334,-0.0085 -0.02114,-0.02407 -0.0078,-0.01594 -0.0078,-0.03675 v -0.0046 q -0.0029,-0.0023 -0.0049,-0.0052 -0.002,-0.0029 -0.002,-0.0052 0,-0.0042 0.0062,-0.0042 l 0.0029,-3.26e-4 q 0.0029,-0.01626 0.01464,-0.03383 0.01171,-0.01756 0.02927,-0.02927 0.01756,-0.01203 0.0374,-0.01203 0.02797,0 0.04098,0.01399 0.01301,0.01366 0.01301,0.0335 0,0.01236 -0.002,0.01821 -0.0016,0.0059 -0.0081,0.01008 -0.0065,0.0039 -0.02114,0.0085 -0.03187,0.01008 -0.08099,0.01008 h -0.0042 z m 0.0091,-0.02147 q 0.03643,0 0.06733,-0.0085 0.01138,-0.0033 0.01496,-0.0075 0.0036,-0.0042 0.0036,-0.01301 0,-0.01431 -0.0081,-0.02114 -0.0081,-0.0072 -0.02472,-0.0072 -0.01496,0 -0.02765,0.0091 -0.01269,0.0091 -0.02114,0.02244 -0.0081,0.01333 -0.01073,0.02569 z"
           style="font-size:0.325255px"
           id="path951" />
        <path
           d="m 30.181288,60.422438 -6.5e-4,-0.01886 q 0,-0.0033 0.0065,-0.0033 0.0059,0 0.01138,0.0026 0.0059,0.0026 0.0059,0.0065 0,0.0033 -6.5e-4,0.0081 -3.25e-4,0.0046 -3.25e-4,0.0085 0.0068,-0.01138 0.01919,-0.01886 0.01236,-0.0075 0.0283,-0.0075 0.0091,0 0.01756,0.0033 0.0088,0.0033 0.01431,0.0078 0.0055,0.0046 0.0055,0.0085 0,0.0052 -0.0039,0.01106 -0.0039,0.0059 -0.0078,0.0059 -0.0026,0 -0.0046,-0.0033 -0.0029,-0.0055 -0.0098,-0.0088 -0.0068,-0.0033 -0.01236,-0.0033 -0.01431,0 -0.02569,0.0088 -0.01106,0.0088 -0.01659,0.02569 -0.0033,0.01008 -0.0039,0.02309 -6.51e-4,0.01301 -6.51e-4,0.04488 0,0.0016 9.76e-4,0.02212 6.51e-4,0.0098 6.51e-4,0.01236 0,0.0033 -0.0065,0.0033 -0.0059,0 -0.01171,-0.0026 -0.0055,-0.0026 -0.0055,-0.0065 l 6.51e-4,-0.02862 v -0.08489 z"
           style="font-size:0.325255px"
           id="path953" />
        <path
           d="m 30.332206,60.497247 q 0,0.02114 0.01073,0.03415 0.01073,0.01301 0.02732,0.01301 0.04261,0 0.06863,-0.02732 0.0039,-0.0049 0.0075,-0.0049 0.0013,0 0.0023,0.0013 9.76e-4,9.75e-4 9.76e-4,0.0026 0,0.0052 -0.0098,0.01691 -0.0094,0.01171 -0.02732,0.02114 -0.01789,0.0094 -0.04228,0.0094 -0.01691,0 -0.03025,-0.0085 -0.01334,-0.0085 -0.02114,-0.02407 -0.0078,-0.01594 -0.0078,-0.03675 v -0.0046 q -0.0029,-0.0023 -0.0049,-0.0052 -0.002,-0.0029 -0.002,-0.0052 0,-0.0042 0.0062,-0.0042 l 0.0029,-3.26e-4 q 0.0029,-0.01626 0.01464,-0.03383 0.01171,-0.01756 0.02927,-0.02927 0.01756,-0.01203 0.0374,-0.01203 0.02797,0 0.04098,0.01399 0.01301,0.01366 0.01301,0.0335 0,0.01236 -0.002,0.01821 -0.0016,0.0059 -0.0081,0.01008 -0.0065,0.0039 -0.02114,0.0085 -0.03187,0.01008 -0.08099,0.01008 h -0.0042 z m 0.0091,-0.02147 q 0.03643,0 0.06733,-0.0085 0.01138,-0.0033 0.01496,-0.0075 0.0036,-0.0042 0.0036,-0.01301 0,-0.01431 -0.0081,-0.02114 -0.0081,-0.0072 -0.02472,-0.0072 -0.01496,0 -0.02765,0.0091 -0.01268,0.0091 -0.02114,0.02244 -0.0081,0.01333 -0.01073,0.02569 z"
           style="font-size:0.325255px"
           id="path955" />
        <path
           d="m 30.603143,60.364868 q 0,-0.0085 -6.5e-4,-0.02212 -6.51e-4,-0.0098 -6.51e-4,-0.01236 0,-0.0033 0.0065,-0.0033 0.0059,0 0.01138,0.0026 0.0055,0.0026 0.0055,0.0065 0,0.0052 -3.25e-4,0.0091 l -3.26e-4,0.01984 v 0.132379 q 0,0.01464 0.0029,0.02797 0.0029,0.01301 0.0081,0.01952 6.5e-4,0.0013 6.5e-4,0.0023 0,0.0042 -0.0049,0.0094 -0.0046,0.0049 -0.0094,0.0049 -0.0049,0 -0.0088,-0.0078 -0.0039,-0.0078 -0.0065,-0.01789 -0.0023,-0.01041 -0.0026,-0.01659 -0.01399,0.02309 -0.02992,0.03383 -0.01561,0.01041 -0.03513,0.01041 -0.02407,0 -0.03871,-0.01756 -0.01464,-0.01756 -0.01464,-0.04879 0,-0.02504 0.01138,-0.04749 0.01138,-0.02277 0.02992,-0.03643 0.01886,-0.01366 0.03968,-0.01366 0.01203,0 0.02147,0.0046 0.0098,0.0046 0.01496,0.01236 z m 0,0.06895 q -0.0013,0.0013 -0.0033,0.0013 -0.0016,0 -0.0029,-0.0016 -0.0049,-0.0068 -0.01334,-0.01073 -0.0081,-0.0042 -0.01659,-0.0042 -0.01561,0 -0.02927,0.01138 -0.01366,0.01138 -0.02179,0.0296 -0.0081,0.01789 -0.0081,0.03675 0,0.02342 0.0085,0.03578 0.0085,0.01203 0.02277,0.01203 0.01366,0 0.02862,-0.01041 0.01529,-0.01073 0.02537,-0.0283 0.01008,-0.01789 0.01008,-0.0374 z"
           style="font-size:0.325255px"
           id="path957" />
        <path
           d="m 30.817811,60.549288 q -6.51e-4,0.0033 -0.0055,0.0068 -0.0049,0.0033 -0.0091,0.0033 -0.0055,0 -0.0055,-0.0065 0,-0.0055 3.25e-4,-0.0094 l 3.26e-4,-0.02017 v -0.158399 q 0,-0.0085 -6.51e-4,-0.02212 l -3.25e-4,-0.01236 q 0,-0.0033 0.0065,-0.0033 0.0059,0 0.01138,0.0026 0.0059,0.0026 0.0059,0.0065 l -3.25e-4,0.0091 q -9.76e-4,0.0088 -9.76e-4,0.01984 v 0.07253 q 0.01236,-0.02082 0.027,-0.02927 0.01496,-0.0088 0.03415,-0.0088 0.02504,0 0.04033,0.01789 0.01529,0.01756 0.01529,0.04976 0,0.027 -0.01073,0.04911 -0.01073,0.02179 -0.02895,0.03448 -0.01821,0.01236 -0.04001,0.01236 -0.01236,0 -0.02244,-0.0055 -0.0098,-0.0052 -0.01561,-0.01431 z m 0.0013,-0.02439 q 0.0013,-6.51e-4 0.0023,-6.51e-4 0.0036,0 0.0068,0.0052 0.0059,0.0085 0.01301,0.01171 0.0075,0.0033 0.01659,0.0033 0.01236,0 0.02537,-0.0091 0.01334,-0.0094 0.02212,-0.02667 0.0091,-0.01756 0.0091,-0.04066 0,-0.02374 -0.01008,-0.0361 -0.0098,-0.01268 -0.02342,-0.01268 -0.02082,0 -0.0374,0.01594 -0.01659,0.01561 -0.02179,0.04033 -0.0026,0.01236 -0.0026,0.04944 z"
           style="font-size:0.325255px"
           id="path959" />
        <path
           d="m 30.98922,60.611086 q -0.0085,0 -0.01561,-0.0016 -0.0068,-0.0016 -0.01366,-0.0072 -0.0016,-0.0016 -0.0016,-0.0042 0,-0.0049 0.0033,-0.01041 0.0036,-0.0055 0.0075,-0.0055 0.0023,0 0.0042,0.0023 0.0036,0.0039 0.0078,0.0049 0.0046,0.0013 0.01041,0.0013 0.01171,0 0.01984,-0.01789 l 0.01431,-0.02992 -0.04749,-0.10766 q -0.0065,-0.01431 -0.01334,-0.02634 -6.5e-4,-0.0013 -6.5e-4,-0.002 0,-0.0026 0.0039,-0.0039 0.0039,-0.0013 0.0091,-0.0013 0.0049,0 0.0085,0.0013 0.0036,9.76e-4 0.0042,0.0029 0.0049,0.01268 0.0098,0.02407 l 0.03773,0.08749 0.04001,-0.08424 q 0.0059,-0.01236 0.01171,-0.03025 9.75e-4,-0.0029 0.0055,-0.0029 0.0052,0 0.01041,0.0039 0.0055,0.0036 0.0055,0.0085 0,0.002 -9.76e-4,0.0039 -0.0072,0.01301 -0.01269,0.02407 l -0.06863,0.144088 q -0.0068,0.01399 -0.01529,0.02017 -0.0081,0.0065 -0.02049,0.0065 z"
           style="font-size:0.325255px"
           id="path961" />
        <path
           d="m 31.319028,60.447971 q -0.01805,0.03757 -0.03025,0.06147 -0.0049,0.0098 -0.0098,0.02147 -0.0049,0.01171 -0.0083,0.02195 -0.0015,0.0039 -0.0078,0.0059 -0.0063,0.0024 -0.01415,0.0024 -0.0073,0 -0.01269,-0.0024 -0.0054,-0.0024 -0.0054,-0.0068 0,-0.0029 0.002,-0.0054 0.0073,-0.01171 0.05025,-0.09514 h -0.0034 q -0.0054,0 -0.01073,-0.0088 -0.0049,-0.0088 -0.0049,-0.01659 0,-0.0073 0.0054,-0.0073 h 9.75e-4 q 0.0039,0 0.0083,4.88e-4 0.0049,4.88e-4 0.01073,4.88e-4 h 0.0093 q 0.06098,-0.120995 0.08489,-0.180517 0.0015,-0.0039 0.0024,-0.01122 0.002,-0.01171 0.0039,-0.01415 0.0024,-0.0029 0.0093,-0.0029 0.0083,0 0.01708,0.0044 0.0088,0.0039 0.01073,0.0088 l 4.88e-4,0.002 q 0,0.0024 -9.75e-4,0.0049 -4.88e-4,0.0024 -4.88e-4,0.0049 0,0.0024 4.88e-4,0.0034 0.02,0.05367 0.05025,0.123435 0.03074,0.06977 0.06147,0.134167 0.0039,0.0088 0.0122,0.02342 0.0083,0.01415 0.0161,0.02488 0.002,0.0039 0.002,0.0049 0,0.0054 -0.0083,0.0088 -0.0083,0.0034 -0.01756,0.0034 -0.0059,0 -0.01025,-0.0015 -0.0044,-0.0015 -0.0049,-0.0044 -0.0098,-0.02927 -0.01756,-0.04635 -0.01659,-0.03464 -0.03122,-0.06879 l -0.157586,0.0068 z m 0.14734,-0.03464 q -0.04342,-0.100503 -0.06147,-0.148804 -0.02537,0.05708 -0.07123,0.154171 z"
           style="font-size:0.487882px;fill:#0000ff;fill-opacity:1"
           id="path963" />
        <path
           d="m 31.641029,60.280139 q 0,-0.01659 -9.76e-4,-0.03903 -0.01464,9.76e-4 -0.02049,9.76e-4 -0.0049,0 -0.01073,-0.0049 -0.0054,-0.0054 -0.0059,-0.01122 0,-0.01171 0.0073,-0.01171 l 0.04879,-9.75e-4 0.02293,-0.0015 0.02,-9.76e-4 q 0.0044,0 0.0088,0.0049 0.0049,0.0049 0.0049,0.01122 v 0.002 q 0,0.0098 -0.0068,0.0098 l -0.03074,9.76e-4 q 0,0.0088 -4.88e-4,0.01512 l -4.88e-4,0.02586 v 0.215644 q 0,0.01415 9.76e-4,0.03464 0.0161,-0.0015 0.02488,-0.0015 0.0044,0 0.0088,0.0049 0.0049,0.0049 0.0049,0.01122 v 0.002 q 0,0.0098 -0.0068,0.0098 l -0.01512,4.88e-4 q -0.01122,0 -0.02878,9.76e-4 l -0.02342,9.76e-4 q -0.0098,0 -0.02342,9.76e-4 -0.0049,4.87e-4 -0.01073,-0.0044 -0.0059,-0.0054 -0.0063,-0.01171 0,-0.01171 0.0073,-0.01171 0.01903,0 0.03074,-4.88e-4 9.76e-4,-0.01854 9.76e-4,-0.03659 z"
           style="font-size:0.487882px;fill:#0000ff;fill-opacity:1"
           id="path965" />
      </g>
    </g>
  </g>
</svg>
