<?xml version="1.0" encoding="UTF-8" standalone="no"?>
<svg
   xmlns:dc="http://purl.org/dc/elements/1.1/"
   xmlns:cc="http://creativecommons.org/ns#"
   xmlns:rdf="http://www.w3.org/1999/02/22-rdf-syntax-ns#"
   xmlns:svg="http://www.w3.org/2000/svg"
   xmlns="http://www.w3.org/2000/svg"
   xmlns:sodipodi="http://sodipodi.sourceforge.net/DTD/sodipodi-0.dtd"
   xmlns:inkscape="http://www.inkscape.org/namespaces/inkscape"
   width="137.1516"
   height="14.847987"
   viewBox="0 0 36.288026 3.9285301"
   version="1.1"
   id="svg8"
   inkscape:version="1.0.1 (3bc2e813f5, 2020-09-07)"
   sodipodi:docname="copyright.svg">
  <defs
     id="defs2" />
  <sodipodi:namedview
     id="base"
     pagecolor="#ffffff"
     bordercolor="#666666"
     borderopacity="1.0"
     inkscape:pageopacity="0.0"
     inkscape:pageshadow="2"
     inkscape:zoom="1"
     inkscape:cx="224.9463"
     inkscape:cy="156.05713"
     inkscape:document-units="px"
     inkscape:current-layer="layer1"
     inkscape:document-rotation="0"
     showgrid="false"
     units="px"
     fit-margin-top="0"
     fit-margin-left="0"
     fit-margin-right="0"
     fit-margin-bottom="0"
     inkscape:window-width="1080"
     inkscape:window-height="658"
     inkscape:window-x="-6"
     inkscape:window-y="-6"
     inkscape:window-maximized="1" />
  <metadata
     id="metadata5">
    <rdf:RDF>
      <cc:Work
         rdf:about="">
        <dc:format>image/svg+xml</dc:format>
        <dc:type
           rdf:resource="http://purl.org/dc/dcmitype/StillImage" />
        <dc:title></dc:title>
      </cc:Work>
    </rdf:RDF>
  </metadata>
  <g
     inkscape:label="Layer 1"
     inkscape:groupmode="layer"
     id="layer1"
     transform="translate(-46.31629,-75.126552)">
    <g
       aria-label="© 2023 金枝御液™"
       id="text12"
       style="font-size:4.23333px;line-height:1.25;font-family:Iansui;-inkscape-font-specification:'Iansui, Normal';word-spacing:0px;stroke-width:0.264583">
      <path
         d="m 49.224588,77.26015 q 0,0.3937 -0.198967,0.728133 -0.194733,0.334433 -0.529166,0.529166 -0.334433,0.194733 -0.728133,0.194733 -0.393699,0 -0.728132,-0.194733 -0.334433,-0.194733 -0.529166,-0.529166 -0.194734,-0.334433 -0.194734,-0.728133 0,-0.393699 0.194734,-0.728133 0.194733,-0.334433 0.529166,-0.529166 0.334433,-0.194733 0.728132,-0.194733 0.3937,0 0.728133,0.194733 0.334433,0.194733 0.529166,0.529166 0.198967,0.334434 0.198967,0.728133 z m -0.224367,0 q 0,-0.334433 -0.165099,-0.613833 -0.1651,-0.283633 -0.448733,-0.448733 -0.2794,-0.165099 -0.613833,-0.165099 -0.334433,0 -0.618066,0.165099 -0.2794,0.1651 -0.4445,0.448733 -0.1651,0.2794 -0.1651,0.613833 0,0.334433 0.1651,0.618066 0.1651,0.2794 0.4445,0.4445 0.283633,0.1651 0.618066,0.1651 0.334433,0 0.613833,-0.1651 0.283633,-0.1651 0.448733,-0.4445 0.165099,-0.283633 0.165099,-0.618066 z m -0.554566,0.524933 q -0.1397,0.207433 -0.3175,0.296333 -0.177799,0.0889 -0.452966,0.0889 -0.198966,0 -0.368299,-0.09313 -0.1651,-0.09737 -0.262467,-0.275167 -0.09737,-0.177799 -0.09737,-0.414866 0,-0.287866 0.1397,-0.537633 0.143934,-0.249766 0.3683,-0.393699 0.224367,-0.148167 0.4572,-0.148167 0.1778,0 0.300566,0.0635 0.122767,0.0635 0.182033,0.143933 0.05927,0.0762 0.05927,0.1143 0,0.05927 -0.05927,0.122767 -0.05503,0.0635 -0.1016,0.0635 -0.0254,0 -0.0381,-0.02117 -0.0127,-0.0254 -0.04233,-0.08043 -0.02963,-0.05927 -0.07197,-0.0889 -0.105833,-0.0762 -0.220133,-0.0762 -0.169333,0 -0.330199,0.110066 -0.160867,0.110067 -0.262467,0.296333 -0.1016,0.186267 -0.1016,0.410633 0,0.1905 0.06773,0.321734 0.06773,0.126999 0.169333,0.186266 0.105833,0.05927 0.211666,0.05927 0.2032,0 0.359833,-0.05503 0.156633,-0.05503 0.313267,-0.182033 0.04233,-0.03387 0.0762,-0.03387 0.0508,0 0.0508,0.04657 0,0.03387 -0.02963,0.0762 z"
         style="stroke-width:0.264583"
         id="path17" />
      <path
         d="m 51.311608,78.699482 q -0.06773,0 -0.122767,-0.06773 -0.0508,-0.0635 -0.0508,-0.135466 0,-0.03387 0.0127,-0.05927 0.0254,-0.03387 0.05503,-0.06773 0.02963,-0.0381 0.04233,-0.05927 0.131233,-0.220133 0.393699,-0.512233 0.2667,-0.296333 0.5969,-0.571499 0.283633,-0.232834 0.423333,-0.440267 0.1397,-0.211666 0.1397,-0.419099 0,-0.198967 -0.131233,-0.313267 -0.131234,-0.118533 -0.385233,-0.118533 -0.249767,0 -0.4191,0.1143 -0.169333,0.110066 -0.245533,0.300566 -0.01693,0.04233 -0.05927,0.0762 -0.0381,0.03387 -0.08467,0.03387 -0.05927,0 -0.1143,-0.06773 -0.0508,-0.07197 -0.0508,-0.122767 0,-0.0762 0.1143,-0.224366 0.118533,-0.148167 0.338666,-0.262467 0.224366,-0.118533 0.529166,-0.118533 0.376767,0 0.5969,0.194733 0.224366,0.194733 0.224366,0.508 0,0.258233 -0.1778,0.520699 -0.173566,0.262467 -0.507999,0.537633 -0.626533,0.508 -0.918633,0.986366 0.211667,-0.02117 0.630766,-0.02117 l 0.618066,0.0042 0.275167,-0.0042 q 0.0508,0 0.09737,0.0762 0.04657,0.07197 0.04657,0.143933 0,0.0762 -0.0635,0.0762 l -0.143933,-0.0085 q -0.06773,-0.0085 -0.211667,-0.01693 -0.173566,-0.0085 -0.651932,-0.0085 -0.287867,0 -0.436033,0.0042 -0.148167,0.0085 -0.338667,0.04233 z"
         style="stroke-width:0.264583"
         id="path19" />
      <path
         d="m 54.257999,75.943585 q 0.237066,-0.2794 0.503766,-0.2794 0.440266,0 0.673099,0.4191 0.237067,0.419099 0.237067,1.100665 0,0.427567 -0.110067,0.7874 -0.110066,0.355599 -0.325966,0.571499 -0.2159,0.2159 -0.529166,0.2159 -0.499533,0 -0.732366,-0.414866 -0.2286,-0.4191 -0.2286,-1.087966 0,-0.3556 0.07197,-0.668866 0.0762,-0.313267 0.1778,-0.503766 0.105834,-0.1905 0.1778,-0.1905 0.04233,0 0.08467,0.0508 z m 0.436033,2.548464 q 0.338666,0 0.503766,-0.3683 0.169333,-0.368299 0.169333,-0.965199 0,-0.533399 -0.148166,-0.880532 -0.143934,-0.347133 -0.474133,-0.347133 -0.148167,0 -0.313267,0.156633 -0.160866,0.156633 -0.270933,0.457199 -0.110066,0.300567 -0.110066,0.702733 0,0.575733 0.135466,0.910166 0.135467,0.334433 0.508,0.334433 z"
         style="stroke-width:0.264583"
         id="path21" />
      <path
         d="m 56.391591,78.699482 q -0.06773,0 -0.122767,-0.06773 -0.0508,-0.0635 -0.0508,-0.135466 0,-0.03387 0.0127,-0.05927 0.0254,-0.03387 0.05503,-0.06773 0.02963,-0.0381 0.04233,-0.05927 0.131233,-0.220133 0.3937,-0.512233 0.266699,-0.296333 0.596899,-0.571499 0.283633,-0.232834 0.423333,-0.440267 0.1397,-0.211666 0.1397,-0.419099 0,-0.198967 -0.131233,-0.313267 -0.131233,-0.118533 -0.385233,-0.118533 -0.249767,0 -0.4191,0.1143 -0.169333,0.110066 -0.245533,0.300566 -0.01693,0.04233 -0.05927,0.0762 -0.0381,0.03387 -0.08467,0.03387 -0.05927,0 -0.1143,-0.06773 -0.0508,-0.07197 -0.0508,-0.122767 0,-0.0762 0.1143,-0.224366 0.118533,-0.148167 0.338666,-0.262467 0.224367,-0.118533 0.529166,-0.118533 0.376767,0 0.5969,0.194733 0.224366,0.194733 0.224366,0.508 0,0.258233 -0.177799,0.520699 -0.173567,0.262467 -0.508,0.537633 -0.626533,0.508 -0.918633,0.986366 0.211667,-0.02117 0.630767,-0.02117 l 0.618066,0.0042 0.275166,-0.0042 q 0.0508,0 0.09737,0.0762 0.04657,0.07197 0.04657,0.143933 0,0.0762 -0.0635,0.0762 l -0.143933,-0.0085 q -0.06773,-0.0085 -0.211666,-0.01693 -0.173567,-0.0085 -0.651933,-0.0085 -0.287866,0 -0.436033,0.0042 -0.148167,0.0085 -0.338666,0.04233 z"
         style="stroke-width:0.264583"
         id="path23" />
      <path
         d="m 60.095748,77.023084 q 0.194733,0.0042 0.351366,0.09737 0.160867,0.0889 0.249767,0.254 0.09313,0.1651 0.09313,0.385233 0,0.2794 -0.122766,0.508 -0.122767,0.224366 -0.376767,0.355599 -0.249766,0.135467 -0.622299,0.135467 -0.270933,0 -0.4826,-0.08467 -0.207433,-0.08467 -0.385233,-0.258233 -0.03387,-0.03387 -0.03387,-0.0889 0,-0.0762 0.04233,-0.148166 0.04657,-0.0762 0.09737,-0.0762 0.02117,0 0.04657,0.0254 0.148167,0.182033 0.313266,0.275166 0.169334,0.0889 0.402167,0.0889 0.410633,0 0.613833,-0.207433 0.207433,-0.207433 0.207433,-0.5207 0,-0.253999 -0.182034,-0.410633 -0.177799,-0.160866 -0.457199,-0.160866 -0.05927,0 -0.169333,0.0127 -0.105834,0.0085 -0.156634,0.02117 l -0.02117,0.0042 q -0.05503,0 -0.1016,-0.0635 -0.04233,-0.0635 -0.04233,-0.127 0,-0.06773 0.0508,-0.07197 0.406399,-0.0381 0.677332,-0.207433 0.270933,-0.169333 0.270933,-0.410633 0,-0.207433 -0.126999,-0.313266 -0.122767,-0.110067 -0.3683,-0.110067 -0.198967,0 -0.372533,0.08467 -0.173567,0.08043 -0.338667,0.258233 -0.04233,0.05503 -0.0889,0.05503 -0.0127,0 -0.0508,-0.0254 -0.03387,-0.0254 -0.0635,-0.06773 -0.02963,-0.04233 -0.02963,-0.0889 0,-0.05927 0.04657,-0.09737 0.359833,-0.381 0.888999,-0.381 0.364067,0 0.579966,0.1778 0.220134,0.173566 0.220134,0.478366 0,0.254 -0.148167,0.440266 -0.148167,0.182033 -0.410633,0.262467 z"
         style="stroke-width:0.264583"
         id="path25" />
      <path
         d="m 64.604231,75.778485 q -0.380999,0.478366 -0.800099,0.817032 -0.414866,0.334433 -0.736599,0.512233 -0.3175,0.173567 -0.376767,0.173567 -0.0381,0 -0.0381,-0.02963 0,-0.02117 0.0254,-0.0508 0.0254,-0.03387 0.0762,-0.06773 1.172632,-0.812799 1.769532,-1.769532 0.04657,-0.0762 0.04657,-0.169333 0,-0.06773 0.04657,-0.06773 0.05927,0 0.1651,0.0889 0.110067,0.0889 0.110067,0.135466 0,0.04233 -0.143934,0.2286 0.859366,0.778933 1.875366,1.303866 0.0635,0.02963 0.0635,0.06773 0,0.04657 -0.0889,0.118533 -0.08467,0.07197 -0.127,0.07197 -0.03387,0 -0.05503,-0.01693 -0.457199,-0.2667 -0.927099,-0.613833 -0.465666,-0.347133 -0.884766,-0.732366 z m -1.523998,3.086097 q -0.08467,0 -0.110067,-0.0254 -0.0508,-0.0508 -0.08467,-0.110066 -0.02963,-0.05503 -0.02963,-0.105834 0,-0.0254 0.02117,-0.0254 0.01693,0 0.0254,0.0042 0.0762,0.02117 0.1905,0.02117 l 1.409698,-0.0381 -0.0042,-1.045632 -0.884766,0.04233 -0.0889,0.0042 q -0.07197,0 -0.122766,-0.03387 -0.0508,-0.0381 -0.09737,-0.1651 l -0.0085,-0.0381 q 0,-0.0254 0.0254,-0.0254 0.01693,0 0.0254,0.0042 0.0635,0.01693 0.1397,0.01693 h 0.0508 l 0.960966,-0.04233 -0.0042,-0.4699 -0.347133,0.02117 -0.0889,0.0042 q -0.0635,0 -0.122767,-0.03387 -0.05503,-0.03387 -0.09737,-0.148166 l -0.0085,-0.0381 q 0,-0.0254 0.0254,-0.0254 0.01693,0 0.0254,0.0042 0.0635,0.01693 0.1397,0.01693 h 0.0508 l 0.965199,-0.0635 q 0.08467,-0.0042 0.1651,-0.03387 0.0085,-0.0042 0.02963,-0.0042 0.04657,0 0.131233,0.06773 0.0889,0.06773 0.0889,0.122766 0,0.0508 -0.1016,0.05927 l -0.579966,0.03387 -0.0042,0.474133 0.829732,-0.0381 q 0.0889,-0.0042 0.169334,-0.03387 0.0085,-0.0042 0.0254,-0.0042 0.02117,0 0.0762,0.03387 0.05503,0.03387 0.09737,0.08043 0.04657,0.04657 0.04657,0.08043 0,0.05503 -0.09737,0.0635 l -1.147232,0.05503 -0.0085,1.049866 1.295399,-0.03387 q 0.08043,0 0.169333,-0.03387 0.0085,-0.0042 0.0254,-0.0042 0.04233,0 0.135467,0.08043 0.09737,0.08043 0.09737,0.127 0,0.05503 -0.110066,0.0635 l -3.196164,0.08467 z m 1.976965,-0.364066 q -0.03387,0 -0.03387,-0.02963 0,-0.04233 0.05503,-0.110067 0.381,-0.4953 0.3937,-0.723899 0.0042,-0.0381 0.0127,-0.05503 0.0085,-0.02117 0.03387,-0.02117 0.02117,0 0.08043,0.0381 0.0635,0.0381 0.110066,0.0889 0.0508,0.04657 0.0508,0.0889 0,0.0508 -0.148166,0.232834 -0.148167,0.182033 -0.3175,0.338666 -0.169333,0.1524 -0.237066,0.1524 z m -0.8128,-0.131233 q 0,0.03387 -0.06773,0.0889 -0.0635,0.0508 -0.1143,0.0508 -0.0381,0 -0.0762,-0.06773 -0.169333,-0.300566 -0.410633,-0.567266 -0.02963,-0.0381 -0.02963,-0.05927 0,-0.04233 0.05503,-0.08467 0.05503,-0.04657 0.0762,-0.04657 0.0381,0 0.1778,0.1524 0.1397,0.148167 0.262466,0.321733 0.127,0.169333 0.127,0.211667 z"
         style="stroke-width:0.264583"
         id="path27" />
      <path
         d="m 69.002651,77.22205 q -0.04657,0.0042 -0.122766,0.0042 -0.08043,0 -0.105833,-0.02117 -0.05927,-0.0508 -0.09737,-0.1143 -0.0381,-0.0635 -0.0381,-0.09737 0,-0.0254 0.03387,-0.0254 h 0.02117 q 0.110067,0.01693 0.186267,0.01693 h 0.03387 l 0.503767,-0.02963 0.0042,-0.588432 -0.4699,0.02963 q -0.04657,0.0042 -0.122766,0.0042 -0.08043,0 -0.105833,-0.02117 -0.05503,-0.0508 -0.09737,-0.110067 -0.0381,-0.05927 -0.0381,-0.1016 0,-0.0254 0.02963,-0.0254 0.01693,0 0.0254,0.0042 0.07197,0.01693 0.1651,0.01693 h 0.05503 l 0.5588,-0.03387 0.0042,-0.677333 q 0,-0.0762 -0.05927,-0.173566 -0.0127,-0.02117 -0.0127,-0.0381 0,-0.03387 0.05503,-0.03387 0.05503,0 0.148167,0.03387 0.0889,0.03387 0.110066,0.05927 0.0254,0.02117 0.0254,0.06773 l -0.0085,0.745066 0.440267,-0.02963 q 0.1016,-0.0042 0.182033,-0.03387 0.0127,-0.0042 0.03387,-0.0042 0.04657,0 0.131233,0.06773 0.0889,0.06773 0.0889,0.122766 0,0.05503 -0.1016,0.0635 l -0.778933,0.0508 -0.0085,0.588433 0.503767,-0.02963 h 0.0508 q 0.06773,0 0.122766,0.04657 0.05927,0.04233 0.05927,0.09737 0,0.03387 -0.02117,0.0635 -0.02117,0.02963 -0.0254,0.0381 -0.211666,0.5334 -0.596899,0.952499 0.537633,0.440266 1.092199,0.6604 0.08467,0.0381 0.08467,0.0635 0,0.0127 -0.04233,0.05927 -0.04233,0.04657 -0.09737,0.08043 -0.0508,0.0381 -0.09313,0.0381 -0.04233,0 -0.237066,-0.105833 -0.194733,-0.105833 -0.440267,-0.275166 -0.241299,-0.1651 -0.444499,-0.3429 -0.262467,0.245533 -0.529166,0.4064 -0.2667,0.1651 -0.461433,0.241299 -0.194733,0.08043 -0.254,0.08043 -0.0508,0 -0.0508,-0.02963 0,-0.05503 0.1397,-0.126999 0.507999,-0.2794 0.977899,-0.7366 -0.2159,-0.2159 -0.372533,-0.427566 -0.156633,-0.211667 -0.156633,-0.254 0,-0.02963 0.0508,-0.07197 0.05503,-0.04657 0.1016,-0.04657 0.0381,0 0.0762,0.05927 0.194733,0.300567 0.469899,0.563033 0.325967,-0.368299 0.491066,-0.800099 z m -0.969432,1.701799 q 0,0.105833 -0.0762,0.105833 -0.01693,0 -0.06773,-0.01693 -0.0508,-0.01693 -0.09737,-0.05927 -0.04233,-0.0381 -0.04233,-0.1016 0,-0.02963 0.0042,-0.04233 0.03387,-0.143933 0.03387,-0.2667 l 0.01693,-1.240365 q 0,-0.09313 0.0085,-0.2667 -0.0508,0.194733 -0.224367,0.474133 -0.173566,0.275166 -0.359833,0.486833 -0.186266,0.211666 -0.254,0.211666 -0.02117,0 -0.02117,-0.02963 0,-0.03387 0.04233,-0.1016 0.4826,-0.6985 0.774699,-1.515532 l -0.317499,0.02117 q -0.04657,0.0042 -0.122767,0.0042 -0.0762,0 -0.09737,-0.02117 -0.05503,-0.05503 -0.0889,-0.118533 -0.03387,-0.0635 -0.03387,-0.0889 0,-0.02117 0.02963,-0.02117 l 0.02117,0.0042 q 0.110066,0.01693 0.169333,0.01693 h 0.0381 l 0.448733,-0.02963 0.0085,-0.770466 q 0,-0.08467 -0.05503,-0.173567 -0.02117,-0.03387 -0.02117,-0.04657 0,-0.0381 0.05503,-0.0381 0.04657,0 0.135467,0.03387 0.0889,0.03387 0.114299,0.05927 0.0254,0.0254 0.0254,0.0762 l -0.0127,0.842432 0.186267,-0.0127 q 0.0889,-0.0085 0.156633,-0.02963 0.0085,-0.0042 0.02963,-0.0042 0.05503,0 0.131234,0.06773 0.08043,0.06773 0.08043,0.1143 0,0.0254 -0.02963,0.04233 -0.0254,0.0127 -0.06773,0.01693 l -0.486833,0.03387 -0.0042,0.3429 q 0.04657,-0.0381 0.08043,-0.0381 0.04233,0 0.160867,0.127 0.118533,0.127 0.224366,0.275166 0.110067,0.148167 0.110067,0.1778 0,0.0381 -0.0381,0.07197 -0.03387,0.03387 -0.0762,0.05503 -0.04233,0.01693 -0.05503,0.01693 -0.04233,0 -0.08467,-0.06773 -0.05927,-0.09737 -0.156633,-0.2286 -0.09313,-0.131233 -0.169333,-0.224366 z"
         style="stroke-width:0.264583"
         id="path29" />
      <path
         d="m 73.89214,76.151018 q 0,-0.173567 -0.02963,-0.2413 -0.0254,-0.05927 -0.0254,-0.09737 0,-0.02963 0.02963,-0.02963 0.05927,0 0.279399,0.118533 l 0.605367,-0.04657 h 0.04233 q 0.05503,0 0.118533,0.04657 0.0635,0.04233 0.0635,0.110067 0,0.0127 -0.0085,0.04233 -0.0085,0.02963 -0.0085,0.04657 -0.02117,0.719666 -0.04657,1.079499 -0.0254,0.359833 -0.0508,0.4826 -0.0254,0.118533 -0.06773,0.165099 -0.06773,0.08043 -0.1397,0.08043 -0.0508,0 -0.160867,-0.0762 -0.110066,-0.0762 -0.215899,-0.1778 -0.105834,-0.1016 -0.135467,-0.156633 l 0.0042,1.452032 q 0,0.105833 -0.07197,0.105833 -0.05503,0 -0.131233,-0.0508 -0.07197,-0.0508 -0.07197,-0.122766 0,-0.02963 0.0042,-0.04657 0.02117,-0.148167 0.02117,-0.254 z m -0.715433,1.951565 q 0.232833,-0.05927 0.512233,-0.156633 0.0762,-0.0254 0.1143,-0.0254 0.05503,0 0.05503,0.02963 0,0.0635 -0.275166,0.2032 -0.275167,0.1397 -0.643467,0.283633 -0.09737,0.04233 -0.160866,0.07197 -0.0635,0.0254 -0.09737,0.04233 -0.1651,0.0762 -0.2032,0.08043 -0.04233,0 -0.09313,-0.07197 -0.0508,-0.07197 -0.02963,-0.110066 0.0254,-0.0381 0.0254,-0.372533 l -0.0042,-0.5842 q 0,-0.0889 -0.04657,-0.173566 -0.01693,-0.04233 -0.01693,-0.0508 0,-0.03387 0.0508,-0.03387 0.02963,0 0.126999,0.02963 0.08467,0.02963 0.105834,0.05503 0.0254,0.02117 0.0254,0.07197 l 0.0127,0.889 0.296333,-0.110067 0.0085,-1.269999 -0.393699,0.02117 -0.09737,0.0042 q -0.0381,0 -0.05503,-0.0042 -0.05927,0 -0.1143,-0.08467 -0.0508,-0.08467 -0.0508,-0.131233 0,-0.01693 0.02117,-0.01693 0.01693,0 0.02963,0.0042 0.0508,0.01693 0.122767,0.01693 l 0.0635,-0.0042 0.474133,-0.0254 0.0042,-0.465666 -0.1905,0.0127 q -0.105833,0.160866 -0.1905,0.254 -0.08467,0.0889 -0.1397,0.122766 -0.0508,0.02963 -0.06773,0.02963 -0.02117,0 -0.02117,-0.0254 0,-0.04657 0.04657,-0.114299 0.122766,-0.186267 0.220133,-0.4064 0.1016,-0.224367 0.156633,-0.4064 0.05503,-0.186266 0.05503,-0.2667 v -0.0254 q 0,-0.0635 0.04233,-0.0635 0.0254,0 0.08467,0.03387 0.0635,0.02963 0.110067,0.07197 0.0508,0.04233 0.0508,0.08467 0,0.01693 -0.06773,0.1778 -0.0635,0.156633 -0.148167,0.309033 l 0.448733,-0.0254 q 0.105833,-0.0085 0.160867,-0.02963 0.0254,-0.0085 0.04233,-0.0085 0.05503,0 0.131233,0.06773 0.0762,0.06773 0.0762,0.1143 0,0.04657 -0.09737,0.05503 l -0.452966,0.0254 -0.0042,0.465666 0.245533,-0.0127 q 0.09313,-0.0085 0.160867,-0.03387 0.0254,-0.0085 0.04233,-0.0085 0.0508,0 0.131233,0.06773 0.08043,0.06773 0.08043,0.118533 0,0.04657 -0.1016,0.05503 l -0.558799,0.02963 -0.0042,0.427566 0.122766,-0.0042 q 0.07197,0 0.160867,-0.03387 0.0254,-0.0085 0.04233,-0.0085 0.04233,0 0.0889,0.0381 0.0508,0.03387 0.08467,0.08043 0.0381,0.04657 0.0381,0.0635 0,0.04657 -0.1016,0.05503 l -0.440266,0.02117 z m -1.485899,-0.757766 q -0.127,0.1524 -0.321733,0.334433 -0.194733,0.1778 -0.2667,0.1778 -0.02963,0 -0.02963,-0.0254 0,-0.0381 0.07197,-0.122767 0.139699,-0.160866 0.351366,-0.457199 0.2159,-0.296334 0.376766,-0.575733 0.160867,-0.283633 0.160867,-0.410633 v -0.02963 q 0,-0.04657 0.04657,-0.04657 0.02117,0 0.08043,0.03387 0.05927,0.02963 0.105833,0.0762 0.0508,0.04233 0.0508,0.08467 0,0.0381 -0.1524,0.283633 -0.148166,0.2413 -0.2413,0.372533 v 1.875365 q 0,0.08467 -0.07197,0.08467 -0.01693,0 -0.06773,-0.02117 -0.0508,-0.01693 -0.09313,-0.05503 -0.04233,-0.03387 -0.04233,-0.08467 0,-0.0127 0.0085,-0.04657 0.02117,-0.09313 0.02117,-0.224367 z m 2.472265,0.09313 q 0.04233,0 0.122766,0.04233 0.186267,0.09737 0.287867,0.122767 0.0085,0.0042 0.0254,0.0042 0.03387,0 0.05927,-0.440266 0.02963,-0.4445 0.04657,-1.079499 l -0.563033,0.04233 v 1.312332 z m -1.837265,-1.896532 q -0.2286,0.3429 -0.461433,0.579967 -0.2286,0.237066 -0.402167,0.355599 -0.169333,0.118533 -0.2159,0.118533 -0.02963,0 -0.02963,-0.0254 0,-0.04233 0.0762,-0.118533 0.237067,-0.249766 0.410633,-0.478366 0.173567,-0.2286 0.262467,-0.389466 0.09313,-0.1651 0.09313,-0.224367 0,-0.06773 0.0508,-0.06773 0.0508,0 0.143933,0.0762 0.09313,0.0762 0.09313,0.127 0,0.01693 -0.02117,0.04657 z"
         style="stroke-width:0.264583"
         id="path31" />
      <path
         d="m 78.802795,76.523551 q 0.04233,0 0.118533,0.05503 0.0762,0.0508 0.0762,0.1016 0,0.02963 -0.02117,0.0635 -0.02117,0.02963 -0.0254,0.04657 -0.198966,0.711199 -0.563033,1.210732 0.2159,0.198966 0.4572,0.359833 0.245533,0.156633 0.554566,0.296333 0.0635,0.02963 0.0635,0.0635 0,0.0381 -0.07197,0.1016 -0.07197,0.06773 -0.1143,0.06773 -0.02117,0 -0.177799,-0.08043 -0.156634,-0.08043 -0.385233,-0.237067 -0.224367,-0.156633 -0.465667,-0.389466 -0.186266,0.2159 -0.393699,0.372533 -0.207434,0.156633 -0.372533,0.237067 -0.160867,0.08467 -0.2032,0.08467 -0.03387,0 -0.03387,-0.02117 0,-0.04233 0.09313,-0.110067 0.4318,-0.321733 0.732366,-0.728133 -0.232833,-0.254 -0.457199,-0.571499 -0.06773,0.0762 -0.1778,0.182033 -0.110067,0.105833 -0.1651,0.105833 -0.0254,0 -0.0254,-0.0254 0,-0.0381 0.05927,-0.122766 0.220133,-0.3048 0.372533,-0.588433 0.156633,-0.287867 0.2286,-0.486833 0.0762,-0.2032 0.0762,-0.270933 0,-0.02963 -0.0042,-0.04233 -0.0042,-0.0127 -0.0042,-0.03387 0,-0.04233 0.04233,-0.04233 0.04657,0 0.1524,0.0635 0.1016,0.06773 0.1016,0.1397 0,0.0127 -0.0085,0.0381 l -0.0889,0.2032 0.575733,-0.0381 z m -1.917699,2.273298 q 0.02117,-0.156633 0.02117,-0.283633 l 0.02117,-1.198032 q -0.237066,0.313266 -0.444499,0.495299 -0.08043,0.06773 -0.118533,0.06773 -0.0254,0 -0.0254,-0.0254 0,-0.0381 0.0508,-0.105833 0.126999,-0.173566 0.321733,-0.486833 0.198966,-0.313266 0.347133,-0.609599 0.1524,-0.296333 0.1524,-0.427567 v -0.04657 q 0,-0.05503 0.04233,-0.05503 0.0635,0 0.1524,0.06773 0.09313,0.0635 0.09313,0.127 0,0.01693 -0.0085,0.04233 -0.1524,0.334433 -0.317499,0.609599 l -0.0042,1.943099 q 0,0.08043 -0.0635,0.08043 -0.01693,0 -0.07197,-0.01693 -0.0508,-0.0127 -0.1016,-0.0508 -0.04657,-0.03387 -0.04657,-0.09737 z m 0.04233,-2.692398 q -0.126999,0.0085 -0.148166,0.0085 -0.1016,0 -0.1524,-0.05503 -0.0508,-0.05927 -0.0889,-0.160867 -0.0042,-0.0085 -0.0042,-0.0254 0,-0.02117 0.0254,-0.02117 l 0.02117,0.0042 q 0.09313,0.0254 0.224367,0.0254 h 0.0635 l 1.769532,-0.105834 q 0.1524,-0.0085 0.275166,-0.0508 0.0254,-0.0085 0.0381,-0.0085 0.04657,0 0.143933,0.08467 0.0889,0.08043 0.0889,0.127 0,0.04233 -0.07197,0.0508 z m 1.134533,0.6858 q -0.122767,0.237066 -0.300567,0.474133 0.2159,0.330199 0.440267,0.567266 0.08467,-0.122767 0.2032,-0.3429 -0.148167,-0.135467 -0.372534,-0.309033 -0.0635,-0.04657 -0.0635,-0.08043 0,-0.0381 0.0508,-0.08043 0.0508,-0.04657 0.0762,-0.04657 0.0635,0 0.232834,0.143933 0.173566,0.143933 0.177799,0.148167 0.09313,-0.2159 0.173567,-0.512233 z m -2.277532,1.985431 q -0.135466,0 -0.253999,-0.09313 -0.03387,-0.02117 -0.03387,-0.0381 0,-0.01693 0.03387,-0.0381 0.139699,-0.09737 0.380999,-0.563033 0.245533,-0.465666 0.359833,-0.728132 0.0762,-0.156634 0.1143,-0.156634 0.0254,0 0.0254,0.05503 0,0.1016 -0.143933,0.529166 -0.1397,0.423333 -0.3302,0.872066 -0.0381,0.09313 -0.06773,0.127 -0.0254,0.03387 -0.0762,0.03387 z m 0.529167,-2.565398 q -0.03387,0 -0.06773,-0.04233 -0.169333,-0.207433 -0.507999,-0.482599 -0.0381,-0.03387 -0.0381,-0.05927 0,-0.0254 0.04657,-0.0889 0.0508,-0.0635 0.09737,-0.0635 0.03387,0 0.1905,0.122767 0.160866,0.118533 0.296333,0.249766 0.1397,0.131233 0.1397,0.173567 0,0.0508 -0.0635,0.122766 -0.05927,0.06773 -0.09313,0.06773 z m -0.207434,0.889 q -0.02117,0 -0.04233,-0.01693 -0.02117,-0.01693 -0.0254,-0.02117 -0.270933,-0.2667 -0.533399,-0.448733 -0.04233,-0.02963 -0.04233,-0.06773 0,-0.0508 0.0381,-0.09737 0.04233,-0.0508 0.09313,-0.0508 0.03387,0 0.198966,0.1143 0.169333,0.1143 0.3175,0.237066 0.148166,0.122767 0.148166,0.156634 0,0.0381 -0.05503,0.118533 -0.0508,0.0762 -0.09737,0.0762 z m 1.926165,-1.299633 q -0.02117,0 -0.04657,-0.01693 -0.02117,-0.02117 -0.0381,-0.03387 -0.0127,-0.01693 -0.02117,-0.0254 -0.0762,-0.08043 -0.156633,-0.143934 -0.0762,-0.0635 -0.148166,-0.110066 -0.06773,-0.0508 -0.09313,-0.06773 -0.05503,-0.04233 -0.05503,-0.0762 0,-0.0381 0.0381,-0.08043 0.04233,-0.04657 0.08043,-0.04657 0.03387,0 0.1778,0.09737 0.148167,0.09313 0.275166,0.198967 0.127,0.105833 0.127,0.148166 0,0.03387 -0.04657,0.09737 -0.04657,0.05927 -0.09313,0.05927 z"
         style="stroke-width:0.264583"
         id="path33" />
      <path
         d="m 82.604317,77.03155 q 0,0.0381 -0.0508,0.0635 -0.0508,0.0254 -0.1143,0.0254 -0.0508,0 -0.08467,-0.02117 -0.03387,-0.02117 -0.03387,-0.0635 -0.0085,-0.224367 -0.04233,-0.5588 -0.02963,-0.338666 -0.0508,-0.495299 -0.207433,0.486833 -0.296333,0.732366 l -0.0254,0.0762 q -0.0042,0.0508 -0.05503,0.08043 -0.04657,0.02963 -0.110066,0.02963 -0.105834,0 -0.131233,-0.07197 -0.0085,-0.02963 -0.02117,-0.0635 -0.0127,-0.03387 -0.02117,-0.0508 -0.160866,-0.4064 -0.245533,-0.6477 -0.0762,0.884766 -0.0762,0.965199 0,0.03387 -0.04233,0.05503 -0.0381,0.02117 -0.09313,0.02117 -0.05927,0 -0.1016,-0.02117 -0.04233,-0.02117 -0.04233,-0.05927 v -0.0085 q 0.04233,-0.275166 0.127,-1.269999 v -0.02117 l -0.0042,-0.0762 v -0.01693 q 0.0085,-0.04233 0.0762,-0.08043 0.07197,-0.04233 0.131233,-0.04233 0.07197,0 0.127,0.127 0.122767,0.3683 0.325966,0.893232 0.131234,-0.330199 0.237067,-0.579966 0.04233,-0.110066 0.0762,-0.1905 0.03387,-0.08043 0.05503,-0.135466 0.03387,-0.07197 0.05503,-0.09737 0.0254,-0.02963 0.08043,-0.02963 0.0508,0 0.135466,0.0508 0.08467,0.0508 0.08467,0.0889 0,0.02117 -0.0042,0.04233 -0.0042,0.02117 -0.0042,0.04233 v 0.01693 q 0.0254,0.254 0.07197,0.719666 0.0508,0.465666 0.06773,0.563033 z m -2.700864,-1.236132 -0.173567,0.02117 h -0.0042 q -0.04657,0 -0.08043,-0.05503 -0.02963,-0.05927 -0.02963,-0.122766 0,-0.08467 0.05927,-0.08467 h 0.0042 q 0.0381,0.0042 0.148167,0.0042 h 0.0635 l 0.745066,-0.0381 q 0.08043,-0.0042 0.169333,-0.02117 h 0.0127 q 0.04657,0 0.0762,0.05503 0.02963,0.0508 0.02963,0.110067 0,0.09313 -0.0635,0.09313 -0.03387,-0.0042 -0.105833,-0.0042 -0.06773,0 -0.105833,0.0042 l -0.245533,0.0127 v 1.003299 l 0.0042,0.173567 q 0.0042,0.04657 0.0042,0.105833 0,0.0254 -0.03387,0.04233 -0.03387,0.0127 -0.08043,0.0127 -0.0635,0 -0.1143,-0.0254 -0.0508,-0.0254 -0.0508,-0.07197 l 0.0042,-0.237067 v -0.990599 z"
         style="stroke-width:0.264583"
         id="path35" />
    </g>
  </g>
</svg>
