<?xml version="1.0" encoding="UTF-8" standalone="no"?>
<svg
   xmlns:dc="http://purl.org/dc/elements/1.1/"
   xmlns:cc="http://creativecommons.org/ns#"
   xmlns:rdf="http://www.w3.org/1999/02/22-rdf-syntax-ns#"
   xmlns:svg="http://www.w3.org/2000/svg"
   xmlns="http://www.w3.org/2000/svg"
   xmlns:sodipodi="http://sodipodi.sourceforge.net/DTD/sodipodi-0.dtd"
   xmlns:inkscape="http://www.inkscape.org/namespaces/inkscape"
   width="72"
   height="24"
   viewBox="0 0 19.05 6.3500002"
   version="1.1"
   id="svg8"
   inkscape:version="1.0.1 (3bc2e813f5, 2020-09-07)"
   sodipodi:docname="disclaimer.svg">
  <defs
     id="defs2" />
  <sodipodi:namedview
     id="base"
     pagecolor="#000000"
     bordercolor="#666666"
     borderopacity="1.0"
     inkscape:pageopacity="0"
     inkscape:pageshadow="2"
     inkscape:zoom="2"
     inkscape:cx="139.3378"
     inkscape:cy="22.857148"
     inkscape:document-units="px"
     inkscape:current-layer="layer1"
     inkscape:document-rotation="0"
     showgrid="false"
     units="px"
     fit-margin-top="0"
     fit-margin-left="0"
     fit-margin-right="0"
     fit-margin-bottom="0"
     inkscape:window-width="1080"
     inkscape:window-height="658"
     inkscape:window-x="-6"
     inkscape:window-y="-6"
     inkscape:window-maximized="1" />
  <metadata
     id="metadata5">
    <rdf:RDF>
      <cc:Work
         rdf:about="">
        <dc:format>image/svg+xml</dc:format>
        <dc:type
           rdf:resource="http://purl.org/dc/dcmitype/StillImage" />
        <dc:title></dc:title>
      </cc:Work>
    </rdf:RDF>
  </metadata>
  <g
     inkscape:label="Layer 1"
     inkscape:groupmode="layer"
     id="layer1"
     transform="translate(-34.017857,-68.035713)">
    <g
       id="g68">
      <rect
         style="fill:#ffffff;fill-opacity:1;stroke-width:0.212196"
         id="rect10"
         width="19.049999"
         height="6.3499999"
         x="34.017857"
         y="68.035713" />
      <g
         aria-label="免責聲明"
         id="text18"
         style="font-size:4.23333px;line-height:1.25;font-family:Iansui;-inkscape-font-specification:'Iansui, Normal';word-spacing:0px;stroke-width:0.264583">
        <path
           d="m 37.482858,70.704833 q -0.0508,0.381 -0.122767,0.639233 l 0.918633,-0.0381 0.105833,-0.647699 z m -1.096433,0.681566 0.681567,-0.02963 q 0.09313,-0.296333 0.122766,-0.635 l -0.846666,0.04233 z m -0.910165,1.625599 q 0,-0.04657 0.09737,-0.09737 0.499533,-0.249766 0.850899,-0.554566 0.3556,-0.3048 0.5588,-0.774699 l -0.579966,0.0254 v 0.04233 q 0,0.0889 -0.0635,0.0889 -0.05927,0 -0.131233,-0.0381 -0.07197,-0.04233 -0.07197,-0.118533 v -0.09313 q 0,-0.08043 -0.0042,-0.135466 L 36.090092,70.7768 q -0.0042,-0.06773 -0.02117,-0.127 -0.09313,0.0635 -0.2032,0.127 -0.0889,0.0508 -0.1397,0.0508 -0.02963,0 -0.02963,-0.02117 0,-0.0381 0.08467,-0.110067 0.334433,-0.275166 0.6223,-0.601132 0.287866,-0.3302 0.495299,-0.656166 0.04233,-0.05927 0.04233,-0.1397 v -0.01693 q 0,-0.07197 0.04657,-0.07197 0.02117,0 0.08043,0.0381 0.0635,0.0381 0.110066,0.09313 0.04657,0.0508 0.04657,0.09737 0,0.02117 -0.03387,0.0762 -0.03387,0.05503 -0.169333,0.237067 l 0.791633,-0.0508 h 0.0508 q 0.0889,0 0.139699,0.05503 0.0508,0.05503 0.0508,0.09737 0,0.03387 -0.02963,0.0635 -0.0254,0.0254 -0.03387,0.03387 -0.270933,0.359833 -0.410633,0.524933 l 0.884766,-0.04657 0.0508,-0.0042 q 0.0635,0 0.122767,0.05503 0.0635,0.0508 0.0635,0.09737 0,0.01693 -0.0127,0.04233 -0.0127,0.02117 -0.01693,0.03387 l -0.1397,0.651933 q 0.1016,0.118533 0.1016,0.169333 0,0.02963 -0.02963,0.0381 -0.0254,0.0085 -0.0889,0.0127 l -0.821266,0.03387 -0.01693,0.838199 v 0.0254 q 0,0.131233 0.03387,0.182033 0.03387,0.0508 0.135466,0.0635 0.105833,0.0127 0.376767,0.0127 0.355599,0 0.520699,-0.01693 0.169333,-0.02117 0.220133,-0.05927 0.05503,-0.0381 0.08043,-0.1143 0.07197,-0.2159 0.105833,-0.461433 0.0254,-0.182033 0.0762,-0.182033 0.07197,0 0.07197,0.351367 0,0.275166 -0.0254,0.414866 -0.02117,0.135466 -0.110066,0.211666 -0.0889,0.0762 -0.2794,0.09313 -0.359833,0.03387 -0.681566,0.03387 -0.321733,0 -0.474133,-0.0254 -0.148167,-0.02117 -0.232833,-0.122766 -0.08467,-0.09737 -0.08467,-0.325967 v -0.01693 l 0.01693,-0.893233 -0.148167,0.0085 q -0.2286,0.537633 -0.630766,0.888999 -0.397933,0.347133 -1.024466,0.567267 -0.04657,0.01693 -0.0889,0.01693 -0.02963,0 -0.04657,-0.0127 -0.0127,-0.0085 -0.0127,-0.0254 z m 0.855132,-2.468031 0.948266,-0.0508 q 0.110067,-0.1397 0.207433,-0.283633 0.09737,-0.143934 0.1778,-0.270934 l -0.838199,0.04657 q -0.2667,0.3048 -0.575733,0.5334 z"
           style="stroke-width:0.264583"
           id="path53" />
        <path
           d="m 40.894914,72.415098 v 0.0127 q 0,0.0381 -0.02117,0.05927 -0.02117,0.02117 -0.05503,0.02117 -0.0508,0 -0.131234,-0.0381 -0.0762,-0.0381 -0.0762,-0.118534 l 0.0042,-0.02963 q 0.0127,-0.08467 0.0127,-0.156633 l -0.0042,-0.08043 -0.0508,-0.9398 q -0.0085,-0.126999 -0.0381,-0.194733 -0.02117,-0.0508 -0.02117,-0.06773 0,-0.03387 0.04657,-0.03387 0.07197,0 0.275166,0.07197 l 1.646765,-0.0889 h 0.04657 q 0.0635,0 0.127,0.04233 0.06773,0.0381 0.06773,0.09313 0,0.01693 -0.0127,0.04233 -0.0085,0.0254 -0.0127,0.0381 l -0.08043,1.020232 q 0.105833,0.105834 0.105833,0.156634 0,0.0254 -0.02963,0.0381 -0.02963,0.0085 -0.08467,0.0127 l -1.718732,0.05503 z m -0.8255,-1.646765 q -0.04233,0.0042 -0.110066,0.0042 -0.0889,0 -0.1397,-0.0381 -0.0508,-0.0381 -0.09313,-0.156633 l -0.0042,-0.01693 q 0,-0.02117 0.02117,-0.02117 0.01693,0 0.0254,0.0042 0.06773,0.0254 0.1651,0.0254 h 0.04657 l 1.477432,-0.08043 V 70.2561 l -0.541866,0.02963 q -0.04233,0.0042 -0.1143,0.0042 -0.173566,0 -0.224366,-0.1651 -0.0042,-0.0085 -0.0042,-0.0254 0,-0.01693 0.01693,-0.01693 0.01693,0 0.0254,0.0042 0.0635,0.01693 0.143933,0.01693 h 0.05503 l 0.643466,-0.0381 0.0042,-0.211666 -0.8382,0.0508 q -0.03387,0.0042 -0.09313,0.0042 -0.08043,0 -0.143933,-0.03387 -0.0635,-0.03387 -0.1016,-0.139699 -0.0042,-0.0085 -0.0042,-0.02117 0,-0.02117 0.02117,-0.02117 l 0.02117,0.0042 q 0.0635,0.01693 0.143933,0.01693 h 0.05503 l 0.939799,-0.05927 v -0.156633 q 0,-0.09313 -0.05503,-0.1778 -0.02117,-0.03387 -0.02117,-0.05503 0,-0.02963 0.04233,-0.02963 0.0762,0 0.1905,0.0508 0.1143,0.04657 0.1143,0.118533 l -0.0042,0.237066 0.681566,-0.04233 q 0.118533,-0.0085 0.194733,-0.0381 0.0254,-0.0127 0.05927,-0.0127 0.0508,0 0.135467,0.0635 0.0889,0.05927 0.0889,0.105833 0,0.0508 -0.105833,0.05927 l -1.062566,0.0635 -0.0042,0.211666 0.452966,-0.0254 q 0.118533,-0.0085 0.194733,-0.0381 0.04233,-0.01693 0.06773,-0.01693 0.05503,0 0.135467,0.06773 0.08043,0.0635 0.08043,0.09737 0,0.0508 -0.105833,0.05927 l -0.829733,0.04657 -0.0042,0.232833 1.333499,-0.0762 q 0.110066,-0.0085 0.182033,-0.03387 0.03387,-0.0085 0.05503,-0.0085 0.0508,0 0.1016,0.0381 0.0508,0.03387 0.08467,0.08043 0.0381,0.04233 0.0381,0.0635 0,0.04233 -0.110067,0.0508 z m 2.895598,2.324098 q -0.03387,0 -0.0889,-0.03387 -0.198967,-0.118533 -0.436033,-0.241299 -0.237067,-0.122767 -0.4318,-0.2032 -0.09313,-0.0381 -0.09313,-0.09313 0,-0.0381 0.02963,-0.09737 0.03387,-0.0635 0.08043,-0.0635 0.0762,0 0.410633,0.148167 0.338666,0.148166 0.554566,0.275166 0.0508,0.02963 0.07197,0.0508 0.0254,0.0254 0.0254,0.0635 0,0.04233 -0.03387,0.118533 -0.03387,0.0762 -0.0889,0.0762 z m -2.091265,-1.181099 0.0085,0.211667 1.477432,-0.04657 0.0127,-0.237066 z m -0.0381,-0.791633 0.0085,0.207434 1.566332,-0.0762 0.0127,-0.211667 z m 0.01693,0.3937 0.0085,0.2032 1.523999,-0.06773 0.0127,-0.211667 z m 0.4826,1.185332 q -0.334433,0.160867 -0.626533,0.258234 -0.287866,0.09737 -0.588433,0.139699 l -0.03387,0.0042 q -0.03387,0 -0.05503,-0.0127 -0.01693,-0.0085 -0.01693,-0.02117 0,-0.01693 0.02117,-0.0381 0.0254,-0.01693 0.0635,-0.03387 0.601132,-0.224367 0.927099,-0.465667 0.0762,-0.05927 0.1016,-0.143933 0.0127,-0.03387 0.0381,-0.03387 0.0508,0 0.131233,0.110067 0.08467,0.110067 0.08467,0.173567 0,0.04233 -0.04657,0.0635 z"
           style="stroke-width:0.264583"
           id="path55" />
        <path
           d="m 44.582136,71.085833 q -0.07197,0.300566 -0.2159,0.495299 -0.143933,0.1905 -0.2794,0.2794 -0.135466,0.0889 -0.173566,0.0889 -0.02117,0 -0.02117,-0.01693 0,-0.02963 0.07197,-0.110067 0.452966,-0.482599 0.452966,-1.206499 v -0.0254 q 0,-0.1016 -0.03387,-0.169333 -0.01693,-0.04233 -0.01693,-0.0508 0,-0.0254 0.0381,-0.0254 0.06773,0 0.249766,0.05927 l 0.973666,-0.06773 h 0.0508 q 0.0762,0 0.127,0.04657 0.05503,0.04233 0.05503,0.08043 0,0.02117 -0.0127,0.04657 -0.0127,0.02117 -0.01693,0.0381 l -0.04657,0.283633 q 0.0889,0.105833 0.0889,0.148167 0,0.0254 -0.0254,0.03387 -0.0254,0.0042 -0.09737,0.0085 z m 1.625598,-0.6477 q -0.0381,0.0042 -0.09737,0.0042 -0.0762,0 -0.09737,-0.02117 -0.07197,-0.05503 -0.0889,-0.118533 -0.0127,-0.03387 -0.0127,-0.04657 0,-0.01693 0.02117,-0.01693 0.02117,0 0.03387,0.0042 0.0508,0.0085 0.0762,0.0085 l 0.08467,-0.0042 0.939799,-0.0508 h 0.05503 q 0.05927,0 0.118533,0.0381 0.0635,0.03387 0.0635,0.0762 0,0.01693 -0.0762,0.1143 -0.0762,0.09313 -0.186267,0.211667 -0.110066,0.1143 -0.224366,0.198966 0.321733,0.122767 0.884766,0.245533 0.08467,0.01693 0.08467,0.0508 -0.0042,0.01693 -0.02963,0.05503 -0.0254,0.0381 -0.06773,0.0762 -0.0381,0.03387 -0.08467,0.03387 -0.02117,0 -0.194733,-0.04233 -0.169333,-0.04657 -0.389466,-0.118533 -0.220134,-0.07197 -0.4191,-0.160867 -0.194733,0.105833 -0.385233,0.169333 -0.186267,0.0635 -0.313266,0.0889 -0.127,0.02117 -0.1524,0.02117 -0.06773,0 -0.06773,-0.02963 0,-0.04233 0.1143,-0.08043 0.3175,-0.110066 0.601133,-0.270933 -0.3429,-0.198966 -0.3429,-0.253999 0,-0.0381 0.0381,-0.08467 0.0381,-0.04657 0.0762,-0.04657 0.02963,0 0.0762,0.03387 0.173567,0.127 0.3556,0.2159 0.232833,-0.1651 0.351366,-0.347133 z m -1.456265,-0.228599 q -0.09313,0.0085 -0.1143,0.0085 -0.07197,0 -0.135467,-0.0635 -0.05927,-0.0635 -0.05927,-0.122766 0,-0.0254 0.0254,-0.0254 0.01693,0 0.0254,0.0042 0.0635,0.0127 0.1397,0.0127 h 0.05927 l 0.2921,-0.02117 0.0042,-0.211666 -0.423333,0.02963 q -0.09313,0.0085 -0.1143,0.0085 -0.07197,0 -0.135466,-0.0635 -0.05927,-0.0635 -0.05927,-0.122767 0,-0.0254 0.0254,-0.0254 0.01693,0 0.0254,0.0042 0.0635,0.0127 0.1397,0.0127 h 0.05927 l 0.486833,-0.02963 v -0.127 q 0,-0.101599 -0.05927,-0.190499 -0.0127,-0.02117 -0.0127,-0.02963 0,-0.02963 0.05927,-0.02963 0.05503,0 0.156633,0.02963 0.1016,0.0254 0.1016,0.09737 v 0.02117 l -0.0085,0.211666 0.321733,-0.02117 q 0.08467,-0.0042 0.1524,-0.03387 0.01693,-0.0085 0.02963,-0.0085 0.0381,0 0.122767,0.0635 0.0889,0.05927 0.0889,0.1016 0,0.0381 -0.0889,0.04657 l -0.630766,0.04233 -0.0085,0.211666 0.1651,-0.0127 q 0.08467,-0.0042 0.1524,-0.03387 0.01693,-0.0085 0.02963,-0.0085 0.0381,0 0.122767,0.0635 0.0889,0.05927 0.0889,0.1016 0,0.0381 -0.0889,0.04657 z M 47.1687,69.908967 q 0.08043,0 0.182033,-0.03387 0.0085,-0.0042 0.03387,-0.0042 0.05927,0 0.135467,0.0508 0.0762,0.04657 0.08043,0.0889 0,0.04233 -0.09737,0.05927 -0.1905,0.02963 -0.283633,0.03387 -0.03387,0.0042 -0.09313,0.0042 -0.1905,0 -0.2794,-0.04657 -0.0889,-0.04657 -0.0889,-0.198966 v -0.0127 l 0.0085,-0.2667 -0.385233,0.02963 q 0,0.169333 -0.04233,0.2794 -0.04233,0.118533 -0.148167,0.194733 -0.105833,0.0762 -0.211666,0.1143 -0.105834,0.03387 -0.148167,0.03387 -0.0381,0 -0.0381,-0.01693 0,-0.02963 0.08043,-0.08467 0.2667,-0.1778 0.2667,-0.465667 0,-0.1651 -0.04233,-0.232833 -0.02117,-0.03387 -0.02117,-0.05503 0,-0.02963 0.04657,-0.02963 0.0762,0 0.258233,0.06773 l 0.427566,-0.03387 0.05927,-0.0042 q 0.0508,0 0.09737,0.03387 0.0508,0.03387 0.0508,0.0889 0,0.01693 -0.0085,0.0381 -0.0085,0.01693 -0.0085,0.03387 l -0.0085,0.262467 q 0,0.03387 0.0254,0.05503 0.02963,0.01693 0.110067,0.01693 z m -1.896532,1.968498 v 0.1905 l 1.0922,-0.04657 v -0.194733 z m 0.0042,-0.330199 -0.0042,0.1651 1.0922,-0.05503 v -0.1651 z m -0.05927,-0.990599 -0.0042,0.304799 0.351366,-0.02117 0.02963,-0.309033 z m -0.558799,0.0381 q -0.0085,0.126999 -0.03387,0.300566 l 0.3683,-0.02117 0.0042,-0.300566 z m -0.414867,2.074331 q -0.1397,0 -0.186266,-0.07197 -0.04657,-0.0762 -0.04657,-0.122767 0,-0.02117 0.02117,-0.02117 0.02117,0 0.02963,0.0042 0.09737,0.02117 0.1905,0.02117 h 0.04657 l 0.740832,-0.03387 0.0085,-0.889 -0.2159,0.0127 q -0.0381,0.0042 -0.09737,0.0042 -0.0508,0 -0.07197,-0.0085 -0.01693,-0.0127 -0.07197,-0.06773 -0.02963,-0.0381 -0.0508,-0.0889 l -0.0085,-0.0381 q 0,-0.01693 0.02117,-0.01693 l 0.0254,0.0042 q 0.09313,0.02117 0.1524,0.02117 h 0.03387 L 46.8385,71.272099 q 0.08043,-0.0042 0.148167,-0.03387 0.01693,-0.0085 0.03387,-0.0085 0.0508,0 0.122766,0.07197 0.0762,0.07197 0.0762,0.105833 0,0.0381 -0.09313,0.04657 l -0.529166,0.0254 0.0085,0.893233 0.7239,-0.03387 q 0.148166,-0.0085 0.237066,-0.02963 0.01693,-0.0042 0.04233,-0.0042 0.05503,0 0.1143,0.05927 0.05927,0.05927 0.05927,0.105834 0,0.0508 -0.0762,0.0508 h -0.0127 l -1.087966,0.04657 0.0042,0.5588 q 0,0.08467 -0.07197,0.08467 -0.05927,0 -0.131233,-0.04233 -0.06773,-0.0381 -0.06773,-0.110067 0,-0.02963 0.0042,-0.04657 0.02117,-0.110067 0.02117,-0.249767 v -0.182033 l -2.036232,0.0889 z m 2.120899,-0.283633 v -0.198966 l -1.0922,0.04657 -0.0042,0.198967 z"
           style="stroke-width:0.264583"
           id="path57" />
        <path
           d="m 50.284422,71.610766 q -0.09737,0.491066 -0.304799,0.808566 -0.207434,0.317499 -0.537633,0.588433 l -0.02117,0.01693 q -0.08467,0.05927 -0.118533,0.05927 -0.02963,0 -0.02963,-0.02963 0,-0.04233 0.07197,-0.127 0.313266,-0.364066 0.474133,-0.706966 0.160867,-0.3429 0.220133,-0.736599 0.05927,-0.3937 0.05927,-0.977899 0,-0.4826 -0.0127,-0.643466 -0.0127,-0.160867 -0.03387,-0.207434 -0.02117,-0.04233 -0.02117,-0.07197 0,-0.03387 0.04233,-0.03387 0.08043,0 0.309033,0.1143 l 0.999066,-0.07197 h 0.0381 q 0.0635,0 0.105833,0.02963 0.04233,0.02963 0.0635,0.06773 0.02117,0.0381 0.02117,0.05503 0,0.01693 -0.0127,0.04657 -0.0127,0.02963 -0.0127,0.04233 l 0.02117,2.916764 0.0042,0.143934 q 0,0.105833 -0.04657,0.165099 -0.04233,0.05927 -0.09313,0.0762 -0.0508,0.02117 -0.0762,0.02117 -0.08043,0 -0.262467,-0.131233 -0.1778,-0.131233 -0.338666,-0.287867 -0.156633,-0.156633 -0.156633,-0.198966 0,-0.02117 0.02963,-0.02117 0.0508,0 0.143933,0.0508 0.118533,0.0635 0.249767,0.127 0.131233,0.0635 0.266699,0.1143 l -0.0085,-1.248832 z m -1.523998,0.647699 v 0.02117 q 0,0.09313 -0.05927,0.09313 -0.0635,0 -0.148167,-0.04657 -0.08043,-0.0508 -0.08043,-0.126999 0,-0.02963 0.0042,-0.04657 0.02117,-0.118533 0.02117,-0.224367 v -0.04233 L 48.455624,70.0529 q -0.0042,-0.131233 -0.04657,-0.237066 -0.01693,-0.0508 -0.01693,-0.05503 0,-0.0254 0.03387,-0.0254 0.05927,0 0.262466,0.07197 l 0.825499,-0.06773 q 0.01693,-0.0042 0.0508,-0.0042 0.08043,0 0.122767,0.0508 0.04657,0.0508 0.04657,0.0889 0,0.02117 -0.0127,0.0508 -0.0085,0.02963 -0.0127,0.0508 l -0.07197,1.777999 q 0.131233,0.131233 0.131233,0.186266 0,0.02963 -0.02963,0.0381 -0.02963,0.0042 -0.1016,0.0085 l -0.880533,0.0254 z M 50.369089,70.7641 q -0.0042,0.118533 -0.03387,0.469899 l -0.0127,0.148167 0.994833,-0.0508 -0.0042,-0.6223 z m 0.0042,-0.859366 q 0.0042,0.232833 0.0042,0.634999 l 0.935565,-0.05927 -0.0042,-0.639233 z m -1.642532,1.087966 0.01693,0.787399 0.639232,-0.01693 0.02117,-0.808566 z m -0.02117,-0.948266 0.01693,0.723899 0.685799,-0.0381 0.01693,-0.753533 z"
           style="stroke-width:0.264583"
           id="path59" />
      </g>
    </g>
  </g>
</svg>
