<?xml version="1.0" encoding="UTF-8" standalone="no"?>
<svg
   xmlns:dc="http://purl.org/dc/elements/1.1/"
   xmlns:cc="http://creativecommons.org/ns#"
   xmlns:rdf="http://www.w3.org/1999/02/22-rdf-syntax-ns#"
   xmlns:svg="http://www.w3.org/2000/svg"
   xmlns="http://www.w3.org/2000/svg"
   width="242.67599"
   height="18.652"
   viewBox="0 0 64.208022 4.9350085"
   version="1.1"
   id="svg8">
  <defs
     id="defs2" />
  <metadata
     id="metadata5">
    <rdf:RDF>
      <cc:Work
         rdf:about="">
        <dc:format>image/svg+xml</dc:format>
        <dc:type
           rdf:resource="http://purl.org/dc/dcmitype/StillImage" />
        <dc:title></dc:title>
      </cc:Work>
    </rdf:RDF>
  </metadata>
  <g
     id="layer1"
     transform="translate(-6.8791666,-105.56875)">
    <g
       id="g902">
      <rect
         style="fill:#000000;fill-opacity:1;stroke-width:0.0306877"
         id="rect10"
         width="64.208023"
         height="4.9350085"
         x="6.8791666"
         y="105.56875" />
      <g
         aria-label="本情境故事純屬虛構，如有雷同，實屬巧合。"
         id="text837"
         style="font-size:3.175px;line-height:1.25;font-family:Iansui;-inkscape-font-specification:'Iansui, Normal';word-spacing:0px;fill:#ffffff;fill-opacity:1;stroke-width:0.264583">
        <path
           d="m 9.4382725,109.42108 q 0,0.0857 -0.0635,0.0857 -0.028575,0 -0.066675,-0.0191 -0.09525,-0.0476 -0.09525,-0.11113 0,-0.0127 0.00317,-0.0222 0.022225,-0.11113 0.022225,-0.19685 v -0.32068 l -0.384175,0.0159 h -0.05715 q -0.085725,0 -0.117475,-0.0318 -0.0254,-0.0254 -0.04445,-0.0635 -0.01905,-0.0381 -0.0254,-0.0667 -0.00317,-0.006 -0.00317,-0.0191 0,-0.0127 0.0127,-0.0127 0.00953,0 0.015875,0.003 0.0635,0.0159 0.12065,0.0159 l 0.053975,-0.003 0.428625,-0.0159 v -0.96837 q -0.250825,0.4318 -0.53975,0.73025 -0.288925,0.29527 -0.5207,0.4445 -0.2286,0.14922 -0.288925,0.14922 -0.028575,0 -0.028575,-0.0222 0,-0.0254 0.0508,-0.0667 0.32385,-0.2413 0.644525,-0.60325 0.32385,-0.36195 0.57785,-0.8128 l -0.67945,0.0381 q -0.0381,0.003 -0.09525,0.003 -0.060325,0 -0.111125,-0.0254 -0.0508,-0.0254 -0.085725,-0.12065 l -0.00635,-0.0254 q 0,-0.0222 0.0254,-0.0222 0.0127,0 0.01905,0.003 0.0508,0.0127 0.130175,0.0127 h 0.047625 l 0.860425,-0.0476 v -0.55562 q 0,-0.0794 -0.041275,-0.13653 -0.015875,-0.0254 -0.015875,-0.0381 0,-0.0222 0.0381,-0.0222 0.015875,0 0.06985,0.01 0.053975,0.01 0.1016,0.0381 0.047625,0.0254 0.047625,0.0699 v 0.6223 l 0.7842255,-0.0445 q 0.0889,-0.006 0.1397,-0.0254 0.01905,-0.006 0.02858,-0.006 0.04445,0 0.1143,0.0635 0.07303,0.0603 0.07303,0.0921 0,0.0349 -0.07938,0.0413 l -0.9779005,0.054 q 0.33655,0.44767 0.6572255,0.762 0.320675,0.31432 0.688975,0.50165 0.04445,0.0254 0.04445,0.0413 0,0.0191 -0.07303,0.0667 -0.06985,0.0476 -0.10795,0.0476 -0.01905,0 -0.0381,-0.01 -0.01588,-0.0127 -0.02223,-0.0159 -0.384175,-0.25082 -0.6826255,-0.54927 -0.29845,-0.29845 -0.549275,-0.69215 v 1.00965 l 0.3429,-0.0127 q 0.073025,-0.003 0.136525,-0.0286 0.0254,-0.006 0.034925,-0.006 0.041275,0 0.079375,0.0286 0.04128,0.0254 0.06668,0.0603 0.0254,0.0349 0.0254,0.054 0,0.0254 -0.02222,0.0413 -0.01905,0.0127 -0.06033,0.0159 l -0.6032505,0.0254 z"
           style="fill:#ffffff;fill-opacity:1;stroke-width:0.264583"
           id="path839" />
        <path
           d="m 12.330692,107.84946 q -0.03175,0.003 -0.07938,0.003 -0.05397,0 -0.07302,-0.0191 -0.0381,-0.0381 -0.05715,-0.0825 -0.01905,-0.0444 -0.01905,-0.0635 0,-0.019 0.01587,-0.019 0.0127,0 0.01905,0.003 0.0508,0.0127 0.117475,0.0127 h 0.02858 l 0.581025,-0.0349 -0.0032,-0.20637 -0.307975,0.019 -0.0635,0.003 q -0.06033,0 -0.08573,-0.0222 -0.02223,-0.0159 -0.04763,-0.0476 -0.02223,-0.0318 -0.03175,-0.0572 l -0.0063,-0.0254 q 0,-0.0191 0.01905,-0.0191 0.0127,0 0.01905,0.003 0.0635,0.0159 0.111125,0.0159 l 0.04445,-0.003 0.34925,-0.019 v -0.18733 l -0.4318,0.0254 -0.05715,0.003 q -0.06668,0 -0.10795,-0.0349 -0.0381,-0.0381 -0.05398,-0.0762 -0.0127,-0.0413 -0.0127,-0.054 0,-0.0159 0.01905,-0.0159 l 0.01587,0.003 q 0.07302,0.0159 0.1397,0.0159 h 0.01587 l 0.4699,-0.0254 v -0.13652 q 0,-0.0984 -0.0381,-0.16828 -0.0095,-0.0191 -0.0095,-0.0286 0,-0.0222 0.0381,-0.0222 0.05397,0 0.123825,0.0222 0.07302,0.0191 0.07302,0.0889 v 0.23177 l 0.3556,-0.0191 q 0.0381,-0.003 0.12065,-0.0254 l 0.01587,-0.003 q 0.03175,0 0.09525,0.0444 0.0635,0.0413 0.0635,0.0825 0,0.0413 -0.06668,0.0476 l -0.5842,0.0349 -0.0032,0.18415 0.2794,-0.0159 q 0.05397,-0.003 0.111125,-0.0254 0.0064,-0.003 0.01905,-0.003 0.03175,0 0.08573,0.0444 0.05715,0.0445 0.05715,0.0826 0,0.0349 -0.0635,0.0413 l -0.48895,0.0318 v 0.20638 l 0.6604,-0.0381 q 0.06667,-0.003 0.117474,-0.0254 0.0064,-0.003 0.01905,-0.003 0.03175,0 0.1016,0.0572 0.04763,0.0413 0.04763,0.0762 0,0.0222 -0.01905,0.0349 -0.01588,0.0127 -0.04445,0.0159 z m -0.8001,-1.0287 q 0,-0.0381 -0.0127,-0.0762 -0.0095,-0.0381 -0.0254,-0.0572 -0.01905,-0.0254 -0.01905,-0.0381 0,-0.0222 0.0381,-0.0222 0.05715,0 0.136525,0.0349 0.07938,0.0318 0.07938,0.073 l -0.0127,2.68605 q 0,0.0635 -0.04127,0.0635 -0.04763,0 -0.117475,-0.0413 -0.06985,-0.0413 -0.06985,-0.0921 0,-0.0222 0.0032,-0.0349 0.0254,-0.11748 0.0254,-0.20638 z m -0.127,0.58102 q 0,0.28258 -0.1143,0.75883 -0.0063,0.0286 -0.01905,0.0444 -0.0127,0.0127 -0.03492,0.0127 -0.0381,0 -0.09207,-0.019 -0.0508,-0.0222 -0.0508,-0.0667 0,-0.006 0.0063,-0.0318 0.09843,-0.3302 0.127,-0.71755 0.0032,-0.0381 0.01587,-0.054 0.01588,-0.0159 0.0508,-0.0159 l 0.03175,0.003 q 0.04762,0.006 0.0635,0.0222 0.01587,0.0159 0.01587,0.0476 z m 0.6731,0.42863 q 0,0.0476 -0.04763,0.0635 -0.04763,0.0127 -0.08573,0.0127 -0.02858,0 -0.04127,-0.0159 -0.0127,-0.0159 -0.01588,-0.0508 -0.0254,-0.22542 -0.09842,-0.48577 -0.0064,-0.0317 -0.0064,-0.0413 0,-0.0349 0.04128,-0.0508 0.04445,-0.0159 0.06668,-0.0159 0.04445,0 0.0635,0.0571 0.03175,0.10477 0.0762,0.28575 0.04763,0.18097 0.04763,0.2413 z m 0.02223,1.61925 q 0,-0.0413 0.0254,-0.073 0.10795,-0.1651 0.168275,-0.3048 0.06032,-0.1397 0.09207,-0.32702 0.03175,-0.1905 0.03175,-0.47308 0,-0.127 -0.0032,-0.17462 -0.0032,-0.0476 -0.01905,-0.0762 -0.01905,-0.0318 -0.01905,-0.0476 0,-0.006 0.0063,-0.0127 0.0095,-0.006 0.02223,-0.006 0.06985,0 0.174625,0.0476 l 0.8763,-0.0413 h 0.02223 q 0.04763,0 0.0889,0.0286 0.04445,0.0286 0.04445,0.0762 0,0.0159 -0.0064,0.0349 -0.0032,0.0159 -0.0032,0.0349 l 0.0095,1.08585 q 0,0.0286 0.0032,0.054 0.0032,0.0254 0.0032,0.0444 0,0.054 -0.04763,0.1016 -0.04445,0.0476 -0.08573,0.0476 -0.04445,0 -0.1651,-0.0699 -0.117475,-0.0699 -0.22225,-0.1524 -0.1016,-0.0794 -0.1016,-0.11113 0,-0.019 0.02858,-0.019 0.01905,0 0.06668,0.0159 0.168275,0.0699 0.3302,0.10795 l -0.0032,-0.3937 -0.879475,0.0381 q -0.04445,0.16192 -0.12065,0.29527 -0.0762,0.13335 -0.15875,0.20955 -0.07937,0.0762 -0.136525,0.0794 h -0.0064 q -0.01587,0 -0.01587,-0.0191 z m 1.317625,-0.7747 v -0.19368 l -0.8255,0.0349 q -0.0063,0.10795 -0.01905,0.19367 z m -0.0032,-0.35878 v -0.18415 l -0.809625,0.0413 -0.0032,0.1778 z"
           style="fill:#ffffff;fill-opacity:1;stroke-width:0.264583"
           id="path841" />
        <path
           d="m 17.175735,108.88133 q 0,0.2032 -0.02222,0.30163 -0.01905,0.0984 -0.07303,0.13652 -0.05398,0.0413 -0.1651,0.0572 -0.1905,0.019 -0.2667,0.019 -0.19685,0 -0.295274,-0.0444 -0.09843,-0.0413 -0.127,-0.10795 -0.0254,-0.0635 -0.0254,-0.15875 v -0.01 l 0.0095,-0.46355 -0.206375,0.01 q -0.111125,0.33655 -0.339725,0.5334 -0.225425,0.19368 -0.606425,0.29528 -0.0381,0.0127 -0.07303,0.0127 -0.04763,0 -0.04763,-0.0254 0,-0.0318 0.08573,-0.0699 0.301625,-0.13018 0.4953,-0.3048 0.193675,-0.1778 0.2794,-0.4318 l -0.0889,0.003 v 0.0254 q 0,0.0603 -0.05397,0.0603 -0.03175,0 -0.09207,-0.0254 -0.06033,-0.0286 -0.06033,-0.0826 v -0.019 l 0.0032,-0.1016 v -0.0413 l -0.04128,-0.42545 q -0.0032,-0.0508 -0.04445,-0.1397 -0.01588,-0.0317 -0.01588,-0.0444 0,-0.0159 0.02858,-0.0159 0.0508,0 0.2032,0.0476 l 0.977899,-0.0508 h 0.03175 q 0.04445,0 0.0889,0.0254 0.04763,0.0254 0.04763,0.073 0,0.0191 -0.0095,0.0413 -0.0064,0.0191 -0.0095,0.0254 l -0.07937,0.4699 q 0.06985,0.0667 0.06985,0.1016 0,0.0191 -0.0254,0.0286 -0.0254,0.006 -0.0762,0.01 l -0.24765,0.01 -0.0095,0.44132 v 0.019 q 0,0.0508 0.0127,0.0826 0.01587,0.0286 0.0762,0.0476 0.0635,0.0222 0.19685,0.0222 0.09208,0 0.20955,-0.0222 0.04763,-0.01 0.07303,-0.0318 0.0254,-0.0222 0.05397,-0.1016 0.02858,-0.0825 0.06033,-0.254 0.01905,-0.11748 0.05715,-0.11748 0.01587,0 0.02858,0.0349 0.0127,0.0318 0.0127,0.0889 z m -2.647949,-1.0922 q -0.02223,0.003 -0.06668,0.003 -0.07938,0 -0.111125,-0.0318 -0.02858,-0.0349 -0.0635,-0.12383 -0.0032,-0.006 -0.0032,-0.0191 0,-0.0127 0.01588,-0.0127 0.0095,0 0.01587,0.003 0.06985,0.0159 0.117475,0.0159 l 0.05397,-0.003 0.206375,-0.0159 v -0.58102 q 0,-0.073 -0.04763,-0.1397 -0.01905,-0.0254 -0.01905,-0.0413 0,-0.0254 0.04128,-0.0254 0.05715,0 0.1397,0.0349 0.08255,0.0318 0.08255,0.0794 l -0.0063,0.6604 0.04763,-0.003 q 0.06985,-0.006 0.13335,-0.0318 0.0063,-0.003 0.01905,-0.003 0.03492,0 0.09525,0.0508 0.0635,0.0508 0.0635,0.0889 0,0.0413 -0.07937,0.0476 l -0.2794,0.0222 -0.0063,0.69533 q 0.212725,-0.0984 0.365125,-0.1778 0.04763,-0.0254 0.07938,-0.0254 0.02858,0 0.02858,0.0222 0,0.0318 -0.05715,0.0762 -0.238125,0.1778 -0.530225,0.35243 -0.288925,0.17462 -0.358775,0.17462 -0.03493,0 -0.07938,-0.0413 -0.04128,-0.0413 -0.07302,-0.0921 -0.03175,-0.0508 -0.03175,-0.0667 0,-0.0222 0.02223,-0.0222 h 0.03492 q 0.1143,0 0.415925,-0.12382 v -0.75883 z m 1.12395,0.22543 0.01588,0.1651 0.876299,-0.0413 0.01905,-0.16827 z m 0.02858,0.30162 0.0127,0.17463 0.815974,-0.0318 0.01905,-0.18098 z m 0.219075,-0.7874 0.225425,-0.01 q 0.127,-0.17463 0.15875,-0.23813 0.03493,-0.0667 0.04128,-0.14605 l 0.0032,-0.0254 -0.57785,0.0413 q 0.03175,0.006 0.13335,0.13017 0.104775,0.12383 0.104775,0.15558 0,0.0381 -0.05398,0.073 l -0.01905,0.0127 z m 0.619124,-0.59055 q 0.09843,-0.006 0.136525,-0.0191 0.0254,-0.01 0.04127,-0.01 0.03175,0 0.0889,0.0413 0.06033,0.0381 0.06033,0.0794 0,0.0413 -0.0635,0.0476 l -0.384175,0.0254 0.04763,0.0318 q 0.0762,0.0508 0.0762,0.0952 0,0.01 -0.0127,0.0349 -0.07937,0.12065 -0.200024,0.2413 l 0.441324,-0.0222 q 0.07302,-0.003 0.136525,-0.0254 0.0127,-0.006 0.0381,-0.006 0.04763,0 0.1016,0.0444 0.05398,0.0413 0.05398,0.0826 0,0.0476 -0.06668,0.054 l -1.543049,0.0794 -0.06668,0.003 q -0.06985,0 -0.111125,-0.0476 -0.0381,-0.0476 -0.04763,-0.0984 -0.0032,-0.006 -0.0032,-0.019 0,-0.0159 0.01588,-0.0159 l 0.0127,0.003 q 0.08573,0.0159 0.1524,0.0159 h 0.02223 l 0.409575,-0.0222 q -0.02223,-0.01 -0.0381,-0.0381 -0.06033,-0.10795 -0.1524,-0.23178 -0.0127,-0.019 -0.0127,-0.0349 0,-0.0254 0.03493,-0.0571 0.0063,-0.006 0.0127,-0.01 0.0095,-0.006 0.0127,-0.01 l -0.1143,0.01 q -0.0762,0.006 -0.09843,0.006 -0.0508,0 -0.08573,-0.0318 -0.03492,-0.0318 -0.05397,-0.0699 -0.01905,-0.0413 -0.01905,-0.0603 0,-0.0159 0.02223,-0.0159 h 0.0095 q 0.06985,0.0159 0.142875,0.0159 h 0.03175 l 0.508,-0.0349 q -0.104775,-0.12065 -0.231775,-0.22542 -0.01905,-0.0159 -0.01905,-0.0318 0,-0.0159 0.02858,-0.0508 0.02858,-0.0381 0.05397,-0.0381 0.02223,0 0.10795,0.0635 0.08573,0.0635 0.15875,0.13652 0.07302,0.0699 0.07302,0.0952 0,0.0191 -0.0127,0.0413 z"
           style="fill:#ffffff;fill-opacity:1;stroke-width:0.264583"
           id="path843" />
        <path
           d="m 19.985605,107.53513 q -0.136525,0.56198 -0.36195,0.96203 0.288925,0.42545 0.752475,0.7874 0.03493,0.0254 0.03493,0.0476 0,0.0254 -0.07303,0.0667 -0.06985,0.0444 -0.09842,0.0444 -0.04128,0 -0.174625,-0.13018 -0.13335,-0.127 -0.2921,-0.30797 -0.155575,-0.18415 -0.257175,-0.33338 -0.1524,0.22543 -0.3429,0.40323 -0.187325,0.17462 -0.34925,0.26987 -0.15875,0.0984 -0.2159,0.0984 -0.0254,0 -0.0254,-0.019 0,-0.0286 0.06032,-0.0762 0.22225,-0.17145 0.4191,-0.38735 0.19685,-0.21908 0.3429,-0.46673 -0.1905,-0.32067 -0.314325,-0.66992 -0.09842,0.16827 -0.2032,0.2921 -0.104775,0.12382 -0.136525,0.12382 -0.01588,0 -0.01588,-0.0222 0,-0.0381 0.03493,-0.0984 0.1524,-0.28575 0.2667,-0.57785 0.1143,-0.2921 0.174625,-0.508 0.0635,-0.21907 0.0635,-0.27622 0,-0.0381 -0.0032,-0.0603 v -0.006 q 0,-0.0254 0.03175,-0.0254 0.0508,0 0.127,0.0571 0.07937,0.054 0.07937,0.1016 0,0.0413 -0.08255,0.25718 -0.07938,0.21272 -0.13335,0.33655 l 0.6477,-0.0444 q 0.06985,-0.003 0.142875,-0.0318 0.0254,-0.006 0.03175,-0.006 0.0381,0 0.10795,0.054 0.06985,0.0508 0.06985,0.0921 0,0.0349 -0.06668,0.0413 z m -2.02565,1.71768 v 0.01 q 0,0.0286 -0.01588,0.0476 -0.0127,0.019 -0.04127,0.019 -0.04445,0 -0.104775,-0.0381 -0.05715,-0.0349 -0.05715,-0.0794 0,-0.019 0.0032,-0.0286 0.0095,-0.054 0.0095,-0.1143 l -0.0032,-0.0667 -0.04128,-0.5969 q -0.0063,-0.0952 -0.03492,-0.15875 -0.01588,-0.0318 -0.01588,-0.0508 0,-0.0222 0.03175,-0.0222 0.0508,0 0.20955,0.054 l 0.187325,-0.01 0.0032,-0.5207 -0.41275,0.0222 -0.0635,0.003 q -0.07938,0 -0.10795,-0.0286 -0.04127,-0.0413 -0.06032,-0.0889 -0.01905,-0.0508 -0.01905,-0.0635 0,-0.0159 0.01588,-0.0159 0.0127,0 0.01905,0.003 0.04763,0.0159 0.130175,0.0159 h 0.03175 l 0.4699,-0.0254 0.0032,-0.5588 q 0,-0.0318 -0.0095,-0.0635 -0.0095,-0.0318 -0.02858,-0.0667 -0.0095,-0.0159 -0.0095,-0.0286 0,-0.0254 0.04127,-0.0254 0.03493,0 0.104775,0.0191 0.104775,0.0254 0.104775,0.0921 l -0.0127,0.6223 0.26035,-0.0159 q 0.09525,-0.003 0.174625,-0.0286 0.0095,-0.003 0.02858,-0.003 0.04445,0 0.08255,0.0286 0.04128,0.0254 0.06668,0.0603 0.02858,0.0349 0.02858,0.0508 0,0.0444 -0.0762,0.0508 l -0.568325,0.0318 -0.0127,0.5207 0.2921,-0.0159 0.03493,-0.003 q 0.04445,0 0.09207,0.0413 0.04763,0.0381 0.04763,0.073 0,0.0159 -0.0127,0.0381 -0.0127,0.0222 -0.0127,0.0349 l -0.06985,0.56515 q 0.07938,0.0984 0.07938,0.13335 0,0.0222 -0.01905,0.0286 -0.01588,0.003 -0.0635,0.006 l -0.688975,0.0191 z m -0.0635,-0.86043 0.04127,0.56515 0.517525,-0.0191 0.0508,-0.57785 z m 1.3081,-0.78105 q 0.123825,0.381 0.29845,0.69533 0.14605,-0.29528 0.254,-0.75565 l -0.53975,0.0381 z"
           style="fill:#ffffff;fill-opacity:1;stroke-width:0.264583"
           id="path845" />
        <path
           d="m 22.881198,108.63051 q 0.0762,0.0794 0.0762,0.1143 0,0.0222 -0.02223,0.0286 -0.01905,0.006 -0.0635,0.01 l -0.75565,0.0318 v 0.33972 l 0.0032,0.0794 q 0.0032,0.0222 0.0032,0.0667 0,0.0984 -0.05715,0.15875 -0.05715,0.0635 -0.127,0.0635 -0.05715,0 -0.18415,-0.0794 -0.126999,-0.0794 -0.234949,-0.17463 -0.10795,-0.0921 -0.10795,-0.12382 0,-0.0254 0.03493,-0.0254 0.03175,0 0.0635,0.0159 0.260349,0.11113 0.412749,0.14605 v -0.46037 l -0.603249,0.0254 -0.08573,0.003 q -0.111125,0 -0.161925,-0.13017 -0.0095,-0.019 -0.0095,-0.0286 0,-0.0159 0.01587,-0.0159 l 0.0254,0.006 q 0.03493,0.0127 0.111125,0.0127 h 0.0381 l 0.669924,-0.0254 v -0.20003 l -1.076324,0.0476 h -0.02222 q -0.0635,0 -0.1143,-0.0222 -0.0508,-0.0254 -0.0762,-0.11747 -0.0032,-0.006 -0.0032,-0.0159 0,-0.0159 0.01905,-0.0159 l 0.01905,0.003 q 0.0635,0.0159 0.111125,0.0159 h 0.0254 l 1.117599,-0.0476 v -0.17462 l -0.631824,0.0318 h -0.04445 q -0.07937,0 -0.123825,-0.0318 -0.04127,-0.0318 -0.05715,-0.0667 -0.0127,-0.0349 -0.0127,-0.0508 0,-0.0159 0.01587,-0.0159 0.0127,0 0.01905,0.003 0.06985,0.0159 0.1143,0.0159 l 0.04763,-0.003 0.669924,-0.0381 v -0.18415 l -0.558799,0.0254 0.0032,0.0254 v 0.0127 q 0,0.0413 -0.05397,0.0413 -0.03493,0 -0.09208,-0.0159 -0.05398,-0.0191 -0.05398,-0.073 v -0.0762 q 0,-0.0445 -0.0032,-0.0667 l -0.02222,-0.17145 q -0.0095,-0.0921 -0.0508,-0.1524 -0.02222,-0.0349 -0.02222,-0.0508 0,-0.0222 0.03493,-0.0222 0.05715,0 0.219075,0.0572 l 0.600074,-0.0349 v -0.18415 l -0.901699,0.0508 q -0.02858,0.003 -0.0762,0.003 -0.06668,0 -0.10795,-0.0349 -0.0381,-0.0349 -0.05715,-0.073 -0.01588,-0.0413 -0.01588,-0.054 0,-0.0159 0.01905,-0.0159 0.0127,0 0.02222,0.003 0.0635,0.0159 0.130175,0.0159 h 0.02858 l 0.958849,-0.0571 v -0.15875 q 0,-0.0984 -0.04763,-0.15875 -0.0095,-0.0159 -0.0095,-0.0222 0,-0.019 0.03492,-0.019 0.0381,0 0.0889,0.0159 0.07937,0.0222 0.1016,0.0476 0.02223,0.0254 0.02223,0.0762 v 0.20638 l 0.809625,-0.0476 q 0.04445,-0.003 0.0889,-0.0159 0.04445,-0.0159 0.05715,-0.019 0.0064,-0.003 0.01905,-0.003 0.04445,0 0.10795,0.0571 0.0635,0.0572 0.0635,0.0921 0,0.0349 -0.06985,0.0413 l -1.076325,0.0603 v 0.18415 l 0.650875,-0.0381 0.0508,-0.003 q 0.04128,0 0.08573,0.0286 0.04763,0.0254 0.04763,0.0603 0,0.0191 -0.01587,0.0413 -0.0127,0.0222 -0.01588,0.0318 l -0.0508,0.20002 q 0.07937,0.0762 0.07937,0.10795 0,0.0222 -0.02222,0.0286 -0.02223,0.006 -0.06985,0.01 l -0.7366,0.0349 v 0.18415 l 0.70485,-0.0413 0.03493,-0.003 q 0.04127,0 0.0889,0.0349 0.0508,0.0317 0.0508,0.0857 0,0.0159 -0.0127,0.0413 -0.0127,0.0254 -0.0127,0.0381 l -0.0254,0.1397 0.2413,-0.01 q 0.05398,-0.003 0.09843,-0.019 0.04445,-0.0159 0.05397,-0.0191 0.0254,-0.006 0.03493,-0.006 0.03175,0 0.09842,0.0508 0.06668,0.0508 0.06668,0.0889 0,0.0381 -0.08573,0.0444 l -0.5334,0.0222 z m -0.76835,-1.20015 v 0.21907 l 0.56515,-0.0286 0.0381,-0.22543 z m -0.793749,0.0445 0.0254,0.21272 0.574674,-0.0286 v -0.21908 z m 0.793749,0.98742 0.0032,0.20003 0.5842,-0.0222 0.02858,-0.20637 z m 0,-0.3302 v 0.17463 l 0.635,-0.0254 0.0254,-0.18415 z"
           style="fill:#ffffff;fill-opacity:1;stroke-width:0.264583"
           id="path847" />
        <path
           d="m 25.332292,108.59876 q -0.02858,0.003 -0.06668,0.0159 -0.0381,0.01 -0.05397,0.01 -0.02858,0 -0.06985,-0.0286 -0.0381,-0.0286 -0.0381,-0.073 0,-0.01 0.0064,-0.0413 0.0032,-0.01 0.0095,-0.0444 0.0064,-0.0349 0.0064,-0.073 l 0.0063,-0.42863 q 0,-0.0825 -0.04445,-0.14605 -0.0095,-0.0159 -0.0095,-0.0254 0,-0.0159 0.0254,-0.0159 0.03493,0 0.117475,0.0254 0.0635,0.0191 0.08255,0.0349 0.02223,0.0159 0.02223,0.0508 v 0.01 l -0.02223,0.55562 0.333375,-0.0413 0.0064,-0.91758 -0.352425,0.0349 h -0.06032 q -0.0635,0 -0.09208,-0.006 -0.0254,-0.006 -0.0508,-0.0381 -0.0254,-0.0318 -0.05398,-0.11113 l -0.0032,-0.0127 q 0,-0.0254 0.02222,-0.0254 0.0095,0 0.01588,0.003 0.09207,0.0286 0.161925,0.0286 h 0.01587 l 0.396875,-0.0508 0.0032,-0.39052 q 0,-0.0476 -0.0127,-0.0826 -0.0095,-0.0381 -0.04127,-0.0762 -0.0127,-0.019 -0.0127,-0.0286 0,-0.0222 0.04763,-0.0222 0.04763,0 0.127,0.0254 0.08255,0.0254 0.08255,0.0921 l -0.0032,0.46038 0.346075,-0.0444 q 0.03175,-0.003 0.0762,-0.006 0.04445,-0.006 0.06985,-0.0159 0.0095,-0.003 0.02223,-0.003 0.04445,0 0.09525,0.0476 0.05397,0.0476 0.05397,0.0889 0,0.0444 -0.0635,0.0508 l -0.600075,0.0603 -0.0064,0.91757 0.36195,-0.0444 0.01905,-0.47307 v -0.0318 q 0,-0.073 -0.02222,-0.11748 -0.0095,-0.019 -0.0095,-0.0286 0,-0.0222 0.03175,-0.0222 0.01588,0 0.0635,0.01 0.04763,0.01 0.0889,0.0349 0.04127,0.0254 0.04127,0.0667 v 0.0254 l -0.04127,0.79692 q -0.0064,0.0794 -0.0508,0.0794 -0.03493,0 -0.09525,-0.0445 -0.05715,-0.0476 -0.05715,-0.0762 0,-0.006 0.0063,-0.0317 l 0.0064,-0.0191 -0.346075,0.0476 -0.0032,0.51753 q 0,0.0603 0.01587,0.0889 0.01588,0.0286 0.08255,0.0444 0.06668,0.0159 0.22225,0.0159 0.14605,0 0.2413,-0.0191 0.06985,-0.0127 0.09843,-0.0349 0.02858,-0.0254 0.0508,-0.10478 0.0254,-0.0825 0.06032,-0.2921 0.0127,-0.0762 0.03175,-0.11747 0.01905,-0.0413 0.0381,-0.0413 0.01905,0 0.02858,0.0444 0.0127,0.0444 0.0127,0.12065 0,0.31433 -0.03493,0.43498 -0.03175,0.12382 -0.149225,0.1651 -0.117475,0.0413 -0.415925,0.0413 -0.15875,0 -0.254,-0.0159 -0.09208,-0.0159 -0.155575,-0.0889 -0.06032,-0.0699 -0.06032,-0.22543 l 0.0032,-0.508 z m -1.387475,0.7366 q -0.03493,0 -0.09208,-0.0349 -0.05397,-0.0349 -0.05397,-0.073 0,-0.0191 0.01905,-0.0762 0.04445,-0.10795 0.0762,-0.2286 0.03492,-0.12383 0.0762,-0.30798 0.0095,-0.0476 0.01905,-0.0635 0.0127,-0.0159 0.04127,-0.0159 0.02858,0 0.06985,0.0191 0.04445,0.019 0.04445,0.0508 0,0.054 -0.04127,0.26035 -0.0381,0.20637 -0.1016,0.39687 -0.01905,0.073 -0.05715,0.073 z m 0.61595,-0.2413 q 0,0.0572 -0.05397,0.0794 -0.05398,0.0191 -0.0889,0.0191 -0.02858,0 -0.04127,-0.0222 -0.0127,-0.0222 -0.01905,-0.0762 -0.0381,-0.32385 -0.0762,-0.48578 -0.0095,-0.0381 -0.0095,-0.0698 0,-0.0413 0.0381,-0.0508 0.04127,-0.0127 0.07303,-0.0127 0.0254,0 0.0381,0.019 0.01587,0.0159 0.02858,0.0572 0,0.006 0.02858,0.12065 0.0063,0.0254 0.04445,0.19685 0.0381,0.17145 0.0381,0.22543 z m 0.42545,-0.1143 q 0,0.0508 -0.0508,0.0762 -0.04763,0.0222 -0.08573,0.0222 -0.0254,0 -0.04128,-0.0191 -0.0127,-0.0222 -0.0254,-0.0699 -0.0635,-0.24765 -0.1397,-0.43815 -0.0032,-0.0159 -0.0127,-0.0381 -0.0064,-0.0254 -0.0064,-0.0413 0,-0.0159 0.02858,-0.0413 0.02858,-0.0254 0.07937,-0.0254 0.0381,0 0.06668,0.0603 0.0762,0.14605 0.130175,0.3048 0.05715,0.15875 0.05715,0.20955 z m -1.152525,-0.73025 q 0,-0.0127 0.02223,-0.0318 0.0254,-0.019 0.0508,-0.0349 0.0254,-0.0159 0.04445,-0.0318 0.04763,-0.0317 0.180975,-0.17462 0.13335,-0.14288 0.2794,-0.3175 -0.130175,0.0127 -0.2032,0.0159 -0.2159,0.0222 -0.28575,0.0222 -0.03493,0 -0.06033,-0.0444 -0.0254,-0.0444 -0.0254,-0.0857 0,-0.019 0.02222,-0.0318 0.02222,-0.0127 0.03175,-0.019 0.06668,-0.0444 0.09525,-0.0762 0.04128,-0.0413 0.14605,-0.18732 0.104775,-0.14923 0.1905,-0.30163 0.08573,-0.1524 0.08573,-0.2286 0,-0.0381 0.03493,-0.0381 0.01588,0 0.05398,0.0222 0.04127,0.0222 0.07302,0.0508 0.03493,0.0286 0.03493,0.0571 0,0.0349 -0.0127,0.0635 -0.0127,0.0286 -0.03493,0.0667 -0.04127,0.0762 -0.174625,0.2667 -0.13335,0.18733 -0.244475,0.31433 0.10795,-0.01 0.3302,-0.0381 l 0.08573,-0.01 q 0.219075,-0.2794 0.219075,-0.3429 0.0032,-0.0254 0.0063,-0.0381 0.0064,-0.0127 0.02223,-0.0127 0.03492,0 0.09207,0.0476 0.06033,0.0444 0.06033,0.0889 0,0.019 -0.02223,0.0476 -0.01905,0.0286 -0.02858,0.0413 -0.0762,0.13335 -0.3429,0.45085 -0.263525,0.3175 -0.396875,0.42227 0.127,-0.019 0.45085,-0.0984 l 0.08573,-0.0191 q -0.05715,-0.12383 -0.06668,-0.13335 -0.01905,-0.0254 -0.01905,-0.0476 0.0032,-0.0286 0.03493,-0.0476 0.03175,-0.019 0.0635,-0.019 0.05398,0 0.0762,0.0349 0.05398,0.0667 0.136525,0.23178 0.08255,0.16192 0.08255,0.19685 0,0.0444 -0.05397,0.0699 -0.0508,0.0222 -0.08573,0.0222 -0.01588,-0.003 -0.0254,-0.0127 -0.0095,-0.01 -0.02222,-0.0349 -0.0381,-0.0857 -0.0508,-0.11113 l -0.123825,0.0286 q -0.5842,0.14605 -0.682625,0.14605 -0.0508,-0.003 -0.09208,-0.0508 -0.0381,-0.0508 -0.0381,-0.0889 z"
           style="fill:#ffffff;fill-opacity:1;stroke-width:0.264583"
           id="path849" />
        <path
           d="m 28.888287,108.91943 q 0.0032,0.003 0.0064,0.006 0.0064,0.003 0.01588,0.006 0.314325,0.17463 0.314325,0.23495 0,0.0318 -0.02858,0.0667 -0.02858,0.0381 -0.0508,0.0381 -0.03175,0 -0.06985,-0.0444 -0.01588,-0.0159 -0.07937,-0.0667 -0.3683,0.054 -0.79375,0.0921 -0.42545,0.0381 -0.50165,0.0381 -0.04763,0 -0.08573,-0.0318 -0.0381,-0.0286 -0.06032,-0.0698 -0.01905,-0.0381 -0.01905,-0.0572 0,-0.0127 0.01905,-0.0127 l 0.01905,0.003 q 0.03492,0.01 0.12065,0.01 h 0.05398 q 0.1524,0 0.59055,-0.0318 v -0.15558 l -0.333375,0.0159 v 0.0127 l 0.0032,0.0159 q 0,0.0413 -0.04445,0.0413 -0.03493,0 -0.08255,-0.0127 -0.04445,-0.0159 -0.04445,-0.0603 v -0.0127 l 0.0032,-0.0444 q 0,-0.0286 -0.0032,-0.0381 l -0.02222,-0.14287 q -0.0032,-0.0159 -0.02858,-0.0857 l -0.01588,-0.0381 q -0.07302,0.0444 -0.15875,0.0825 -0.08573,0.0349 -0.111125,0.0349 -0.03175,0 -0.03175,-0.0222 0,-0.0318 0.06985,-0.0794 0.50165,-0.32703 0.549275,-0.46038 l -0.174625,0.006 v 0.0159 q 0,0.054 -0.04127,0.054 -0.03493,0 -0.08255,-0.0222 -0.04445,-0.0254 -0.04445,-0.0667 v -0.0127 l 0.0032,-0.0572 q 0,-0.0318 -0.0032,-0.0444 l -0.02858,-0.15557 q -0.0064,-0.0413 -0.0254,-0.0825 -0.01588,-0.0318 -0.01588,-0.0444 0,-0.0159 0.0254,-0.0159 0.0254,0 0.174625,0.0413 l 1.46685,-0.0762 q 0.04445,-0.003 0.08573,0.0286 0.04445,0.0318 0.04445,0.0603 0,0.0127 -0.0095,0.0317 -0.0064,0.0159 -0.0127,0.0286 l -0.05397,0.13653 q 0.0635,0.0603 0.0635,0.0825 0,0.0286 -0.06032,0.0286 l -1.177925,0.0571 q 0.03175,0.0254 0.0508,0.0476 0.01905,0.0222 0.01905,0.0349 0,0.0127 -0.01905,0.0318 -0.01905,0.0191 -0.03175,0.0254 l 1.2192,-0.054 q 0.07303,-0.003 0.111125,0.0286 0.04127,0.0318 0.04127,0.0667 0,0.0127 -0.0095,0.0349 -0.0095,0.019 -0.0095,0.0286 -0.02222,0.59372 -0.06985,0.80962 -0.04445,0.2159 -0.09842,0.26353 -0.02858,0.0286 -0.0508,0.0381 -0.02222,0.0127 -0.04763,0.0127 -0.04763,0 -0.193675,-0.0476 -0.14605,-0.0476 -0.2667,-0.10795 -0.117475,-0.0571 -0.117475,-0.0952 0,-0.0254 0.04763,-0.0254 0.02858,0 0.08573,0.0159 0.0889,0.0254 0.200025,0.0476 0.111125,0.0254 0.180975,0.0286 0.04445,0 0.07302,-0.1905 0.03175,-0.19368 0.04763,-0.4318 0.01905,-0.23813 0.01905,-0.34608 l -1.349375,0.0603 q -0.1143,0.0794 -0.2286,0.14605 0.0381,0.003 0.1397,0.0286 l 0.37465,-0.0222 q -0.0064,-0.0667 -0.03175,-0.10478 -0.0095,-0.0159 -0.0095,-0.0222 0,-0.0159 0.02858,-0.0159 0.03492,0 0.0889,0.0127 0.06032,0.0127 0.0762,0.0318 0.01588,0.0159 0.01588,0.0476 v 0.0381 l 0.434975,-0.0254 h 0.01905 q 0.05398,0 0.07937,0.0286 0.02858,0.0286 0.02858,0.0444 0,0.0159 -0.0095,0.0349 -0.0063,0.0159 -0.0095,0.0286 l -0.04445,0.13335 q 0.05397,0.0635 0.05397,0.0857 0,0.0159 -0.01905,0.0222 -0.01905,0.003 -0.05715,0.003 z m -1.27,-1.6764 q -0.0127,0.64135 -0.136525,1.19063 -0.123825,0.54927 -0.47625,0.89217 -0.04763,0.0476 -0.07937,0.0476 -0.01905,0 -0.01905,-0.0222 0,-0.0254 0.03175,-0.0762 0.2921,-0.42862 0.390525,-0.97155 0.1016,-0.5461 0.1016,-1.28905 v -0.0857 q 0,-0.0698 -0.0381,-0.1524 -0.01905,-0.0444 -0.01905,-0.054 0,-0.0254 0.03175,-0.0254 0.04763,0 0.219075,0.0762 l 1.647825,-0.10477 h 0.0127 q 0.0381,0 0.0889,0.0349 0.0508,0.0317 0.0508,0.073 0,0.0127 -0.0127,0.0349 -0.0095,0.0191 -0.0127,0.0349 l -0.0381,0.16192 q 0.07937,0.0698 0.07937,0.10478 0,0.0191 -0.02222,0.0254 -0.01905,0.006 -0.06032,0.01 z m 0.0064,-0.33337 q 0,0.13652 -0.0032,0.2032 l 1.546225,-0.0889 0.04445,-0.21273 z m 1.000125,0.74612 q 0,0.0572 -0.04763,0.0572 -0.04127,0 -0.0889,-0.0222 -0.04445,-0.0254 -0.04445,-0.0508 l 0.0032,-0.0222 q 0.0127,-0.073 0.0127,-0.12382 v -0.127 q 0,-0.054 -0.02223,-0.0953 -0.0095,-0.019 -0.0095,-0.0318 0,-0.019 0.02858,-0.019 0.02223,0 0.09208,0.0159 0.0508,0.0127 0.06668,0.0349 0.01588,0.0191 0.01588,0.054 z m 0.26035,0.17145 -0.0127,0.17145 0.358775,-0.019 0.04445,-0.17145 z m -0.51435,0.0254 0.0127,0.16828 0.3429,-0.0159 0.0095,-0.16827 z m 0.136525,0.81915 v 0.15558 l 0.339725,-0.0159 0.0381,-0.16192 z m -0.625475,-0.79375 0.01905,0.1651 0.333375,-0.0159 -0.0127,-0.1651 z m 0.09208,0.82868 0.01587,0.14287 0.34925,-0.0159 v -0.14923 z m 0.5334,0.38417 q 0.174625,-0.003 0.34925,-0.0254 -0.04127,-0.0222 -0.05715,-0.0349 -0.01587,-0.0127 -0.01587,-0.0286 0.0032,-0.0476 0.05397,-0.0794 l -0.3302,0.0159 z m 0.796925,-1.4605 q -0.02222,0 -0.0381,-0.006 -0.263525,-0.0444 -0.4191,-0.054 -0.05715,-0.006 -0.06032,-0.0444 0,-0.0127 0.0032,-0.0222 0.0064,-0.0254 0.01588,-0.0349 0.0095,-0.0127 0.03175,-0.0159 h 0.02222 q 0.168275,0.01 0.4318,0.054 0.05715,0.01 0.06032,0.0445 0,0.0159 -0.0032,0.019 -0.0064,0.0318 -0.01588,0.0444 -0.0095,0.0127 -0.02858,0.0159 z m -1.114425,-0.16827 q -0.0032,0 -0.03492,-0.006 l -0.07303,-0.0127 q -0.02858,-0.006 -0.1143,-0.0191 -0.08255,-0.0127 -0.14605,-0.019 -0.05715,-0.003 -0.05715,-0.0413 v -0.0254 q 0.0063,-0.0254 0.0127,-0.0318 0.0095,-0.01 0.03175,-0.01 h 0.0254 q 0.193675,0.0127 0.3556,0.0413 0.04763,0.01 0.04763,0.0444 v 0.01 q 0,0.0667 -0.04763,0.0699 z m 0.1143,0.01 q 0.03175,0 0.03175,0.0159 0,0.0413 -0.09843,0.0921 -0.09525,0.0508 -0.219075,0.0889 -0.12065,0.0381 -0.174625,0.0381 -0.05715,0 -0.111125,-0.10477 -0.0032,-0.003 -0.0032,-0.0127 0,-0.0159 0.02222,-0.0159 h 0.0381 q 0.09843,-0.01 0.18415,-0.0254 0.0635,-0.0159 0.168275,-0.0381 0.104775,-0.0254 0.161925,-0.0381 z m 0.88265,-0.26352 q 0.03492,-0.0191 0.05715,-0.01 0.02858,0.0159 0.04445,0.0476 0.01905,0.0317 0.01905,0.0603 0,0.0159 -0.0127,0.0286 -0.01905,0.019 -0.206375,0.0508 -0.187325,0.0318 -0.282575,0.0349 h -0.0064 q -0.0254,0 -0.0381,-0.01 -0.0127,-0.0127 -0.0127,-0.0254 0,-0.0254 0.04445,-0.0381 0.23495,-0.0571 0.3937,-0.1397 z"
           style="fill:#ffffff;fill-opacity:1;stroke-width:0.264583"
           id="path851" />
        <path
           d="m 30.748831,109.35123 q -0.07937,0 -0.12065,-0.0318 -0.04128,-0.0318 -0.0635,-0.127 -0.0032,-0.006 -0.0032,-0.0159 0,-0.0127 0.0127,-0.0127 l 0.01588,0.003 q 0.07937,0.0159 0.136525,0.0159 l 0.06032,-0.003 0.657225,-0.0222 -0.0032,-0.24765 -0.27305,0.0159 q -0.04445,0.003 -0.08255,0.0159 -0.03493,0.01 -0.04763,0.01 -0.03175,0 -0.06985,-0.0349 -0.03492,-0.0349 -0.03492,-0.0762 0,-0.006 0.0063,-0.0317 0.01588,-0.0699 0.02223,-0.26988 l 0.0032,-0.0476 q 0,-0.0667 -0.02858,-0.127 -0.0095,-0.0159 -0.0095,-0.0254 0,-0.019 0.03175,-0.019 0.04763,0 0.117475,0.0286 0.06985,0.0254 0.06985,0.0762 v 0.0127 l -0.03175,0.33338 0.327025,-0.0191 -0.0032,-0.33338 q 0,-0.0952 -0.0508,-0.1651 -0.01588,-0.0222 -0.01588,-0.0349 0,-0.0254 0.04763,-0.0254 0.0508,0 0.117475,0.0191 0.06985,0.019 0.07937,0.0699 l 0.0095,0.86995 0.2413,-0.006 0.01588,-0.78423 q 0,-0.1143 -0.01905,-0.1651 -0.0032,-0.006 -0.0032,-0.0191 0,-0.0222 0.03175,-0.0222 0.04445,0 0.1143,0.0318 0.06985,0.0318 0.06985,0.0699 l -0.01905,0.4699 0.257175,-0.003 0.07302,-0.003 0.01588,-0.26353 v -0.0286 q 0,-0.0857 -0.03493,-0.1524 -0.0095,-0.0191 -0.0095,-0.0318 0,-0.0222 0.02857,-0.0222 0.02223,0 0.06985,0.0127 0.04763,0.01 0.0889,0.0413 0.04127,0.0286 0.04127,0.0762 v 0.01 l -0.02222,0.34608 q 0.03175,0.0159 0.0635,0.0476 0.0381,0.0381 0.0381,0.0667 0,0.0222 -0.01905,0.0349 -0.01905,0.0127 -0.0508,0.0159 l -0.5461,0.0159 -0.0095,0.25083 0.64135,-0.0222 q 0.0889,-0.006 0.168275,-0.0318 0.0063,-0.003 0.01905,-0.003 0.03175,0 0.09525,0.0508 0.06667,0.0508 0.06667,0.0889 0,0.0254 -0.01905,0.0381 -0.01588,0.0159 -0.04762,0.0191 l -2.159,0.073 z m 0.06985,-1.93357 q -0.0064,0.55245 -0.0635,0.89852 -0.05398,0.3429 -0.18415,0.59373 -0.130175,0.24765 -0.371475,0.48895 -0.04445,0.0349 -0.06985,0.0349 -0.01905,0 -0.01905,-0.0222 0,-0.0286 0.04763,-0.1016 0.200025,-0.30163 0.295275,-0.6096 0.09843,-0.31115 0.123825,-0.5969 0.02858,-0.28575 0.02858,-0.6604 0,-0.14288 -0.02858,-0.2159 -0.0095,-0.0254 -0.0095,-0.0413 0,-0.019 0.01905,-0.019 0.0508,0 0.24765,0.0921 l 0.64135,-0.0286 v -0.49847 q 0,-0.0413 -0.0127,-0.0699 -0.0095,-0.0317 -0.03493,-0.0698 -0.0095,-0.0159 -0.0095,-0.0222 0,-0.019 0.04128,-0.019 0.0635,0 0.136525,0.0286 0.07303,0.0286 0.07303,0.0889 l -0.0032,0.19685 0.60325,-0.0381 q 0.06668,-0.006 0.10795,-0.0191 0.01905,-0.006 0.02857,-0.006 0.02858,0 0.09208,0.0476 0.0635,0.0476 0.0635,0.0794 0,0.0191 -0.02223,0.0318 -0.02222,0.01 -0.05715,0.0127 l -0.81915,0.0508 -0.0032,0.19685 1.076325,-0.0476 h 0.02857 q 0.05398,0 0.1143,0.0413 0.06032,0.0413 0.06032,0.0857 0,0.0318 -0.111125,0.13653 -0.10795,0.10477 -0.231775,0.19685 -0.123825,0.0889 -0.168275,0.0889 -0.0254,0 -0.0254,-0.0222 0,-0.0318 0.04445,-0.0762 0.123825,-0.12382 0.225425,-0.28575 z m 1.635125,0.64452 q -0.403225,0.0413 -0.6731,0.0413 l -0.136525,-0.003 q -0.244475,-0.006 -0.244475,-0.21907 v -0.0889 l -0.314325,0.0254 q -0.01905,0.003 -0.0508,0.003 -0.0381,0 -0.06032,-0.006 -0.02222,-0.01 -0.05715,-0.0445 -0.02222,-0.0254 -0.0381,-0.0667 -0.0032,-0.01 -0.0032,-0.0222 0,-0.0159 0.01587,-0.0159 l 0.0127,0.003 q 0.06985,0.0127 0.104775,0.0127 h 0.02222 l 0.371475,-0.0318 v -0.0667 q 0,-0.0635 -0.04763,-0.127 -0.0127,-0.0159 -0.0127,-0.0286 0,-0.0159 0.03175,-0.0159 0.0508,0 0.127,0.0254 0.0762,0.0254 0.0762,0.0762 v 0.12382 l 0.492125,-0.0413 q 0.06032,-0.003 0.10795,-0.0254 0.01905,-0.01 0.0381,-0.01 0.04128,0 0.0889,0.0444 0.04763,0.0413 0.04763,0.073 0,0.0349 -0.05715,0.0413 l -0.71755,0.0572 v 0.0857 q 0,0.0413 0.01905,0.0603 0.02222,0.0191 0.07303,0.0254 0.05397,0.003 0.174625,0.003 0.3429,0 0.536575,-0.0571 0.0095,-0.003 0.0254,-0.003 0.04128,0 0.08573,0.0476 0.04445,0.0444 0.04445,0.0699 0,0.0317 -0.04445,0.0476 z"
           style="fill:#ffffff;fill-opacity:1;stroke-width:0.264583"
           id="path853" />
        <path
           d="m 35.889149,108.85911 v 0.381 l 0.0032,0.10477 q 0,0.0667 -0.04445,0.11113 -0.04127,0.0444 -0.0889,0.0444 -0.06668,0 -0.22225,-0.10795 -0.1524,-0.10795 -0.238125,-0.1905 -0.0381,-0.0381 -0.0381,-0.0572 0,-0.019 0.0254,-0.019 0.03175,0 0.0635,0.0159 0.20955,0.0984 0.3556,0.12065 v -0.39687 l -0.974725,0.0381 v 0.51752 q 0,0.0794 -0.04763,0.0794 -0.03493,0 -0.09208,-0.0381 -0.05397,-0.0349 -0.05397,-0.0825 v -0.0191 q 0.0127,-0.0921 0.0127,-0.21273 l 0.0032,-0.23495 -0.123825,0.003 h -0.0635 q -0.06668,0 -0.104775,-0.0222 -0.0381,-0.0222 -0.0762,-0.11112 l -0.0063,-0.0286 q 0,-0.01 0.0127,-0.01 0.0032,0 0.03492,0.006 0.0508,0.0127 0.111125,0.0127 h 0.04127 l 0.174625,-0.006 0.0064,-0.5588 q 0,-0.0794 -0.0254,-0.16193 -0.0063,-0.0317 -0.0063,-0.0349 0,-0.0222 0.02222,-0.0222 0.04127,0 0.187325,0.0635 l 0.377825,-0.0191 v -0.1905 l -0.59055,0.0286 h -0.05715 q -0.06985,0 -0.10795,-0.0286 -0.0381,-0.0318 -0.06032,-0.0921 -0.0063,-0.0127 -0.0063,-0.0286 0,-0.0159 0.01905,-0.0159 l 0.03175,0.006 q 0.0508,0.0127 0.111125,0.0127 h 0.03493 l 0.377825,-0.0191 -0.0032,-0.1778 -0.117475,0.006 q -0.0254,0.003 -0.06033,0.003 -0.0635,0 -0.1016,-0.0318 -0.0381,-0.0349 -0.05398,-0.0698 -0.01588,-0.0381 -0.01588,-0.0476 0,-0.0159 0.01905,-0.0159 0.02223,0 0.0381,0.006 0.04763,0.0159 0.10795,0.0159 h 0.03175 l 0.149225,-0.01 -0.0032,-0.1778 -0.26035,0.0159 q -0.0254,0.003 -0.06668,0.003 -0.06667,0 -0.111125,-0.0444 -0.04127,-0.0476 -0.06032,-0.11112 0,-0.0127 0.01588,-0.0127 0.0063,0 0.03175,0.006 0.0635,0.0159 0.123825,0.0159 h 0.0254 l 0.29845,-0.019 -0.0032,-0.12382 q 0,-0.1016 -0.0381,-0.1524 -0.01588,-0.0222 -0.01588,-0.0317 0,-0.0159 0.02858,-0.0159 0.08255,0.003 0.1397,0.0286 0.06032,0.0254 0.06032,0.0762 v 0.20637 l 0.346075,-0.0222 0.0032,-0.18415 q 0,-0.11113 -0.0254,-0.15558 -0.0063,-0.01 -0.0063,-0.0222 0,-0.0127 0.0254,-0.0127 0.0508,0 0.117475,0.0254 0.06668,0.0222 0.06668,0.0825 l -0.0095,0.25717 0.23495,-0.0159 q 0.0635,-0.003 0.10795,-0.0191 0.0254,-0.006 0.03493,-0.006 0.04127,0 0.0889,0.0508 0.04762,0.0476 0.04762,0.073 0,0.0318 -0.0635,0.0381 l -0.454025,0.0286 -0.0063,0.18097 0.1143,-0.006 q 0.06032,-0.003 0.111125,-0.019 0.0254,-0.006 0.03493,-0.006 0.0381,0 0.08255,0.0476 0.04762,0.0445 0.04762,0.073 0,0.0286 -0.06032,0.0349 l -0.33655,0.0191 -0.0064,0.18415 0.390525,-0.0191 q 0.0508,-0.003 0.111125,-0.0222 0.0254,-0.006 0.03492,-0.006 0.03175,0 0.06033,0.0254 0.03175,0.0254 0.0508,0.0572 0.01905,0.0317 0.01905,0.0444 0,0.0318 -0.06032,0.0381 l -0.8382,0.0413 -0.0032,0.1905 0.466725,-0.0254 h 0.03175 q 0.0508,0 0.08573,0.0381 0.03492,0.0381 0.03492,0.0635 0,0.0127 -0.0095,0.0349 -0.0063,0.0222 -0.0063,0.0349 v 0.54292 l 0.12065,-0.003 q 0.07303,-0.01 0.104775,-0.0286 0.0127,-0.006 0.03493,-0.006 0.04445,0 0.09525,0.0508 0.05398,0.0508 0.05398,0.0857 0,0.0191 -0.01588,0.0318 -0.01588,0.01 -0.04445,0.0127 h -0.0063 z m -1.84785,-1.02553 q 0.04127,-0.0349 0.06667,-0.0349 0.03175,0 0.0635,0.0413 0.07302,0.0921 0.1524,0.21273 0.07937,0.12065 0.07937,0.15557 0,0.0254 -0.02858,0.0476 -0.0254,0.0222 -0.05715,0.0349 -0.02857,0.0127 -0.04127,0.0159 -0.03175,0 -0.05715,-0.054 -0.0762,-0.1651 -0.1778,-0.3175 l -0.01905,1.4986 q 0,0.0762 -0.05398,0.0762 -0.0254,0 -0.06985,-0.0222 -0.0762,-0.0413 -0.0762,-0.1143 0,-0.0222 0.0032,-0.0317 0.02223,-0.0889 0.02223,-0.1778 l 0.0095,-0.92075 q 0,-0.11748 0.0127,-0.32068 -0.07937,0.28575 -0.2032,0.50165 -0.12065,0.21273 -0.2921,0.41275 -0.04127,0.0476 -0.06668,0.0476 -0.02222,0 -0.02222,-0.0254 0,-0.0286 0.02858,-0.0762 0.3175,-0.5207 0.4953,-1.17158 l -0.206375,0.0159 q -0.0762,0.006 -0.09842,0.006 -0.06033,0 -0.1016,-0.0476 -0.0381,-0.0476 -0.05715,-0.11747 0,-0.019 0.02222,-0.019 0.0127,0 0.02223,0.003 0.04762,0.01 0.09207,0.01 l 0.05398,-0.003 0.3302,-0.0222 0.0063,-0.52705 q 0,-0.0762 -0.04127,-0.1397 -0.0095,-0.019 -0.0095,-0.0286 0,-0.0254 0.0381,-0.0254 0.03175,0 0.09842,0.0254 0.0635,0.0254 0.07938,0.0444 0.01587,0.019 0.01587,0.054 l -0.0063,0.5842 0.15875,-0.0127 q 0.06985,-0.006 0.1143,-0.0222 0.0064,-0.003 0.02222,-0.003 0.03493,0 0.09208,0.0508 0.06032,0.0476 0.06032,0.0825 0,0.019 -0.01905,0.0318 -0.01905,0.01 -0.04762,0.0127 l -0.384175,0.0286 z m 1.241425,0.6731 -0.0032,0.22225 0.42545,-0.0159 v -0.22225 z m -0.55245,0.0254 v 0.21908 l 0.381,-0.0159 v -0.21907 z m 0.555625,-0.36512 -0.0032,0.19367 0.422275,-0.0191 v -0.19685 z m -0.555625,0.0286 v 0.1905 l 0.381,-0.0191 0.0032,-0.1905 z m 0.29845,-1.00647 v 0.1778 l 0.333375,-0.0191 0.0032,-0.18098 z m 0,0.32067 0.0032,0.18098 0.32385,-0.0159 0.0032,-0.18415 z"
           style="fill:#ffffff;fill-opacity:1;stroke-width:0.264583"
           id="path855" />
        <path
           d="m 38.127518,107.91613 q 0,0.12065 -0.08255,0.23813 -0.08255,0.11747 -0.1905,0.19367 -0.10795,0.0762 -0.168275,0.0762 -0.0254,0 -0.0381,-0.0127 -0.0127,-0.0159 -0.0127,-0.0381 0,-0.0349 0.0254,-0.0508 0.0635,-0.0444 0.1397,-0.127 0.07937,-0.0826 0.1016,-0.1397 -0.01905,0 -0.05398,-0.0127 -0.03175,-0.0159 -0.0381,-0.0222 -0.0381,-0.0318 -0.06667,-0.0762 -0.02858,-0.0476 -0.02858,-0.10478 0,-0.0825 0.06032,-0.13335 0.0635,-0.0508 0.149225,-0.0508 0.0762,0 0.13335,0.0699 0.05715,0.0667 0.06985,0.16193 z"
           style="fill:#ffffff;fill-opacity:1;stroke-width:0.264583"
           id="path857" />
        <path
           d="m 41.191386,107.46528 q 0.03493,0 0.05398,0.0127 0.02222,0.01 0.02222,0.0254 0,0.0286 -0.04445,0.0476 -0.04445,0.0159 -0.168275,0.0444 -0.0381,0.2794 -0.12065,0.55562 -0.08255,0.27305 -0.254,0.5334 0.428625,0.381 0.428625,0.45085 0,0.0413 -0.04762,0.0857 -0.04445,0.0445 -0.0762,0.0445 -0.02858,0 -0.0635,-0.0445 -0.161925,-0.19685 -0.36195,-0.381 -0.155574,0.18097 -0.333374,0.3175 -0.174625,0.13652 -0.314325,0.20955 -0.1397,0.0762 -0.1778,0.0762 -0.0254,0 -0.0254,-0.019 0,-0.0381 0.06668,-0.0825 0.365125,-0.254 0.657225,-0.6223 -0.123825,-0.1143 -0.257175,-0.22225 -0.01588,-0.0127 -0.0508,-0.0317 -0.03493,-0.0222 -0.05398,-0.0413 -0.01587,-0.0222 -0.02222,-0.0603 -0.0032,-0.0127 -0.0032,-0.0413 0,-0.0444 0.01588,-0.0984 0.05715,-0.17463 0.127,-0.46673 -0.05715,0.01 -0.206375,0.0318 -0.149225,0.019 -0.18415,0.019 -0.04762,0 -0.09525,-0.0444 -0.04762,-0.0444 -0.07303,-0.13652 -0.0032,-0.006 -0.0032,-0.0191 0,-0.019 0.02222,-0.019 l 0.0127,0.003 q 0.02857,0.006 0.0889,0.006 0.0635,0 0.4826,-0.0349 0.04127,-0.2032 0.0762,-0.43815 0.03493,-0.23495 0.03493,-0.32385 0,-0.0699 -0.02222,-0.11748 -0.0064,-0.019 -0.0064,-0.0222 0,-0.0254 0.03493,-0.0254 0.0889,0.0127 0.149225,0.0476 0.0635,0.0349 0.0635,0.0889 v 0.0222 q -0.0381,0.3556 -0.123824,0.7493 l 0.428624,-0.0508 q 0.0032,-0.0222 0.0063,-0.0508 0.0032,-0.0286 0.0032,-0.0699 v -0.0286 q 0,-0.0571 -0.01905,-0.11747 -0.0032,-0.01 -0.0032,-0.0254 0,-0.0286 0.02858,-0.0286 0.02857,0 0.10795,0.0349 0.05398,0.0254 0.07303,0.0444 0.01905,0.019 0.01905,0.0571 v 0.0127 q -0.0032,0.054 -0.01588,0.1524 l 0.09842,-0.01 z m 0.42545,1.58433 v 0.006 q 0,0.0254 -0.01905,0.0444 -0.01905,0.0159 -0.04762,0.0159 -0.01905,0 -0.05715,-0.0159 -0.03493,-0.019 -0.06668,-0.0476 -0.02857,-0.0286 -0.02857,-0.0635 l 0.0032,-0.0286 q 0.0095,-0.0762 0.0095,-0.14923 l -0.0032,-0.0857 -0.04127,-1.19698 q -0.0032,-0.1143 -0.03493,-0.19685 -0.0063,-0.0254 -0.0063,-0.0318 0,-0.0318 0.04127,-0.0318 0.05398,0 0.212725,0.0699 l 0.619125,-0.0381 h 0.0254 q 0.0635,0 0.09842,0.0254 0.0381,0.0254 0.0508,0.0571 0.01588,0.0286 0.01588,0.0413 0,0.0191 -0.01588,0.0508 -0.01588,0.0317 -0.01588,0.0444 l -0.06985,1.1811 q 0.09208,0.0921 0.09208,0.1397 0,0.0381 -0.06985,0.0445 l -0.6985,0.0254 z m -0.05398,-1.52718 0.04127,1.2065 0.485775,-0.0191 0.06032,-1.22555 z m -1.019175,1.04775 q 0.07937,-0.13335 0.168275,-0.35877 0.0889,-0.2286 0.136525,-0.5715 -0.26035,0.0508 -0.454024,0.0794 -0.05397,0.20638 -0.168275,0.59055 0.1905,0.14288 0.317499,0.26035 z"
           style="fill:#ffffff;fill-opacity:1;stroke-width:0.264583"
           id="path859" />
        <path
           d="m 43.753607,107.86851 q -0.14605,0.2032 -0.339725,0.3937 -0.193675,0.1905 -0.3556,0.31115 -0.15875,0.12065 -0.2032,0.12065 -0.0254,0 -0.0254,-0.0222 0,-0.0286 0.06032,-0.0889 0.64135,-0.61595 0.974725,-1.23507 l -0.66675,0.0381 -0.06033,0.003 q -0.0762,0 -0.104775,-0.0222 -0.0508,-0.0508 -0.06985,-0.0921 -0.01905,-0.0445 -0.01905,-0.0667 0,-0.0191 0.01588,-0.0191 0.0127,0 0.01905,0.003 0.0762,0.0191 0.149225,0.0191 h 0.01588 l 0.80645,-0.0444 q 0.06985,-0.13652 0.117475,-0.2794 0.04763,-0.14605 0.04763,-0.21272 0,-0.0349 -0.0032,-0.054 l -0.0032,-0.019 q 0,-0.0318 0.02858,-0.0318 0.02222,0 0.0762,0.0254 0.05398,0.0254 0.09525,0.0635 0.04445,0.0381 0.04445,0.0762 0,0.01 -0.0063,0.0286 -0.0762,0.21907 -0.161925,0.39052 l 1.114425,-0.0635 q 0.05398,-0.003 0.123825,-0.0254 0.01905,-0.006 0.03175,-0.006 0.01905,0 0.06032,0.0254 0.04445,0.0222 0.0762,0.0571 0.03493,0.0318 0.03493,0.0603 0,0.0413 -0.08255,0.0476 l -1.4478,0.0857 q -0.1016,0.18097 -0.193675,0.32385 0.0095,0.003 0.06985,0.0254 l 0.942975,-0.0603 h 0.02857 q 0.04445,0 0.09208,0.0349 0.0508,0.0318 0.0508,0.0794 0,0.0159 -0.0064,0.0317 -0.0032,0.0159 -0.0032,0.0254 l 0.0127,1.4605 0.0032,0.0794 q 0,0.0572 -0.04127,0.0984 -0.04127,0.0444 -0.08255,0.0444 -0.04762,0 -0.187325,-0.073 -0.136525,-0.073 -0.257175,-0.15875 -0.117475,-0.0857 -0.117475,-0.11748 0,-0.0222 0.03175,-0.0222 0.03175,0 0.08255,0.0191 0.18415,0.0635 0.365125,0.10477 l -0.0032,-0.49847 -0.9271,0.0444 q -0.04762,0.19685 -0.136525,0.36195 -0.0889,0.1651 -0.1778,0.26035 -0.0889,0.0984 -0.1397,0.1016 -0.01905,0 -0.01905,-0.0254 0,-0.0381 0.03175,-0.0857 0.123825,-0.19367 0.1905,-0.37147 0.06985,-0.1778 0.09842,-0.40958 0.03175,-0.23495 0.03175,-0.58737 0,-0.2032 -0.0095,-0.25083 z m 1.1303,0.70167 -0.0032,-0.3048 -0.8636,0.0445 q -0.0095,0.1651 -0.02857,0.3048 z m -0.0032,-0.4699 -0.0032,-0.30162 -0.8509,0.0508 q 0,0.1905 -0.0032,0.29527 z"
           style="fill:#ffffff;fill-opacity:1;stroke-width:0.264583"
           id="path861" />
        <path
           d="m 46.760327,109.41156 v 0.006 q 0,0.0286 -0.01587,0.0444 -0.0127,0.0159 -0.0381,0.0159 -0.02223,0 -0.0635,-0.019 -0.0381,-0.0191 -0.06985,-0.0508 -0.02858,-0.0317 -0.02858,-0.0698 v -0.0159 q 0,-0.0476 0.0032,-0.0699 l 0.0032,-0.0825 q 0,-0.0667 -0.0032,-0.0984 l -0.0381,-0.59372 q -0.0095,-0.13018 -0.04762,-0.2159 -0.01588,-0.0318 -0.01588,-0.0476 0,-0.0254 0.03493,-0.0254 0.06032,0 0.212725,0.0635 l 1.5367,-0.0603 h 0.02857 q 0.04763,0 0.07937,0.0222 0.03493,0.0222 0.0508,0.0508 0.01588,0.0254 0.01588,0.0413 0,0.0127 -0.0127,0.0381 -0.0095,0.0222 -0.0095,0.0349 l -0.1016,0.72073 q 0.09842,0.0857 0.09842,0.127 0,0.0444 -0.08572,0.0444 l -1.539875,0.0349 z m 0.75565,-1.2954 q 0,0.0635 -0.05398,0.0635 -0.04127,0 -0.1016,-0.0318 -0.05715,-0.0349 -0.05715,-0.0794 0,-0.0159 0.0032,-0.0254 0.01905,-0.0889 0.01905,-0.15557 l 0.0095,-0.54293 -0.889,0.0508 q -0.0635,0.22225 -0.161925,0.4318 -0.01588,0.0444 -0.05398,0.0444 -0.0127,-0.003 -0.04445,-0.0159 -0.03175,-0.0127 -0.0635,-0.0349 -0.02857,-0.0254 -0.02857,-0.0508 0,-0.019 0.01587,-0.0444 0.15875,-0.29527 0.23495,-0.60325 0.0063,-0.0318 0.01905,-0.0445 0.0127,-0.0127 0.0381,-0.0127 0.04445,0 0.0762,0.0159 0.03492,0.0127 0.03492,0.0444 0,0.0222 -0.0032,0.0349 l -0.01905,0.0762 0.84455,-0.0508 0.0063,-0.23495 -0.530225,0.0318 q -0.03175,0.003 -0.0762,0.003 -0.04762,0 -0.08255,-0.0254 -0.07937,-0.0794 -0.07937,-0.13653 0,-0.0191 0.01587,-0.0191 l 0.01588,0.003 q 0.05398,0.0127 0.127,0.0127 h 0.04445 l 1.298575,-0.0826 q 0.07938,-0.006 0.1143,-0.0159 0.02858,-0.01 0.04763,-0.01 0.04127,0 0.09842,0.0508 0.06032,0.0476 0.06032,0.0825 0,0.0381 -0.06032,0.0444 l -0.796925,0.0476 -0.0063,0.23813 1.143,-0.0699 0.0381,-0.003 q 0.04762,0 0.09842,0.0413 0.0508,0.0381 0.0508,0.073 0,0.0222 -0.0254,0.0444 -0.02222,0.0191 -0.03175,0.0286 -0.142875,0.18732 -0.257175,0.30162 -0.1143,0.11113 -0.1524,0.11113 -0.01588,0 -0.01588,-0.0222 0,-0.0286 0.03175,-0.0825 0.117475,-0.18732 0.174625,-0.32385 l -1.057275,0.0603 z m -0.0063,0.69215 -0.0032,0.31432 0.59055,-0.0127 0.0381,-0.32385 z m -0.784225,0.0317 0.01905,0.30162 0.5842,-0.0127 0.0032,-0.31115 z m 0.790575,-0.46038 -0.0032,0.27623 0.638175,-0.0222 0.03175,-0.28257 z m -0.81915,0.0349 0.01588,0.26987 0.6223,-0.0222 0.0032,-0.27623 z m 1.524,-0.39053 q -0.0127,0 -0.04127,-0.01 -0.254,-0.0762 -0.4699,-0.10795 -0.03175,-0.006 -0.04762,-0.0159 -0.01588,-0.0127 -0.01588,-0.0413 0,-0.019 0.0032,-0.0286 0.0063,-0.0381 0.01905,-0.0508 0.0127,-0.0159 0.03493,-0.0159 l 0.0254,0.003 q 0.225425,0.0254 0.48895,0.0984 0.03175,0.01 0.04445,0.0254 0.01588,0.0159 0.01588,0.0413 0,0.0191 -0.0032,0.0286 -0.0063,0.0413 -0.01905,0.0572 -0.0127,0.0159 -0.03493,0.0159 z m -1.09855,-0.30162 q -0.0127,0 -0.0381,-0.01 -0.263525,-0.0699 -0.422275,-0.0953 -0.05715,-0.01 -0.05715,-0.0571 0,-0.0222 0.0032,-0.0349 0.0032,-0.0318 0.0127,-0.0413 0.0127,-0.0127 0.0381,-0.0127 l 0.02858,0.003 q 0.250825,0.0349 0.43815,0.0857 0.02857,0.006 0.04127,0.0222 0.0127,0.0127 0.0127,0.0381 0,0.0381 -0.01587,0.0699 -0.0127,0.0318 -0.04128,0.0318 z m 0.0508,0.0794 q 0.03493,0 0.03493,0.0222 0,0.0444 -0.104775,0.11112 -0.104775,0.0667 -0.238125,0.12065 -0.130175,0.0508 -0.18415,0.0508 -0.06667,0 -0.117475,-0.14287 -0.0032,-0.006 -0.0032,-0.019 0,-0.0191 0.0254,-0.0191 h 0.04127 q 0.05398,0 0.193675,-0.0349 l 0.09207,-0.0254 q 0.04763,-0.0127 0.14605,-0.0381 0.1016,-0.0254 0.1143,-0.0254 z m 0.94615,-0.4191 q 0.03175,-0.0254 0.05715,-0.01 0.02857,0.019 0.04445,0.0635 0.01905,0.0413 0.01905,0.0825 0,0.0286 -0.0095,0.0444 -0.02223,0.0222 -0.225425,0.0571 -0.200025,0.0349 -0.29845,0.0349 -0.05715,0 -0.05715,-0.0349 0,-0.0381 0.04763,-0.0508 0.09525,-0.0286 0.212725,-0.0762 0.117475,-0.0508 0.20955,-0.11113 z"
           style="fill:#ffffff;fill-opacity:1;stroke-width:0.264583"
           id="path863" />
        <path
           d="m 49.747994,107.10968 -0.0063,2.27965 q 0,0.0857 -0.06668,0.0857 -0.04445,0 -0.1016,-0.0349 -0.05398,-0.0349 -0.05398,-0.10795 0,-0.0286 0.0032,-0.0444 0.01905,-0.0889 0.01905,-0.18415 l 0.0095,-1.98437 q 0,-0.127 -0.03175,-0.18098 -0.02222,-0.0381 -0.02222,-0.0603 0,-0.0254 0.03493,-0.0254 0.05398,0 0.225425,0.0762 l 1.806575,-0.0984 h 0.0381 q 0.0508,0 0.09208,0.0381 0.04127,0.0349 0.04127,0.0794 0,0.0127 -0.0095,0.0318 -0.0063,0.019 -0.0063,0.0317 l 0.0095,2.19392 q 0,0.0286 0.0032,0.0572 0.0064,0.0286 0.0064,0.0571 0,0.0603 -0.04445,0.10795 -0.04445,0.0476 -0.0889,0.0476 -0.06033,0 -0.22225,-0.0921 -0.161925,-0.0921 -0.301625,-0.20002 -0.1397,-0.11113 -0.1397,-0.1524 0,-0.0286 0.03493,-0.0286 0.0254,0 0.08255,0.0254 0.28575,0.13653 0.47625,0.18415 l -0.0127,-2.19392 z m 0.6223,1.62878 v 0.01 q 0,0.0762 -0.06032,0.0762 -0.0127,0 -0.0508,-0.01 -0.03493,-0.0127 -0.06985,-0.0381 -0.03175,-0.0286 -0.03175,-0.0794 v -0.0159 q 0.0063,-0.0762 0.0063,-0.11113 l -0.0032,-0.0667 -0.03493,-0.39053 q -0.0063,-0.11112 -0.04127,-0.17145 -0.01905,-0.0349 -0.01905,-0.0508 0,-0.0191 0.03175,-0.0191 0.05715,0 0.219075,0.0572 l 0.6858,-0.0413 h 0.03175 q 0.05715,0 0.1016,0.0381 0.04762,0.0381 0.04762,0.073 0,0.0159 -0.0095,0.0349 -0.0095,0.0191 -0.0127,0.0318 l -0.05398,0.42545 q 0.08573,0.0984 0.08573,0.1397 0,0.0222 -0.02222,0.0286 -0.02222,0.006 -0.07303,0.01 l -0.73025,0.0286 z m -0.04763,-0.63818 0.03175,0.42545 0.56515,-0.0222 0.0381,-0.43815 z m -0.17145,-0.48895 q -0.06032,0 -0.07937,-0.0159 -0.0508,-0.0413 -0.07937,-0.0825 -0.0254,-0.0445 -0.0254,-0.0762 0,-0.0191 0.01905,-0.0191 0.0127,0 0.02222,0.003 0.05398,0.0127 0.130175,0.0127 h 0.04127 l 0.78105,-0.0381 q 0.07303,-0.006 0.142875,-0.0286 0.01905,-0.006 0.0254,-0.006 0.04127,0 0.104775,0.0571 0.06668,0.0572 0.06668,0.0921 0,0.0381 -0.0635,0.0444 l -0.9906,0.054 z"
           style="fill:#ffffff;fill-opacity:1;stroke-width:0.264583"
           id="path865" />
        <path
           d="m 54.002489,107.91613 q 0,0.12065 -0.08255,0.23813 -0.08255,0.11747 -0.1905,0.19367 -0.10795,0.0762 -0.168275,0.0762 -0.0254,0 -0.0381,-0.0127 -0.0127,-0.0159 -0.0127,-0.0381 0,-0.0349 0.0254,-0.0508 0.0635,-0.0444 0.1397,-0.127 0.07937,-0.0826 0.1016,-0.1397 -0.01905,0 -0.05398,-0.0127 -0.03175,-0.0159 -0.0381,-0.0222 -0.0381,-0.0318 -0.06668,-0.0762 -0.02857,-0.0476 -0.02857,-0.10478 0,-0.0825 0.06032,-0.13335 0.0635,-0.0508 0.149225,-0.0508 0.0762,0 0.13335,0.0699 0.05715,0.0667 0.06985,0.16193 z"
           style="fill:#ffffff;fill-opacity:1;stroke-width:0.264583"
           id="path867" />
        <path
           d="m 56.402781,109.01468 q 0,0.0572 -0.05397,0.0572 -0.04128,0 -0.09525,-0.0222 -0.05398,-0.0222 -0.05398,-0.0889 l 0.0032,-0.0222 q 0.0095,-0.054 0.0095,-0.11112 l -0.0032,-0.0667 -0.0381,-0.57785 q -0.0032,-0.0762 -0.02857,-0.13017 -0.01588,-0.0381 -0.01588,-0.0572 0,-0.0222 0.02857,-0.0222 0.04763,0 0.19685,0.0635 l 1.30175,-0.0698 h 0.03493 q 0.0508,0 0.09525,0.0286 0.04445,0.0286 0.04445,0.0667 0,0.0159 -0.0063,0.0318 -0.0064,0.0127 -0.0095,0.019 l -0.05715,0.67628 q 0.07303,0.0825 0.07303,0.1143 0,0.0191 -0.02222,0.0254 -0.02222,0.006 -0.0635,0.006 l -1.33985,0.0444 z m 1.273175,-1.47955 -0.0381,0.1778 0.01588,0.0159 q 0.0381,0.0381 0.0381,0.0635 0,0.0318 -0.06032,0.0381 l -1.196975,0.0635 q -0.03493,0.003 -0.07303,0.0159 -0.03493,0.01 -0.04762,0.01 -0.02858,0 -0.06668,-0.0318 -0.0381,-0.0349 -0.0381,-0.073 0,-0.0159 0.0064,-0.0381 0.0095,-0.0254 0.0127,-0.0445 l 0.01905,-0.11747 -0.508,0.0286 h -0.03175 q -0.142875,0 -0.17145,-0.12382 l -0.0032,-0.0159 q 0,-0.01 0.0095,-0.01 0.0127,0 0.01905,0.003 0.0381,0.0127 0.09842,0.0127 h 0.03175 l 0.57785,-0.0318 0.02223,-0.1524 q 0.0032,-0.0191 0.0032,-0.0508 0,-0.0572 -0.01905,-0.1143 -0.0032,-0.01 -0.0032,-0.0286 0,-0.0286 0.02857,-0.0286 0.04445,0 0.19685,0.0825 l 1.101725,-0.0667 h 0.02222 q 0.05398,0 0.09525,0.0318 0.04127,0.0286 0.04127,0.0635 0,0.0159 -0.0127,0.0318 -0.0095,0.0159 -0.0127,0.0254 l -0.02857,0.13335 0.4572,-0.0254 q 0.06985,-0.003 0.130175,-0.0254 0.0064,-0.003 0.01905,-0.003 0.0381,0 0.08255,0.0444 0.04762,0.0413 0.04762,0.0667 0,0.0159 -0.0127,0.0254 -0.0127,0.01 -0.03175,0.01 h -0.0095 z m -1.28905,1.15888 0.0063,0.14605 1.177925,-0.0413 0.0095,-0.15557 z m 1.603375,0.79692 q -0.0254,0 -0.07303,-0.0286 -0.282575,-0.16193 -0.638175,-0.29528 -0.0381,-0.0127 -0.05398,-0.0254 -0.01587,-0.0159 -0.01587,-0.0381 0,-0.0222 0.02222,-0.073 0.02222,-0.0508 0.05715,-0.0508 0.05715,0 0.327025,0.1143 0.269875,0.11112 0.3937,0.17145 0.03492,0.0159 0.04762,0.0317 0.01588,0.0191 0.01588,0.0413 0,0.0508 -0.02858,0.1016 -0.0254,0.0508 -0.05397,0.0508 z m -1.61925,-1.06362 0.0095,0.13652 1.209675,-0.054 0.0095,-0.14288 z m -0.0127,-0.254 0.0063,0.127 1.2446,-0.0635 0.0095,-0.127 z m -0.48895,1.32397 q -0.0508,0 -0.0508,-0.0222 0,-0.0254 0.0635,-0.0476 0.295275,-0.0953 0.50165,-0.20955 0.20955,-0.1143 0.238125,-0.21272 0.0063,-0.0222 0.02857,-0.0222 0.0508,0 0.117475,0.0984 0.04762,0.0699 0.04762,0.10477 0,0.0317 -0.0381,0.0476 -0.45085,0.21272 -0.885825,0.26352 z m 1.203325,-2.21615 -0.02222,0.15875 0.473075,-0.0191 0.0254,-0.16827 z m -0.04127,0.2921 -0.02222,0.1651 0.377825,-0.0222 q 0.04445,-0.006 0.08572,-0.0191 l 0.0254,-0.1524 z m -0.60325,0.0318 -0.0254,0.1651 0.441325,-0.0222 0.02223,-0.1651 z m 0.04127,-0.28892 -0.02222,0.1524 0.43815,-0.019 0.02222,-0.15875 z m 1.679575,-0.51753 q 0.05715,0 0.1016,0.0381 0.04763,0.0381 0.04763,0.0699 0,0.0222 -0.03175,0.0444 -0.02857,0.0222 -0.04127,0.0349 -0.0889,0.10477 -0.2032,0.2032 -0.111125,0.0953 -0.1651,0.0953 -0.01905,0 -0.01905,-0.0191 0,-0.0318 0.04762,-0.0921 0.08573,-0.1016 0.1397,-0.22225 l -1.9304,0.11113 q -0.07937,0.23177 -0.12065,0.29845 -0.0381,0.0667 -0.06668,0.0667 -0.02857,0 -0.07937,-0.0318 -0.0508,-0.0349 -0.0508,-0.0699 0,-0.0254 0.01905,-0.054 0.05715,-0.0952 0.1016,-0.22225 0.04762,-0.127 0.0762,-0.24765 0.0095,-0.0444 0.02222,-0.0603 0.0127,-0.0191 0.0381,-0.0191 0.03493,0 0.07937,0.0191 0.04445,0.0159 0.04445,0.0571 0,0.01 -0.0064,0.0476 l -0.01588,0.073 0.80645,-0.0476 q -0.03493,-0.0381 -0.187325,-0.17463 -0.01588,-0.0127 -0.0254,-0.0254 -0.0095,-0.0159 -0.0032,-0.0318 0.0064,-0.0318 0.04445,-0.0635 0.04127,-0.0318 0.0635,-0.0254 0.01905,0.003 0.09208,0.0571 0.07303,0.0508 0.1778,0.14923 0.04763,0.0381 0.0381,0.0794 0,0.003 -0.0063,0.0222 l 0.9906,-0.0603 z"
           style="fill:#ffffff;fill-opacity:1;stroke-width:0.264583"
           id="path869" />
        <path
           d="m 60.638226,108.91943 q 0.0032,0.003 0.0063,0.006 0.0063,0.003 0.01588,0.006 0.314325,0.17463 0.314325,0.23495 0,0.0318 -0.02857,0.0667 -0.02858,0.0381 -0.0508,0.0381 -0.03175,0 -0.06985,-0.0444 -0.01587,-0.0159 -0.07937,-0.0667 -0.3683,0.054 -0.79375,0.0921 -0.42545,0.0381 -0.50165,0.0381 -0.04762,0 -0.08572,-0.0318 -0.0381,-0.0286 -0.06032,-0.0698 -0.01905,-0.0381 -0.01905,-0.0572 0,-0.0127 0.01905,-0.0127 l 0.01905,0.003 q 0.03493,0.01 0.12065,0.01 h 0.05398 q 0.1524,0 0.59055,-0.0318 v -0.15558 l -0.333375,0.0159 v 0.0127 l 0.0032,0.0159 q 0,0.0413 -0.04445,0.0413 -0.03493,0 -0.08255,-0.0127 -0.04445,-0.0159 -0.04445,-0.0603 v -0.0127 l 0.0032,-0.0444 q 0,-0.0286 -0.0032,-0.0381 l -0.02222,-0.14287 q -0.0032,-0.0159 -0.02857,-0.0857 l -0.01588,-0.0381 q -0.07303,0.0444 -0.15875,0.0825 -0.08573,0.0349 -0.111125,0.0349 -0.03175,0 -0.03175,-0.0222 0,-0.0318 0.06985,-0.0794 0.50165,-0.32703 0.549275,-0.46038 l -0.174625,0.006 v 0.0159 q 0,0.054 -0.04127,0.054 -0.03493,0 -0.08255,-0.0222 -0.04445,-0.0254 -0.04445,-0.0667 v -0.0127 l 0.0032,-0.0572 q 0,-0.0318 -0.0032,-0.0444 l -0.02858,-0.15557 q -0.0063,-0.0413 -0.0254,-0.0825 -0.01588,-0.0318 -0.01588,-0.0444 0,-0.0159 0.0254,-0.0159 0.0254,0 0.174625,0.0413 l 1.46685,-0.0762 q 0.04445,-0.003 0.08573,0.0286 0.04445,0.0318 0.04445,0.0603 0,0.0127 -0.0095,0.0317 -0.0064,0.0159 -0.0127,0.0286 l -0.05398,0.13653 q 0.0635,0.0603 0.0635,0.0825 0,0.0286 -0.06033,0.0286 l -1.177925,0.0571 q 0.03175,0.0254 0.0508,0.0476 0.01905,0.0222 0.01905,0.0349 0,0.0127 -0.01905,0.0318 -0.01905,0.0191 -0.03175,0.0254 l 1.2192,-0.054 q 0.07302,-0.003 0.111125,0.0286 0.04128,0.0318 0.04128,0.0667 0,0.0127 -0.0095,0.0349 -0.0095,0.019 -0.0095,0.0286 -0.02223,0.59372 -0.06985,0.80962 -0.04445,0.2159 -0.09842,0.26353 -0.02858,0.0286 -0.0508,0.0381 -0.02222,0.0127 -0.04762,0.0127 -0.04763,0 -0.193675,-0.0476 -0.14605,-0.0476 -0.2667,-0.10795 -0.117475,-0.0571 -0.117475,-0.0952 0,-0.0254 0.04763,-0.0254 0.02857,0 0.08572,0.0159 0.0889,0.0254 0.200025,0.0476 0.111125,0.0254 0.180975,0.0286 0.04445,0 0.07303,-0.1905 0.03175,-0.19368 0.04763,-0.4318 0.01905,-0.23813 0.01905,-0.34608 l -1.349375,0.0603 q -0.1143,0.0794 -0.2286,0.14605 0.0381,0.003 0.1397,0.0286 l 0.37465,-0.0222 q -0.0064,-0.0667 -0.03175,-0.10478 -0.0095,-0.0159 -0.0095,-0.0222 0,-0.0159 0.02857,-0.0159 0.03493,0 0.0889,0.0127 0.06032,0.0127 0.0762,0.0318 0.01588,0.0159 0.01588,0.0476 v 0.0381 l 0.434975,-0.0254 h 0.01905 q 0.05398,0 0.07938,0.0286 0.02857,0.0286 0.02857,0.0444 0,0.0159 -0.0095,0.0349 -0.0064,0.0159 -0.0095,0.0286 l -0.04445,0.13335 q 0.05398,0.0635 0.05398,0.0857 0,0.0159 -0.01905,0.0222 -0.01905,0.003 -0.05715,0.003 z m -1.27,-1.6764 q -0.0127,0.64135 -0.136525,1.19063 -0.123825,0.54927 -0.47625,0.89217 -0.04763,0.0476 -0.07937,0.0476 -0.01905,0 -0.01905,-0.0222 0,-0.0254 0.03175,-0.0762 0.2921,-0.42862 0.390525,-0.97155 0.1016,-0.5461 0.1016,-1.28905 v -0.0857 q 0,-0.0698 -0.0381,-0.1524 -0.01905,-0.0444 -0.01905,-0.054 0,-0.0254 0.03175,-0.0254 0.04762,0 0.219075,0.0762 l 1.647825,-0.10477 h 0.0127 q 0.0381,0 0.0889,0.0349 0.0508,0.0317 0.0508,0.073 0,0.0127 -0.0127,0.0349 -0.0095,0.0191 -0.0127,0.0349 l -0.0381,0.16192 q 0.07938,0.0698 0.07938,0.10478 0,0.0191 -0.02223,0.0254 -0.01905,0.006 -0.06032,0.01 z m 0.0063,-0.33337 q 0,0.13652 -0.0032,0.2032 l 1.546225,-0.0889 0.04445,-0.21273 z m 1.000125,0.74612 q 0,0.0572 -0.04763,0.0572 -0.04127,0 -0.0889,-0.0222 -0.04445,-0.0254 -0.04445,-0.0508 l 0.0032,-0.0222 q 0.0127,-0.073 0.0127,-0.12382 v -0.127 q 0,-0.054 -0.02222,-0.0953 -0.0095,-0.019 -0.0095,-0.0318 0,-0.019 0.02858,-0.019 0.02222,0 0.09208,0.0159 0.0508,0.0127 0.06667,0.0349 0.01588,0.0191 0.01588,0.054 z m 0.26035,0.17145 -0.0127,0.17145 0.358775,-0.019 0.04445,-0.17145 z m -0.51435,0.0254 0.0127,0.16828 0.3429,-0.0159 0.0095,-0.16827 z m 0.136525,0.81915 v 0.15558 l 0.339725,-0.0159 0.0381,-0.16192 z m -0.625475,-0.79375 0.01905,0.1651 0.333375,-0.0159 -0.0127,-0.1651 z m 0.09208,0.82868 0.01587,0.14287 0.34925,-0.0159 v -0.14923 z m 0.5334,0.38417 q 0.174625,-0.003 0.34925,-0.0254 -0.04127,-0.0222 -0.05715,-0.0349 -0.01588,-0.0127 -0.01588,-0.0286 0.0032,-0.0476 0.05398,-0.0794 l -0.3302,0.0159 z m 0.796925,-1.4605 q -0.02222,0 -0.0381,-0.006 -0.263525,-0.0444 -0.4191,-0.054 -0.05715,-0.006 -0.06032,-0.0444 0,-0.0127 0.0032,-0.0222 0.0064,-0.0254 0.01588,-0.0349 0.0095,-0.0127 0.03175,-0.0159 h 0.02222 q 0.168275,0.01 0.4318,0.054 0.05715,0.01 0.06032,0.0445 0,0.0159 -0.0032,0.019 -0.0064,0.0318 -0.01588,0.0444 -0.0095,0.0127 -0.02858,0.0159 z m -1.114425,-0.16827 q -0.0032,0 -0.03493,-0.006 l -0.07303,-0.0127 q -0.02857,-0.006 -0.1143,-0.0191 -0.08255,-0.0127 -0.14605,-0.019 -0.05715,-0.003 -0.05715,-0.0413 v -0.0254 q 0.0063,-0.0254 0.0127,-0.0318 0.0095,-0.01 0.03175,-0.01 h 0.0254 q 0.193675,0.0127 0.3556,0.0413 0.04762,0.01 0.04762,0.0444 v 0.01 q 0,0.0667 -0.04762,0.0699 z m 0.1143,0.01 q 0.03175,0 0.03175,0.0159 0,0.0413 -0.09843,0.0921 -0.09525,0.0508 -0.219075,0.0889 -0.12065,0.0381 -0.174625,0.0381 -0.05715,0 -0.111125,-0.10477 -0.0032,-0.003 -0.0032,-0.0127 0,-0.0159 0.02222,-0.0159 h 0.0381 q 0.09842,-0.01 0.18415,-0.0254 0.0635,-0.0159 0.168275,-0.0381 0.104775,-0.0254 0.161925,-0.0381 z m 0.88265,-0.26352 q 0.03493,-0.0191 0.05715,-0.01 0.02858,0.0159 0.04445,0.0476 0.01905,0.0317 0.01905,0.0603 0,0.0159 -0.0127,0.0286 -0.01905,0.019 -0.206375,0.0508 -0.187325,0.0318 -0.282575,0.0349 h -0.0063 q -0.0254,0 -0.0381,-0.01 -0.0127,-0.0127 -0.0127,-0.0254 0,-0.0254 0.04445,-0.0381 0.23495,-0.0571 0.3937,-0.1397 z"
           style="fill:#ffffff;fill-opacity:1;stroke-width:0.264583"
           id="path871" />
        <path
           d="m 64.035472,109.22741 q 0.02223,0 0.02858,-0.0159 0.0889,-0.25717 0.15875,-0.60007 0.07303,-0.3429 0.09525,-0.6223 l -0.67945,0.0381 q -0.03175,0.003 -0.06985,0.0159 -0.03493,0.01 -0.04763,0.01 -0.03175,0 -0.06032,-0.0286 -0.04127,-0.0286 -0.04127,-0.0762 0,-0.0318 0.01588,-0.0794 l 0.2032,-0.66358 -0.352425,0.0222 h -0.04127 q -0.0889,0 -0.10795,-0.019 -0.04127,-0.0349 -0.0635,-0.0826 -0.02222,-0.0508 -0.02222,-0.0667 0,-0.0159 0.01905,-0.0159 0.0127,0 0.02222,0.003 0.04762,0.0127 0.10795,0.0127 l 0.04763,-0.003 1.2192,-0.0794 q 0.06668,-0.003 0.12065,-0.0222 0.01905,-0.006 0.03175,-0.006 0.0508,0 0.104775,0.0508 0.05715,0.0476 0.05715,0.0857 0,0.0222 -0.01905,0.0349 -0.01905,0.0127 -0.05397,0.0159 l -0.8763,0.0571 -0.187325,0.6477 0.73025,-0.0413 0.03493,-0.003 q 0.05397,0 0.09207,0.0444 0.04127,0.0413 0.04127,0.0762 0,0.0222 -0.0127,0.0476 -0.0095,0.0254 -0.0127,0.0381 -0.02858,0.28257 -0.09525,0.61595 -0.0635,0.3302 -0.13335,0.5715 -0.08572,0.2921 -0.2159,0.2921 -0.0508,0 -0.231775,-0.0889 -0.1778,-0.0889 -0.327025,-0.19685 -0.149225,-0.10478 -0.149225,-0.16193 0,-0.0222 0.03175,-0.0222 0.03175,0 0.07937,0.0222 0.104775,0.0476 0.2667,0.10478 0.161925,0.0572 0.282575,0.0889 z m -1.8415,-1.71768 q -0.0254,0.003 -0.06985,0.003 -0.05398,0 -0.09208,-0.0254 -0.03493,-0.0286 -0.06985,-0.1143 l -0.0064,-0.0286 q 0,-0.0222 0.0254,-0.0222 0.0127,0 0.02222,0.003 0.05715,0.01 0.1143,0.01 h 0.03493 l 0.695325,-0.0476 q 0.06667,-0.003 0.127,-0.0222 0.0063,-0.003 0.02222,-0.003 0.04445,0 0.10795,0.0508 0.06668,0.0508 0.06668,0.0857 0,0.019 -0.01905,0.0317 -0.01588,0.0127 -0.04763,0.0159 l -0.428625,0.0286 -0.0063,0.889 0.09207,-0.0286 0.41275,-0.13652 q 0.0381,-0.0127 0.06985,-0.0127 0.03493,0 0.03493,0.0191 0,0.0476 -0.276225,0.1778 -0.27305,0.13017 -0.593725,0.25082 -0.320675,0.12065 -0.371475,0.12065 -0.0508,0 -0.10795,-0.0508 -0.05398,-0.054 -0.08573,-0.1143 -0.0095,-0.0191 -0.0095,-0.0286 0,-0.0222 0.04127,-0.0222 0.2032,0 0.600075,-0.12065 l 0.0032,-0.9271 z"
           style="fill:#ffffff;fill-opacity:1;stroke-width:0.264583"
           id="path873" />
        <path
           d="m 65.984913,109.44648 v 0.006 q 0,0.0286 -0.01588,0.0444 -0.01587,0.019 -0.04445,0.019 -0.0508,0 -0.117475,-0.0413 -0.0635,-0.0413 -0.0635,-0.0984 l 0.0032,-0.0222 q 0.0127,-0.0667 0.0127,-0.1524 0,-0.054 -0.0032,-0.0794 l -0.04763,-0.55245 q -0.0095,-0.11747 -0.04445,-0.18732 -0.01587,-0.0317 -0.01587,-0.0476 0,-0.019 0.02858,-0.019 0.04762,0 0.23495,0.0635 l 1.2446,-0.0603 h 0.01905 q 0.04762,0 0.117475,0.0413 0.06985,0.0413 0.06985,0.0921 0,0.0191 -0.01905,0.0508 -0.01587,0.0317 -0.01587,0.0444 l -0.0889,0.53975 q 0.09525,0.0952 0.09525,0.14605 0,0.0444 -0.07303,0.0444 l -1.28905,0.0254 z m 0.428625,-2.82892 q 0,-0.0381 0.0381,-0.0381 0.01905,0 0.07303,0.0254 0.05715,0.0222 0.09842,0.0571 0.04445,0.0318 0.04445,0.0635 0,0.0254 -0.0381,0.0857 -0.03492,0.0603 -0.0381,0.0635 0.581025,0.70485 1.406525,1.04458 0.06033,0.0222 0.06033,0.0476 0,0.0317 -0.0762,0.0921 -0.0762,0.0603 -0.10795,0.0603 -0.0254,0 -0.2667,-0.13652 -0.238125,-0.1397 -0.5461,-0.381 -0.307975,-0.2413 -0.574675,-0.56515 -0.276225,0.41275 -0.587375,0.67945 -0.31115,0.2667 -0.55245,0.3937 -0.2413,0.12382 -0.288925,0.12382 -0.0254,0 -0.0254,-0.0191 0,-0.0286 0.0635,-0.073 0.454025,-0.31433 0.7493,-0.62548 0.29845,-0.31115 0.434975,-0.54292 0.136525,-0.23495 0.136525,-0.32068 v -0.0159 z m -0.498475,1.94627 0.04445,0.55563 1.0795,-0.0286 0.08255,-0.58102 z m 0.1905,-0.57467 q -0.0762,0.006 -0.09843,0.006 -0.0635,0 -0.104775,-0.0381 -0.04127,-0.0381 -0.06032,-0.0794 -0.01905,-0.0444 -0.01905,-0.0571 0,-0.0222 0.02223,-0.0222 0.0127,0 0.01905,0.003 0.07303,0.0159 0.136525,0.0159 h 0.02223 l 0.765175,-0.0445 q 0.0889,-0.003 0.15875,-0.0349 0.01905,-0.01 0.0381,-0.01 0.0381,0 0.08255,0.0318 0.04445,0.0286 0.0762,0.0699 0.03493,0.0381 0.03493,0.0603 0,0.0381 -0.06668,0.0444 z"
           style="fill:#ffffff;fill-opacity:1;stroke-width:0.264583"
           id="path875" />
        <path
           d="m 70.106059,107.97963 q 0,0.11748 -0.06033,0.2159 -0.05715,0.0984 -0.15875,0.15875 -0.09842,0.0571 -0.2159,0.0571 -0.117475,0 -0.219075,-0.0571 -0.09843,-0.0603 -0.15875,-0.15875 -0.05715,-0.0984 -0.05715,-0.2159 0,-0.11747 0.06033,-0.2159 0.06032,-0.1016 0.161925,-0.15875 0.1016,-0.0603 0.219075,-0.0603 0.117475,0 0.2159,0.0603 0.09843,0.0572 0.155575,0.15875 0.05715,0.0984 0.05715,0.2159 z m -0.17145,0 q 0,-0.11112 -0.0762,-0.18732 -0.0762,-0.0762 -0.187325,-0.0762 -0.10795,0 -0.187325,0.0762 -0.0762,0.0762 -0.0762,0.18732 0,0.10795 0.0762,0.18415 0.0762,0.0762 0.187325,0.0762 0.111125,0 0.187325,-0.0762 0.0762,-0.0762 0.0762,-0.18415 z"
           style="fill:#ffffff;fill-opacity:1;stroke-width:0.264583"
           id="path877" />
      </g>
    </g>
  </g>
</svg>
