<?xml version="1.0" encoding="UTF-8" standalone="no"?>
<svg
   xmlns:dc="http://purl.org/dc/elements/1.1/"
   xmlns:cc="http://creativecommons.org/ns#"
   xmlns:rdf="http://www.w3.org/1999/02/22-rdf-syntax-ns#"
   xmlns:svg="http://www.w3.org/2000/svg"
   xmlns="http://www.w3.org/2000/svg"
   width="72"
   height="24"
   viewBox="0 0 19.049999 6.3500002"
   version="1.1"
   id="svg8">
  <defs
     id="defs2" />
  <metadata
     id="metadata5">
    <rdf:RDF>
      <cc:Work
         rdf:about="">
        <dc:format>image/svg+xml</dc:format>
        <dc:type
           rdf:resource="http://purl.org/dc/dcmitype/StillImage" />
        <dc:title></dc:title>
      </cc:Work>
    </rdf:RDF>
  </metadata>
  <g
     id="layer1"
     transform="translate(-49.943527,-71.440254)">
    <g
       id="g851">
      <rect
         style="fill:#a52a2a;stroke-width:0.212196"
         id="rect14"
         width="19.049999"
         height="6.3499999"
         x="49.943527"
         y="71.440254" />
      <g
         aria-label="ðŸ  é¦–é "
         id="text12"
         style="font-size:4.23333px;line-height:1.25;font-family:Iansui;-inkscape-font-specification:'Iansui, Normal';word-spacing:0px;fill:#ffffff;fill-opacity:1;stroke-width:0.264583">
        <path
           d="m 56.001635,74.545305 v 1.82521 h -2.807061 v -1.82521 h -0.558105 l 1.978172,-1.697052 1.988507,1.697052 z m -0.965315,1.424201 v -1.291909 h -0.853694 v 1.291909 z"
           style="fill:#ffffff;fill-opacity:1;stroke-width:0.264583"
           id="path839" />
        <path
           d="m 59.616165,76.412303 v 0.0085 q 0,0.08467 -0.08043,0.08467 -0.05927,0 -0.131233,-0.04233 -0.07197,-0.04233 -0.07197,-0.127 0,-0.02963 0.0042,-0.04657 0.0127,-0.06773 0.0127,-0.148166 l -0.0042,-0.08467 -0.07197,-1.600199 q -0.0085,-0.156633 -0.0508,-0.228599 -0.0254,-0.0508 -0.0254,-0.06773 0,-0.02963 0.04657,-0.02963 0.07197,0 0.296333,0.08467 l 0.224366,-0.0127 q 0.05927,-0.0508 0.1016,-0.1016 0.173567,-0.1778 0.232833,-0.347133 l -1.295399,0.07197 -0.118533,0.0085 q -0.08467,0 -0.143933,-0.05927 -0.05503,-0.05927 -0.08043,-0.135466 -0.0042,-0.0085 -0.0042,-0.02117 0,-0.02117 0.03387,-0.02117 h 0.02117 q 0.0762,0.0127 0.139699,0.0127 l 0.0889,-0.0042 1.608666,-0.09313 q 0.275166,-0.232833 0.448733,-0.4445 0.177799,-0.211666 0.182033,-0.347133 0,-0.0508 0.04657,-0.0508 0.02963,0 0.09737,0.03387 0.06773,0.03387 0.122767,0.08467 0.05503,0.0508 0.05503,0.101599 0,0.0508 -0.232833,0.270934 -0.232833,0.215899 -0.397933,0.334433 l 1.096432,-0.0635 q 0.110067,-0.0042 0.2032,-0.03387 0.03387,-0.0085 0.0508,-0.0085 0.05927,0 0.135466,0.07197 0.08043,0.06773 0.08043,0.110067 0,0.05503 -0.1016,0.0635 l -1.828799,0.105833 q 0.06773,0.0635 0.0762,0.1143 0,0.03387 -0.01693,0.0508 -0.1397,0.160866 -0.287866,0.279399 l 1.193799,-0.0635 h 0.03387 q 0.07197,0 0.131233,0.04233 0.0635,0.04233 0.0635,0.09737 l -0.0042,0.02117 q -0.0042,0.02117 -0.0127,0.03387 -0.0085,0.0127 -0.0085,0.0254 l -0.08467,1.629832 q 0.105833,0.131233 0.105833,0.177799 0,0.02963 -0.02963,0.0381 -0.02963,0.0127 -0.0889,0.01693 l -1.765299,0.05927 z m -0.03387,-0.7874 0.01693,0.4064 1.540932,-0.0508 0.01693,-0.419099 z m -0.0508,-1.185332 0.01693,0.376767 1.638299,-0.08043 0.0127,-0.385233 z m 0.0254,0.5969 0.01693,0.364066 1.591732,-0.06773 0.0127,-0.372533 z m 0.3683,-1.536699 q -0.0381,0 -0.09737,-0.07197 -0.1905,-0.237066 -0.440266,-0.436033 -0.0381,-0.02963 -0.0381,-0.05927 0,-0.0381 0.04233,-0.08467 0.04657,-0.0508 0.0762,-0.0508 0.03387,0 0.186267,0.118533 0.156633,0.1143 0.287866,0.2413 0.135467,0.127 0.135467,0.1778 0,0.04657 -0.05503,0.105833 -0.05503,0.05927 -0.09737,0.05927 z"
           style="fill:#ffffff;fill-opacity:1;stroke-width:0.264583"
           id="path841" />
        <path
           d="m 63.82832,75.667237 v 0.0127 q 0,0.08043 -0.0762,0.08043 -0.05927,0 -0.1397,-0.0508 -0.08043,-0.0508 -0.08043,-0.110066 l 0.0042,-0.02963 q 0.02117,-0.118533 0.02117,-0.194733 v -0.0381 l -0.0762,-1.405465 q -0.0042,-0.05927 -0.01693,-0.122767 -0.0085,-0.06773 -0.0254,-0.09737 -0.02963,-0.05927 -0.02963,-0.0889 0,-0.03387 0.04233,-0.03387 0.0762,0 0.313266,0.105833 l 0.3937,-0.0254 q 0.1651,-0.2794 0.1651,-0.389466 v -0.04233 l -1.075266,0.06773 q -0.1016,0.0085 -0.135467,0.0085 -0.09737,0 -0.139699,-0.0381 -0.0508,-0.04657 -0.08467,-0.110066 -0.02963,-0.0635 -0.02963,-0.08467 0,-0.0254 0.0254,-0.0254 l 0.03387,0.0085 q 0.0635,0.01693 0.156633,0.01693 h 0.05927 l 2.683931,-0.1651 q 0.1143,-0.0042 0.198967,-0.0381 0.0254,-0.0127 0.04657,-0.0127 0.0254,0 0.08467,0.0381 0.05927,0.03387 0.105833,0.08467 0.04657,0.04657 0.04657,0.08467 0,0.04233 -0.09313,0.0508 l -1.672165,0.1016 q 0.1143,0.06773 0.1143,0.118533 0,0.0381 -0.1016,0.169333 -0.09737,0.131233 -0.1016,0.1397 l 1.024466,-0.0635 h 0.0254 q 0.0762,0 0.148167,0.0508 0.07197,0.04657 0.07197,0.1016 0,0.02117 -0.01693,0.05503 -0.01693,0.03387 -0.01693,0.04657 l -0.08043,1.426632 q 0.122767,0.122766 0.122767,0.173566 0,0.02963 -0.02963,0.0381 -0.0254,0.0085 -0.09737,0.0127 l -1.773765,0.0762 z m -0.03387,-0.668866 0.01693,0.334433 1.532465,-0.0635 0.01693,-0.3556 z m -0.0508,-1.079499 0.01693,0.325966 1.634065,-0.09313 0.0127,-0.321733 z m 0.0254,0.541866 0.01693,0.3175 1.583265,-0.08043 0.0127,-0.325966 z m 2.209798,2.048931 q -0.03387,0 -0.08467,-0.0381 -0.465666,-0.334433 -0.952499,-0.592666 -0.06773,-0.0381 -0.06773,-0.08043 0,-0.03387 0.03387,-0.1016 0.03387,-0.07197 0.09313,-0.07197 0.04657,0 0.397933,0.1905 0.351367,0.186267 0.630767,0.381 0.0508,0.03387 0.07197,0.05927 0.02117,0.0254 0.02117,0.05503 0,0.0508 -0.0508,0.122766 -0.0508,0.0762 -0.09313,0.0762 z m -1.684866,-0.499532 q -0.266699,0.165099 -0.550332,0.287866 -0.283634,0.127 -0.503767,0.194733 -0.2159,0.06773 -0.270933,0.06773 -0.0635,0 -0.0635,-0.0381 0,-0.02117 0.02117,-0.04657 0.0254,-0.0254 0.07197,-0.04657 0.5842,-0.275166 0.9525,-0.567266 0.08467,-0.07197 0.110066,-0.1778 0.0127,-0.0508 0.04657,-0.0508 0.0254,0 0.08043,0.05503 0.05927,0.05503 0.1016,0.131234 0.04657,0.07197 0.04657,0.122766 0,0.0381 -0.04233,0.06773 z"
           style="fill:#ffffff;fill-opacity:1;stroke-width:0.264583"
           id="path843" />
      </g>
    </g>
  </g>
</svg>
