<?xml version="1.0" encoding="UTF-8" standalone="no"?>
<svg
   xmlns:dc="http://purl.org/dc/elements/1.1/"
   xmlns:cc="http://creativecommons.org/ns#"
   xmlns:rdf="http://www.w3.org/1999/02/22-rdf-syntax-ns#"
   xmlns:svg="http://www.w3.org/2000/svg"
   xmlns="http://www.w3.org/2000/svg"
   width="19.175413mm"
   height="6.0023375mm"
   viewBox="0 0 19.175413 6.0023375"
   version="1.1"
   id="svg8">
  <defs
     id="defs2" />
  <metadata
     id="metadata5">
    <rdf:RDF>
      <cc:Work
         rdf:about="">
        <dc:format>image/svg+xml</dc:format>
        <dc:type
           rdf:resource="http://purl.org/dc/dcmitype/StillImage" />
        <dc:title></dc:title>
      </cc:Work>
    </rdf:RDF>
  </metadata>
  <g
     id="layer1"
     transform="translate(-25.4,-112.7125)">
    <g
       id="g854">
      <rect
         style="fill:#e3d4b4;fill-opacity:1;stroke-width:0.0321381"
         id="rect10"
         width="19.175413"
         height="6.0023375"
         x="25.4"
         y="112.7125" />
      <g
         aria-label="了解更多"
         id="text837"
         style="font-size:4.7625px;line-height:1.25;font-family:Iansui;-inkscape-font-specification:'Iansui, Normal';word-spacing:0px;stroke-width:0.264583">
        <path
           d="m 27.655852,117.51628 q 0.02858,0 0.02858,-0.0286 0.05239,-0.35242 0.05239,-0.81915 0,-0.48101 -0.06668,-0.90011 -0.06191,-0.42386 -0.200025,-0.66675 -0.04286,-0.0714 -0.04286,-0.1143 0,-0.0429 0.05715,-0.0857 0.05715,-0.0429 0.13335,-0.0429 0.07144,0 0.13335,0.12383 0.242887,-0.18098 0.485775,-0.40958 0.242887,-0.23336 0.423862,-0.44767 l -2.0574,0.13335 q -0.123825,0.01 -0.157162,0.01 -0.142875,0 -0.242888,-0.23336 l -0.0095,-0.0429 q 0,-0.0286 0.03334,-0.0286 0.01905,0 0.02858,0.005 0.0762,0.0191 0.166687,0.0191 l 0.08096,-0.005 2.38125,-0.1524 h 0.05715 q 0.08573,0 0.161925,0.0667 0.08096,0.0619 0.08096,0.12382 0,0.0429 -0.04763,0.0762 -0.04286,0.0333 -0.05715,0.0476 -0.623887,0.66198 -1.2192,1.09537 0.09525,0.31909 0.138113,0.77153 0.04763,0.44767 0.04763,0.89535 l -0.0048,0.23336 q -0.0048,0.31432 -0.05715,0.54769 -0.05239,0.23336 -0.219075,0.23336 -0.1143,0 -0.390525,-0.17145 -0.271462,-0.17145 -0.504825,-0.37624 -0.233362,-0.20479 -0.233362,-0.28099 0,-0.0286 0.03334,-0.0286 0.05239,0 0.157163,0.0619 0.1905,0.10954 0.414337,0.21908 0.2286,0.10953 0.40005,0.17145 z"
           style="stroke-width:0.264583"
           id="path839" />
        <path
           d="m 30.894343,116.63045 q -0.05715,0.29051 -0.180975,0.56674 -0.123825,0.27622 -0.252413,0.45244 -0.123825,0.18097 -0.176212,0.18097 -0.02858,0 -0.02858,-0.0381 0,-0.0476 0.04286,-0.13335 0.223838,-0.48101 0.319088,-0.99536 0.09525,-0.51911 0.09525,-1.39065 v -0.17145 q 0,-0.0714 -0.01429,-0.13335 -0.176212,0.16192 -0.24765,0.21431 -0.06668,0.0476 -0.100012,0.0476 -0.02858,0 -0.02858,-0.0286 0,-0.0429 0.06191,-0.10954 0.2286,-0.2667 0.4191,-0.55721 0.1905,-0.29051 0.295275,-0.51911 0.109538,-0.23336 0.109538,-0.32861 v -0.0381 q 0,-0.0667 0.04286,-0.0667 0.05715,0 0.17145,0.0857 0.1143,0.081 0.1143,0.14287 0,0.0429 -0.0762,0.17145 -0.07144,0.12383 -0.0762,0.12859 l 0.43815,-0.0381 h 0.03334 q 0.09525,0 0.1524,0.0619 0.05715,0.0571 0.05715,0.10001 0,0.0381 -0.138113,0.24765 -0.13335,0.20955 -0.223837,0.33814 l 0.371475,-0.0191 h 0.04763 q 0.04762,0 0.1143,0.0333 0.06668,0.0333 0.06668,0.11906 0,0.0238 -0.0048,0.0429 -0.0048,0.0191 -0.0048,0.0429 l -0.04286,2.39553 q 0,0.0429 0.0048,0.081 0.0048,0.0429 0.0048,0.0762 0,0.10001 -0.0762,0.14287 -0.07144,0.0476 -0.119062,0.0476 -0.08096,0 -0.276225,-0.11907 -0.1905,-0.1143 -0.352425,-0.25241 -0.161925,-0.14287 -0.161925,-0.19526 0,-0.0238 0.03334,-0.0238 0.04286,0 0.13335,0.0429 0.261938,0.13335 0.542925,0.21907 l 0.01429,-0.86677 z m 2.805112,1.13824 q 0,0.0524 -0.02381,0.0857 -0.02381,0.0333 -0.07144,0.0333 -0.0762,0 -0.1524,-0.0571 -0.0762,-0.0572 -0.0762,-0.12382 0,-0.0333 0.0048,-0.0571 0.03334,-0.23337 0.03334,-0.4191 v -0.46673 l -0.690562,0.019 -0.13335,0.005 q -0.06668,0 -0.09525,-0.0238 -0.05239,-0.0476 -0.09049,-0.12382 -0.0381,-0.081 -0.0381,-0.10954 0,-0.0238 0.02381,-0.0238 0.0095,0 0.04763,0.01 0.07144,0.0191 0.166687,0.0191 h 0.05715 l 0.752475,-0.0286 0.0048,-0.51912 -0.523875,0.0333 q -0.09049,0.15716 -0.214313,0.3048 -0.119062,0.14764 -0.176212,0.14764 -0.03334,0 -0.03334,-0.0381 0,-0.0333 0.03334,-0.0953 0.2286,-0.39053 0.36195,-0.90964 0.0095,-0.0572 0.0095,-0.0905 0,-0.0381 -0.0048,-0.0619 v -0.0143 q 0,-0.0381 0.03334,-0.0381 0.01905,0.005 0.08096,0.0333 0.06191,0.0286 0.119063,0.081 0.05715,0.0476 0.05715,0.10478 0,0.0476 -0.06191,0.17621 -0.05715,0.12859 -0.06667,0.14288 l 0.385763,-0.0238 v -0.25241 q 0,-0.0952 -0.0095,-0.15716 -0.0095,-0.0619 -0.04286,-0.1143 -0.01429,-0.0238 -0.01429,-0.0381 0,-0.0286 0.04286,-0.0286 0.0762,0 0.1905,0.0524 0.1143,0.0476 0.1143,0.14764 v 0.37147 l 0.300038,-0.0191 q 0.109537,-0.01 0.161925,-0.0238 0.0381,-0.01 0.04763,-0.01 0.04762,0 0.123824,0.0762 0.08096,0.0714 0.08096,0.12382 0,0.0572 -0.09525,0.0667 l -0.619125,0.0381 v 0.51911 l 0.604837,-0.0238 q 0.109538,-0.005 0.161925,-0.0238 0.0381,-0.0143 0.06191,-0.0143 0.04763,0 0.09049,0.0429 0.04762,0.0429 0.08096,0.0952 0.03334,0.0524 0.03334,0.0762 0,0.0619 -0.104775,0.0714 l -0.928687,0.0381 z m 0.200025,-2.82893 q 0.02858,0 0.03334,-0.0238 0.09525,-0.3429 0.128587,-0.74771 l -0.5334,0.0381 q -0.13335,0.42386 -0.36195,0.68104 -0.2286,0.25717 -0.433387,0.37147 -0.200025,0.10954 -0.24765,0.10954 -0.04286,0 -0.04286,-0.0333 0,-0.0429 0.08096,-0.10954 0.4953,-0.39528 0.661987,-0.99536 l -0.357187,0.0286 q -0.08572,0.01 -0.1143,0.01 -0.08096,0 -0.13335,-0.0524 -0.05239,-0.0524 -0.0762,-0.1143 -0.02381,-0.0619 -0.02381,-0.0857 0,-0.0286 0.03334,-0.0286 l 0.05715,0.01 q 0.07144,0.0143 0.142875,0.0143 h 0.04763 l 1.400175,-0.10002 h 0.04763 q 0.0762,0 0.114299,0.0381 0.07144,0.0571 0.07144,0.10954 0,0.0143 -0.0095,0.0429 -0.0095,0.0286 -0.01429,0.0571 -0.04763,0.44768 -0.109537,0.70962 l -0.02381,0.10477 q -0.02381,0.10478 -0.04286,0.1524 -0.01429,0.0429 -0.06668,0.081 -0.0762,0.0524 -0.128587,0.0524 -0.06191,0 -0.214313,-0.0952 -0.147637,-0.0953 -0.280987,-0.20955 -0.128588,-0.1143 -0.128588,-0.14764 0,-0.0381 0.04762,-0.0381 0.02858,0 0.09049,0.0238 0.261937,0.1143 0.371475,0.14763 z m -2.676525,-0.56197 q -0.17145,0.24289 -0.36195,0.44291 0.05715,0.0143 0.123825,0.0429 l 0.40005,-0.0238 q 0.195263,-0.28099 0.309563,-0.50006 z m 0.390525,1.44304 -0.0095,0.5334 0.395288,-0.0143 0.0095,-0.53816 z m -0.642937,0.0333 -0.02858,0.44292 q 0,0.0238 -0.0095,0.081 l 0.409575,-0.0143 0.0048,-0.52864 z m 0.652462,-0.78105 -0.0095,0.50959 0.40005,-0.0238 0.0048,-0.50483 z m -0.62865,0.0333 q 0,0.23813 -0.01429,0.50483 l 0.371475,-0.019 0.0048,-0.50483 z"
           style="stroke-width:0.264583"
           id="path841" />
        <path
           d="m 37.323708,116.06848 q -0.0762,0.40481 -0.242887,0.71913 1.004887,0.46673 2.314575,0.75724 0.0762,0.0143 0.0762,0.0524 0,0.0191 -0.03334,0.0762 -0.03334,0.0572 -0.09049,0.10477 -0.05239,0.0476 -0.1143,0.0476 -0.04763,0 -0.395288,-0.0952 -0.3429,-0.0953 -0.852487,-0.28099 -0.504825,-0.18097 -1.052513,-0.44291 -0.24765,0.32385 -0.619125,0.50006 -0.366712,0.18098 -0.676275,0.24289 -0.3048,0.0667 -0.428625,0.0667 -0.09525,0 -0.09525,-0.0381 0,-0.0238 0.0381,-0.0524 0.04286,-0.0286 0.109538,-0.0476 0.4953,-0.1524 0.8382,-0.32861 0.3429,-0.17621 0.576262,-0.46673 l -0.128587,-0.0667 q -0.195263,-0.10001 -0.338138,-0.14288 -0.138112,-0.0476 -0.309562,-0.0476 -0.08572,0 -0.13335,0.005 h -0.03334 q -0.06667,0 -0.100012,-0.0286 -0.02857,-0.0286 -0.03334,-0.10002 v -0.0333 q 0,-0.0619 0.02858,-0.0857 0.03334,-0.0238 0.1143,-0.0238 0.28575,0 0.466725,0.0381 0.185738,0.0381 0.428625,0.16669 0.123825,0.0667 0.185738,0.0953 0.08573,-0.1524 0.142875,-0.32862 0.02857,-0.0953 0.06191,-0.24765 l -0.74295,0.0333 0.0048,0.0476 v 0.019 q 0,0.0857 -0.0762,0.0857 -0.06668,0 -0.157163,-0.0572 -0.08572,-0.0619 -0.08572,-0.1143 0,-0.0238 0.0048,-0.0381 0.0095,-0.0762 0.0095,-0.17145 v -0.0476 l -0.08573,-0.98584 q -0.0048,-0.0905 -0.07144,-0.23813 -0.02381,-0.0476 -0.02381,-0.0762 0,-0.0286 0.04286,-0.0286 0.08096,0 0.319088,0.0857 l 0.93345,-0.0476 -0.0095,-0.42863 -0.976313,0.0572 q -0.04286,0.005 -0.100012,0.005 -0.100013,0 -0.157163,-0.0667 -0.05239,-0.0714 -0.0762,-0.14764 -0.0048,-0.01 -0.0048,-0.0286 0,-0.0238 0.02857,-0.0238 0.01905,0 0.03334,0.005 0.06667,0.0143 0.138113,0.0143 l 0.0762,-0.005 2.1717,-0.12858 q 0.08572,-0.005 0.161925,-0.0286 0.01429,-0.005 0.04286,-0.005 0.06191,0 0.13335,0.0714 0.08573,0.0857 0.08573,0.12858 0,0.0524 -0.109537,0.0619 l -1.143,0.0714 v 0.43339 l 0.981075,-0.0476 q 0.01905,-0.005 0.05715,-0.005 0.0762,0 0.142875,0.0524 0.07144,0.0524 0.07144,0.10478 0,0.0238 -0.01905,0.0571 -0.01429,0.0333 -0.01905,0.0524 l -0.1143,1.0287 q 0.109538,0.13812 0.109538,0.18574 0,0.0286 -0.02858,0.0381 -0.02857,0.01 -0.09525,0.0143 z m 0.06667,-0.67152 q -0.01905,0.28099 -0.03334,0.42863 l 0.862012,-0.0381 0.03334,-0.43815 z m -1.12395,0.48102 0.795338,-0.0381 q 0.01429,-0.14764 0.03334,-0.42863 l -0.862012,0.0429 z m -0.05239,-0.65723 0.885825,-0.0476 q 0.0048,-0.0619 0.0048,-0.1905 0,-0.12859 -0.0048,-0.1905 l -0.9144,0.0429 z m 1.1811,-0.44291 v 0.381 l 0.8763,-0.0476 0.02858,-0.37623 z"
           style="stroke-width:0.264583"
           id="path843" />
        <path
           d="m 41.714724,114.29683 q -0.185738,0.14763 -0.466725,0.3048 -0.276225,0.15716 -0.519113,0.2667 -0.238125,0.10477 -0.295275,0.10477 -0.04762,0 -0.04762,-0.0333 0,-0.0381 0.08096,-0.0857 0.414337,-0.23336 0.728662,-0.48101 0.319088,-0.24765 0.614363,-0.56674 0.0762,-0.0857 0.0762,-0.1905 v -0.0143 q 0,-0.0953 0.05715,-0.0953 0.06668,0 0.180975,0.10001 0.119062,0.10002 0.119062,0.16193 0,0.0286 -0.08096,0.1143 -0.0762,0.0857 -0.142875,0.13811 l 0.9906,-0.0762 h 0.03334 q 0.08572,0 0.185738,0.0762 0.100012,0.0714 0.100012,0.14288 0,0.0476 -0.0381,0.081 -0.03334,0.0286 -0.0381,0.0333 -0.51435,0.63341 -1.185862,1.0287 -0.66675,0.39052 -1.204913,0.56673 -0.5334,0.17145 -0.623887,0.17145 -0.06667,0 -0.06667,-0.0381 0,-0.0476 0.09525,-0.081 0.4953,-0.18574 0.890587,-0.38576 0.395288,-0.20003 0.762,-0.4572 -0.1905,-0.16193 -0.452437,-0.32385 -0.05239,-0.0286 -0.05239,-0.0667 0.0048,-0.0143 0.01905,-0.0571 0.01905,-0.0429 0.05239,-0.081 0.03334,-0.0381 0.0762,-0.0381 0.06191,0 0.233362,0.11906 0.17145,0.11907 0.36195,0.27147 0.43815,-0.31433 0.74295,-0.69057 z m 0.32385,1.73831 q -0.252413,0.18574 -0.566738,0.36195 -0.309562,0.17621 -0.561975,0.29051 -0.24765,0.10954 -0.3048,0.10954 -0.04762,0 -0.04762,-0.0286 0,-0.0429 0.08096,-0.0905 0.471487,-0.27623 0.847725,-0.55245 0.376237,-0.28099 0.690562,-0.6096 0.07144,-0.0762 0.0762,-0.20479 0.0095,-0.0952 0.05715,-0.0952 0.06668,0 0.180975,0.10001 0.119063,0.0952 0.119063,0.16193 0,0.0238 -0.01429,0.0381 -0.08572,0.1143 -0.24765,0.25241 l 1.109663,-0.0667 h 0.01905 q 0.09525,0 0.200025,0.0762 0.104775,0.0714 0.104775,0.14764 0,0.0381 -0.03334,0.0714 -0.02858,0.0286 -0.0381,0.0381 -0.523875,0.73342 -1.362075,1.19539 -0.8382,0.4572 -1.966912,0.62865 -0.01905,0.005 -0.04763,0.005 -0.04286,0 -0.06667,-0.0143 -0.02381,-0.01 -0.02381,-0.0286 0,-0.0429 0.100013,-0.0714 0.619125,-0.16193 1.095375,-0.35719 0.47625,-0.20002 0.89535,-0.47625 -0.257175,-0.21907 -0.5334,-0.38576 -0.05715,-0.0286 -0.05715,-0.0714 0,-0.0143 0.02381,-0.0572 0.02381,-0.0429 0.05715,-0.0762 0.0381,-0.0333 0.08096,-0.0333 0.05715,0 0.24765,0.13335 0.195262,0.12859 0.423862,0.3048 0.433388,-0.31908 0.776288,-0.75723 z"
           style="stroke-width:0.264583"
           id="path845" />
      </g>
    </g>
  </g>
</svg>
