<?xml version="1.0" encoding="UTF-8" standalone="no"?>
<svg
   xmlns:dc="http://purl.org/dc/elements/1.1/"
   xmlns:cc="http://creativecommons.org/ns#"
   xmlns:rdf="http://www.w3.org/1999/02/22-rdf-syntax-ns#"
   xmlns:svg="http://www.w3.org/2000/svg"
   xmlns="http://www.w3.org/2000/svg"
   width="200.886"
   height="22.812"
   viewBox="0 0 53.151087 6.0356752"
   version="1.1"
   id="svg8">
  <defs
     id="defs2" />
  <metadata
     id="metadata5">
    <rdf:RDF>
      <cc:Work
         rdf:about="">
        <dc:format>image/svg+xml</dc:format>
        <dc:type
           rdf:resource="http://purl.org/dc/dcmitype/StillImage" />
        <dc:title></dc:title>
      </cc:Work>
    </rdf:RDF>
  </metadata>
  <g
     id="layer1">
    <g
       aria-label="膝關節退化不一定要開刀"
       id="text12"
       style="font-size:4.7625px;line-height:1.25;font-family:Iansui;-inkscape-font-specification:'Iansui, Normal';word-spacing:0px;stroke-width:0.264583">
      <path
         d="m 3.8941835,2.3177501 q 0,0.061913 -0.01905,0.0762 0.1000125,0.1095375 0.1000125,0.17145 0,0.042863 -0.033338,0.061913 0.32385,0.2333624 0.619125,0.3857624 0.3000374,0.1476375 0.6905624,0.276225 0.066675,0.023813 0.066675,0.066675 0,0.014288 -0.023813,0.066675 -0.023813,0.047625 -0.061913,0.090488 -0.0381,0.0381 -0.080963,0.0381 -0.028575,0 -0.1905,-0.061913 Q 4.7990584,3.4274125 4.489496,3.260725 4.184696,3.089275 3.7608335,2.7892376 3.546521,2.974975 3.270296,3.1607125 2.994071,3.34645 2.765471,3.4655125 2.536871,3.584575 2.470196,3.584575 q -0.052388,0 -0.052388,-0.0381 0,-0.05715 0.1190625,-0.13335 0.4429125,-0.2714625 0.7858125,-0.5810249 0.3429,-0.314325 0.3762375,-0.47625 -0.052388,-0.033338 -0.0762,-0.061913 -0.023813,-0.028575 -0.023813,-0.061913 0,-0.023813 0.00476,-0.033338 0.023813,-0.1190625 0.023813,-0.238125 v -0.238125 q -0.2238375,0.314325 -0.466725,0.523875 -0.238125,0.20955 -0.4238625,0.3095625 -0.180975,0.1000125 -0.238125,0.1000125 -0.0381,0 -0.0381,-0.028575 0,-0.042863 0.09525,-0.1190625 0.4619625,-0.371475 0.8905875,-0.9096375 L 2.936921,1.6271876 H 2.889296 q -0.090488,0 -0.1571625,-0.047625 -0.061913,-0.047625 -0.09525,-0.1000125 -0.028575,-0.05715 -0.028575,-0.080963 0,-0.01905 0.023813,-0.01905 l 0.028575,0.00476 q 0.071438,0.01905 0.1857375,0.01905 H 2.917871 L 3.632246,1.3604876 V 1.0795001 q 0,-0.10001247 -0.061913,-0.20002497 -0.01905,-0.0333375 -0.01905,-0.05715 0,-0.028575 0.047625,-0.028575 0.0762,0 0.1857375,0.0428625 0.1095375,0.0381 0.1095375,0.123825 V 1.3414376 l 0.6619875,-0.0381 q 0.1095374,-0.00476 0.1952624,-0.033338 0.047625,-0.00953 0.05715,-0.00953 0.05715,0 0.13335,0.0762 0.0762,0.0762 0.0762,0.123825 0,0.047625 -0.1190625,0.052388 l -1.0048874,0.061913 v 0.085725 q 0.1524,0.052387 0.2714625,0.104775 0.314325,0.1190625 0.5953124,0.24765 0.2809875,0.1285875 0.3048,0.180975 0.014288,0.028575 0.014288,0.05715 0,0.052388 -0.033338,0.1095375 -0.028575,0.052388 -0.052388,0.066675 -0.00953,0.00476 -0.028575,0.00476 -0.028575,0 -0.085725,-0.028575 L 4.6323709,2.2844126 4.241846,2.0891501 q -0.1524,-0.080963 -0.3476625,-0.1524 z m -0.3048,1.6621124 q 0,0.066675 -0.1762125,0.257175 -0.1762125,0.1905 -0.381,0.3571875 -0.200025,0.161925 -0.2714625,0.161925 -0.1190625,0 -0.257175,-0.161925 -0.01905,-0.028575 -0.01905,-0.042863 0,-0.023813 0.033338,-0.033338 Q 2.6368835,4.5037375 2.7321335,4.4704 2.832146,4.4323 2.994071,4.3322875 q 0.161925,-0.104775 0.4333875,-0.314325 0.09525,-0.071438 0.13335,-0.071438 0.028575,0 0.028575,0.033338 z m -0.295275,0.042863 q -0.028575,0 -0.05715,-0.028575 -0.1905,-0.1905 -0.40005,-0.333375 Q 2.7892835,3.6322 2.7892835,3.5941 q 0,-0.023813 0.0381,-0.080963 0.0381,-0.061913 0.085725,-0.061913 0.028575,0 0.1857375,0.104775 0.1571625,0.104775 0.28575,0.2047875 0.05715,0.042863 0.05715,0.085725 0,0.052388 -0.05715,0.1143 -0.052388,0.061913 -0.090488,0.061913 z M 2.0177586,2.5130126 q -0.05715,0 -0.123825,-0.033338 -0.1095375,-0.05715 -0.3190875,-0.1285875 -0.01905,-0.00953 -0.033338,-0.01905 v 0.014288 q 0,0.4333875 -0.028575,0.8524874 h 0.00476 q 0.05715,0 0.1476375,-0.023813 0.090487,-0.023813 0.1190625,-0.033338 l 0.2809875,-0.090487 0.00953,-0.5619749 q -0.033338,0.023813 -0.05715,0.023813 z M 3.917996,4.746625 q 0,0.052388 0.00476,0.1000125 0.00476,0.047625 0.00476,0.090488 0,0.1095375 -0.066675,0.180975 -0.066675,0.071438 -0.1524,0.071438 -0.061913,0 -0.2238375,-0.1000125 Q 3.327446,4.994275 3.1893335,4.879975 3.051221,4.765675 3.051221,4.71805 q 0,-0.028575 0.042863,-0.028575 0.047625,0 0.1190625,0.033338 Q 3.413171,4.8133 3.641771,4.860925 l -0.00476,-1.5573375 q 0,-0.1190625 -0.047625,-0.1952625 -0.01905,-0.023812 -0.01905,-0.052387 0,-0.028575 0.0381,-0.028575 0.028575,0.00476 0.09525,0.023813 0.071438,0.014288 0.13335,0.052387 0.066675,0.033338 0.066675,0.090488 l 0.00476,0.676275 0.17145,0.085725 q 0.1381125,-0.1000125 0.2524125,-0.219075 0.1143,-0.1190625 0.142875,-0.1952625 0.00953,-0.01905 0.00953,-0.033338 0.014288,-0.0762 0.047625,-0.0762 0.042863,0 0.1333499,0.1000125 0.090488,0.1000125 0.090488,0.142875 0,0.033338 -0.033338,0.05715 l -0.1381124,0.1143 Q 4.5418835,3.87985 4.4466335,3.95605 4.356146,4.0274875 4.289471,4.07035 l 0.090488,0.052388 Q 4.6323709,4.26085 4.9085959,4.441825 q 0.276225,0.180975 0.295275,0.2428875 0.01905,0.05715 -0.028575,0.13335 -0.042863,0.0762 -0.080963,0.085725 l -0.023813,0.00476 q -0.033338,0 -0.085725,-0.042863 Q 4.7466709,4.670425 4.460921,4.4846875 4.127546,4.2751375 3.9132335,4.14655 Z M 0.7937961,5.0466625 q 0,-0.042863 0.047625,-0.13335 0.17145,-0.3571875 0.2619375,-0.70485 0.090488,-0.352425 0.123825,-0.8143875 0.0381,-0.4619625 0.0381,-1.1953874 0,-0.4429125 -0.014288,-0.6524625 -0.00953,-0.20955 -0.052388,-0.32385 -0.01905,-0.066675 -0.01905,-0.080963 0,-0.0381 0.042863,-0.0381 0.071438,0 0.3381375,0.1190625 l 0.5714999,-0.047625 h 0.052388 q 0.080963,0 0.1381125,0.047625 0.061913,0.042863 0.061913,0.104775 0,0.01905 -0.014288,0.061912 -0.00953,0.0381 -0.00953,0.061913 l -0.01905,3.2146874 q 0,0.0381 0.00476,0.071438 0.00476,0.0381 0.00476,0.066675 0,0.0762 -0.047625,0.123825 -0.042863,0.052388 -0.1000125,0.0762 -0.052388,0.028575 -0.080963,0.028575 -0.085725,0 -0.2428874,-0.1190625 -0.1524,-0.1143 -0.2809875,-0.257175 -0.1285875,-0.142875 -0.1285875,-0.1905 0,-0.028575 0.033338,-0.028575 0.047625,0 0.1285875,0.047625 0.2333625,0.13335 0.4191,0.1952625 l 0.014288,-1.4097 q -0.1190625,0.085725 -0.257175,0.1524 -0.1381125,0.061913 -0.2047875,0.061913 -0.061913,0 -0.104775,-0.066675 v 0.00476 q -0.05715,0.5762625 -0.200025,0.9477375 -0.142875,0.371475 -0.28575,0.542925 -0.142875,0.17145 -0.1905,0.17145 -0.028575,0 -0.028575,-0.0381 z M 1.5415086,2.1558251 q 0.028575,-0.033338 0.071438,-0.033338 l 0.047625,0.00953 q 0.1952625,0.033338 0.3762375,0.104775 l 0.0381,0.01905 0.00953,-0.8143875 -0.5381625,0.0381 z"
         style="stroke-width:0.264583"
         id="path14" />
      <path
         d="m 5.9468118,1.4462126 q 0,-0.1476375 -0.0381,-0.2667 -0.014288,-0.0381 -0.014288,-0.061913 0,-0.0381 0.042863,-0.0381 0.071438,0 0.2809875,0.085725 l 1.1001375,-0.071438 0.0381,-0.00476 q 0.042863,0 0.1095375,0.052388 0.066675,0.047625 0.066675,0.09525 0,0.023813 -0.014288,0.052388 -0.00953,0.028575 -0.014288,0.052387 l -0.066675,0.771525 q 0.1000125,0.1143 0.1000125,0.161925 0,0.033338 -0.028575,0.042863 -0.028575,0.00953 -0.09525,0.014288 L 6.2182743,2.3987126 6.2135118,5.08 q 0,0.05715 -0.023813,0.090488 -0.023813,0.033338 -0.066675,0.033338 -0.01905,0 -0.0762,-0.028575 -0.05715,-0.023813 -0.104775,-0.066675 -0.042863,-0.042863 -0.042863,-0.090488 0,-0.028575 0.00476,-0.042863 0.028575,-0.1762125 0.028575,-0.352425 z m 2.2050374,3.5051999 q 0,0.1095375 -0.071437,0.1095375 -0.052388,0 -0.13335,-0.047625 -0.0762,-0.047625 -0.0762,-0.1285875 0,-0.0381 0.00476,-0.061913 0.0381,-0.180975 0.0381,-0.314325 l -0.00953,-0.466725 q 0,-0.161925 -0.05715,-0.3000375 -0.00953,-0.028575 -0.00953,-0.033338 0,-0.0381 0.052388,-0.0381 0.047625,0 0.142875,0.033338 0.061912,0.01905 0.085725,0.05715 0.023812,0.033338 0.023812,0.104775 l 0.00476,0.295275 0.40005,-0.00953 0.00953,-0.2238375 V 3.91795 q 0,-0.0762 -0.0762,-0.1857375 -0.01905,-0.033338 -0.01905,-0.052388 0,-0.033338 0.052388,-0.033338 0.0762,0 0.17145,0.0381 0.1000125,0.0381 0.1000125,0.1285875 v 0.01905 l -0.01905,0.2809875 q 0.014288,0.00476 0.05715,0.028575 0.047625,0.023813 0.090488,0.061913 0.042863,0.033337 0.042863,0.071437 0,0.01905 -0.01905,0.033338 -0.01905,0.014288 -0.047625,0.014288 l -0.74295,0.023813 z M 7.0088493,4.37515 q -0.033338,0.00476 -0.080963,0.01905 -0.047625,0.014288 -0.085725,0.014288 -0.0381,0 -0.080963,-0.028575 Q 6.6897618,4.3132375 6.6897618,4.251325 V 4.22275 l 0.014288,-0.180975 v -0.023813 q 0,-0.104775 -0.05715,-0.1952625 -0.00953,-0.01905 -0.00953,-0.028575 0,-0.028575 0.052388,-0.028575 0.071438,0 0.161925,0.0381 0.09525,0.033338 0.09525,0.1095375 v 0.01905 L 6.9231243,4.18465 7.3279368,4.1608375 q 0.00476,-0.047625 0.00476,-0.1381125 0,-0.01905 -0.00476,-0.066675 0,-0.047625 -0.00953,-0.09525 -0.00953,-0.047625 -0.033338,-0.104775 -0.00476,-0.00953 -0.00476,-0.023813 0,-0.033338 0.042863,-0.033338 0.071438,0 0.1666875,0.0381 0.1000125,0.0381 0.1000125,0.1143 V 3.937 q 0,0.2428875 -0.042863,0.40005 -0.0381,0.1524 -0.123825,0.2667 -0.1143,0.1524 -0.2714625,0.238125 -0.1524,0.090488 -0.28575,0.123825 -0.1285875,0.033338 -0.1952625,0.033338 -0.061913,0 -0.061913,-0.028575 0,-0.01905 0.0381,-0.052388 Q 6.6849993,4.8895 6.7564368,4.860925 6.9707493,4.765675 7.1136243,4.6228 7.2564993,4.479925 7.2898368,4.3608625 Z m 1.2191999,-2.5907999 0.00953,0.2809875 1.095375,-0.061913 0.00476,-0.28575 z m -2.0097749,0.090488 v 0.3095625 l 0.97155,-0.05715 0.01905,-0.3095625 z m 1.9859624,-0.561975 0.014288,0.2619375 1.1191875,-0.066675 V 1.2461876 Z m -1.9859624,0.085725 v 0.2619375 l 1.0048875,-0.05715 0.01905,-0.2714625 z m 1.9573874,0.962025 q -0.05715,0 -0.1333499,-0.047625 -0.0762,-0.052388 -0.0762,-0.1095375 0,-0.028575 0.00476,-0.042863 0.014288,-0.080963 0.014288,-0.1571625 v -0.052387 l -0.028575,-0.619125 q -0.00953,-0.13335 -0.052388,-0.2286 -0.023813,-0.047625 -0.023813,-0.066675 0,-0.028575 0.042863,-0.028575 0.05715,0 0.2762249,0.071438 l 1.2239625,-0.0809625 h 0.033338 q 0.052388,0 0.1190625,0.047625 0.071438,0.042863 0.071438,0.1000125 0,0.01905 -0.014288,0.05715 -0.014288,0.033338 -0.014288,0.052388 l -0.01905,3.5432999 0.00476,0.1524 q 0,0.090488 -0.071438,0.161925 -0.071438,0.071438 -0.142875,0.071438 -0.0762,0 -0.2667,-0.1190625 Q 8.9376617,4.9514125 8.7757367,4.8133 8.6185742,4.6751875 8.6185742,4.613275 q 0,-0.028575 0.0381,-0.028575 0.042863,0 0.1285875,0.042863 0.219075,0.123825 0.5381625,0.2286 l 0.00953,-2.6431874 -1.08585,0.05715 v 0.023813 q 0.052388,0.014288 0.1190625,0.066675 0.066675,0.047625 0.066675,0.1000125 0,0.014288 -0.00953,0.023813 -0.061913,0.1143 -0.1285875,0.200025 -0.061913,0.085725 -0.1762125,0.1952624 l 0.28575,-0.028575 q 0.13335,-0.180975 0.1381125,-0.2286 0.00953,-0.047625 0.0381,-0.047625 0.028575,0 0.1000125,0.066675 0.0762,0.061913 0.0762,0.1143 0,0.014288 -0.014288,0.028575 -0.00953,0.00953 -0.014288,0.01905 -0.1524,0.1714499 -0.295275,0.3238499 -0.142875,0.1476375 -0.2905125,0.28575 l 0.1666875,-0.023813 q 0.052388,-0.00953 0.1285875,-0.01905 0.080963,-0.014288 0.200025,-0.028575 Q 8.5376117,3.1988125 8.5376117,3.175 q 0,-0.0381 0.047625,-0.066675 0.047625,-0.033337 0.071438,-0.033337 0.033338,0 0.1190625,0.1190625 0.090488,0.1143 0.1666875,0.2524125 0.0762,0.13335 0.0762,0.1666875 0,0.033338 -0.042863,0.0762 -0.042863,0.0381 -0.09525,0.0381 -0.023813,0 -0.042863,-0.01905 -0.01905,-0.01905 -0.028575,-0.047625 -0.0381,-0.09525 -0.071438,-0.1524 -0.17145,0.028575 -0.3095625,0.05715 -0.4190999,0.0762 -0.4810124,0.0762 -0.052388,0 -0.123825,-0.052388 -0.066675,-0.05715 -0.066675,-0.1095375 0,-0.023813 0.033338,-0.033338 0.0381,-0.00953 0.0762,-0.023813 0.042863,-0.014288 0.085725,-0.052388 0.1381124,-0.123825 0.3095624,-0.333375 L 8.1518492,3.051175 q -0.2428874,0.0381 -0.3238499,0.0381 -0.0381,0 -0.066675,-0.052388 Q 7.7327493,2.9845 7.7327493,2.936875 q 0,-0.047625 0.061913,-0.052388 0.033338,0 0.1476375,-0.1047749 0.2285999,-0.219075 0.2476499,-0.4191 z M 7.3612743,3.2559625 q -0.01905,-0.023813 -0.01905,-0.05715 0,-0.042863 0.052388,-0.071438 0.0381,-0.014288 0.061913,-0.014288 0.042863,0 0.071438,0.042863 0.09525,0.1666875 0.1524,0.3000375 0.05715,0.13335 0.05715,0.161925 0,0.052388 -0.052388,0.080963 -0.052388,0.028575 -0.080963,0.028575 -0.05715,0 -0.080963,-0.0762 l -0.033338,-0.104775 -0.276225,0.052388 q -0.51435,0.09525 -0.5857875,0.09525 -0.052388,0 -0.104775,-0.052388 -0.052388,-0.05715 -0.052388,-0.1095375 0,-0.023813 0.0381,-0.033338 0.0381,-0.00953 0.0762,-0.01905 0.0381,-0.014288 0.080963,-0.052388 0.066675,-0.066675 0.1381125,-0.123825 0.085725,-0.071438 0.1905,-0.1762125 l -0.142875,0.023813 q -0.05715,0.00476 -0.13335,0.01905 -0.0762,0.00953 -0.104775,0.00953 -0.0381,0 -0.066675,-0.052388 -0.028575,-0.052387 -0.028575,-0.104775 0,-0.042863 0.05715,-0.047625 0.028575,0 0.071438,-0.028575 0.042863,-0.033338 0.080963,-0.080963 0.1381125,-0.1619249 0.200025,-0.2571749 0.061913,-0.1000125 0.0762,-0.200025 0.00953,-0.033338 0.033338,-0.033338 0.042863,0 0.123825,0.05715 0.080963,0.05715 0.080963,0.1095375 l -0.00953,0.023813 Q 7.0993368,2.7987626 6.8850243,2.9702125 L 7.1850618,2.936875 q 0.104775,-0.1047749 0.13335,-0.1619249 0.033338,-0.05715 0.042863,-0.123825 0.00953,-0.052387 0.0381,-0.052387 0.033338,0 0.1143,0.066675 0.085725,0.061913 0.085725,0.1143 0,0.01905 -0.014288,0.033338 -0.00953,0.014288 -0.014288,0.01905 -0.28575,0.3190874 -0.66675,0.6191249 0.1952625,-0.014288 0.390525,-0.047625 l 0.13335,-0.01905 z"
         style="stroke-width:0.264583"
         id="path16" />
      <path
         d="m 11.228415,4.4846875 q 0.423863,-0.13335 0.757238,-0.2905125 -0.07144,-0.1000125 -0.180975,-0.2286 -0.0381,-0.047625 -0.0381,-0.0762 0,-0.052387 0.06191,-0.090487 0.06191,-0.042863 0.09525,-0.042863 0.0381,0 0.08096,0.047625 0.271462,0.3190875 0.461962,0.561975 0.1905,0.2428875 0.1905,0.295275 0,0.042863 -0.06668,0.1000125 -0.06191,0.061913 -0.119062,0.061913 -0.04763,0 -0.09525,-0.0762 -0.109538,-0.1666875 -0.24765,-0.36195 l -0.5715,0.28575 q -0.09525,0.042863 -0.300038,0.1524 -0.17145,0.090488 -0.20955,0.090488 -0.02858,0 -0.07144,-0.0381 -0.04286,-0.033338 -0.06668,-0.085725 -0.01905,-0.047625 0,-0.0762 0.02858,-0.052388 0.02858,-0.4191 V 2.6463626 q 0,-0.1143 -0.0095,-0.1857375 -0.0048,-0.071438 -0.0381,-0.1524 -0.0048,-0.014288 -0.0095,-0.023813 -0.0048,-0.00953 -0.0048,-0.01905 0,-0.023813 0.03334,-0.023813 0.06191,0 0.309562,0.104775 l 1.033463,-0.071438 q 0.0381,-0.00476 0.08573,-0.00476 0.05239,0 0.123825,0.047625 0.07144,0.042863 0.07144,0.09525 0,0.01905 -0.02381,0.05715 -0.01905,0.0381 -0.01905,0.05715 L 12.366653,3.42265 q 0.1143,0.13335 0.1143,0.180975 0,0.023813 -0.02858,0.033338 -0.02381,0.00953 -0.0762,0.00953 L 11.223653,3.68935 Z m 1.633537,-1.8430874 q 0,-0.123825 -0.0095,-0.1905 -0.0048,-0.066675 -0.02857,-0.1285875 -0.01905,-0.05715 -0.01905,-0.0762 0,-0.028575 0.03334,-0.028575 0.07144,0 0.32385,0.1190625 l 0.957262,-0.080963 0.0381,-0.00476 q 0.01905,0 0.07144,0.01905 0.05715,0.014288 0.104775,0.052388 0.05239,0.033338 0.05239,0.090488 0,0.01905 -0.01429,0.052388 -0.01429,0.033338 -0.01429,0.047625 -0.0048,0.5238749 -0.06668,1.1191874 l -0.0095,0.1190625 q -0.01429,0.200025 -0.0381,0.333375 -0.02381,0.13335 -0.08096,0.20955 -0.09049,0.123825 -0.195263,0.123825 -0.104775,0 -0.2667,-0.1285875 -0.161925,-0.1285875 -0.300037,-0.2809875 -0.13335,-0.1524 -0.13335,-0.1952625 0,-0.033338 0.0381,-0.033338 0.04286,0 0.119062,0.047625 0.176213,0.1095375 0.295275,0.1762125 0.119063,0.066675 0.17145,0.066675 0.02381,0 0.03334,-0.033338 0.109537,-0.6096 0.13335,-1.5287624 l -0.89535,0.066675 q 0,0.8048624 0.01429,2.5526999 0,0.042863 -0.02381,0.061913 -0.01905,0.023813 -0.05239,0.023813 -0.0381,0 -0.09049,-0.028575 -0.09049,-0.0381 -0.128588,-0.071438 -0.0381,-0.033338 -0.0381,-0.0762 l 0.0048,-0.033338 q 0.02858,-0.1571625 0.02858,-0.352425 z m 0.695325,-1.143 q 0.13335,0.085725 0.314325,0.2524125 0.180975,0.161925 0.180975,0.219075 0,0.033337 -0.05239,0.104775 -0.05239,0.066675 -0.100013,0.066675 -0.0381,0 -0.08096,-0.047625 -0.233363,-0.2524125 -0.423863,-0.40005 -0.04763,-0.0381 -0.04763,-0.071438 0,-0.0381 0.07144,-0.1143 l -0.352425,0.023813 q -0.157163,0.20955 -0.381,0.4238625 -0.219075,0.2143125 -0.295275,0.2143125 -0.03334,0 -0.03334,-0.028575 0,-0.047625 0.06191,-0.1143 0.233363,-0.2809875 0.423862,-0.6334125 0.195263,-0.3571875 0.195263,-0.50006247 v -0.01905 q 0,-0.0714375 0.05239,-0.0714375 0.03334,0 0.100013,0.0381 0.07144,0.0333375 0.128587,0.0809625 0.05715,0.047625 0.05715,0.09525 0,0.042863 -0.06668,0.1524 -0.06668,0.1095375 -0.07144,0.1143 l 0.938212,-0.0762 q 0.104775,-0.00953 0.180975,-0.033338 0.0095,-0.00476 0.0381,-0.00476 0.06668,0 0.142875,0.0762 0.08096,0.071438 0.08096,0.1190625 0,0.028575 -0.02858,0.047625 -0.02381,0.014288 -0.06668,0.01905 z m -1.814512,0.0762 q 0.03334,0.00953 0.147638,0.1000125 0.119062,0.090487 0.214312,0.1857375 0.09525,0.09525 0.09525,0.13335 0,0.042862 -0.05715,0.104775 -0.05715,0.05715 -0.100012,0.05715 -0.0381,0 -0.09049,-0.061913 -0.161925,-0.1762125 -0.328612,-0.3095625 -0.05715,-0.047625 -0.05715,-0.080963 0,-0.023812 0.02381,-0.061912 0.02381,-0.0381 0.06191,-0.061913 l -0.319088,0.023813 q -0.2286,0.2809875 -0.504825,0.5286375 -0.276225,0.2428875 -0.352425,0.2428875 -0.02858,0 -0.02858,-0.028575 0,-0.047625 0.06191,-0.1143 0.347662,-0.3857625 0.604837,-0.7667625 0.257175,-0.381 0.257175,-0.50958747 l -0.0048,-0.0333375 v -0.0142875 q 0,-0.066675 0.05239,-0.066675 0.06191,0 0.17145,0.085725 0.1143,0.0809625 0.1143,0.13334997 0,0.023813 -0.02381,0.061913 -0.07144,0.1143 -0.157163,0.2286 l 0.676275,-0.052387 q 0.08573,-0.00476 0.180975,-0.0381 0.02858,-0.00953 0.04286,-0.00953 0.07144,0 0.1524,0.080962 0.08573,0.0762 0.08573,0.1190625 0,0.05715 -0.104775,0.066675 z M 11.21889,3.108325 v 0.3571875 l 0.881063,-0.033338 0.0381,-0.3667125 z m -0.0048,-0.5333999 V 2.88925 l 0.947737,-0.047625 0.03334,-0.333375 z"
         style="stroke-width:0.264583"
         id="path18" />
      <path
         d="m 17.129143,3.8989 q 0.0762,-0.023813 0.276225,-0.071437 0.461962,-0.1143 0.62865,-0.1762125 0.05239,-0.01905 0.09525,-0.01905 0.05715,0 0.05715,0.0381 0,0.052388 -0.09049,0.1000125 -0.381,0.2238375 -0.614362,0.32385 -0.13335,0.042863 -0.309563,0.1095375 -0.02858,0.00953 -0.109537,0.0381 -0.08096,0.028575 -0.1143,0.028575 -0.04763,-0.00476 -0.104775,-0.085725 -0.05239,-0.080963 -0.02381,-0.123825 0.02858,-0.033338 0.02858,-0.2524125 l -0.0048,-0.1666875 0.0095,-2.1764624 q 0,-0.1143 -0.01429,-0.1952625 -0.0095,-0.080963 -0.04763,-0.1666875 -0.01429,-0.0381 -0.01429,-0.05715 0,-0.023813 0.03334,-0.023813 0.07144,0 0.333375,0.123825 l 1.35255,-0.090488 0.07144,-0.00476 q 0.06191,0 0.13335,0.042863 0.07144,0.042863 0.07144,0.104775 0,0.028575 -0.01905,0.066675 -0.01905,0.0381 -0.01905,0.052388 l -0.128587,1.0429875 q 0.128587,0.13335 0.128587,0.1905 0,0.023813 -0.02858,0.033338 -0.02858,0.00953 -0.09049,0.014288 l -1.481138,0.061912 z m 2.124075,1.1668125 q -0.538163,0 -1.243013,-0.1190625 -0.70485,-0.1143 -1.6002,-0.295275 l -0.119062,-0.023813 q -0.28575,-0.05715 -0.452438,-0.05715 -0.233362,0 -0.504825,0.085725 -0.04763,0.014288 -0.08096,0.014288 -0.04286,0 -0.07144,-0.028575 -0.02381,-0.023813 -0.0381,-0.071438 -0.01429,-0.047625 -0.01429,-0.104775 0,-0.042863 0.02858,-0.066675 0.03334,-0.028575 0.142875,-0.052388 0.109537,-0.023813 0.333375,-0.042863 0.280987,-0.238125 0.466725,-0.485775 0.0095,-0.01905 0.0095,-0.023813 0,-0.033338 -0.119063,-0.1190625 -0.119062,-0.090488 -0.242887,-0.17145 -0.123825,-0.080963 -0.123825,-0.1857375 0,-0.047625 0.01429,-0.085725 0.01905,-0.042863 0.1143,-0.180975 0.100013,-0.142875 0.2667,-0.3809999 l -0.461962,0.05715 q -0.0381,0.00476 -0.09525,0.00476 -0.09525,0 -0.166688,-0.066675 -0.07144,-0.066675 -0.09525,-0.1571625 -0.0048,-0.00953 -0.0048,-0.028575 0,-0.033338 0.02858,-0.033338 l 0.02858,0.00476 q 0.07144,0.014288 0.142875,0.014288 0.05239,0 0.0762,-0.00476 l 0.738187,-0.0762 0.05239,-0.00476 q 0.05715,0 0.123825,0.052388 0.06668,0.052388 0.06668,0.1095375 0,0.0381 -0.0381,0.0762 -0.0381,0.033337 -0.04763,0.047625 l -0.09049,0.123825 q -0.07144,0.09525 -0.17145,0.2238374 -0.09525,0.1285875 -0.138112,0.1905 -0.04286,0.05715 -0.04286,0.071438 0,0.01905 0.02381,0.033338 0.276225,0.180975 0.381,0.28575 0.104775,0.1000125 0.104775,0.1952625 0,0.071437 -0.08096,0.1857375 -0.08096,0.1095375 -0.3429,0.3286125 0.166688,0.014288 0.32385,0.047625 0.852488,0.1666875 1.643063,0.28575 0.795337,0.1143 1.419225,0.1143 h 0.02381 q 0.109538,0 0.109538,0.042863 0,0.014288 -0.03334,0.080963 Q 19.46753,4.94665 19.41038,5.0038 19.35323,5.0657125 19.27703,5.0657125 Z M 18.405493,3.38455 q 0.409575,0.32385 0.757237,0.6524625 0.04286,0.042863 0.04286,0.080963 0,0.014288 -0.02858,0.061913 -0.02381,0.042862 -0.06668,0.080962 -0.0381,0.0381 -0.08096,0.0381 -0.04763,0 -0.09049,-0.042863 -0.352425,-0.3476625 -0.6858,-0.62865 -0.333375,-0.28575 -0.74295,-0.59055 -0.06191,-0.042863 -0.06191,-0.085725 0,-0.033338 0.03334,-0.090488 0.0381,-0.061912 0.09049,-0.061912 0.08573,0 0.633413,0.4333874 0.300037,-0.1952625 0.414337,-0.314325 0.119063,-0.1238249 0.142875,-0.2238374 0.02381,-0.080962 0.06191,-0.080962 0.0381,0 0.08096,0.052387 0.04763,0.047625 0.08096,0.1095375 0.0381,0.061913 0.0381,0.085725 0,0.080963 -0.214313,0.2428875 -0.20955,0.1571625 -0.404812,0.2809875 z m -1.266825,-1.3811249 -0.0048,0.4143375 1.195388,-0.042863 0.0381,-0.4333875 z m 0,-0.6143625 v 0.3762375 l 1.252537,-0.066675 0.03334,-0.3762375 z m -0.938213,0.6905625 q -0.05239,0 -0.119062,-0.085725 -0.261938,-0.3286125 -0.561975,-0.600075 -0.06668,-0.05715 -0.06668,-0.090487 0,-0.0381 0.05715,-0.085725 0.05715,-0.052388 0.109537,-0.052388 0.05239,0 0.238125,0.161925 0.1905,0.1571625 0.357188,0.3381375 0.166687,0.1762125 0.166687,0.2286 0,0.05715 -0.07144,0.123825 -0.06668,0.061913 -0.109538,0.061913 z"
         style="stroke-width:0.264583"
         id="path20" />
      <path
         d="m 22.091659,1.3128626 q 0,-0.1190625 -0.06191,-0.2143125 -0.01429,-0.023813 -0.01429,-0.042863 0,-0.023813 0.04763,-0.023813 0.0762,0 0.214313,0.042863 0.138112,0.0381 0.138112,0.1285875 l -0.0095,1.31445 1.109662,-0.17145 q 0.104775,-0.014288 0.176213,-0.05715 0.04763,-0.023813 0.06668,-0.023813 0.05715,0 0.142875,0.066675 0.08573,0.061913 0.09049,0.1381125 0,0.080963 -0.119062,0.09525 l -1.46685,0.2333625 -0.0095,1.5287624 q 0,0.161925 0.04286,0.2143125 0.04286,0.052388 0.185738,0.0762 0.2286,0.0381 0.490537,0.0381 0.280988,0 0.576263,-0.047625 0.09049,-0.014288 0.142875,-0.085725 0.05715,-0.0762 0.100012,-0.24765 0.04286,-0.1762125 0.09525,-0.51435 0.01429,-0.1000125 0.0381,-0.1571625 0.02858,-0.05715 0.05715,-0.05715 0.06191,0 0.0762,0.1285875 0.01429,0.123825 0.01429,0.3429 0,0.3095625 -0.02381,0.47625 -0.01905,0.1666875 -0.119062,0.276225 -0.100013,0.1143 -0.314325,0.1381125 -0.333375,0.0381 -0.642938,0.0381 -0.276225,0 -0.557212,-0.028575 Q 22.286922,4.8895 22.177384,4.7752 22.072609,4.6609 22.072609,4.3942 Z M 20.801022,2.5654001 Q 20.567659,2.8702 20.281909,3.1416625 19.996159,3.413125 19.905672,3.413125 q -0.02858,0 -0.02858,-0.028575 0,-0.0381 0.06191,-0.1143 0.276225,-0.32385 0.59055,-0.7810499 0.314325,-0.4572 0.528638,-0.8429625 0.214312,-0.390525 0.214312,-0.523875 l -0.0048,-0.071438 v -0.014288 q 0,-0.047625 0.05239,-0.047625 0.07144,0 0.1905,0.085725 0.119063,0.080963 0.119063,0.13335 0,0.033338 -0.02858,0.085725 -0.271463,0.5334 -0.490538,0.8715375 l -0.0048,2.8574999 q 0,0.1000125 -0.09525,0.1000125 -0.02381,0 -0.09049,-0.023813 -0.06191,-0.01905 -0.119062,-0.066675 -0.05715,-0.042863 -0.05715,-0.1190625 0,-0.028575 0.0048,-0.047625 0.02858,-0.123825 0.02858,-0.2905125 z"
         style="stroke-width:0.264583"
         id="path22" />
      <path
         d="m 26.692225,2.1510626 q 0.1143,-0.1666875 0.314325,-0.5191125 l -1.652587,0.090487 q -0.0381,0.00476 -0.100013,0.00476 -0.109537,0 -0.185737,-0.047625 -0.0762,-0.047625 -0.119063,-0.2047875 -0.0048,-0.00953 -0.0048,-0.023813 0,-0.033338 0.02858,-0.033338 l 0.02381,0.00476 q 0.109538,0.023813 0.214313,0.023813 h 0.04286 l 3.000375,-0.161925 q 0.100013,-0.00953 0.1905,-0.033338 0.02858,-0.00953 0.04763,-0.00953 0.06191,0 0.161925,0.085725 0.104775,0.080962 0.104775,0.1476375 0,0.061913 -0.119062,0.071438 L 27.4066,1.6129001 q -0.233362,0.428625 -0.47625,0.7667625 l 0.0048,2.6669999 q 0,0.061913 -0.02858,0.090488 -0.02858,0.033338 -0.07144,0.033338 -0.04286,0 -0.109537,-0.028575 Q 26.66365,5.1133375 26.616025,5.0561875 26.5684,5.0038 26.5684,4.9323625 q 0,-0.028575 0.0048,-0.042863 Q 26.6065,4.7228125 26.6065,4.60375 V 2.7892376 q -0.3429,0.3905249 -0.74295,0.7048499 -0.395287,0.314325 -0.714375,0.5000625 -0.319087,0.180975 -0.40005,0.180975 -0.04763,0 -0.04763,-0.033338 0,-0.047625 0.09049,-0.1095375 0.638175,-0.447675 1.071562,-0.8810625 0.433388,-0.4333874 0.828675,-1.0001249 z M 28.6639,3.99415 q -0.05239,0 -0.104775,-0.047625 Q 27.8638,3.3655 27.249438,2.994025 27.178,2.9511625 27.178,2.898775 q 0,-0.042863 0.04763,-0.1095374 0.04763,-0.071438 0.104775,-0.071438 0.05239,0 0.490538,0.2857499 0.43815,0.2809875 0.93345,0.6524625 0.0762,0.05715 0.0762,0.1143 0,0.05715 -0.04763,0.142875 Q 28.735338,3.99415 28.6639,3.99415 Z"
         style="stroke-width:0.264583"
         id="path24" />
      <path
         d="m 29.94024,3.2083375 q -0.05239,0.00476 -0.128588,0.00476 -0.09525,0 -0.142875,-0.033338 -0.05239,-0.042863 -0.104775,-0.142875 -0.04763,-0.1000125 -0.04763,-0.13335 0,-0.028575 0.02381,-0.028575 l 0.0381,0.00953 Q 29.664015,2.9083 29.759265,2.9083 l 0.08573,-0.00476 3.376612,-0.1714499 q 0.1143,-0.00953 0.200025,-0.042863 0.0095,-0.00476 0.02857,-0.00476 0.0381,0 0.104775,0.042863 0.07144,0.042863 0.123825,0.104775 0.05239,0.05715 0.05239,0.1047749 0,0.071438 -0.109537,0.080963 z"
         style="stroke-width:0.264583"
         id="path26" />
      <path
         d="m 36.512483,4.441825 q 0.776287,0.2428875 1.8669,0.3095625 0.06668,0.00476 0.09049,0.014288 0.02857,0.014288 0.02857,0.0381 0,0.023813 -0.04286,0.090488 Q 38.417483,4.9657 38.360333,5.02285 38.307945,5.08 38.26032,5.08 l -0.04286,-0.00476 Q 37.450695,5.0038 36.683933,4.784725 q -0.762,-0.2143125 -1.39065,-0.5953125 -0.185738,0.2667 -0.381,0.4810125 -0.1905,0.2143125 -0.338138,0.3381375 -0.147637,0.123825 -0.200025,0.123825 -0.03334,0 -0.03334,-0.033338 0,-0.042863 0.05715,-0.1095375 Q 34.726545,4.613275 34.940858,4.26085 35.159933,3.9036625 35.255183,3.6464875 35.355195,3.38455 35.355195,3.260725 q 0,-0.05715 -0.0048,-0.085725 l -0.0048,-0.023813 q 0,-0.047625 0.04763,-0.047625 0.0762,0 0.185738,0.085725 0.1143,0.080963 0.1143,0.142875 0,0.0381 -0.0762,0.2286 -0.07144,0.1905 -0.1905,0.409575 0.376237,0.2143125 0.790575,0.371475 l 0.01429,-1.5716249 -0.74295,0.042863 q -0.05239,0.00476 -0.138112,0.00476 -0.08096,0 -0.104775,-0.023813 -0.06667,-0.066675 -0.104775,-0.142875 -0.03334,-0.080962 -0.03334,-0.1095375 0,-0.028575 0.03334,-0.028575 l 0.02857,0.00476 q 0.08096,0.01905 0.176212,0.01905 h 0.05239 l 1.709737,-0.090488 q 0.119063,-0.00953 0.200025,-0.028575 0.0095,-0.00476 0.0381,-0.00476 0.05239,0 0.1143,0.042863 0.06191,0.0381 0.104775,0.09525 0.04286,0.052388 0.04286,0.080962 0,0.061913 -0.1143,0.071438 l -0.962025,0.052388 -0.0095,0.6619874 0.633412,-0.028575 q 0.100013,-0.00476 0.200025,-0.0381 0.0381,-0.00953 0.04762,-0.00953 0.05239,0 0.147638,0.080963 0.100012,0.0762 0.100012,0.1381125 0,0.033338 -0.03334,0.052388 -0.03334,0.01905 -0.08096,0.01905 l -1.014412,0.0381 z m 1.54305,-2.9289374 q 0.09525,0 0.166687,0.05715 0.07144,0.05715 0.07144,0.1095375 0,0.033337 -0.0381,0.071437 -0.0381,0.0381 -0.05239,0.061913 -0.157162,0.219075 -0.333375,0.4191 -0.176212,0.1952625 -0.252412,0.1952625 -0.02381,0 -0.02381,-0.028575 0,-0.047625 0.06191,-0.1524 0.13335,-0.2238375 0.214312,-0.4524375 l -2.776537,0.1571625 q -0.261938,0.6905625 -0.366713,0.6905625 -0.04763,0 -0.119062,-0.052387 -0.07144,-0.05715 -0.07144,-0.104775 0,-0.00953 0.0095,-0.0381 0.109538,-0.180975 0.214313,-0.43815 0.104775,-0.2619375 0.180975,-0.5286375 0.02381,-0.071438 0.08096,-0.071438 0.05715,0 0.123825,0.033338 0.06667,0.033338 0.06667,0.080963 0,0.023813 -0.0048,0.0381 -0.01429,0.071438 -0.03334,0.123825 l 1.3716,-0.080963 q -0.409575,-0.32385 -0.59055,-0.447675 -0.03334,-0.023813 -0.04762,-0.042863 -0.01429,-0.01905 -0.01429,-0.042863 0,-0.042863 0.0381,-0.09525 0.04286,-0.05715 0.0762,-0.066675 0.0095,-0.004763 0.02858,-0.004763 0.03334,0 0.0762,0.028575 l 0.08572,0.0523875 q 0.2667,0.16668748 0.428625,0.27622498 0.161925,0.1095375 0.176212,0.1666875 0.0095,0.0381 -0.01429,0.085725 -0.02381,0.042863 -0.06191,0.0762 l 1.285875,-0.0762 z"
         style="stroke-width:0.264583"
         id="path28" />
      <path
         d="m 42.108409,3.6322 q -0.257175,0.4619625 -0.6096,0.7667625 0.538163,0.1762125 1.157288,0.4191 0.06191,0.028575 0.08572,0.052388 0.02858,0.023813 0.02858,0.052388 0,0.047625 -0.04763,0.13335 -0.04762,0.090488 -0.100013,0.090488 -0.02381,0 -0.100012,-0.033338 -0.5715,-0.2714625 -1.285875,-0.5191125 -0.376237,0.2286 -0.8382,0.352425 -0.4572,0.1285875 -1.057275,0.1905 h -0.04286 q -0.05239,0 -0.08096,-0.014288 -0.02381,-0.014288 -0.02381,-0.033338 0,-0.023813 0.03334,-0.047625 0.03334,-0.023813 0.09049,-0.033338 Q 40.308185,4.8133 40.913022,4.48945 40.67966,4.41325 40.289135,4.308475 q -0.02858,-0.00476 -0.09049,-0.014288 -0.05715,-0.00953 -0.09525,-0.0381 -0.0381,-0.028575 -0.05239,-0.104775 -0.0048,-0.01905 -0.0048,-0.047625 0,-0.0381 0.01429,-0.066675 0.01905,-0.033338 0.05715,-0.0762 0.104775,-0.1143 0.214312,-0.2524125 l -1.000125,0.047625 -0.100012,0.00476 q -0.109538,0 -0.1524,-0.047625 -0.09049,-0.1000125 -0.1143,-0.1666875 -0.01429,-0.0381 -0.01429,-0.05715 0,-0.01905 0.02381,-0.01905 0.0048,0 0.05239,0.00953 0.100013,0.028575 0.223838,0.028575 h 0.0381 l 1.252537,-0.05715 q 0.08572,-0.1476375 0.123825,-0.2286 0.0381,-0.080963 0.0381,-0.13335 l -0.0048,-0.042863 q -0.0048,-0.014288 -0.0048,-0.033338 0,-0.033338 0.01905,-0.042863 l -0.661987,0.033338 0.0048,0.042863 v 0.023813 q 0,0.085725 -0.0762,0.085725 -0.06191,0 -0.147637,-0.033338 -0.08096,-0.0381 -0.08096,-0.1476375 v -0.014288 l 0.0048,-0.085725 q 0,-0.1047749 -0.05715,-0.4238624 -0.05715,-0.32385 -0.123825,-0.4572 -0.02857,-0.052388 -0.02857,-0.080963 0,-0.023813 0.0381,-0.023813 0.07144,0 0.328612,0.080963 l 0.614363,-0.033338 -0.03334,-0.4333875 -0.471487,0.028575 q -0.04286,0.00476 -0.119063,0.00476 -0.09525,0 -0.128587,-0.033338 -0.05715,-0.052388 -0.09525,-0.1143 -0.0381,-0.061912 -0.0381,-0.104775 0,-0.028575 0.03334,-0.028575 0.01905,0 0.02858,0.00476 0.08096,0.01905 0.185738,0.01905 h 0.05239 l 2.195512,-0.13335 q 0.109538,-0.00953 0.180975,-0.033338 0.01429,-0.00476 0.0381,-0.00476 0.06667,0 0.17145,0.071438 0.109538,0.071438 0.109538,0.1285875 0,0.028575 -0.0381,0.047625 -0.0381,0.01905 -0.100013,0.023813 l -0.766762,0.047625 -0.03334,0.4429125 0.78105,-0.042863 h 0.02381 q 0.06667,0 0.13335,0.042863 0.07144,0.042863 0.07144,0.104775 0,0.01905 -0.01429,0.042862 -0.0095,0.023813 -0.01429,0.042863 l -0.123825,0.59055 q 0.109538,0.123825 0.109538,0.1762125 0,0.028575 -0.02857,0.0381 -0.02858,0.00953 -0.09049,0.014288 L 40.760622,2.96545 q 0.07144,0.01905 0.166688,0.09525 0.100012,0.0762 0.100012,0.1285875 0,0.01905 -0.0381,0.090488 -0.03334,0.066675 -0.100012,0.1524 l 0.919162,-0.042863 q 0.02381,-0.09525 0.01429,-0.1524 l -0.0048,-0.047625 V 3.175 q 0,-0.01905 0.0095,-0.028575 0.01429,-0.00953 0.02858,-0.00953 0.0762,0 0.185737,0.071438 0.109538,0.066675 0.1143,0.1381125 l -0.0048,0.028575 0.614362,-0.028575 q 0.161925,-0.00953 0.24765,-0.042863 0.0095,-0.00476 0.0381,-0.00476 0.0762,0 0.176213,0.085725 0.100012,0.080963 0.100012,0.1285875 0,0.05715 -0.1143,0.066675 z m -1.423987,0.061913 q -0.200025,0.2667 -0.300037,0.3762375 0.557212,0.1524 0.8001,0.2286 0.328612,-0.2619375 0.561974,-0.6524625 z m 0.995362,-1.5763874 -0.0381,0.561975 0.633413,-0.033338 0.100012,-0.5667375 z m -1.743074,0.09525 0.0762,0.5476875 0.576262,-0.028575 -0.0381,-0.55245 z m 0.881062,-0.047625 0.0381,0.55245 0.509587,-0.023813 0.0381,-0.561975 z m -0.04762,-0.6810375 0.02857,0.43815 0.623887,-0.0381 0.02857,-0.43815 z"
         style="stroke-width:0.264583"
         id="path30" />
      <path
         d="m 46.408936,2.5225376 0.0048,0.090488 v 0.014288 q 0,0.042862 -0.02381,0.071437 -0.01905,0.028575 -0.05715,0.028575 -0.06667,0 -0.142875,-0.05715 -0.07144,-0.05715 -0.07144,-0.1190625 0,-0.023813 0.0048,-0.0381 0.01429,-0.09525 0.01429,-0.1762125 v -0.071438 l -0.02857,-0.8382 q -0.0095,-0.142875 -0.05239,-0.2286 -0.03334,-0.066675 -0.03334,-0.085725 0,-0.028575 0.04286,-0.028575 0.0762,0 0.290513,0.066675 l 1.100137,-0.0762 h 0.0381 q 0.0381,0 0.1143,0.042863 0.08096,0.0381 0.08096,0.1095375 0,0.01905 -0.01429,0.05715 -0.0095,0.0381 -0.0095,0.052387 l -0.01429,3.4718624 q 0,0.0381 0.0048,0.0762 0.0048,0.0381 0.0048,0.071438 0,0.0762 -0.04762,0.13335 -0.04286,0.05715 -0.100013,0.085725 -0.05715,0.033338 -0.08096,0.033338 -0.05239,0 -0.276225,-0.1285875 -0.223838,-0.123825 -0.4191,-0.2667 -0.1905,-0.142875 -0.1905,-0.200025 0,-0.033338 0.05239,-0.033338 0.0381,0 0.128588,0.033338 0.40005,0.1524 0.638175,0.2238375 l 0.0095,-2.3621999 z m -2.328862,2.4860249 q 0.01905,-0.1285875 0.01905,-0.276225 l 0.01429,-3.1908749 q 0,-0.1381125 -0.04762,-0.295275 -0.01429,-0.0381 -0.01429,-0.061913 0,-0.0381 0.04286,-0.0381 0.06191,0 0.28575,0.09525 l 1.004888,-0.0762 0.04762,-0.00476 q 0.05239,0 0.1143,0.052388 0.06668,0.047625 0.06668,0.1000125 0,0.01905 -0.01905,0.05715 -0.01429,0.033338 -0.01429,0.052388 l -0.06668,0.9144 q 0.1143,0.1285875 0.1143,0.1857375 0,0.033338 -0.03334,0.047625 -0.03334,0.00953 -0.100013,0.014288 l -1.095375,0.05715 -0.0048,2.4907874 q 0,0.1095375 -0.08096,0.1095375 -0.06191,0 -0.147637,-0.05715 -0.08572,-0.052388 -0.08572,-0.1476375 z m 2.295525,-0.161925 q 0,0.090488 -0.0762,0.090488 -0.05715,0 -0.142875,-0.05715 -0.08572,-0.052388 -0.08572,-0.1285875 0,-0.033338 0.0048,-0.052388 0.03334,-0.200025 0.03334,-0.3429 V 3.8560375 L 45.599311,3.87985 q -0.05239,0.3190875 -0.200025,0.55245 -0.142875,0.2286 -0.300037,0.352425 -0.1524,0.123825 -0.214313,0.123825 -0.0381,0 -0.0381,-0.033338 0,-0.0381 0.07144,-0.1190625 0.20955,-0.219075 0.300037,-0.47625 0.09525,-0.257175 0.104775,-0.3857625 l -0.300037,0.014288 q -0.05715,0.00476 -0.147638,0.00476 h -0.04762 q -0.100012,-0.00476 -0.161925,-0.0762 -0.06191,-0.071438 -0.08572,-0.1666875 0,-0.028575 0.02857,-0.028575 0.01905,0 0.03334,0.00476 0.08572,0.023813 0.2286,0.023813 h 0.0762 l 0.40005,-0.01905 q 0.01429,-0.17145 0.01429,-0.3429 V 3.1892875 l -0.05715,0.00476 q -0.07144,0.00476 -0.180975,0.00476 -0.04762,0 -0.104775,-0.00953 -0.04763,-0.01905 -0.09049,-0.066675 -0.0381,-0.052387 -0.06191,-0.1000125 -0.01905,-0.047625 -0.02381,-0.066675 0,-0.028575 0.03334,-0.028575 0.01905,0 0.02858,0.00476 0.09049,0.028575 0.252413,0.028575 h 0.06191 l 1.114425,-0.061913 q 0.20955,-0.014288 0.32385,-0.052387 0.01429,-0.00476 0.04286,-0.00476 0.08096,0 0.176212,0.0762 0.09525,0.071438 0.09525,0.1143 0,0.028575 -0.02381,0.047625 -0.01905,0.01905 -0.04763,0.023812 l -0.528638,0.028575 v 0.47625 l 0.17145,-0.00953 q 0.185738,-0.00476 0.347663,-0.05715 0.02857,-0.00953 0.04286,-0.00953 0.0762,0 0.17145,0.080963 0.09525,0.080963 0.09525,0.1285875 0,0.052388 -0.0762,0.061913 l -0.752475,0.0381 z m 0.01905,-2.8813124 0.0095,0.333375 0.97155,-0.05715 0.0048,-0.3381375 z m -0.01905,-0.5572125 0.0095,0.314325 0.995362,-0.05715 v -0.32385 z m -1.976438,0.6334125 v 0.36195 l 0.85725,-0.047625 0.01905,-0.36195 z m 0,-0.542925 v 0.314325 l 0.890588,-0.052388 0.01905,-0.3286125 z M 45.656461,3.175 q -0.0095,0.219075 -0.02858,0.466725 l 0.47625,-0.023813 V 3.146425 Z"
         style="stroke-width:0.264583"
         id="path32" />
      <path
         d="m 50.804717,1.8034001 q -0.05239,0.8239125 -0.47625,1.7144999 -0.4191,0.885825 -1.443037,1.5573375 -0.0762,0.052388 -0.13335,0.052388 -0.04762,0 -0.04762,-0.0381 0,-0.05715 0.09525,-0.1381125 0.623887,-0.5476875 0.976312,-1.1096625 0.357187,-0.561975 0.4953,-1.0429874 0.138112,-0.4810125 0.195262,-0.9763125 l -0.933449,0.05715 q -0.104775,0.00953 -0.138113,0.00953 -0.07144,0 -0.109537,-0.023813 -0.104775,-0.080963 -0.157163,-0.2047875 l -0.0095,-0.0381 q 0,-0.033338 0.0381,-0.033338 0.02381,0 0.03334,0.00476 0.07144,0.01905 0.161925,0.01905 l 0.08096,-0.00476 2.6289,-0.1666875 0.07144,-0.00476 q 0.06191,0 0.142875,0.05715 0.08096,0.052388 0.08096,0.1285875 0,0.028575 -0.01905,0.071438 -0.01429,0.0381 -0.01429,0.052387 -0.01429,1.6906874 -0.271462,2.8813124 -0.05715,0.2428875 -0.123825,0.3762375 -0.06667,0.13335 -0.219075,0.13335 -0.128588,0 -0.40005,-0.1857375 -0.271463,-0.180975 -0.509588,-0.40005 -0.233362,-0.219075 -0.233362,-0.2809875 0,-0.033338 0.04286,-0.033338 0.05239,0 0.13335,0.047625 0.371475,0.2238375 0.6096,0.333375 0.242888,0.1095375 0.276225,0.1095375 0.02858,0 0.0381,-0.033338 0.166688,-0.59055 0.252413,-1.35255 0.08572,-0.7619999 0.08572,-1.6144874 z"
         style="stroke-width:0.264583"
         id="path34" />
    </g>
  </g>
</svg>
