<?xml version="1.0" encoding="UTF-8" standalone="no"?>
<svg
   xmlns:dc="http://purl.org/dc/elements/1.1/"
   xmlns:cc="http://creativecommons.org/ns#"
   xmlns:rdf="http://www.w3.org/1999/02/22-rdf-syntax-ns#"
   xmlns:svg="http://www.w3.org/2000/svg"
   xmlns="http://www.w3.org/2000/svg"
   xmlns:sodipodi="http://sodipodi.sourceforge.net/DTD/sodipodi-0.dtd"
   xmlns:inkscape="http://www.inkscape.org/namespaces/inkscape"
   width="72"
   height="24"
   viewBox="0 0 19.049999 6.3500001"
   version="1.1"
   id="svg8"
   inkscape:version="1.0.1 (3bc2e813f5, 2020-09-07)"
   sodipodi:docname="privacy.svg">
  <defs
     id="defs2" />
  <sodipodi:namedview
     id="base"
     pagecolor="#000000"
     bordercolor="#666666"
     borderopacity="1.0"
     inkscape:pageopacity="0"
     inkscape:pageshadow="2"
     inkscape:zoom="2"
     inkscape:cx="139.3378"
     inkscape:cy="22.857145"
     inkscape:document-units="px"
     inkscape:current-layer="layer1"
     inkscape:document-rotation="0"
     showgrid="false"
     units="px"
     fit-margin-top="0"
     fit-margin-left="0"
     fit-margin-right="0"
     fit-margin-bottom="0"
     inkscape:window-width="1080"
     inkscape:window-height="658"
     inkscape:window-x="-6"
     inkscape:window-y="-6"
     inkscape:window-maximized="1" />
  <metadata
     id="metadata5">
    <rdf:RDF>
      <cc:Work
         rdf:about="">
        <dc:format>image/svg+xml</dc:format>
        <dc:type
           rdf:resource="http://purl.org/dc/dcmitype/StillImage" />
        <dc:title></dc:title>
      </cc:Work>
    </rdf:RDF>
  </metadata>
  <g
     inkscape:label="Layer 1"
     inkscape:groupmode="layer"
     id="layer1"
     transform="translate(-34.017857,-68.035713)">
    <g
       id="g33">
      <rect
         style="fill:#ffffff;fill-opacity:1;stroke-width:0.212196"
         id="rect10"
         width="19.049999"
         height="6.3499999"
         x="34.017857"
         y="68.035713" />
      <g
         aria-label="隱私聲明"
         id="text18"
         style="font-size:4.23333px;line-height:1.25;font-family:Iansui;-inkscape-font-specification:'Iansui, Normal';word-spacing:0px;stroke-width:0.264583">
        <path
           d="m 35.67311,69.892032 q 0,-0.1778 -0.03387,-0.270933 -0.02963,-0.0762 -0.02963,-0.09737 0,-0.03387 0.03387,-0.03387 0.05503,0 0.325966,0.114299 l 0.563033,-0.0508 0.05927,-0.0042 q 0.0508,0 0.1143,0.04233 0.06773,0.0381 0.06773,0.0889 0,0.0254 -0.0254,0.05503 -0.0254,0.02963 -0.0381,0.0508 -0.160867,0.317499 -0.359833,0.596899 -0.0085,0.01693 -0.0085,0.0254 0,0.0254 0.0127,0.0381 0.160867,0.173567 0.2413,0.338666 0.08043,0.1651 0.08043,0.436033 0,0.224367 -0.07197,0.2921 -0.07197,0.0635 -0.135466,0.0635 -0.0762,0 -0.207433,-0.0889 -0.127,-0.0889 -0.2286,-0.2032 -0.09737,-0.1143 -0.09737,-0.173566 0,-0.0254 0.0254,-0.0254 0.0381,0 0.09737,0.04233 0.08467,0.05503 0.194733,0.105833 0.1143,0.0508 0.143933,0.0508 0.01693,0 0.02117,-0.03387 0.0042,-0.03387 0.0042,-0.07197 0,-0.220133 -0.06773,-0.351366 -0.0635,-0.135467 -0.194733,-0.287867 -0.05503,-0.06773 -0.05503,-0.127 0,-0.05503 0.04233,-0.118533 0.148166,-0.2159 0.287866,-0.512233 l -0.503766,0.04233 -0.04233,3.111497 q 0,0.05503 -0.02117,0.0889 -0.01693,0.03387 -0.05503,0.03387 -0.05503,0 -0.131233,-0.05927 -0.0762,-0.05927 -0.0762,-0.1143 0,-0.02963 0.0042,-0.04657 0.02963,-0.160866 0.02963,-0.334433 l 0.03387,-2.497664 z m 1.523999,2.053165 q -0.08467,0 -0.1143,-0.0254 -0.0635,-0.0635 -0.0889,-0.169333 0,-0.0085 0.0127,-0.0085 l 0.0254,0.0042 q 0.08467,0.0127 0.143933,0.0127 l 0.06773,-0.0042 1.185333,-0.05503 0.02117,-0.1905 -1.481665,0.08043 h -0.07197 q -0.05927,0 -0.08467,-0.0127 -0.02117,-0.01693 -0.06773,-0.0762 -0.0085,-0.0127 -0.0254,-0.04233 -0.0127,-0.03387 -0.0127,-0.05927 0,-0.0085 0.0127,-0.0085 l 0.04233,0.0042 q 0.0762,0.0085 0.105833,0.0085 l 0.07197,-0.0042 1.536699,-0.0762 0.02117,-0.173566 -1.206499,0.06773 h -0.0762 q -0.07197,0 -0.1143,-0.0254 -0.0381,-0.0254 -0.08043,-0.131233 l -0.0085,-0.03387 q 0,-0.0085 0.0127,-0.0085 0.02117,0 0.0381,0.0042 0.07197,0.0127 0.135467,0.0127 l 0.06773,-0.0042 1.312332,-0.07197 0.0508,-0.0042 q 0.03387,0 0.09313,0.0381 0.05927,0.03387 0.05927,0.08043 0,0.01693 -0.0127,0.03387 -0.0085,0.01693 -0.0127,0.02963 l -0.02963,0.173566 0.05503,-0.0042 q 0.06773,-0.0042 0.143933,-0.0254 0.04233,-0.0085 0.05503,-0.0085 0.0508,0 0.09313,0.04657 0.0762,0.0762 0.0762,0.1143 0,0.0254 -0.02963,0.03387 -0.0254,0.0085 -0.08043,0.0127 l -0.347133,0.01693 -0.03387,0.1905 q 0.105834,0.110066 0.105834,0.1524 0,0.02117 -0.0254,0.02963 -0.02117,0.0042 -0.08467,0.0085 l -1.380065,0.06773 z m -0.207434,-1.066799 q -0.0889,0 -0.131233,-0.0254 -0.0381,-0.0254 -0.08467,-0.127 -0.0127,-0.02117 -0.0127,-0.02963 0,-0.02117 0.02963,-0.02117 0.02117,0 0.03387,0.0042 0.0762,0.0127 0.143933,0.0127 h 0.04657 l 0.702733,-0.03387 -0.0042,-0.2032 -0.347133,0.02117 q -0.0381,0.0042 -0.1016,0.0042 -0.08043,0 -0.105833,-0.0254 -0.0254,-0.02117 -0.0635,-0.0762 -0.0381,-0.05503 -0.0381,-0.08043 0,-0.0127 0.02117,-0.0127 0.0254,0 0.04233,0.0042 0.07197,0.0127 0.148166,0.0127 h 0.04657 l 0.901699,-0.0635 q 0.0762,-0.0042 0.148167,-0.0254 0.0381,-0.0127 0.06773,-0.0127 0.04233,0 0.08043,0.03387 0.04233,0.02963 0.06773,0.06773 0.02963,0.0381 0.02963,0.0508 0,0.0381 -0.110067,0.04657 l -0.546099,0.0381 -0.0042,0.207434 0.5969,-0.02963 q 0.08043,-0.0042 0.143933,-0.02963 0.03387,-0.0085 0.04657,-0.0085 0.05927,0 0.127,0.0635 0.06773,0.05927 0.06773,0.09313 0,0.04233 -0.118533,0.0508 l -1.761066,0.09313 z m 1.536699,1.816098 q -0.0635,-0.122766 -0.127,-0.258233 -0.05927,-0.1397 -0.05927,-0.1905 0,-0.0381 0.0254,-0.0381 0.04657,0 0.135466,0.1143 0.1651,0.220133 0.283633,0.3175 0.0889,0.0762 0.0889,0.131233 0,0.127 -0.1905,0.160867 -0.190499,0.0381 -0.440266,0.0381 -0.351366,0 -0.596899,-0.09313 -0.186267,-0.06773 -0.3048,-0.207433 -0.1143,-0.143933 -0.169333,-0.270933 -0.0508,-0.131233 -0.0508,-0.156633 0,-0.04233 0.08467,-0.07197 0.0381,-0.0127 0.0635,-0.0127 0.03387,0 0.0508,0.02117 0.02117,0.01693 0.03387,0.05927 0.110066,0.279399 0.313266,0.389466 0.2032,0.110066 0.5715,0.110066 0.1016,0 0.270933,-0.01693 0.02117,0 0.02117,-0.01693 z m 0.626533,-0.0762 q -0.0381,0 -0.0889,-0.05927 -0.2413,-0.283633 -0.4572,-0.436033 -0.05927,-0.0381 -0.05927,-0.07197 0,-0.02963 0.04657,-0.0762 0.0508,-0.0508 0.08467,-0.0508 0.0381,0 0.1905,0.1143 0.156633,0.110067 0.2921,0.237067 0.135466,0.126999 0.135466,0.177799 0,0.04657 -0.05503,0.105834 -0.0508,0.05927 -0.0889,0.05927 z m -2.455331,0.143933 q -0.0381,0.06773 -0.0889,0.06773 -0.0381,0 -0.105833,-0.0381 -0.0635,-0.03387 -0.0635,-0.08043 0,-0.0254 0.03387,-0.08043 0.0889,-0.1397 0.148167,-0.262466 0.0635,-0.122767 0.110066,-0.283633 0.0127,-0.04233 0.02963,-0.05927 0.01693,-0.01693 0.0508,-0.01693 0.04233,0 0.09737,0.02117 0.05927,0.01693 0.05927,0.07197 -0.0042,0.02117 -0.02963,0.110067 -0.02117,0.08467 -0.08043,0.232833 -0.05927,0.143933 -0.160866,0.317499 z m 1.447798,-0.334433 q -0.05927,0.07197 -0.101599,0.07197 -0.04233,0 -0.09313,-0.0635 -0.1016,-0.118533 -0.309033,-0.287866 -0.0042,-0.0042 -0.02963,-0.0254 -0.0254,-0.02117 -0.0254,-0.04233 0,-0.02963 0.04657,-0.07197 0.04657,-0.04657 0.08467,-0.04657 0.02963,0 0.148167,0.08467 0.118533,0.08043 0.2159,0.173566 0.101599,0.09313 0.101599,0.131233 0,0.02963 -0.0381,0.0762 z m -1.062565,-2.650064 q -0.06773,0 -0.1016,-0.0127 -0.03387,-0.0127 -0.03387,-0.03387 0,-0.0508 0.156633,-0.0762 0.503767,-0.0762 0.897466,-0.177799 0.397933,-0.1016 0.4699,-0.182034 0.0127,-0.02117 0.03387,-0.02117 0.04233,0 0.101599,0.1016 0.0635,0.09737 0.0635,0.135466 0,0.02963 -0.02117,0.04233 -0.02117,0.0085 -0.06773,0.01693 -0.452966,0.1016 -0.787399,0.156633 -0.3302,0.0508 -0.660399,0.0508 z m 0.372533,0.3937 q 0,0.0254 -0.04657,0.07197 -0.04657,0.04657 -0.08043,0.04657 -0.03387,0 -0.0762,-0.05503 -0.105833,-0.143934 -0.211667,-0.245534 -0.05503,-0.05503 -0.05503,-0.08043 0,-0.02963 0.03387,-0.0635 0.0381,-0.0381 0.07197,-0.0381 0.0381,0 0.122767,0.0762 0.0889,0.0762 0.1651,0.1651 0.0762,0.0889 0.0762,0.122767 z m 0.567266,-0.02963 q 0,0.04233 -0.05927,0.07197 -0.05503,0.0254 -0.09313,0.0254 -0.0254,0 -0.0381,-0.01693 -0.0127,-0.01693 -0.0254,-0.05927 -0.04657,-0.156633 -0.110066,-0.275166 -0.02117,-0.03387 -0.02117,-0.05927 0,-0.03387 0.0508,-0.05927 0.0508,-0.0254 0.0762,-0.0254 0.04233,0 0.09313,0.0889 0.0508,0.08467 0.08467,0.182033 0.03387,0.09313 0.04233,0.127 z m 0.711199,-0.330199 q 0,0.02963 -0.118533,0.135466 -0.1143,0.105833 -0.249766,0.194733 -0.131234,0.0889 -0.1905,0.0889 -0.02963,0 -0.02963,-0.02117 0,-0.02963 0.04657,-0.0762 0.3048,-0.3175 0.3048,-0.448733 0,-0.05503 0.04233,-0.05503 0.0508,0 0.122767,0.07197 0.07197,0.07197 0.07197,0.110067 z"
           style="stroke-width:0.264583"
           id="path18" />
        <path
           d="m 40.731931,70.992698 q 0.04657,-0.04233 0.0889,-0.04233 0.04657,0 0.2159,0.156633 0.173566,0.1524 0.325966,0.325967 0.156633,0.173566 0.156633,0.2159 0,0.05503 -0.07197,0.110066 -0.05927,0.05503 -0.1016,0.05503 -0.0254,0 -0.04657,-0.01693 -0.02117,-0.01693 -0.0508,-0.05927 -0.211666,-0.275167 -0.516466,-0.575733 v 1.799165 q 0,0.09737 -0.08467,0.09737 -0.0889,-0.0085 -0.1524,-0.0508 -0.05927,-0.04233 -0.05927,-0.118534 0,-0.0254 0.0042,-0.04233 0.02117,-0.122767 0.02117,-0.275166 0,-0.7112 0.0085,-1.117599 0.0042,-0.122767 0.02117,-0.334434 -0.0762,0.211667 -0.275166,0.503767 -0.194734,0.292099 -0.3937,0.507999 -0.198967,0.211667 -0.275166,0.211667 -0.02963,0 -0.02963,-0.02963 0,-0.04233 0.0508,-0.110066 0.503766,-0.6731 0.833966,-1.422399 l -0.423333,0.04233 q -0.118533,0.0085 -0.143933,0.0085 -0.07197,0 -0.09737,-0.0254 -0.03387,-0.0381 -0.08043,-0.09313 -0.04657,-0.05927 -0.04657,-0.105833 0,-0.02963 0.02963,-0.02963 0.01693,0 0.0254,0.0042 0.07197,0.01693 0.173566,0.01693 h 0.04657 l 0.588433,-0.05503 0.0042,-0.5334 q -0.2413,0.0762 -0.452966,0.122767 -0.211667,0.04657 -0.258233,0.04657 -0.05927,0 -0.05927,-0.03387 0,-0.0381 0.08043,-0.06773 0.613833,-0.228599 1.198033,-0.579966 0.06773,-0.04657 0.105833,-0.122766 0.02117,-0.04233 0.04657,-0.04233 0.0254,0 0.0762,0.05503 0.05503,0.0508 0.09313,0.122766 0.04233,0.06773 0.04233,0.110067 0,0.02963 -0.02117,0.04233 -0.309033,0.1524 -0.596899,0.262466 v 0.5969 l 0.325966,-0.0254 q 0.1016,-0.0085 0.194733,-0.0381 0.0254,-0.0085 0.03387,-0.0085 0.04233,0 0.135467,0.07197 0.09313,0.06773 0.09313,0.118533 0,0.0254 -0.0254,0.04233 -0.0254,0.0127 -0.0635,0.01693 l -0.694266,0.05503 z m 1.405465,-1.176866 q 0,-0.0762 -0.02117,-0.127 -0.0085,-0.03387 -0.0085,-0.04233 0,-0.0254 0.02963,-0.0254 0.0381,0 0.1143,0.02963 0.08043,0.02963 0.1397,0.08043 0.05927,0.04657 0.05927,0.110067 0,0.04233 -0.127,0.499533 -0.127,0.457199 -0.309033,1.037166 -0.1778,0.575732 -0.347133,1.024465 0.186266,-0.03387 0.448733,-0.1016 0.266699,-0.06773 0.516466,-0.139699 l 0.220133,-0.05927 q -0.1524,-0.3429 -0.300566,-0.634999 -0.04233,-0.08467 -0.04233,-0.118534 0,-0.04233 0.06773,-0.08043 0.06773,-0.0381 0.110066,-0.0381 0.0254,0 0.04233,0.01693 0.01693,0.01693 0.0381,0.05927 0.254,0.486833 0.448733,0.922866 0.198967,0.4318 0.198967,0.499533 0,0.05927 -0.08043,0.105833 -0.0762,0.0508 -0.127,0.0508 -0.03387,0 -0.0508,-0.0254 -0.01693,-0.02117 -0.0381,-0.08043 -0.122767,-0.325967 -0.173567,-0.4445 -0.808566,0.220133 -1.104899,0.2794 -0.0508,0.0127 -0.186266,0.05927 -0.105833,0.0381 -0.131233,0.0381 -0.0508,0 -0.1143,-0.09737 -0.0635,-0.09737 -0.0635,-0.169333 0,-0.03387 0.0085,-0.0508 0.0127,-0.02117 0.0381,-0.04657 0.03387,-0.0254 0.04657,-0.04657 0.0127,-0.0254 0.02963,-0.0889 l 0.05503,-0.1524 q 0.266699,-0.757766 0.440266,-1.422399 0.173566,-0.664633 0.173566,-0.821266 z"
           style="stroke-width:0.264583"
           id="path20" />
        <path
           d="m 44.45302,71.077364 q -0.07197,0.300567 -0.2159,0.4953 -0.143933,0.1905 -0.2794,0.2794 -0.135467,0.0889 -0.173566,0.0889 -0.02117,0 -0.02117,-0.01693 0,-0.02963 0.07197,-0.110066 0.452967,-0.4826 0.452967,-1.206499 v -0.0254 q 0,-0.1016 -0.03387,-0.169334 -0.01693,-0.04233 -0.01693,-0.0508 0,-0.0254 0.0381,-0.0254 0.06773,0 0.249766,0.05927 l 0.973666,-0.06773 h 0.0508 q 0.0762,0 0.127,0.04657 0.05503,0.04233 0.05503,0.08043 0,0.02117 -0.0127,0.04657 -0.0127,0.02117 -0.01693,0.0381 l -0.04657,0.283633 q 0.0889,0.105834 0.0889,0.148167 0,0.0254 -0.0254,0.03387 -0.0254,0.0042 -0.09737,0.0085 z m 1.625598,-0.647699 q -0.0381,0.0042 -0.09737,0.0042 -0.0762,0 -0.09737,-0.02117 -0.07197,-0.05503 -0.0889,-0.118533 -0.0127,-0.03387 -0.0127,-0.04657 0,-0.01693 0.02117,-0.01693 0.02117,0 0.03387,0.0042 0.0508,0.0085 0.0762,0.0085 l 0.08467,-0.0042 0.939799,-0.0508 h 0.05503 q 0.05927,0 0.118534,0.0381 0.0635,0.03387 0.0635,0.0762 0,0.01693 -0.0762,0.1143 -0.0762,0.09313 -0.186267,0.211666 -0.110066,0.1143 -0.224366,0.198967 0.321733,0.122766 0.884766,0.245533 0.08467,0.01693 0.08467,0.0508 -0.0042,0.01693 -0.02963,0.05503 -0.0254,0.0381 -0.06773,0.0762 -0.0381,0.03387 -0.08467,0.03387 -0.02117,0 -0.194733,-0.04233 -0.169333,-0.04657 -0.389466,-0.118533 -0.220134,-0.07197 -0.4191,-0.160866 -0.194733,0.105833 -0.385233,0.169333 -0.186267,0.0635 -0.313266,0.0889 -0.127,0.02117 -0.1524,0.02117 -0.06773,0 -0.06773,-0.02963 0,-0.04233 0.1143,-0.08043 0.3175,-0.110067 0.601133,-0.270933 -0.3429,-0.198967 -0.3429,-0.254 0,-0.0381 0.0381,-0.08467 0.0381,-0.04657 0.0762,-0.04657 0.02963,0 0.0762,0.03387 0.173567,0.127 0.3556,0.2159 0.232833,-0.1651 0.351366,-0.347133 z m -1.456265,-0.2286 q -0.09313,0.0085 -0.1143,0.0085 -0.07197,0 -0.135467,-0.0635 -0.05927,-0.0635 -0.05927,-0.122767 0,-0.0254 0.0254,-0.0254 0.01693,0 0.0254,0.0042 0.0635,0.0127 0.1397,0.0127 h 0.05927 l 0.2921,-0.02117 0.0042,-0.211667 -0.423333,0.02963 q -0.09313,0.0085 -0.1143,0.0085 -0.07197,0 -0.135466,-0.0635 -0.05927,-0.0635 -0.05927,-0.122766 0,-0.0254 0.0254,-0.0254 0.01693,0 0.0254,0.0042 0.0635,0.0127 0.1397,0.0127 h 0.05927 l 0.486833,-0.02963 v -0.127 q 0,-0.1016 -0.05927,-0.1905 -0.0127,-0.02117 -0.0127,-0.02963 0,-0.02963 0.05927,-0.02963 0.05503,0 0.156633,0.02963 0.1016,0.0254 0.1016,0.09737 v 0.02117 l -0.0085,0.211666 0.321733,-0.02117 q 0.08467,-0.0042 0.1524,-0.03387 0.01693,-0.0085 0.02963,-0.0085 0.0381,0 0.122767,0.0635 0.0889,0.05927 0.0889,0.1016 0,0.0381 -0.0889,0.04657 l -0.630766,0.04233 -0.0085,0.211667 0.1651,-0.0127 q 0.08467,-0.0042 0.1524,-0.03387 0.01693,-0.0085 0.02963,-0.0085 0.0381,0 0.122767,0.0635 0.0889,0.05927 0.0889,0.1016 0,0.0381 -0.0889,0.04657 z m 2.417231,-0.300566 q 0.08043,0 0.182033,-0.03387 0.0085,-0.0042 0.03387,-0.0042 0.05927,0 0.135466,0.0508 0.0762,0.04657 0.08043,0.0889 0,0.04233 -0.09737,0.05927 -0.1905,0.02963 -0.283633,0.03387 -0.03387,0.0042 -0.09313,0.0042 -0.1905,0 -0.2794,-0.04657 -0.0889,-0.04657 -0.0889,-0.198966 v -0.0127 l 0.0085,-0.2667 -0.385233,0.02963 q 0,0.169334 -0.04233,0.2794 -0.04233,0.118533 -0.148166,0.194733 -0.105833,0.0762 -0.211667,0.1143 -0.105833,0.03387 -0.148166,0.03387 -0.0381,0 -0.0381,-0.01693 0,-0.02963 0.08043,-0.08467 0.2667,-0.1778 0.2667,-0.465666 0,-0.1651 -0.04233,-0.232833 -0.02117,-0.03387 -0.02117,-0.05503 0,-0.02963 0.04657,-0.02963 0.0762,0 0.258233,0.06773 l 0.427566,-0.03387 0.05927,-0.0042 q 0.0508,0 0.09737,0.03387 0.0508,0.03387 0.0508,0.0889 0,0.01693 -0.0085,0.0381 -0.0085,0.01693 -0.0085,0.03387 l -0.0085,0.262467 q 0,0.03387 0.0254,0.05503 0.02963,0.01693 0.110067,0.01693 z m -1.896532,1.968498 v 0.1905 l 1.092199,-0.04657 v -0.194733 z m 0.0042,-0.3302 -0.0042,0.1651 1.092199,-0.05503 v -0.1651 z m -0.05927,-0.990599 -0.0042,0.3048 0.351366,-0.02117 0.02963,-0.309033 z m -0.558799,0.0381 q -0.0085,0.127 -0.03387,0.300566 l 0.3683,-0.02117 0.0042,-0.300567 z m -0.414867,2.074332 q -0.1397,0 -0.186266,-0.07197 -0.04657,-0.0762 -0.04657,-0.122767 0,-0.02117 0.02117,-0.02117 0.02117,0 0.02963,0.0042 0.09737,0.02117 0.1905,0.02117 h 0.04657 l 0.740832,-0.03387 0.0085,-0.888999 -0.2159,0.0127 q -0.0381,0.0042 -0.09737,0.0042 -0.0508,0 -0.07197,-0.0085 -0.01693,-0.0127 -0.07197,-0.06773 -0.02963,-0.0381 -0.0508,-0.0889 l -0.0085,-0.0381 q 0,-0.01693 0.02117,-0.01693 l 0.0254,0.0042 q 0.09313,0.02117 0.1524,0.02117 h 0.03387 l 2.074331,-0.105833 q 0.08043,-0.0042 0.148167,-0.03387 0.01693,-0.0085 0.03387,-0.0085 0.0508,0 0.122766,0.07197 0.0762,0.07197 0.0762,0.105833 0,0.0381 -0.09313,0.04657 l -0.529166,0.0254 0.0085,0.893232 0.7239,-0.03387 q 0.148166,-0.0085 0.237066,-0.02963 0.01693,-0.0042 0.04233,-0.0042 0.05503,0 0.1143,0.05927 0.05927,0.05927 0.05927,0.105833 0,0.0508 -0.0762,0.0508 h -0.0127 l -1.087966,0.04657 0.0042,0.558799 q 0,0.08467 -0.07197,0.08467 -0.05927,0 -0.131233,-0.04233 -0.06773,-0.0381 -0.06773,-0.110066 0,-0.02963 0.0042,-0.04657 0.02117,-0.110066 0.02117,-0.249766 V 72.57173 l -2.036231,0.0889 z m 2.120898,-0.283634 V 72.17803 l -1.092199,0.04657 -0.0042,0.198966 z"
           style="stroke-width:0.264583"
           id="path22" />
        <path
           d="m 50.155306,71.602297 q -0.09737,0.491066 -0.304799,0.808566 -0.207434,0.3175 -0.537633,0.588433 l -0.02117,0.01693 q -0.08467,0.05927 -0.118533,0.05927 -0.02963,0 -0.02963,-0.02963 0,-0.04233 0.07197,-0.127 0.313266,-0.364067 0.474133,-0.706966 0.160867,-0.3429 0.220133,-0.7366 0.05927,-0.393699 0.05927,-0.977899 0,-0.4826 -0.0127,-0.643466 -0.0127,-0.160867 -0.03387,-0.207433 -0.02117,-0.04233 -0.02117,-0.07197 0,-0.03387 0.04233,-0.03387 0.08043,0 0.309033,0.1143 l 0.999066,-0.07197 h 0.0381 q 0.0635,0 0.105833,0.02963 0.04233,0.02963 0.0635,0.06773 0.02117,0.0381 0.02117,0.05503 0,0.01693 -0.0127,0.04657 -0.0127,0.02963 -0.0127,0.04233 l 0.02117,2.916764 0.0042,0.143933 q 0,0.105833 -0.04657,0.1651 -0.04233,0.05927 -0.09313,0.0762 -0.0508,0.02117 -0.0762,0.02117 -0.08043,0 -0.262467,-0.131233 -0.1778,-0.131233 -0.338666,-0.287866 -0.156633,-0.156633 -0.156633,-0.198967 0,-0.02117 0.02963,-0.02117 0.0508,0 0.143933,0.0508 0.118533,0.0635 0.249767,0.126999 0.131233,0.0635 0.266699,0.1143 l -0.0085,-1.248832 z m -1.523998,0.6477 v 0.02117 q 0,0.09313 -0.05927,0.09313 -0.0635,0 -0.148167,-0.04657 -0.08043,-0.0508 -0.08043,-0.127 0,-0.02963 0.0042,-0.04657 0.02117,-0.118533 0.02117,-0.224366 v -0.04233 l -0.04233,-1.833032 q -0.0042,-0.131234 -0.04657,-0.237067 -0.01693,-0.0508 -0.01693,-0.05503 0,-0.0254 0.03387,-0.0254 0.05927,0 0.262467,0.07197 l 0.825499,-0.06773 q 0.01693,-0.0042 0.0508,-0.0042 0.08043,0 0.122767,0.0508 0.04657,0.0508 0.04657,0.0889 0,0.02117 -0.0127,0.0508 -0.0085,0.02963 -0.0127,0.0508 l -0.07197,1.777998 q 0.131233,0.131234 0.131233,0.186267 0,0.02963 -0.02963,0.0381 -0.02963,0.0042 -0.1016,0.0085 l -0.880533,0.0254 z m 1.608665,-1.494366 q -0.0042,0.118533 -0.03387,0.4699 l -0.0127,0.148166 0.994833,-0.0508 -0.0042,-0.622299 z m 0.0042,-0.859366 q 0.0042,0.232833 0.0042,0.635 l 0.935566,-0.05927 -0.0042,-0.639233 z m -1.642532,1.087966 0.01693,0.787399 0.639232,-0.01693 0.02117,-0.808566 z m -0.02117,-0.948266 0.01693,0.723899 0.685799,-0.0381 0.01693,-0.753532 z"
           style="stroke-width:0.264583"
           id="path24" />
      </g>
    </g>
  </g>
</svg>
