<?xml version="1.0" encoding="UTF-8" standalone="no"?>
<svg
   xmlns:dc="http://purl.org/dc/elements/1.1/"
   xmlns:cc="http://creativecommons.org/ns#"
   xmlns:rdf="http://www.w3.org/1999/02/22-rdf-syntax-ns#"
   xmlns:svg="http://www.w3.org/2000/svg"
   xmlns="http://www.w3.org/2000/svg"
   xmlns:sodipodi="http://sodipodi.sourceforge.net/DTD/sodipodi-0.dtd"
   xmlns:inkscape="http://www.inkscape.org/namespaces/inkscape"
   width="88"
   height="24"
   viewBox="0 0 23.283333 6.3500002"
   version="1.1"
   id="svg8"
   inkscape:version="1.0.1 (3bc2e813f5, 2020-09-07)"
   sodipodi:docname="privacy.svg">
  <defs
     id="defs2" />
  <sodipodi:namedview
     id="base"
     pagecolor="#000000"
     bordercolor="#666666"
     borderopacity="1.0"
     inkscape:pageopacity="0"
     inkscape:pageshadow="2"
     inkscape:zoom="2"
     inkscape:cx="139.3378"
     inkscape:cy="22.857147"
     inkscape:document-units="px"
     inkscape:current-layer="layer1"
     inkscape:document-rotation="0"
     showgrid="false"
     units="px"
     fit-margin-top="0"
     fit-margin-left="0"
     fit-margin-right="0"
     fit-margin-bottom="0"
     inkscape:window-width="1080"
     inkscape:window-height="658"
     inkscape:window-x="-6"
     inkscape:window-y="-6"
     inkscape:window-maximized="1" />
  <metadata
     id="metadata5">
    <rdf:RDF>
      <cc:Work
         rdf:about="">
        <dc:format>image/svg+xml</dc:format>
        <dc:type
           rdf:resource="http://purl.org/dc/dcmitype/StillImage" />
        <dc:title></dc:title>
      </cc:Work>
    </rdf:RDF>
  </metadata>
  <g
     inkscape:label="Layer 1"
     inkscape:groupmode="layer"
     id="layer1"
     transform="translate(-34.017857,-68.035713)">
    <g
       id="g36">
      <rect
         style="fill:#ffffff;fill-opacity:1;stroke-width:0.234592"
         id="rect10"
         width="23.283333"
         height="6.3499999"
         x="34.017857"
         y="68.035713" />
      <g
         aria-label="隱私權政策"
         id="text18"
         style="font-size:4.23333px;line-height:1.25;font-family:Iansui;-inkscape-font-specification:'Iansui, Normal';word-spacing:0px;stroke-width:0.264583">
        <path
           d="m 35.44028,69.921664 q 0,-0.177799 -0.03387,-0.270933 -0.02963,-0.0762 -0.02963,-0.09737 0,-0.03387 0.03387,-0.03387 0.05503,0 0.325966,0.1143 l 0.563033,-0.0508 0.05927,-0.0042 q 0.0508,0 0.1143,0.04233 0.06773,0.0381 0.06773,0.0889 0,0.0254 -0.0254,0.05503 -0.0254,0.02963 -0.0381,0.0508 -0.160867,0.3175 -0.359833,0.5969 -0.0085,0.01693 -0.0085,0.0254 0,0.0254 0.0127,0.0381 0.160866,0.173566 0.2413,0.338666 0.08043,0.1651 0.08043,0.436033 0,0.224366 -0.07197,0.2921 -0.07197,0.0635 -0.135466,0.0635 -0.0762,0 -0.207433,-0.0889 -0.127,-0.0889 -0.2286,-0.2032 -0.09737,-0.1143 -0.09737,-0.173567 0,-0.0254 0.0254,-0.0254 0.0381,0 0.09737,0.04233 0.08467,0.05503 0.194733,0.105833 0.1143,0.0508 0.143933,0.0508 0.01693,0 0.02117,-0.03387 0.0042,-0.03387 0.0042,-0.07197 0,-0.220133 -0.06773,-0.351367 -0.0635,-0.135466 -0.194733,-0.287866 -0.05503,-0.06773 -0.05503,-0.127 0,-0.05503 0.04233,-0.118533 0.148166,-0.2159 0.287866,-0.512233 l -0.503766,0.04233 -0.04233,3.111498 q 0,0.05503 -0.02117,0.0889 -0.01693,0.03387 -0.05503,0.03387 -0.05503,0 -0.131234,-0.05927 -0.0762,-0.05927 -0.0762,-0.114299 0,-0.02963 0.0042,-0.04657 0.02963,-0.160867 0.02963,-0.334433 l 0.03387,-2.497665 z m 1.523999,2.053165 q -0.08467,0 -0.1143,-0.0254 -0.0635,-0.0635 -0.0889,-0.169333 0,-0.0085 0.0127,-0.0085 l 0.0254,0.0042 q 0.08467,0.0127 0.143933,0.0127 l 0.06773,-0.0042 1.185333,-0.05503 0.02117,-0.1905 -1.481665,0.08043 h -0.07197 q -0.05927,0 -0.08467,-0.0127 -0.02117,-0.01693 -0.06773,-0.0762 -0.0085,-0.0127 -0.0254,-0.04233 -0.0127,-0.03387 -0.0127,-0.05927 0,-0.0085 0.0127,-0.0085 l 0.04233,0.0042 q 0.0762,0.0085 0.105833,0.0085 l 0.07197,-0.0042 1.536699,-0.0762 0.02117,-0.173567 -1.206499,0.06773 h -0.0762 q -0.07197,0 -0.1143,-0.0254 -0.0381,-0.0254 -0.08043,-0.131234 l -0.0085,-0.03387 q 0,-0.0085 0.0127,-0.0085 0.02117,0 0.0381,0.0042 0.07197,0.0127 0.135467,0.0127 l 0.06773,-0.0042 1.312332,-0.07197 0.0508,-0.0042 q 0.03387,0 0.09313,0.0381 0.05927,0.03387 0.05927,0.08043 0,0.01693 -0.0127,0.03387 -0.0085,0.01693 -0.0127,0.02963 l -0.02963,0.173567 0.05503,-0.0042 q 0.06773,-0.0042 0.143933,-0.0254 0.04233,-0.0085 0.05503,-0.0085 0.0508,0 0.09313,0.04657 0.0762,0.0762 0.0762,0.114299 0,0.0254 -0.02963,0.03387 -0.0254,0.0085 -0.08043,0.0127 l -0.347133,0.01693 -0.03387,0.1905 q 0.105834,0.110067 0.105834,0.1524 0,0.02117 -0.0254,0.02963 -0.02117,0.0042 -0.08467,0.0085 l -1.380066,0.06773 z M 36.756845,70.90803 q -0.0889,0 -0.131233,-0.0254 -0.0381,-0.0254 -0.08467,-0.127 -0.0127,-0.02117 -0.0127,-0.02963 0,-0.02117 0.02963,-0.02117 0.02117,0 0.03387,0.0042 0.0762,0.0127 0.143933,0.0127 h 0.04657 l 0.702733,-0.03387 -0.0042,-0.2032 -0.347133,0.02117 q -0.0381,0.0042 -0.1016,0.0042 -0.08043,0 -0.105833,-0.0254 -0.0254,-0.02117 -0.0635,-0.0762 -0.0381,-0.05503 -0.0381,-0.08043 0,-0.0127 0.02117,-0.0127 0.0254,0 0.04233,0.0042 0.07197,0.0127 0.148166,0.0127 h 0.04657 l 0.901699,-0.0635 q 0.0762,-0.0042 0.148167,-0.0254 0.0381,-0.0127 0.06773,-0.0127 0.04233,0 0.08043,0.03387 0.04233,0.02963 0.06773,0.06773 0.02963,0.0381 0.02963,0.0508 0,0.0381 -0.110067,0.04657 l -0.546099,0.0381 -0.0042,0.207433 0.5969,-0.02963 q 0.08043,-0.0042 0.143933,-0.02963 0.03387,-0.0085 0.04657,-0.0085 0.05927,0 0.126999,0.0635 0.06773,0.05927 0.06773,0.09313 0,0.04233 -0.118533,0.0508 l -1.761066,0.09313 z m 1.536699,1.816099 q -0.0635,-0.122767 -0.127,-0.258233 -0.05927,-0.1397 -0.05927,-0.1905 0,-0.0381 0.0254,-0.0381 0.04657,0 0.135466,0.1143 0.1651,0.220133 0.283633,0.317499 0.0889,0.0762 0.0889,0.131234 0,0.127 -0.1905,0.160866 -0.1905,0.0381 -0.440266,0.0381 -0.351366,0 -0.596899,-0.09313 -0.186267,-0.06773 -0.3048,-0.207433 -0.1143,-0.143933 -0.169333,-0.270933 -0.0508,-0.131234 -0.0508,-0.156634 0,-0.04233 0.08467,-0.07197 0.0381,-0.0127 0.0635,-0.0127 0.03387,0 0.0508,0.02117 0.02117,0.01693 0.03387,0.05927 0.110066,0.2794 0.313266,0.389466 0.2032,0.110067 0.5715,0.110067 0.1016,0 0.270933,-0.01693 0.02117,0 0.02117,-0.01693 z m 0.626533,-0.0762 q -0.0381,0 -0.0889,-0.05927 -0.2413,-0.283633 -0.4572,-0.436033 -0.05927,-0.0381 -0.05927,-0.07197 0,-0.02963 0.04657,-0.0762 0.0508,-0.0508 0.08467,-0.0508 0.0381,0 0.1905,0.1143 0.156633,0.110066 0.2921,0.237066 0.135466,0.127 0.135466,0.1778 0,0.04657 -0.05503,0.105833 -0.0508,0.05927 -0.0889,0.05927 z m -2.455331,0.143933 q -0.0381,0.06773 -0.0889,0.06773 -0.0381,0 -0.105834,-0.0381 -0.0635,-0.03387 -0.0635,-0.08043 0,-0.0254 0.03387,-0.08043 0.0889,-0.1397 0.148167,-0.262467 0.0635,-0.122766 0.110066,-0.283633 0.0127,-0.04233 0.02963,-0.05927 0.01693,-0.01693 0.0508,-0.01693 0.04233,0 0.09737,0.02117 0.05927,0.01693 0.05927,0.07197 -0.0042,0.02117 -0.02963,0.110066 -0.02117,0.08467 -0.08043,0.232833 -0.05927,0.143933 -0.160866,0.3175 z m 1.447798,-0.334433 q -0.05927,0.07197 -0.101599,0.07197 -0.04233,0 -0.09313,-0.0635 -0.1016,-0.118534 -0.309033,-0.287867 -0.0042,-0.0042 -0.02963,-0.0254 -0.0254,-0.02117 -0.0254,-0.04233 0,-0.02963 0.04657,-0.07197 0.04657,-0.04657 0.08467,-0.04657 0.02963,0 0.148167,0.08467 0.118533,0.08043 0.215899,0.173567 0.1016,0.09313 0.1016,0.131233 0,0.02963 -0.0381,0.0762 z m -1.062565,-2.650064 q -0.06773,0 -0.1016,-0.0127 -0.03387,-0.0127 -0.03387,-0.03387 0,-0.0508 0.156633,-0.0762 0.503767,-0.0762 0.897466,-0.1778 0.397933,-0.1016 0.4699,-0.182033 0.0127,-0.02117 0.03387,-0.02117 0.04233,0 0.1016,0.1016 0.0635,0.09737 0.0635,0.135467 0,0.02963 -0.02117,0.04233 -0.02117,0.0085 -0.06773,0.01693 -0.452966,0.1016 -0.787399,0.156634 -0.3302,0.0508 -0.660399,0.0508 z m 0.372533,0.393699 q 0,0.0254 -0.04657,0.07197 -0.04657,0.04657 -0.08043,0.04657 -0.03387,0 -0.0762,-0.05503 -0.105833,-0.143933 -0.211667,-0.245533 -0.05503,-0.05503 -0.05503,-0.08043 0,-0.02963 0.03387,-0.0635 0.0381,-0.0381 0.07197,-0.0381 0.0381,0 0.122767,0.0762 0.0889,0.0762 0.1651,0.1651 0.0762,0.0889 0.0762,0.122766 z m 0.567266,-0.02963 q 0,0.04233 -0.05927,0.07197 -0.05503,0.0254 -0.09313,0.0254 -0.0254,0 -0.0381,-0.01693 -0.0127,-0.01693 -0.0254,-0.05927 -0.04657,-0.156634 -0.110067,-0.275167 -0.02117,-0.03387 -0.02117,-0.05927 0,-0.03387 0.0508,-0.05927 0.0508,-0.0254 0.0762,-0.0254 0.04233,0 0.09313,0.0889 0.0508,0.08467 0.08467,0.182033 0.03387,0.09313 0.04233,0.127 z m 0.711199,-0.3302 q 0,0.02963 -0.118533,0.135467 -0.1143,0.105833 -0.249766,0.194733 -0.131234,0.0889 -0.1905,0.0889 -0.02963,0 -0.02963,-0.02117 0,-0.02963 0.04657,-0.0762 0.3048,-0.3175 0.3048,-0.448733 0,-0.05503 0.04233,-0.05503 0.0508,0 0.122767,0.07197 0.07197,0.07197 0.07197,0.110066 z"
           style="stroke-width:0.264583"
           id="path18" />
        <path
           d="m 40.499101,71.02233 q 0.04657,-0.04233 0.0889,-0.04233 0.04657,0 0.2159,0.156633 0.173566,0.1524 0.325966,0.325966 0.156633,0.173567 0.156633,0.2159 0,0.05503 -0.07197,0.110067 -0.05927,0.05503 -0.1016,0.05503 -0.0254,0 -0.04657,-0.01693 -0.02117,-0.01693 -0.0508,-0.05927 -0.211666,-0.275166 -0.516466,-0.575733 v 1.799165 q 0,0.09737 -0.08467,0.09737 -0.0889,-0.0085 -0.1524,-0.0508 -0.05927,-0.04233 -0.05927,-0.118533 0,-0.0254 0.0042,-0.04233 0.02117,-0.122767 0.02117,-0.275167 0,-0.711199 0.0085,-1.117599 0.0042,-0.122766 0.02117,-0.334433 -0.0762,0.211667 -0.275166,0.503766 -0.194734,0.2921 -0.3937,0.508 -0.198967,0.211666 -0.275167,0.211666 -0.02963,0 -0.02963,-0.02963 0,-0.04233 0.0508,-0.110067 0.503766,-0.673099 0.833966,-1.422398 l -0.423333,0.04233 q -0.118533,0.0085 -0.143933,0.0085 -0.07197,0 -0.09737,-0.0254 -0.03387,-0.0381 -0.08043,-0.09313 -0.04657,-0.05927 -0.04657,-0.105833 0,-0.02963 0.02963,-0.02963 0.01693,0 0.0254,0.0042 0.07197,0.01693 0.173566,0.01693 h 0.04657 l 0.588433,-0.05503 0.0042,-0.533399 q -0.2413,0.0762 -0.452966,0.122766 -0.211667,0.04657 -0.258233,0.04657 -0.05927,0 -0.05927,-0.03387 0,-0.0381 0.08043,-0.06773 0.613833,-0.2286 1.198033,-0.579966 0.06773,-0.04657 0.105833,-0.122767 0.02117,-0.04233 0.04657,-0.04233 0.0254,0 0.0762,0.05503 0.05503,0.0508 0.09313,0.122767 0.04233,0.06773 0.04233,0.110066 0,0.02963 -0.02117,0.04233 -0.309033,0.152399 -0.596899,0.262466 v 0.5969 l 0.325966,-0.0254 q 0.1016,-0.0085 0.194733,-0.0381 0.0254,-0.0085 0.03387,-0.0085 0.04233,0 0.135467,0.07197 0.09313,0.06773 0.09313,0.118533 0,0.0254 -0.0254,0.04233 -0.0254,0.0127 -0.0635,0.01693 l -0.694266,0.05503 z m 1.405465,-1.176866 q 0,-0.0762 -0.02117,-0.126999 -0.0085,-0.03387 -0.0085,-0.04233 0,-0.0254 0.02963,-0.0254 0.0381,0 0.1143,0.02963 0.08043,0.02963 0.1397,0.08043 0.05927,0.04657 0.05927,0.110066 0,0.04233 -0.127,0.499533 -0.127,0.4572 -0.309033,1.037166 -0.1778,0.575733 -0.347133,1.024466 0.186266,-0.03387 0.448733,-0.1016 0.266699,-0.06773 0.516466,-0.1397 l 0.220133,-0.05927 q -0.1524,-0.3429 -0.300566,-0.635 -0.04233,-0.08467 -0.04233,-0.118533 0,-0.04233 0.06773,-0.08043 0.06773,-0.0381 0.110066,-0.0381 0.0254,0 0.04233,0.01693 0.01693,0.01693 0.0381,0.05927 0.254,0.486832 0.448733,0.922865 0.198967,0.4318 0.198967,0.499533 0,0.05927 -0.08043,0.105834 -0.0762,0.0508 -0.127,0.0508 -0.03387,0 -0.0508,-0.0254 -0.01693,-0.02117 -0.0381,-0.08043 -0.122767,-0.325966 -0.173567,-0.444499 -0.808566,0.220133 -1.104899,0.279399 -0.0508,0.0127 -0.186266,0.05927 -0.105834,0.0381 -0.131234,0.0381 -0.0508,0 -0.114299,-0.09737 -0.0635,-0.09737 -0.0635,-0.169333 0,-0.03387 0.0085,-0.0508 0.0127,-0.02117 0.0381,-0.04657 0.03387,-0.0254 0.04657,-0.04657 0.0127,-0.0254 0.02963,-0.0889 l 0.05503,-0.1524 q 0.2667,-0.757766 0.440267,-1.422399 0.173566,-0.664632 0.173566,-0.821266 z"
           style="stroke-width:0.264583"
           id="path20" />
        <path
           d="m 44.512289,70.878397 q 0.0381,-0.0254 0.0635,-0.0254 0.04657,0 0.143933,0.105833 0.1016,0.105833 0.186267,0.232833 0.0889,0.122767 0.0889,0.156634 0,0.04657 -0.05503,0.09313 -0.0508,0.04657 -0.09737,0.04657 -0.04233,0 -0.08467,-0.0762 -0.114299,-0.211666 -0.245533,-0.364066 l -0.0254,1.968498 q 0,0.1016 -0.0762,0.1016 -0.02117,0 -0.07197,-0.02117 -0.0508,-0.01693 -0.09313,-0.05503 -0.0381,-0.03387 -0.0381,-0.09313 0,-0.01693 0.0085,-0.0508 0.02963,-0.105833 0.02963,-0.2286 l 0.0127,-1.202265 q 0,-0.127 0.01693,-0.351367 -0.0762,0.249767 -0.2286,0.5334 -0.1524,0.2794 -0.3048,0.478366 -0.148166,0.194733 -0.194733,0.194733 -0.01693,0 -0.02963,-0.0127 -0.0085,-0.0127 -0.0085,-0.03387 0,-0.03387 0.03387,-0.09313 0.427566,-0.762 0.656166,-1.490133 l -0.2413,0.0254 q -0.09313,0.0085 -0.127,0.0085 -0.06773,0 -0.1143,-0.04657 -0.04233,-0.04657 -0.06773,-0.101599 -0.02117,-0.05503 -0.02117,-0.06773 0,-0.0254 0.02963,-0.0254 l 0.02117,0.0042 q 0.0635,0.0127 0.122767,0.0127 l 0.07197,-0.0042 0.393699,-0.02963 0.0085,-0.825499 q 0,-0.08467 -0.0508,-0.1651 -0.0127,-0.02117 -0.0127,-0.03387 0,-0.03387 0.05503,-0.03387 0.05927,0 0.135467,0.02963 0.08467,0.03387 0.105833,0.05927 0.02117,0.02117 0.02117,0.06773 l -0.0127,0.884766 0.156633,-0.0127 q 0.08043,-0.0085 0.148166,-0.03387 0.0085,-0.0042 0.02963,-0.0042 0.0508,0 0.127,0.06773 0.0762,0.06773 0.0762,0.105833 0,0.05503 -0.0889,0.0635 l -0.448733,0.03387 z m 1.375833,-0.761999 v 0.03387 q 0,0.0381 -0.0127,0.05503 -0.0127,0.0127 -0.04657,0.0127 -0.0762,-0.0042 -0.131233,-0.03387 -0.0508,-0.02963 -0.0508,-0.08043 0,-0.1016 -0.0042,-0.143934 l -0.503766,0.03387 q -0.0381,0.0042 -0.110066,0.0042 -0.06773,0 -0.0889,-0.02117 -0.0508,-0.0508 -0.08043,-0.105834 -0.0254,-0.05927 -0.0254,-0.08043 0,-0.02117 0.01693,-0.02117 l 0.01693,0.0042 q 0.0635,0.02117 0.1524,0.02117 h 0.0508 l 0.541866,-0.0381 -0.03387,-0.169334 q -0.0127,-0.06773 -0.05927,-0.122766 -0.02117,-0.02963 -0.02117,-0.0381 0,-0.02963 0.06773,-0.02963 0.04657,0 0.1143,0.0127 0.07197,0.0127 0.09313,0.02963 0.0254,0.01693 0.03387,0.0508 l 0.05503,0.372533 z m 0.537632,0.821266 q 0,0.05927 -0.0508,0.05927 -0.05927,0 -0.118533,-0.0381 -0.05503,-0.04233 -0.05503,-0.08467 v -0.05927 q 0,-0.0762 -0.0042,-0.1143 l -0.02117,-0.262466 q -0.0042,-0.09313 -0.0508,-0.182034 -0.02117,-0.03387 -0.02117,-0.05503 0,-0.0254 0.04233,-0.0254 0.0635,0 0.241299,0.05927 l 0.5715,-0.0381 h 0.03387 q 0.0508,0 0.105833,0.0381 0.05927,0.0381 0.05927,0.0889 0,0.0127 -0.0127,0.0381 -0.0085,0.02117 -0.0127,0.04233 l -0.05927,0.300566 q 0.09313,0.09737 0.09313,0.1397 0,0.02117 -0.02117,0.02963 -0.01693,0.0042 -0.06773,0.0085 l -0.651933,0.02963 z m -0.990599,1.439332 -0.0042,0.296333 0.647699,-0.02117 0.0042,-0.300566 z m 0,-0.427567 v 0.2413 l 0.6477,-0.0254 0.0042,-0.2413 z m 0.0042,-0.423333 -0.0042,0.237067 0.651933,-0.0254 0.0042,-0.2413 z m 0.956732,-1.104899 0.01693,0.313267 0.452967,-0.0254 0.0381,-0.321733 z m -1.066799,0.05503 0.02117,0.313266 0.419099,-0.02117 0.0127,-0.321733 z m 1.003299,-0.626533 q 0.0042,-0.04657 0.0085,-0.08467 0.0042,-0.04233 0.0042,-0.0762 0.0127,-0.1143 0.0127,-0.1905 0,-0.118533 -0.01693,-0.156633 -0.0085,-0.03387 -0.0085,-0.0381 0,-0.0381 0.04657,-0.0381 0.02963,0.0042 0.09313,0.02117 0.0635,0.0127 0.118533,0.04657 0.05927,0.02963 0.05927,0.06773 v 0.0127 q -0.0127,0.07197 -0.05927,0.194733 l -0.02963,0.08467 0.440266,-0.03387 q 0.08467,-0.0042 0.148167,-0.02963 l 0.01693,-0.0042 q 0.01693,0 0.06773,0.02963 0.0508,0.02963 0.0889,0.07197 0.04233,0.0381 0.04233,0.07197 0,0.0381 -0.07197,0.04657 l -0.808566,0.05927 -0.03387,0.08043 q -0.02117,0.0635 -0.05503,0.127 -0.0508,0.0889 -0.08467,0.0889 -0.02963,0 -0.02963,-0.0508 0,-0.01693 0.0085,-0.05927 0.01693,-0.06773 0.02117,-0.127 0.01693,-0.105834 0.02117,-0.1143 z m 0.563033,1.418165 q 0.09737,-0.0085 0.1524,-0.02963 0.0254,-0.0085 0.03387,-0.0085 0.03387,0 0.105833,0.0635 0.0762,0.05927 0.0762,0.09737 0,0.0254 -0.02117,0.04233 -0.02117,0.0127 -0.0508,0.0127 h -0.0085 l -0.859366,0.0381 -0.0042,0.2413 0.427566,-0.01693 q 0.0889,-0.0085 0.1524,-0.0254 0.0085,-0.0042 0.02963,-0.0042 0.04657,0 0.110066,0.05927 0.06773,0.05927 0.06773,0.1016 0,0.02117 -0.02117,0.03387 -0.02117,0.0127 -0.04657,0.0127 l -0.719666,0.02963 -0.0042,0.2413 0.431799,-0.01693 q 0.0889,-0.0085 0.1524,-0.0254 0.0085,-0.0042 0.02963,-0.0042 0.04657,0 0.110066,0.05927 0.06773,0.05927 0.06773,0.101599 0,0.02117 -0.02117,0.03387 -0.02117,0.0127 -0.04657,0.0127 l -0.723899,0.0254 -0.0042,0.3048 0.7874,-0.0254 q 0.0635,0 0.160866,-0.02963 0.0085,-0.0042 0.0254,-0.0042 0.03387,0 0.105834,0.05927 0.0762,0.05927 0.0762,0.110066 0,0.0254 -0.0254,0.04233 -0.0254,0.01693 -0.05927,0.01693 l -1.951565,0.05927 v 0.198966 q 0,0.08043 -0.05503,0.08043 -0.05927,0 -0.1397,-0.0508 -0.08043,-0.0508 -0.08043,-0.118533 0,-0.02117 0.0042,-0.03387 0.0254,-0.09313 0.0254,-0.249767 l 0.01693,-0.956732 q -0.186266,0.173566 -0.351366,0.283633 -0.1651,0.110066 -0.2032,0.110066 -0.0254,0 -0.0254,-0.0254 0,-0.04233 0.0635,-0.1016 0.211666,-0.198966 0.491066,-0.520699 0.283633,-0.325967 0.283633,-0.4699 0,-0.03387 0.0085,-0.05927 l -0.105833,0.0042 0.0042,0.04657 v 0.01693 q 0,0.0635 -0.0508,0.0635 -0.01693,-0.0042 -0.05927,-0.01693 -0.04233,-0.0127 -0.08467,-0.0381 -0.0381,-0.0254 -0.0381,-0.0635 0,-0.01693 0.0042,-0.0254 0.0085,-0.05927 0.0085,-0.08467 0,-0.04233 -0.0042,-0.06773 l -0.0254,-0.287867 q -0.0127,-0.135466 -0.05927,-0.207433 -0.0254,-0.0381 -0.0254,-0.05927 0,-0.02117 0.03387,-0.02117 0.05927,0 0.258233,0.07197 l 0.507999,-0.0381 h 0.0254 q 0.05503,0 0.105833,0.0381 0.05927,0.0381 0.05927,0.0762 0,0.0127 -0.0085,0.0381 -0.0042,0.02117 -0.0085,0.04233 l -0.0254,0.309033 q 0.0889,0.1016 0.0889,0.1397 0,0.02117 -0.02117,0.02963 -0.01693,0.0042 -0.07197,0.0085 l -0.414866,0.02117 q 0.0042,0 0.08467,0.05503 0.08043,0.0508 0.08043,0.118534 0,0.01693 -0.135467,0.198966 l 0.656167,-0.03387 q -0.0889,-0.105834 -0.224367,-0.2159 -0.0254,-0.02117 -0.0254,-0.04233 0,-0.02117 0.0381,-0.06773 0.0381,-0.0508 0.07197,-0.0508 0.02963,0 0.127,0.07197 0.09737,0.06773 0.177799,0.148166 0.08467,0.08043 0.08467,0.1143 0,0.02117 -0.0042,0.03387 z"
           style="stroke-width:0.264583"
           id="path22" />
        <path
           d="m 51.243275,70.531264 q -0.1524,0.766233 -0.478366,1.316565 0.364066,0.537633 0.956732,1.0033 0.04657,0.03387 0.04657,0.0635 0,0.02963 -0.08467,0.0889 -0.08467,0.05927 -0.1397,0.05927 -0.0508,0 -0.224366,-0.169333 -0.173566,-0.1651 -0.376766,-0.397933 -0.198967,-0.237067 -0.321733,-0.423333 -0.224367,0.300566 -0.5207,0.533399 -0.2921,0.2286 -0.541866,0.3556 -0.249767,0.131233 -0.3175,0.131233 -0.04233,0 -0.04233,-0.0254 0,-0.03387 0.08467,-0.09313 0.364067,-0.2413 0.6477,-0.516466 0.287866,-0.275166 0.537633,-0.6223 -0.275167,-0.478366 -0.427567,-0.918632 -0.177799,0.300566 -0.309033,0.4572 -0.131233,0.152399 -0.169333,0.152399 -0.0254,0 -0.0254,-0.02963 0,-0.0381 0.04657,-0.131233 0.2159,-0.381 0.372533,-0.787399 0.160866,-0.4064 0.2413,-0.715433 0.08467,-0.309033 0.08467,-0.3937 0,-0.04657 -0.0042,-0.07197 v -0.0127 q 0,-0.0381 0.0381,-0.0381 0.06773,0 0.169333,0.08043 0.1016,0.08043 0.1016,0.143933 0,0.0508 -0.0889,0.309033 -0.08467,0.258233 -0.1778,0.486833 l 0.846666,-0.0508 q 0.0889,-0.0042 0.186267,-0.04233 0.03387,-0.0085 0.04233,-0.0085 0.0508,0 0.1016,0.0381 0.05503,0.0381 0.09313,0.0889 0.0381,0.04657 0.0381,0.07197 0,0.04233 -0.08467,0.0508 z m -2.882897,-0.508 q -0.127,0.0085 -0.1651,0.0085 -0.1016,0 -0.135467,-0.0381 -0.0508,-0.0508 -0.0889,-0.118533 -0.0381,-0.06773 -0.0381,-0.0889 0,-0.0254 0.03387,-0.0254 0.02117,0 0.03387,0.0042 0.0889,0.0254 0.1778,0.0254 h 0.0381 l 1.062566,-0.0635 q 0.1143,-0.0085 0.198967,-0.0381 0.0381,-0.0127 0.05927,-0.0127 0.05503,0 0.143933,0.08043 0.09313,0.0762 0.09313,0.126999 0,0.0508 -0.105834,0.05927 l -0.660399,0.0381 0.0042,0.867833 0.1778,-0.0085 q 0.1016,-0.0042 0.182033,-0.04233 0.0254,-0.0085 0.0381,-0.0085 0.0635,0 0.1524,0.08043 0.09313,0.08043 0.09313,0.122767 0,0.04657 -0.105833,0.05503 l -0.537633,0.0254 0.0127,1.121833 q 0.173567,-0.05503 0.300567,-0.1016 0.131233,-0.04657 0.220133,-0.0762 l 0.220133,-0.0762 q 0.0635,-0.02117 0.09313,-0.02117 0.0508,0 0.0508,0.02963 0,0.05503 -0.105833,0.110067 -0.3429,0.207433 -0.736599,0.376766 -0.3937,0.169333 -0.702733,0.275167 -0.309033,0.1016 -0.359833,0.1016 -0.0762,0 -0.1397,-0.05927 -0.05927,-0.05927 -0.09737,-0.127 -0.0381,-0.07197 -0.0381,-0.08467 0,-0.0254 0.0381,-0.0254 h 0.0085 q 0.01693,0.0042 0.0635,0.0042 0.110067,0 0.1905,-0.0254 l 0.1143,-0.02963 -0.01693,-1.566332 q 0,-0.1016 -0.05503,-0.1905 -0.01693,-0.02117 -0.01693,-0.04233 0,-0.0254 0.04657,-0.0254 0.0635,0 0.160867,0.04233 0.08467,0.0381 0.105833,0.0635 0.0254,0.0254 0.0254,0.0762 l 0.0127,1.566332 q 0.05927,-0.02117 0.1778,-0.05503 l 0.1778,-0.05503 -0.0085,-2.281765 z m 1.833031,0.613833 q 0.182033,0.563033 0.414867,0.956733 0.220133,-0.436033 0.334433,-1.045633 l -0.728133,0.04657 z"
           style="stroke-width:0.264583"
           id="path24" />
        <path
           d="m 54.058432,71.293263 v 0.436033 q 0.380999,0.3048 0.859366,0.5461 0.482599,0.2413 0.965199,0.397933 0.0635,0.01693 0.0635,0.0508 0,0.04233 -0.09313,0.1143 -0.0889,0.07197 -0.127,0.07197 -0.0508,0 -0.309033,-0.105833 -0.254,-0.1016 -0.618067,-0.313266 -0.364066,-0.211667 -0.745066,-0.516467 v 1.071033 q 0,0.1143 -0.08043,0.1143 -0.0381,0 -0.0889,-0.0254 -0.127,-0.0635 -0.127,-0.148167 0,-0.01693 0.0042,-0.02963 0.02963,-0.148167 0.02963,-0.262467 v -0.656166 q -0.4064,0.338667 -0.791633,0.529167 -0.380999,0.190499 -0.634999,0.258233 -0.254,0.07197 -0.3048,0.07197 -0.05927,0 -0.05927,-0.02963 0,-0.04233 0.0889,-0.0762 0.503767,-0.2286 0.905933,-0.4699 0.402166,-0.245533 0.795866,-0.601132 l 0.0042,-0.4191 -0.706966,0.03387 0.03387,0.630766 v 0.01693 q 0,0.09737 -0.0762,0.09737 -0.0508,0 -0.122767,-0.0381 -0.07197,-0.0381 -0.07197,-0.09737 0,-0.02117 0.0042,-0.03387 0.0127,-0.08467 0.0127,-0.160866 l -0.0042,-0.127 -0.01693,-0.2667 q -0.0085,-0.173566 -0.04657,-0.237066 -0.0254,-0.0381 -0.0254,-0.0635 0,-0.0254 0.0381,-0.0254 0.06773,0 0.287866,0.0889 l 0.694266,-0.03387 v -0.2413 l -0.922866,0.0508 -0.105833,0.0042 q -0.08043,0 -0.135466,-0.04657 -0.0508,-0.04657 -0.0762,-0.1016 -0.0254,-0.05927 -0.0254,-0.08043 0,-0.02117 0.0254,-0.02117 0.01693,0 0.02963,0.0042 0.08467,0.02117 0.173567,0.02117 h 0.0381 l 0.999066,-0.05927 v -0.03387 q 0,-0.105833 -0.05503,-0.182033 -0.02117,-0.03387 -0.02117,-0.0508 0,-0.02963 0.0508,-0.02963 0.0508,0 0.1524,0.03387 0.0889,0.02963 0.110067,0.05503 0.0254,0.02117 0.0254,0.06773 v 0.127 l 0.846666,-0.0508 q 0.0889,-0.0042 0.194733,-0.03387 0.0127,-0.0042 0.0381,-0.0042 0.04657,0 0.131233,0.07197 0.0889,0.06773 0.0889,0.118533 0,0.0508 -0.09737,0.05927 l -1.202265,0.06773 v 0.2413 l 0.838199,-0.04233 h 0.0508 q 0.09737,0 0.1524,0.0508 0.05503,0.04657 0.05503,0.09737 0,0.02117 -0.0127,0.05503 -0.0127,0.03387 -0.0127,0.05503 l -0.0381,0.3429 q -0.0042,0.02963 -0.0042,0.0889 -0.0042,0.0889 -0.01693,0.139699 -0.0085,0.0508 -0.04657,0.08043 -0.08043,0.06773 -0.143933,0.06773 -0.0762,0 -0.2159,-0.08467 -0.1397,-0.0889 -0.258233,-0.190499 -0.1143,-0.105834 -0.1143,-0.143934 0,-0.02117 0.03387,-0.02117 0.03387,0 0.09737,0.0254 0.2032,0.08467 0.402166,0.143933 l 0.0508,-0.4826 z m -0.728133,-1.329265 q 0.118533,0.0762 0.2413,0.186266 0.127,0.105833 0.127,0.1524 0,0.04233 -0.05503,0.09313 -0.0508,0.0508 -0.08467,0.0508 -0.01693,0 -0.0381,-0.0127 -0.02117,-0.01693 -0.04233,-0.04233 -0.122767,-0.135467 -0.296334,-0.270933 -0.04657,-0.0381 -0.04657,-0.06773 0,-0.0254 0.04657,-0.08043 l -0.249766,0.01693 q -0.156633,0.2032 -0.313266,0.364066 -0.156634,0.156633 -0.2794,0.245533 -0.118533,0.0889 -0.169333,0.0889 -0.0254,0 -0.0254,-0.02117 0,-0.0381 0.05927,-0.101599 0.347133,-0.351367 0.715433,-1.0033 0.0381,-0.07197 0.0381,-0.143933 v -0.03387 q 0,-0.05503 0.04657,-0.05503 0.0635,0 0.1524,0.07197 0.09313,0.07197 0.09313,0.118533 0,0.02117 -0.02117,0.0508 l -0.127,0.1905 0.6223,-0.04233 q 0.0762,-0.0042 0.160866,-0.03387 0.0254,-0.0085 0.04233,-0.0085 0.0635,0 0.131233,0.07197 0.07197,0.06773 0.07197,0.105833 0,0.05503 -0.09313,0.0635 z m 1.523999,-0.07197 q 0.110066,0.0762 0.258233,0.207433 0.1524,0.131233 0.1524,0.186267 0,0.0254 -0.04657,0.0889 -0.04657,0.05927 -0.0889,0.05927 -0.02963,0 -0.06773,-0.04233 -0.173567,-0.1905 -0.3302,-0.313266 -0.0635,-0.0508 -0.0635,-0.08467 0,-0.02963 0.04657,-0.0889 l -0.325967,0.02117 q -0.08043,0.09313 -0.258233,0.245533 -0.177799,0.148166 -0.245533,0.148166 -0.0254,0 -0.0254,-0.0254 0,-0.0381 0.05503,-0.09737 0.198966,-0.2159 0.334433,-0.4445 0.135466,-0.232833 0.160866,-0.376766 l 0.0042,-0.0508 q 0,-0.0635 0.0508,-0.0635 0.05503,0 0.148167,0.07197 0.09737,0.07197 0.09737,0.122766 0,0.02963 -0.01693,0.0508 -0.0762,0.127 -0.118533,0.186267 l 0.774699,-0.05927 q 0.09737,-0.0085 0.156634,-0.02963 0.0254,-0.0085 0.04233,-0.0085 0.05927,0 0.127,0.07197 0.06773,0.07197 0.06773,0.110066 0,0.0508 -0.0889,0.05927 z"
           style="stroke-width:0.264583"
           id="path26" />
      </g>
    </g>
  </g>
</svg>
