<?xml version="1.0" encoding="UTF-8" standalone="no"?>
<svg
   xmlns:dc="http://purl.org/dc/elements/1.1/"
   xmlns:cc="http://creativecommons.org/ns#"
   xmlns:rdf="http://www.w3.org/1999/02/22-rdf-syntax-ns#"
   xmlns:svg="http://www.w3.org/2000/svg"
   xmlns="http://www.w3.org/2000/svg"
   width="180.83368"
   height="22.704"
   viewBox="0 0 47.845577 6.0071002"
   version="1.1"
   id="svg8">
  <defs
     id="defs2" />
  <metadata
     id="metadata5">
    <rdf:RDF>
      <cc:Work
         rdf:about="">
        <dc:format>image/svg+xml</dc:format>
        <dc:type
           rdf:resource="http://purl.org/dc/dcmitype/StillImage" />
        <dc:title></dc:title>
      </cc:Work>
    </rdf:RDF>
  </metadata>
  <g
     id="layer1"
     transform="translate(-0.7890336,-0.80327513)">
    <g
       aria-label="金枝玉葉御用ＱＱ水™"
       id="text12"
       style="font-size:4.7625px;line-height:1.25;font-family:Iansui;-inkscape-font-specification:'Iansui, Normal';word-spacing:0px;stroke-width:0.264583">
      <path
         d="M 3.778296,2.3304504 Q 3.349671,2.8686129 2.8781835,3.2496129 2.4114586,3.6258503 2.0495086,3.8258753 1.6923211,4.0211378 1.6256461,4.0211378 q -0.042863,0 -0.042863,-0.033338 0,-0.023813 0.028575,-0.05715 0.028575,-0.0381 0.085725,-0.0762 1.3192124,-0.9143999 1.9907249,-1.9907249 0.052388,-0.085725 0.052388,-0.1905 0,-0.0762 0.052388,-0.0762 0.066675,0 0.1857375,0.1000125 0.123825,0.1000125 0.123825,0.1524 0,0.047625 -0.161925,0.257175 0.9667875,0.8763 2.1097874,1.4668499 0.071438,0.033338 0.071438,0.0762 0,0.052387 -0.1000125,0.13335 -0.09525,0.080963 -0.142875,0.080963 -0.0381,0 -0.061913,-0.01905 Q 5.3022959,3.5448878 4.7736585,3.1543629 4.2497835,2.7638379 3.778296,2.3304504 Z M 2.0637961,5.8023127 q -0.09525,0 -0.123825,-0.028575 -0.05715,-0.05715 -0.09525,-0.123825 -0.033337,-0.061913 -0.033337,-0.1190625 0,-0.028575 0.023813,-0.028575 0.01905,0 0.028575,0.00476 0.085725,0.023813 0.2143125,0.023813 L 3.663996,5.4879878 3.6592335,4.3116503 2.663871,4.3592753 2.5638586,4.3640378 q -0.080963,0 -0.1381125,-0.0381 -0.05715,-0.042863 -0.1095375,-0.1857375 l -0.00953,-0.042863 q 0,-0.028575 0.028575,-0.028575 0.01905,0 0.028575,0.00476 0.071438,0.01905 0.1571625,0.01905 h 0.05715 l 1.0810874,-0.047625 -0.00476,-0.5286375 -0.390525,0.023813 -0.1000125,0.00476 q -0.071438,0 -0.1381125,-0.0381 -0.061913,-0.0381 -0.1095375,-0.1666875 l -0.00953,-0.042862 q 0,-0.028575 0.028575,-0.028575 0.01905,0 0.028575,0.00476 0.071438,0.01905 0.1571625,0.01905 h 0.05715 l 1.08585,-0.071438 q 0.09525,-0.00476 0.1857375,-0.0381 0.00953,-0.00476 0.033338,-0.00476 0.052388,0 0.1476375,0.0762 0.1000125,0.0762 0.1000125,0.1381124 0,0.05715 -0.1143,0.066675 l -0.6524625,0.0381 -0.00476,0.5334 0.93345,-0.042863 q 0.1000125,-0.00476 0.1905,-0.0381 0.00952,-0.00476 0.028575,-0.00476 0.023813,0 0.085725,0.0381 0.061913,0.0381 0.1095375,0.090488 0.052388,0.052388 0.052388,0.090488 0,0.061913 -0.1095375,0.071438 l -1.2906374,0.061913 -0.00953,1.1811 1.4573249,-0.0381 q 0.090488,0 0.1905,-0.0381 0.00953,-0.00476 0.028575,-0.00476 0.047625,0 0.1524,0.090488 0.1095375,0.090488 0.1095375,0.142875 0,0.061913 -0.123825,0.071438 l -3.5956873,0.09525 z M 4.2878835,5.3927378 q -0.0381,0 -0.0381,-0.033338 0,-0.047625 0.061913,-0.123825 0.428625,-0.5572125 0.4429125,-0.8143875 0.00476,-0.042863 0.014288,-0.061913 0.00953,-0.023813 0.0381,-0.023813 0.023813,0 0.090488,0.042863 0.071438,0.042863 0.123825,0.1000125 0.05715,0.052388 0.05715,0.1000125 0,0.05715 -0.1666875,0.2619375 -0.1666875,0.2047875 -0.3571875,0.381 -0.1905,0.17145 -0.2667,0.17145 z m -0.9144,-0.1476375 q 0,0.0381 -0.0762,0.1000125 -0.071437,0.05715 -0.1285875,0.05715 -0.042863,0 -0.085725,-0.0762 -0.1905,-0.3381375 -0.4619625,-0.638175 -0.033337,-0.042863 -0.033337,-0.066675 0,-0.047625 0.061912,-0.09525 0.061913,-0.052388 0.085725,-0.052388 0.042863,0 0.200025,0.17145 0.1571625,0.1666875 0.295275,0.36195 0.142875,0.1905 0.142875,0.238125 z"
         style="fill:#00a86b;fill-opacity:1"
         id="path844" />
      <path
         d="m 8.7265242,3.9544628 q -0.052388,0.00476 -0.1381125,0.00476 -0.090487,0 -0.1190624,-0.023813 -0.066675,-0.05715 -0.1095375,-0.1285875 -0.042863,-0.071438 -0.042863,-0.1095375 0,-0.028575 0.0381,-0.028575 h 0.023813 q 0.123825,0.01905 0.2095499,0.01905 h 0.0381 l 0.5667375,-0.033337 0.00476,-0.6619874 -0.5286375,0.033338 q -0.052388,0.00476 -0.1381124,0.00476 -0.090488,0 -0.1190625,-0.023813 -0.061913,-0.05715 -0.1095375,-0.123825 -0.042863,-0.066675 -0.042863,-0.1143 0,-0.028575 0.033338,-0.028575 0.01905,0 0.028575,0.00476 0.080963,0.01905 0.1857375,0.01905 h 0.061913 l 0.6286499,-0.0381 0.00476,-0.762 q 0,-0.085725 -0.066675,-0.1952625 -0.014288,-0.023813 -0.014288,-0.042863 0,-0.0381 0.061913,-0.0381 0.061913,0 0.1666875,0.0381 0.1000125,0.0381 0.123825,0.066675 0.028575,0.023813 0.028575,0.0762 l -0.00953,0.8382 0.4953,-0.033338 q 0.1143003,-0.00476 0.2047873,-0.0381 0.01429,-0.00476 0.0381,-0.00476 0.05239,0 0.147638,0.0762 0.100012,0.0762 0.100012,0.1381125 0,0.061913 -0.1143,0.071438 l -0.8762998,0.05715 -0.00953,0.6619874 0.5667378,-0.033338 h 0.05715 q 0.0762,0 0.138112,0.052388 0.06668,0.047625 0.06668,0.1095375 0,0.0381 -0.02381,0.071438 -0.02381,0.033338 -0.02858,0.042863 -0.238125,0.600075 -0.6715128,1.0715625 0.6048378,0.4953 1.2287248,0.74295 0.09525,0.042863 0.09525,0.071438 0,0.014288 -0.04763,0.066675 -0.04763,0.052388 -0.109537,0.090488 -0.05715,0.042863 -0.104775,0.042863 -0.04763,0 -0.2667,-0.1190625 Q 10.160037,5.7261128 9.8838117,5.5356128 9.6123492,5.3498753 9.3837492,5.1498503 q -0.295275,0.276225 -0.5953125,0.4572 -0.3000374,0.1857375 -0.5191124,0.2714624 -0.219075,0.090488 -0.28575,0.090488 -0.05715,0 -0.05715,-0.033338 0,-0.061913 0.1571625,-0.1428749 0.5714999,-0.314325 1.1001374,-0.828675 -0.2428875,-0.2428875 -0.4191,-0.4810125 -0.1762125,-0.238125 -0.1762125,-0.28575 0,-0.033338 0.05715,-0.080963 0.061913,-0.052388 0.1143,-0.052388 0.042863,0 0.085725,0.066675 0.219075,0.3381375 0.5286375,0.6334125 0.3667125,-0.4143375 0.55245,-0.9001125 z M 7.6359118,5.8689877 q 0,0.1190625 -0.085725,0.1190625 -0.01905,0 -0.0762,-0.01905 -0.05715,-0.01905 -0.1095375,-0.066675 -0.047625,-0.042863 -0.047625,-0.1142999 0,-0.033338 0.00476,-0.047625 0.0381,-0.161925 0.0381,-0.3000375 l 0.01905,-1.3954125 q 0,-0.104775 0.00953,-0.3000375 -0.05715,0.219075 -0.2524125,0.5334 -0.1952625,0.3095625 -0.4048125,0.5476875 -0.20955,0.238125 -0.28575,0.238125 -0.023813,0 -0.023813,-0.033338 0,-0.0381 0.047625,-0.1143 0.542925,-0.7858125 0.8715375,-1.7049749 l -0.3571875,0.023813 q -0.052388,0.00476 -0.1381125,0.00476 -0.085725,0 -0.1095375,-0.023813 -0.061913,-0.061912 -0.1000125,-0.13335 -0.0381,-0.071438 -0.0381,-0.1000125 0,-0.023813 0.033338,-0.023813 l 0.023813,0.00476 q 0.123825,0.01905 0.1905,0.01905 h 0.042863 l 0.504825,-0.033338 0.00953,-0.866775 q 0,-0.09525 -0.061913,-0.1952625 -0.023813,-0.0381 -0.023813,-0.052388 0,-0.042863 0.061913,-0.042863 0.052387,0 0.1524,0.0381 0.1000125,0.0381 0.1285875,0.066675 0.028575,0.028575 0.028575,0.085725 l -0.014288,0.9477375 0.20955,-0.014288 q 0.1000125,-0.00953 0.1762125,-0.033338 0.00953,-0.00476 0.033338,-0.00476 0.061912,0 0.1476375,0.0762 0.090488,0.0762 0.090488,0.1285875 0,0.028575 -0.033338,0.047625 -0.028575,0.014288 -0.0762,0.01905 l -0.5476875,0.0381 -0.00476,0.3857624 q 0.052388,-0.042863 0.090488,-0.042863 0.047625,0 0.180975,0.142875 0.13335,0.142875 0.2524125,0.3095625 0.123825,0.1666875 0.123825,0.200025 0,0.042863 -0.042863,0.080963 -0.0381,0.0381 -0.085725,0.061913 -0.047625,0.01905 -0.061912,0.01905 -0.047625,0 -0.09525,-0.0762 -0.066675,-0.1095375 -0.1762125,-0.257175 -0.104775,-0.1476375 -0.1905,-0.2524125 z"
         style="fill:#00a86b;fill-opacity:1"
         id="path846" />
      <path
         d="m 11.560203,5.6546753 q -0.1143,0 -0.176213,-0.061913 -0.06191,-0.05715 -0.08573,-0.123825 -0.02381,-0.071438 -0.02381,-0.1095375 0,-0.028575 0.03334,-0.028575 0.01905,0 0.03334,0.00476 0.119062,0.028575 0.2667,0.028575 l 1.557337,-0.047625 V 3.9497003 l -0.78105,0.0381 -0.119062,0.00476 q -0.100013,0 -0.123825,-0.023813 -0.0762,-0.061913 -0.109538,-0.1381125 -0.02858,-0.0762 -0.02858,-0.104775 0,-0.028575 0.02858,-0.028575 0.01905,0 0.03334,0.00476 0.104775,0.023813 0.1905,0.023813 h 0.0381 l 0.8763,-0.042863 V 2.5590504 l -1.0668,0.061913 q -0.1143,0.00953 -0.157163,0.00953 -0.104775,0 -0.17145,-0.0762 -0.06668,-0.080963 -0.09049,-0.1905 0,-0.033338 0.02858,-0.033338 0.01905,0 0.03334,0.00476 0.08573,0.023813 0.20955,0.023813 h 0.06191 l 2.486024,-0.1476375 q 0.109538,-0.00953 0.214313,-0.042863 0.0095,-0.00476 0.03334,-0.00476 0.05715,0 0.161925,0.090488 0.104775,0.085725 0.104775,0.142875 0,0.05715 -0.119062,0.066675 l -1.404938,0.080963 v 1.1191874 l 0.8001,-0.0381 q 0.104775,-0.00953 0.1905,-0.0381 0.0095,-0.00476 0.02858,-0.00476 0.02381,0 0.08573,0.042863 0.06191,0.0381 0.1143,0.09525 0.05239,0.052388 0.05239,0.090488 0,0.05715 -0.104775,0.066675 l -1.171575,0.05715 v 1.3716 l 1.462087,-0.042863 q 0.100013,0 0.219075,-0.042863 0.02858,-0.00953 0.04286,-0.00953 0.02858,0 0.09525,0.042863 0.06668,0.042863 0.119062,0.104775 0.05715,0.05715 0.05715,0.104775 0,0.061913 -0.1143,0.071438 l -3.648074,0.1143 z m 3.190874,-0.6429375 q -0.07144,0.085725 -0.128587,0.085725 -0.05239,0 -0.100013,-0.061913 -0.32385,-0.36195 -0.66675,-0.638175 -0.04763,-0.033338 -0.04763,-0.0762 0,-0.028575 0.05239,-0.09525 0.05239,-0.071438 0.109537,-0.071438 0.05239,0 0.257175,0.161925 0.20955,0.161925 0.390525,0.3429 0.185738,0.1762125 0.185738,0.2333625 0,0.052388 -0.05239,0.1190625 z"
         style="fill:#00a86b;fill-opacity:1"
         id="path848" />
      <path
         d="m 17.379968,4.2545003 q -0.06668,0.00476 -0.1143,0.01905 -0.04763,0.00953 -0.0762,0.00953 -0.02858,0 -0.09049,-0.033338 -0.05239,-0.033338 -0.06668,-0.071438 -0.0095,-0.042863 -0.0095,-0.13335 l -0.01429,-0.7810499 -0.3429,0.01905 -0.100013,0.00476 q -0.100012,0 -0.123825,-0.023813 -0.05239,-0.0381 -0.100012,-0.1143 -0.04763,-0.0762 -0.04763,-0.09525 0,-0.028575 0.03334,-0.028575 0.01905,0 0.03334,0.00476 0.07144,0.014288 0.17145,0.014288 h 0.05239 l 0.4191,-0.023813 v -0.085725 q 0,-0.0762 -0.01429,-0.123825 -0.0095,-0.052388 -0.04286,-0.104775 -0.01429,-0.014288 -0.01429,-0.033338 0,-0.033338 0.07144,-0.033338 0.08096,0 0.180975,0.033338 0.104775,0.033338 0.104775,0.1095375 v 0.2238375 l 0.523875,-0.028575 -0.0048,-0.1571625 q 0,-0.123825 -0.07144,-0.238125 -0.01429,-0.023813 -0.01429,-0.033338 0,-0.028575 0.05715,-0.028575 0.0762,0 0.176212,0.033338 0.104775,0.028575 0.104775,0.1095375 l 0.0048,0.3000375 0.566737,-0.028575 0.0095,-0.161925 0.0048,-0.085725 q 0,-0.1095375 -0.0381,-0.161925 -0.01429,-0.023813 -0.01429,-0.0381 0,-0.028575 0.05715,-0.028575 0.02381,0 0.09049,0.014287 0.07144,0.014288 0.13335,0.052388 0.06191,0.0381 0.06191,0.09525 l -0.0048,0.033338 -0.02858,0.2619375 0.466725,-0.023813 q 0.142875,-0.00953 0.242887,-0.052388 0.0381,-0.014288 0.06668,-0.014288 0.06668,0 0.161925,0.080963 0.100013,0.080963 0.100013,0.142875 0,0.047625 -0.08573,0.05715 l -0.981075,0.052388 -0.0381,0.3190874 q 0.128587,0.142875 0.128587,0.1905 0,0.023812 -0.03334,0.033337 -0.02858,0.00953 -0.100013,0.014288 l -0.752475,0.033338 v 0.047625 q 0,0.080963 -0.05715,0.080963 -0.09525,-0.014288 -0.161925,-0.05715 -0.06668,-0.042863 -0.06668,-0.1095375 0,-0.023813 0.0048,-0.0381 0.02381,-0.13335 0.02381,-0.2047875 v -0.047625 l -0.0048,-0.2000249 -0.523875,0.028575 0.0048,0.7667624 1.814513,-0.071438 q 0.0762,-0.00476 0.142875,-0.023813 0.06668,-0.023813 0.0762,-0.028575 0.01429,-0.00476 0.04286,-0.00476 0.06191,0 0.161925,0.0762 0.104775,0.071438 0.104775,0.1381125 0,0.028575 -0.02858,0.047625 -0.02858,0.01905 -0.07144,0.01905 z m 0.295275,-1.6668749 q 0,0.0762 -0.0762,0.0762 -0.06191,0 -0.147638,-0.033338 -0.08573,-0.0381 -0.08573,-0.1476375 v -0.0762 l -0.790575,0.047625 -0.104775,0.00476 q -0.123825,0 -0.166687,-0.042863 -0.05715,-0.052388 -0.09049,-0.104775 -0.02858,-0.05715 -0.02858,-0.0762 0,-0.023813 0.02858,-0.023813 0.01905,0 0.03334,0.00476 0.0762,0.01905 0.1524,0.01905 l 0.0762,-0.00476 0.852487,-0.052388 -0.03334,-0.17145 q -0.01905,-0.09525 -0.104775,-0.1666875 -0.03334,-0.033338 -0.03334,-0.052388 0,-0.042863 0.109538,-0.042863 0.2667,0 0.290512,0.1381125 l 0.04763,0.2809875 0.176213,-0.00953 q 0.01905,-0.00476 0.04763,-0.00476 0.05239,0 0.08096,0.028575 0.03334,0.023813 0.03334,0.066675 -0.0048,0.047625 -0.04763,0.066675 -0.0381,0.01905 -0.109538,0.028575 -0.03334,0.00476 -0.08096,0.00953 -0.04286,0.00476 -0.06668,0.00476 l 0.03334,0.1952625 z m 0.395287,0.619125 0.0048,0.3143249 0.51435,-0.01905 0.02381,-0.3286124 z m 0.176213,2.7050998 q 0,0.104775 -0.07144,0.104775 -0.04286,0 -0.100012,-0.028575 -0.08096,-0.0381 -0.1143,-0.071438 -0.02858,-0.028575 -0.02858,-0.0762 0,-0.028575 0.0048,-0.042862 0.02381,-0.1190625 0.02381,-0.2809875 v -0.762 l -1.433513,0.071437 -0.1143,0.00476 q -0.09525,0 -0.157162,-0.042862 -0.05715,-0.047625 -0.09525,-0.180975 l -0.0048,-0.01905 q 0,-0.033338 0.02858,-0.033338 0.01905,0 0.02858,0.00476 0.08096,0.028575 0.166688,0.028575 h 0.04763 l 1.533525,-0.071438 v -0.066675 q 0,-0.066675 -0.04763,-0.13335 -0.01429,-0.023813 -0.01429,-0.0381 0,-0.033338 0.05715,-0.033338 0.09525,0 0.1905,0.042863 0.100013,0.0381 0.100013,0.09525 v 0.1190625 l 1.3716,-0.061913 q 0.100012,-0.00476 0.195262,-0.042863 0.02858,-0.00953 0.0381,-0.00953 0.06668,0 0.147638,0.0762 0.08096,0.0762 0.08096,0.1285875 0,0.05715 -0.109537,0.066675 l -1.724025,0.080963 z m 1.452562,-0.1571624 q -0.03334,0 -0.08573,-0.042863 -0.333375,-0.28575 -0.8001,-0.5667375 -0.08096,-0.052388 -0.08096,-0.090488 0,-0.05715 0.05715,-0.1190625 0.06191,-0.061913 0.09049,-0.061913 0.05239,0 0.371475,0.200025 0.32385,0.1952625 0.55245,0.3762375 0.06668,0.052388 0.06668,0.1000125 0,0.05715 -0.06668,0.1285875 -0.06668,0.0762 -0.104775,0.0762 z M 17.532368,5.0927003 q 0,0.061913 -0.233363,0.2428875 -0.2286,0.180975 -0.500062,0.333375 -0.2667,0.1571624 -0.366713,0.1571624 -0.0381,0 -0.0381,-0.028575 0,-0.047625 0.09525,-0.1143 0.242888,-0.1762125 0.461963,-0.3952875 0.219075,-0.219075 0.242887,-0.3667125 0.01429,-0.061913 0.06191,-0.061913 0.04763,0 0.109537,0.047625 0.06668,0.042863 0.1143,0.1000125 0.05239,0.05715 0.05239,0.085725 z m 0.585787,-2.9527499 q 0,-0.00953 0.01429,-0.014288 0.01429,-0.00953 0.03334,-0.00953 0.1905,0 0.328613,-0.00953 0.04286,-0.1381125 0.04286,-0.2286 v -0.0381 q 0,-0.071438 -0.03334,-0.13335 -0.01429,-0.028575 -0.01429,-0.042863 0,-0.028575 0.0381,-0.028575 0.04286,0 0.123825,0.0381 0.08096,0.033338 0.142875,0.085725 0.06668,0.047625 0.06668,0.1000125 0,0.023813 -0.0048,0.033338 -0.04763,0.13335 -0.0762,0.200025 l 0.70485,-0.042863 q 0.142875,-0.00476 0.238125,-0.0381 0.0381,-0.014288 0.07144,-0.014288 0.05715,0 0.138113,0.071438 0.08573,0.071438 0.08573,0.13335 0,0.047625 -0.100013,0.05715 l -1.247775,0.071438 q -0.05239,0.1095375 -0.123825,0.2143125 -0.07144,0.104775 -0.128587,0.104775 -0.04763,0 -0.04763,-0.071438 0,-0.033338 0.02381,-0.1143 0.01429,-0.0381 0.03334,-0.1143 -0.0381,0.00476 -0.08096,0.00476 -0.08573,0 -0.161925,-0.061913 -0.07144,-0.066675 -0.06668,-0.1476375 z"
         style="fill:#00a86b;fill-opacity:1"
         id="path850" />
      <path
         d="m 23.752184,2.7495504 q 0,-0.1952625 -0.03334,-0.2714625 -0.02858,-0.066675 -0.02858,-0.1095375 0,-0.033338 0.03334,-0.033338 0.06668,0 0.314325,0.13335 l 0.681037,-0.052387 h 0.04763 q 0.06191,0 0.13335,0.052387 0.07144,0.047625 0.07144,0.123825 0,0.014288 -0.0095,0.047625 -0.0095,0.033338 -0.0095,0.052388 -0.02381,0.8096249 -0.05239,1.2144374 -0.02858,0.4048125 -0.05715,0.542925 -0.02858,0.13335 -0.0762,0.1857375 -0.0762,0.090488 -0.157162,0.090488 -0.05715,0 -0.180975,-0.085725 -0.123825,-0.085725 -0.242888,-0.200025 -0.119062,-0.1143 -0.1524,-0.1762125 l 0.0048,1.6335374 q 0,0.1190625 -0.08096,0.1190625 -0.06191,0 -0.147637,-0.05715 -0.08096,-0.05715 -0.08096,-0.1381125 0,-0.033337 0.0048,-0.052387 0.02381,-0.1666875 0.02381,-0.28575 z m -0.804863,2.1955124 q 0.261938,-0.066675 0.576263,-0.1762125 0.08573,-0.028575 0.128587,-0.028575 0.06191,0 0.06191,0.033338 0,0.071437 -0.309563,0.2286 -0.309562,0.1571625 -0.723899,0.3190875 -0.109538,0.047625 -0.180975,0.080963 -0.07144,0.028575 -0.109538,0.047625 -0.185737,0.085725 -0.2286,0.090488 -0.04763,0 -0.104775,-0.080963 -0.05715,-0.080963 -0.03334,-0.123825 0.02858,-0.042863 0.02858,-0.4191 l -0.0048,-0.657225 q 0,-0.1000125 -0.05239,-0.1952625 -0.01905,-0.047625 -0.01905,-0.05715 0,-0.0381 0.05715,-0.0381 0.03334,0 0.142875,0.033338 0.09525,0.033338 0.119062,0.061913 0.02858,0.023813 0.02858,0.080963 l 0.01429,1.000125 0.333375,-0.123825 0.0095,-1.42875 -0.442913,0.023813 -0.109537,0.00476 q -0.04286,0 -0.06191,-0.00476 -0.06668,0 -0.128587,-0.09525 -0.05715,-0.09525 -0.05715,-0.1476375 0,-0.01905 0.02381,-0.01905 0.01905,0 0.03334,0.00476 0.05715,0.01905 0.138112,0.01905 l 0.07144,-0.00476 0.5334,-0.028575 0.0048,-0.5238749 -0.214312,0.014288 q -0.119063,0.180975 -0.214313,0.28575 -0.09525,0.1000125 -0.157162,0.1381125 -0.05715,0.033338 -0.0762,0.033338 -0.02381,0 -0.02381,-0.028575 0,-0.052388 0.05239,-0.1285875 0.138112,-0.20955 0.24765,-0.4572 0.1143,-0.2524125 0.176212,-0.4572 0.06191,-0.20955 0.06191,-0.3000375 v -0.028575 q 0,-0.071438 0.04763,-0.071438 0.02858,0 0.09525,0.0381 0.07144,0.033338 0.123825,0.080962 0.05715,0.047625 0.05715,0.09525 0,0.01905 -0.0762,0.200025 -0.07144,0.1762125 -0.166688,0.3476625 l 0.504825,-0.028575 q 0.119062,-0.00953 0.180975,-0.033338 0.02858,-0.00953 0.04763,-0.00953 0.06191,0 0.147637,0.0762 0.08573,0.0762 0.08573,0.1285875 0,0.052388 -0.109537,0.061913 l -0.509588,0.028575 -0.0048,0.5238749 0.276225,-0.014288 q 0.104775,-0.00953 0.180975,-0.0381 0.02858,-0.00953 0.04763,-0.00953 0.05715,0 0.147637,0.0762 0.09049,0.0762 0.09049,0.13335 0,0.052388 -0.1143,0.061913 l -0.62865,0.033338 -0.0048,0.4810125 0.138113,-0.00476 q 0.08096,0 0.180975,-0.0381 0.02858,-0.00953 0.04763,-0.00953 0.04763,0 0.100012,0.042863 0.05715,0.0381 0.09525,0.090488 0.04286,0.052388 0.04286,0.071438 0,0.052388 -0.1143,0.061913 l -0.4953,0.023813 z M 21.275684,4.0925753 q -0.142875,0.17145 -0.36195,0.3762375 -0.219075,0.200025 -0.300037,0.200025 -0.03334,0 -0.03334,-0.028575 0,-0.042863 0.08096,-0.1381125 0.157162,-0.180975 0.395287,-0.51435 0.242888,-0.333375 0.423863,-0.6477 0.180975,-0.3190874 0.180975,-0.4619624 v -0.033338 q 0,-0.052388 0.05239,-0.052388 0.02381,0 0.09049,0.0381 0.06668,0.033338 0.119062,0.085725 0.05715,0.047625 0.05715,0.09525 0,0.042863 -0.17145,0.3190874 -0.166687,0.2714625 -0.271462,0.4191 v 2.1097874 q 0,0.09525 -0.08096,0.09525 -0.01905,0 -0.0762,-0.023813 -0.05715,-0.01905 -0.104775,-0.061913 -0.04763,-0.0381 -0.04763,-0.09525 0,-0.014288 0.0095,-0.052388 0.02381,-0.104775 0.02381,-0.2524125 z m 2.7813,0.104775 q 0.04763,0 0.138112,0.047625 0.20955,0.1095375 0.32385,0.1381125 0.0095,0.00476 0.02858,0.00476 0.0381,0 0.06668,-0.4953 0.03334,-0.5000625 0.05239,-1.2144374 l -0.633413,0.047625 V 4.2021128 Z M 21.990059,2.0637504 q -0.257175,0.3857625 -0.519112,0.6524625 -0.257175,0.2667 -0.452438,0.40005 -0.1905,0.13335 -0.242887,0.13335 -0.03334,0 -0.03334,-0.028575 0,-0.047625 0.08573,-0.13335 0.2667,-0.2809875 0.461963,-0.5381625 0.195262,-0.257175 0.295275,-0.43815 0.104775,-0.1857375 0.104775,-0.2524125 0,-0.0762 0.05715,-0.0762 0.05715,0 0.161925,0.085725 0.104775,0.085725 0.104775,0.142875 0,0.01905 -0.02381,0.052388 z"
         style="stroke-width:0.264583"
         id="path852" />
      <path
         d="m 27.809825,4.3640378 v 1.266825 q 0,0.123825 -0.0762,0.123825 -0.02858,0 -0.09049,-0.028575 -0.06191,-0.028575 -0.1143,-0.080963 -0.04763,-0.052388 -0.04763,-0.123825 0,-0.033338 0.0048,-0.047625 0.03334,-0.1666875 0.03334,-0.28575 V 4.3735628 l -1.100138,0.047625 q -0.08573,0.43815 -0.261937,0.7953375 -0.17145,0.352425 -0.3429,0.5572125 -0.17145,0.2095499 -0.238125,0.2095499 -0.02858,0 -0.02858,-0.0381 0,-0.052388 0.04763,-0.13335 0.290512,-0.4857749 0.4191,-0.9239249 0.13335,-0.4429125 0.161925,-0.847725 0.03334,-0.409575 0.03334,-1.0763249 0,-0.3571875 -0.0048,-0.5334 0,-0.1905 -0.05715,-0.3048 -0.02381,-0.05715 -0.02381,-0.071438 0,-0.028575 0.03334,-0.028575 0.08096,0 0.3429,0.1143 l 2.543175,-0.1571625 h 0.0381 q 0.07144,0 0.128587,0.047625 0.06191,0.047625 0.06191,0.1190625 0,0.023813 -0.0095,0.05715 -0.0048,0.028575 -0.0048,0.052388 l 0.0048,3.3480374 0.0048,0.1381125 q 0,0.1142999 -0.06668,0.1762124 -0.06191,0.061913 -0.1524,0.0762 -0.08096,0 -0.280987,-0.1381125 -0.200025,-0.1333499 -0.371475,-0.2952749 -0.17145,-0.1571625 -0.17145,-0.219075 0,-0.033338 0.04286,-0.033338 0.04763,0 0.123825,0.042863 0.3048,0.1666875 0.566738,0.2524125 V 4.3164128 Z m -0.0048,-1.038225 0.0048,0.771525 1.147763,-0.047625 -0.0048,-0.7810499 z m 0,-0.9905999 v 0.7239 l 1.147762,-0.05715 V 2.2637754 Z m -1.2954,1.0572749 q -0.01429,0.5715 -0.04286,0.7572375 l 1.052513,-0.042863 V 3.3401003 Z M 26.5049,2.4114129 q 0.0048,0.238125 0.0048,0.714375 l 1.00965,-0.052388 v -0.7239 z"
         style="stroke-width:0.264583"
         id="path854" />
      <path
         d="m 33.005702,5.4832253 q -0.295275,0.1285875 -0.661987,0.1285875 -0.738188,0 -1.114425,-0.4619625 -0.376238,-0.4619625 -0.376238,-1.228725 0,-0.3952875 0.123825,-0.7429499 0.123825,-0.352425 0.290513,-0.5667375 0.166687,-0.219075 0.271462,-0.219075 0.06668,0 0.123825,0.05715 0.176213,-0.1571625 0.385763,-0.238125 0.20955,-0.080963 0.481012,-0.080963 0.414338,0 0.728663,0.2143125 0.314324,0.2143125 0.481012,0.5953125 0.17145,0.3762374 0.17145,0.8572499 0,0.4953 -0.166688,0.9001125 -0.161925,0.40005 -0.485774,0.638175 0.109537,0.1095375 0.233362,0.2047875 0.128587,0.09525 0.204787,0.123825 0.242888,0.1000125 0.242888,0.1571624 0,0.042863 -0.157163,0.042863 -0.176212,0 -0.280987,-0.033338 -0.104775,-0.028575 -0.200025,-0.1000124 -0.09525,-0.066675 -0.295275,-0.24765 z M 32.343715,4.8783878 q -0.05239,-0.047625 -0.104775,-0.0762 -0.04762,-0.033337 -0.06191,-0.05715 l -0.0048,-0.014288 q 0,-0.047625 0.100012,-0.104775 0.104775,-0.061913 0.176213,-0.061913 h 0.01429 q 0.05715,0.00953 0.08096,0.033338 0.02858,0.01905 0.05239,0.052388 0.02381,0.028575 0.04286,0.052388 0.07144,0.085725 0.395287,0.409575 0.280988,-0.1905 0.404813,-0.542925 0.128587,-0.3571875 0.128587,-0.809625 0,-0.3429 -0.119062,-0.6524624 -0.119063,-0.3095625 -0.36195,-0.5000625 -0.238125,-0.1952625 -0.585788,-0.1952625 -0.3048,0 -0.614362,0.1857375 -0.3048,0.180975 -0.504825,0.523875 -0.195263,0.3428999 -0.195263,0.7905749 0,0.6143625 0.276225,1.00965 0.280988,0.390525 0.842963,0.390525 0.233362,0 0.442912,-0.061913 z"
         style="stroke-width:0.264583"
         id="path856" />
      <path
         d="m 37.768195,5.4832253 q -0.295275,0.1285875 -0.661987,0.1285875 -0.738188,0 -1.114425,-0.4619625 -0.376238,-0.4619625 -0.376238,-1.228725 0,-0.3952875 0.123825,-0.7429499 0.123825,-0.352425 0.290513,-0.5667375 0.166687,-0.219075 0.271462,-0.219075 0.06668,0 0.123825,0.05715 0.176213,-0.1571625 0.385763,-0.238125 0.20955,-0.080963 0.481012,-0.080963 0.414338,0 0.728663,0.2143125 0.314325,0.2143125 0.481012,0.5953125 0.17145,0.3762374 0.17145,0.8572499 0,0.4953 -0.166687,0.9001125 -0.161925,0.40005 -0.485775,0.638175 0.109537,0.1095375 0.233362,0.2047875 0.128588,0.09525 0.204788,0.123825 0.242887,0.1000125 0.242887,0.1571624 0,0.042863 -0.157162,0.042863 -0.176213,0 -0.280988,-0.033338 Q 38.15872,5.8023127 38.06347,5.7308753 37.96822,5.6642003 37.768195,5.4832253 Z M 37.106208,4.8783878 q -0.05239,-0.047625 -0.104775,-0.0762 -0.04762,-0.033337 -0.06191,-0.05715 l -0.0048,-0.014288 q 0,-0.047625 0.100012,-0.104775 0.104775,-0.061913 0.176213,-0.061913 h 0.01429 q 0.05715,0.00953 0.08096,0.033338 0.02858,0.01905 0.05239,0.052388 0.02381,0.028575 0.04286,0.052388 0.07144,0.085725 0.395287,0.409575 0.280988,-0.1905 0.404813,-0.542925 0.128587,-0.3571875 0.128587,-0.809625 0,-0.3429 -0.119062,-0.6524624 -0.119063,-0.3095625 -0.36195,-0.5000625 -0.238125,-0.1952625 -0.585788,-0.1952625 -0.3048,0 -0.614362,0.1857375 -0.3048,0.180975 -0.504825,0.523875 -0.195263,0.3428999 -0.195263,0.7905749 0,0.6143625 0.276225,1.00965 0.280988,0.390525 0.842963,0.390525 0.233362,0 0.442912,-0.061913 z"
         style="stroke-width:0.264583"
         id="path858" />
      <path
         d="m 41.825834,2.0447004 q 0,-0.1143 -0.08572,-0.2428875 -0.01905,-0.023813 -0.01905,-0.052388 0,-0.033338 0.05715,-0.033338 0.100012,0 0.238124,0.05715 0.142875,0.05715 0.142875,0.13335 l -0.0048,1.0287 q 0.161925,0.2524125 0.319087,0.4714874 0.32385,-0.2381249 0.581025,-0.5048249 0.257175,-0.2714625 0.280988,-0.4238625 0.0048,-0.066675 0.05239,-0.066675 0.06191,0 0.157163,0.1143 0.100012,0.1095375 0.100012,0.1762125 0,0.066675 -0.366712,0.3952875 -0.36195,0.3286124 -0.6477,0.5333999 0.700087,0.9477375 1.5621,1.4430375 0.08096,0.0381 0.08096,0.0762 0,0.042863 -0.119062,0.123825 -0.1143,0.080963 -0.17145,0.080963 -0.02857,0 -0.06667,-0.023813 -1.0287,-0.752475 -1.762125,-1.8907125 l -0.0048,2.028825 0.0048,0.180975 q 0,0.066675 -0.01905,0.1143 -0.01905,0.052387 -0.07144,0.09525 -0.06667,0.052388 -0.138112,0.052388 -0.104775,0 -0.36195,-0.1381124 -0.252412,-0.13335 -0.466725,-0.295275 -0.214312,-0.161925 -0.214312,-0.2238375 0,-0.042863 0.05239,-0.042863 0.04286,0 0.09049,0.023813 0.433387,0.200025 0.800099,0.2714625 z m -1.423987,1.2239625 q -0.1143,0.00953 -0.147637,0.00953 -0.06668,0 -0.128588,-0.042863 -0.06191,-0.042862 -0.13335,-0.1905 -0.01429,-0.028575 -0.01429,-0.042863 0,-0.023813 0.0381,-0.023813 l 0.0381,0.00476 q 0.100012,0.014288 0.185737,0.014288 h 0.06191 l 0.928687,-0.066675 h 0.05715 q 0.08572,0 0.157163,0.05715 0.0762,0.052388 0.0762,0.1190625 0,0.047625 -0.02857,0.085725 -0.02858,0.033337 -0.03334,0.042862 -0.219075,0.6857999 -0.595312,1.2096749 -0.376238,0.523875 -0.938213,0.9096375 -0.06191,0.042863 -0.100012,0.042863 -0.05239,0 -0.05239,-0.047625 0,-0.052388 0.06191,-0.1095375 0.481012,-0.466725 0.8001,-0.962025 0.319087,-0.5000625 0.47625,-1.0572749 z"
         style="stroke-width:0.264583"
         id="path860" />
      <path
         d="m 47.840861,3.7401503 q 0,0.042863 -0.05715,0.071438 -0.05715,0.028575 -0.128587,0.028575 -0.05715,0 -0.09525,-0.023813 -0.0381,-0.023813 -0.0381,-0.071438 -0.0095,-0.2524125 -0.04763,-0.6286499 -0.03334,-0.381 -0.05715,-0.5572125 -0.233363,0.5476875 -0.333375,0.8239124 l -0.02858,0.085725 q -0.0048,0.05715 -0.06191,0.090488 -0.05239,0.033338 -0.123825,0.033338 -0.119062,0 -0.147637,-0.080963 -0.0095,-0.033338 -0.02381,-0.071438 -0.01429,-0.0381 -0.02381,-0.05715 -0.180975,-0.4571999 -0.276225,-0.7286624 -0.08572,0.9953624 -0.08572,1.0858499 0,0.0381 -0.04763,0.061913 -0.04286,0.023813 -0.104775,0.023813 -0.06668,0 -0.1143,-0.023813 -0.04763,-0.023813 -0.04763,-0.066675 v -0.00953 q 0.04763,-0.3095625 0.142875,-1.4287499 v -0.023813 l -0.0048,-0.085725 v -0.01905 q 0.0095,-0.047625 0.08573,-0.090488 0.08096,-0.047625 0.147638,-0.047625 0.08096,0 0.142875,0.142875 0.138112,0.4143375 0.366712,1.0048875 0.147638,-0.371475 0.2667,-0.6524625 0.04763,-0.123825 0.08573,-0.2143125 0.0381,-0.090488 0.06191,-0.1524 0.0381,-0.080963 0.06191,-0.1095375 0.02857,-0.033338 0.09049,-0.033338 0.05715,0 0.1524,0.05715 0.09525,0.05715 0.09525,0.1000125 0,0.023813 -0.0048,0.047625 -0.0048,0.023813 -0.0048,0.047625 v 0.01905 q 0.02858,0.28575 0.08096,0.809625 0.05715,0.5238749 0.0762,0.6334124 z m -3.038475,-1.3906499 -0.195262,0.023813 h -0.0048 q -0.05239,0 -0.09049,-0.061913 -0.03334,-0.066675 -0.03334,-0.1381125 0,-0.09525 0.06668,-0.09525 h 0.0048 q 0.04286,0.00476 0.166687,0.00476 h 0.07144 l 0.8382,-0.042863 q 0.09049,-0.00476 0.1905,-0.023813 h 0.01429 q 0.05239,0 0.08573,0.061913 0.03334,0.05715 0.03334,0.123825 0,0.104775 -0.07144,0.104775 -0.0381,-0.00476 -0.119062,-0.00476 -0.0762,0 -0.119063,0.00476 l -0.276225,0.014288 v 1.1287124 l 0.0048,0.1952625 q 0.0048,0.052387 0.0048,0.1190625 0,0.028575 -0.0381,0.047625 -0.0381,0.014288 -0.09049,0.014288 -0.07144,0 -0.128588,-0.028575 -0.05715,-0.028575 -0.05715,-0.080963 l 0.0048,-0.2667 V 2.3352129 Z"
         style="stroke-width:0.264583"
         id="path862" />
    </g>
  </g>
</svg>
