<?xml version="1.0" encoding="UTF-8" standalone="no"?>
<svg
   xmlns:dc="http://purl.org/dc/elements/1.1/"
   xmlns:cc="http://creativecommons.org/ns#"
   xmlns:rdf="http://www.w3.org/1999/02/22-rdf-syntax-ns#"
   xmlns:svg="http://www.w3.org/2000/svg"
   xmlns="http://www.w3.org/2000/svg"
   width="72"
   height="24"
   viewBox="0 0 19.049999 6.3500002"
   version="1.1"
   id="svg8">
  <defs
     id="defs2" />
  <metadata
     id="metadata5">
    <rdf:RDF>
      <cc:Work
         rdf:about="">
        <dc:format>image/svg+xml</dc:format>
        <dc:type
           rdf:resource="http://purl.org/dc/dcmitype/StillImage" />
        <dc:title></dc:title>
      </cc:Work>
    </rdf:RDF>
  </metadata>
  <g
     id="layer1"
     transform="translate(-49.943527,-71.440254)">
    <g
       id="g901">
      <rect
         style="fill:#a52a2a;stroke-width:0.212196"
         id="rect14"
         width="19.049999"
         height="6.3499999"
         x="49.943527"
         y="71.440254" />
      <g
         aria-label="🔙 返回"
         id="text12"
         style="font-size:4.23333px;line-height:1.25;font-family:Iansui;-inkscape-font-specification:'Iansui, Normal';word-spacing:0px;fill:#ffffff;fill-opacity:1;stroke-width:0.264583">
        <path
           d="m 56.027681,73.542027 v 0.417546 h -2.131135 l 0.706933,0.711067 h -0.564306 l -0.992187,-0.909505 0.992187,-0.926041 h 0.564306 l -0.706933,0.706933 z m -3.259747,1.459342 h 0.341064 q 0.155029,0 0.248047,0.07028 0.09095,0.06615 0.09095,0.183967 0,0.08475 -0.05581,0.152963 -0.05168,0.06821 -0.142627,0.09508 v 0.0062 q 0.119889,0.01654 0.183968,0.08682 0.06615,0.07235 0.06615,0.177766 0,0.142627 -0.109554,0.231511 -0.10542,0.08888 -0.266651,0.08888 h -0.355533 z m 0.177767,0.452685 h 0.115755 q 0.04754,0 0.08268,-0.0083 0.03721,-0.01034 0.05994,-0.03307 0.05168,-0.04548 0.05168,-0.126091 0,-0.132291 -0.194303,-0.132291 h -0.115755 z m 0,0.487825 h 0.152962 q 0.09922,0 0.150895,-0.04547 0.05581,-0.04548 0.05581,-0.128158 0,-0.07441 -0.05581,-0.121956 -0.02894,-0.0186 -0.07028,-0.02894 -0.03927,-0.01033 -0.09715,-0.01033 h -0.136425 z m 1.351854,-0.121956 h -0.436149 l -0.09302,0.274918 h -0.198438 l 0.413412,-1.093472 H 54.1818 l 0.415478,1.093472 h -0.198437 z m -0.386539,-0.152962 h 0.33693 l -0.148828,-0.42168 q -0.0062,-0.01654 -0.0124,-0.04134 -0.0041,-0.02481 -0.0083,-0.03514 -0.0041,0.01447 -0.0083,0.03721 -0.0041,0.02274 -0.01034,0.03927 z m 1.566828,0.376204 q -0.117822,0.06614 -0.310059,0.06614 -0.117822,0 -0.214973,-0.03514 -0.09509,-0.03514 -0.167432,-0.111621 -0.136426,-0.144693 -0.136426,-0.39274 0,-0.262516 0.159164,-0.419612 0.08268,-0.08062 0.181901,-0.121957 0.09922,-0.04341 0.223242,-0.04341 0.163297,0 0.264583,0.04754 v 0.181901 q -0.117822,-0.07028 -0.260449,-0.07028 -0.165365,0 -0.272852,0.111621 -0.107486,0.113689 -0.107486,0.303858 0,0.08888 0.0248,0.16123 0.02481,0.07028 0.07235,0.124023 0.09922,0.107487 0.264583,0.107487 0.07855,0 0.148828,-0.0186 0.07235,-0.0186 0.130225,-0.05788 z m 0.417545,-0.432015 q 0,-0.0083 -0.01654,-0.02481 l -0.01447,-0.02687 v 0.535367 h -0.183968 v -1.093472 h 0.183968 V 75.5202 l 0.01447,-0.02687 q 0.0083,-0.01034 0.01654,-0.02481 l 0.365869,-0.467154 h 0.219108 l -0.438216,0.522965 0.467154,0.570507 h -0.237711 z"
           style="fill:#ffffff;fill-opacity:1;stroke-width:0.264583"
           id="path889" />
        <path
           d="m 59.4974,73.61411 q 0,0.04233 -0.0635,0.1016 -0.05927,0.05927 -0.105833,0.05927 -0.04657,0 -0.105833,-0.08043 -0.2413,-0.325966 -0.478366,-0.550333 -0.05503,-0.04657 -0.05503,-0.08043 0,-0.03387 0.05927,-0.08043 0.0508,-0.0381 0.0889,-0.0381 0.04657,0 0.207433,0.148166 0.160867,0.148167 0.3048,0.313267 0.148166,0.165099 0.148166,0.207433 z m 0.732366,0.423333 q -0.0381,0.507999 -0.190499,0.880532 -0.148167,0.3683 -0.3175,0.567267 -0.169333,0.194733 -0.237067,0.194733 -0.02963,0 -0.02963,-0.0381 0,-0.0508 0.05927,-0.1397 0.207433,-0.313267 0.309033,-0.6604 0.1016,-0.351366 0.131233,-0.681566 0.02963,-0.334433 0.02963,-0.749299 0,-0.3048 -0.05503,-0.402166 -0.01693,-0.02963 -0.01693,-0.0508 0,-0.0254 0.03387,-0.0254 0.08467,0 0.325967,0.131233 l 1.113365,-0.0762 q 0.135467,-0.0085 0.198967,-0.04657 0.02117,-0.0127 0.04233,-0.0127 0.05927,0 0.1397,0.08043 0.08043,0.0762 0.08043,0.122766 0,0.05927 -0.08467,0.06773 l -1.498599,0.0889 q -0.0085,0.359833 -0.01693,0.524933 l 1.244599,-0.0762 0.0762,-0.0042 q 0.06773,0 0.1143,0.0381 0.04657,0.03387 0.06773,0.0762 0.02117,0.0381 0.02117,0.05503 0,0.03387 -0.02963,0.0762 -0.02963,0.04233 -0.04233,0.06773 -0.194733,0.461433 -0.4953,0.821266 0.757766,0.715433 0.757766,0.8001 0,0.02963 -0.05927,0.09313 -0.05503,0.0635 -0.1016,0.0635 -0.03387,0 -0.07197,-0.04657 -0.3302,-0.380999 -0.690033,-0.728132 -0.190499,0.186266 -0.419099,0.347133 -0.224367,0.160866 -0.4064,0.258233 -0.182033,0.09737 -0.232833,0.09737 -0.04233,0 -0.04233,-0.02963 0,-0.05503 0.105833,-0.127 0.478366,-0.321733 0.825499,-0.706966 Q 60.5896,74.630109 60.361,74.439609 q -0.02963,-0.02963 -0.02963,-0.05927 0,-0.0381 0.04233,-0.0889 0.04233,-0.0508 0.0889,-0.0508 0.02963,0 0.135466,0.0889 0.105833,0.08467 0.427566,0.372534 0.275167,-0.3556 0.397933,-0.7366 z m 1.820332,2.357964 q -0.512233,-0.01693 -1.253065,-0.135466 -0.7366,-0.118533 -1.409699,-0.254 -0.254,-0.0508 -0.4064,-0.0508 -0.211666,0 -0.444499,0.0762 -0.0381,0.0127 -0.07197,0.0127 -0.04233,0 -0.0762,-0.0381 -0.02963,-0.04233 -0.02963,-0.143933 0,-0.04233 0.0254,-0.0635 0.0254,-0.02117 0.09313,-0.03387 0.2032,-0.0381 0.313266,-0.04233 0.249767,-0.220133 0.423333,-0.440266 0.0085,-0.01693 0.0085,-0.02117 0,-0.04657 -0.3175,-0.258233 -0.1143,-0.0762 -0.1143,-0.1651 0,-0.0381 0.01693,-0.08043 0.02117,-0.04233 0.105833,-0.1651 0.08467,-0.127 0.2286,-0.3302 l -0.4064,0.0508 q -0.03387,0.0042 -0.08467,0.0042 -0.05927,0 -0.131233,-0.03387 -0.07197,-0.0381 -0.105833,-0.1651 -0.0042,-0.0085 -0.0042,-0.0254 0,-0.02963 0.0254,-0.02963 l 0.0254,0.0042 q 0.0635,0.0127 0.131233,0.0127 0.04657,0 0.06773,-0.0042 l 0.651933,-0.06773 0.04657,-0.0042 q 0.0508,0 0.110066,0.04657 0.05927,0.04657 0.05927,0.09737 0,0.03387 -0.03387,0.06773 -0.03387,0.02963 -0.04233,0.04233 -0.143933,0.182033 -0.270933,0.3556 -0.127,0.169333 -0.127,0.186266 0,0.01693 0.02117,0.02963 0.245534,0.160867 0.338667,0.254 0.09737,0.09313 0.09737,0.173567 0,0.0762 -0.0762,0.1651 -0.0762,0.08467 -0.304799,0.296333 0.156633,0.0127 0.296333,0.04233 1.824565,0.3556 2.747431,0.3556 h 0.02117 q 0.09737,0 0.09737,0.0381 0,0.0127 -0.02963,0.0762 -0.02963,0.0635 -0.08043,0.114299 -0.04657,0.0508 -0.110066,0.0508 z"
           style="fill:#ffffff;fill-opacity:1;stroke-width:0.264583"
           id="path891" />
        <path
           d="m 63.375123,76.272641 v 0.0127 q 0,0.09737 -0.08467,0.09737 -0.07197,0 -0.148166,-0.0508 -0.0762,-0.0508 -0.0762,-0.148166 l 0.0042,-0.04233 q 0.0127,-0.1143 0.0127,-0.2286 v -0.0508 l -0.0889,-2.256365 q -0.0085,-0.1524 -0.05503,-0.2413 -0.0254,-0.05927 -0.0254,-0.07197 0,-0.02963 0.04233,-0.02963 0.06773,0 0.309033,0.08467 l 2.645831,-0.143933 h 0.04233 q 0.09313,0 0.1524,0.05503 0.0635,0.05503 0.0635,0.110067 0,0.02117 -0.0127,0.04657 -0.0085,0.02117 -0.0127,0.0381 l -0.122767,2.247898 q 0.135467,0.148167 0.135467,0.211667 0,0.03387 -0.0381,0.04657 -0.03387,0.0085 -0.110067,0.0127 l -2.641598,0.0635 z m -0.110067,-2.683931 0.0889,2.197098 2.387598,-0.07197 0.118533,-2.252131 z m 0.939799,1.646765 v 0.0127 q 0,0.1016 -0.07197,0.1016 -0.01693,0 -0.06773,-0.0127 -0.04657,-0.01693 -0.09313,-0.0508 -0.04233,-0.0381 -0.04233,-0.105833 v -0.02117 q 0.0085,-0.1016 0.0085,-0.148166 l -0.0042,-0.0889 -0.04657,-0.605367 q -0.0085,-0.148166 -0.05503,-0.228599 -0.02963,-0.0508 -0.02963,-0.06773 0,-0.0254 0.04233,-0.0254 0.07197,0 0.287867,0.0762 l 0.867832,-0.0508 h 0.0381 q 0.07197,0 0.131234,0.0508 0.0635,0.0508 0.0635,0.09737 0,0.02117 -0.0127,0.04657 -0.0127,0.0254 -0.01693,0.04233 l -0.07197,0.643466 q 0.1143,0.131233 0.1143,0.186267 0,0.02963 -0.02963,0.0381 -0.02963,0.0085 -0.09737,0.0127 l -0.918633,0.04233 z m -0.0635,-0.935566 0.04233,0.651933 0.698499,-0.03387 0.0508,-0.660399 z"
           style="fill:#ffffff;fill-opacity:1;stroke-width:0.264583"
           id="path893" />
      </g>
    </g>
  </g>
</svg>
