<?xml version="1.0" encoding="UTF-8" standalone="no"?>
<svg
   xmlns:dc="http://purl.org/dc/elements/1.1/"
   xmlns:cc="http://creativecommons.org/ns#"
   xmlns:rdf="http://www.w3.org/1999/02/22-rdf-syntax-ns#"
   xmlns:svg="http://www.w3.org/2000/svg"
   xmlns="http://www.w3.org/2000/svg"
   xmlns:sodipodi="http://sodipodi.sourceforge.net/DTD/sodipodi-0.dtd"
   xmlns:inkscape="http://www.inkscape.org/namespaces/inkscape"
   width="72"
   height="24"
   viewBox="0 0 19.05 6.3500002"
   version="1.1"
   id="svg8"
   inkscape:version="1.0.1 (3bc2e813f5, 2020-09-07)"
   sodipodi:docname="terms.svg">
  <defs
     id="defs2" />
  <sodipodi:namedview
     id="base"
     pagecolor="#000000"
     bordercolor="#666666"
     borderopacity="1.0"
     inkscape:pageopacity="0"
     inkscape:pageshadow="2"
     inkscape:zoom="2"
     inkscape:cx="139.3378"
     inkscape:cy="22.857148"
     inkscape:document-units="px"
     inkscape:current-layer="layer1"
     inkscape:document-rotation="0"
     showgrid="false"
     units="px"
     fit-margin-top="0"
     fit-margin-left="0"
     fit-margin-right="0"
     fit-margin-bottom="0"
     inkscape:window-width="1080"
     inkscape:window-height="658"
     inkscape:window-x="-6"
     inkscape:window-y="-6"
     inkscape:window-maximized="1" />
  <metadata
     id="metadata5">
    <rdf:RDF>
      <cc:Work
         rdf:about="">
        <dc:format>image/svg+xml</dc:format>
        <dc:type
           rdf:resource="http://purl.org/dc/dcmitype/StillImage" />
        <dc:title></dc:title>
      </cc:Work>
    </rdf:RDF>
  </metadata>
  <g
     inkscape:label="Layer 1"
     inkscape:groupmode="layer"
     id="layer1"
     transform="translate(-34.017857,-68.035713)">
    <g
       id="g35">
      <rect
         style="fill:#ffffff;fill-opacity:1;stroke-width:0.212196"
         id="rect10"
         width="19.049999"
         height="6.3499999"
         x="34.017857"
         y="68.035713" />
      <g
         aria-label="服務條款"
         id="text18"
         style="font-size:4.23333px;line-height:1.25;font-family:Iansui;-inkscape-font-specification:'Iansui, Normal';word-spacing:0px;stroke-width:0.264583">
        <path
           d="m 35.905941,71.623461 q -0.0635,0.440267 -0.2159,0.762 -0.1524,0.317499 -0.309033,0.491066 -0.1524,0.173566 -0.198967,0.173566 -0.0254,0 -0.0254,-0.02963 0,-0.03387 0.04657,-0.118533 0.2159,-0.3556 0.321733,-0.7112 0.110066,-0.359833 0.143933,-0.715432 0.03387,-0.359833 0.03387,-0.846666 0,-0.427567 -0.0127,-0.605366 -0.0085,-0.182034 -0.0508,-0.296333 -0.0127,-0.03387 -0.0127,-0.05503 0,-0.03387 0.0381,-0.03387 0.08043,0 0.313266,0.114299 l 0.5969,-0.0508 h 0.0508 q 0.07197,0 0.127,0.04233 0.05927,0.0381 0.05927,0.09737 0,0.01693 -0.0127,0.05503 -0.0085,0.03387 -0.0085,0.05503 l -0.0085,2.722031 0.0042,0.105833 q 0,0.1016 -0.06773,0.160867 -0.06773,0.0635 -0.1397,0.0635 -0.06773,0 -0.2159,-0.110067 -0.148166,-0.105833 -0.275166,-0.232833 -0.122767,-0.127 -0.122767,-0.169333 0,-0.02963 0.03387,-0.02963 0.05503,0 0.135466,0.0508 0.186267,0.105833 0.381,0.173566 l 0.0042,-1.087966 z m 1.261532,-1.659465 q 0,-0.182033 -0.0254,-0.245533 -0.0254,-0.05927 -0.0254,-0.0889 0,-0.03387 0.03387,-0.03387 0.0508,0 0.283633,0.09737 l 0.965199,-0.06773 0.04233,-0.0042 q 0.06773,0 0.127,0.0508 0.0635,0.0508 0.0635,0.1016 0,0.02117 -0.0085,0.04657 -0.0085,0.02117 -0.0127,0.0381 -0.04233,0.533399 -0.09737,0.770466 -0.0508,0.232833 -0.1905,0.232833 -0.06773,0 -0.220133,-0.0889 -0.1524,-0.09313 -0.283633,-0.198967 -0.127,-0.110066 -0.127,-0.156633 0,-0.02963 0.0381,-0.02963 0.04233,0 0.105833,0.02963 0.2413,0.1016 0.385233,0.1397 l 0.01693,0.0042 q 0.0127,0 0.02117,-0.02117 0.0635,-0.300567 0.08467,-0.664633 l -0.922866,0.05927 v 1.113365 l 1.037165,-0.05503 h 0.0381 q 0.05927,0 0.122767,0.03387 0.08043,0.05503 0.08043,0.1143 -0.0762,0.270933 -0.186266,0.554566 -0.105834,0.283633 -0.2286,0.491066 0.385233,0.410633 0.808566,0.613833 0.0762,0.03387 0.0762,0.07197 0,0.01693 -0.03387,0.0635 -0.03387,0.04657 -0.08043,0.08043 -0.04233,0.0381 -0.08467,0.0381 -0.02963,0 -0.160866,-0.0889 -0.127,-0.08467 -0.3048,-0.232833 -0.1778,-0.1524 -0.351366,-0.338667 -0.118534,0.156633 -0.254,0.2921 -0.131233,0.135467 -0.2413,0.211667 -0.110066,0.08043 -0.148166,0.08043 -0.02963,0 -0.02963,-0.02963 0,-0.04233 0.0635,-0.105833 0.2794,-0.300566 0.465666,-0.613833 -0.126999,-0.152399 -0.304799,-0.406399 -0.1778,-0.258233 -0.1778,-0.3175 0,-0.04657 0.04657,-0.08043 0.0508,-0.0381 0.09737,-0.0381 0.0508,0 0.08043,0.0635 0.1524,0.2667 0.376767,0.554566 0.156633,-0.334433 0.253999,-0.761999 l -0.960965,0.04657 -0.0042,1.761065 q 0,0.08467 -0.06773,0.08467 -0.05503,0 -0.1397,-0.0508 -0.08043,-0.04657 -0.08043,-0.110067 0,-0.01693 0.0085,-0.05927 0.02117,-0.148167 0.02117,-0.2921 z m -1.202266,0.0254 v 0.588433 l 0.5588,-0.02963 0.0042,-0.596899 z m -0.0042,0.817033 q -0.0085,0.347133 -0.02963,0.584199 l 0.588432,-0.02963 0.0042,-0.579966 z"
           style="stroke-width:0.264583"
           id="path20" />
        <path
           d="m 40.626095,72.724127 q 0,0.04657 0.0042,0.08043 0.0042,0.03387 0.0042,0.05927 0,0.06773 -0.04233,0.110066 -0.04233,0.04233 -0.09313,0.05927 -0.0508,0.02117 -0.06773,0.02117 -0.08467,0 -0.249766,-0.148167 -0.160867,-0.143933 -0.2667,-0.2667 -0.0635,-0.0762 -0.0635,-0.1143 0,-0.0254 0.03387,-0.0254 0.04233,0 0.1143,0.04233 0.207434,0.118533 0.376767,0.198966 l 0.0085,-1.181099 q 0,-0.160866 0.01693,-0.457199 -0.09313,0.347133 -0.300567,0.694266 -0.2032,0.342899 -0.410633,0.579966 -0.2032,0.237066 -0.258233,0.237066 -0.0254,0 -0.0254,-0.02963 0,-0.0381 0.05927,-0.131233 0.414866,-0.613833 0.766232,-1.477432 l -0.380999,0.02117 q -0.04657,0.0042 -0.118533,0.0042 h -0.02117 q -0.06773,0 -0.118533,-0.05503 -0.04657,-0.05503 -0.07197,-0.118533 -0.0127,-0.0254 -0.0127,-0.0381 0,-0.02963 0.0381,-0.02963 0.01693,0 0.0254,0.0042 0.07197,0.0127 0.148167,0.0127 h 0.05503 l 0.766233,-0.04657 q -0.207434,-0.220133 -0.491067,-0.414867 -0.04657,-0.03387 -0.04657,-0.0635 0,-0.02963 0.0381,-0.08043 0.0381,-0.05503 0.0762,-0.05503 0.02963,0 0.0889,0.0381 0.0635,0.0381 0.232833,0.1651 0.279399,-0.254 0.427566,-0.474133 l -0.855133,0.06773 q -0.04657,0.0042 -0.118533,0.0042 h -0.02117 q -0.05927,0 -0.105833,-0.0381 -0.04233,-0.04233 -0.06773,-0.09313 -0.0254,-0.0508 -0.0254,-0.08043 0,-0.02963 0.02963,-0.02963 0.01693,0 0.02963,0.0042 0.0635,0.0127 0.122766,0.0127 l 0.0762,-0.0042 1.054099,-0.07197 h 0.04657 q 0.06773,0 0.122766,0.04233 0.05927,0.04233 0.05927,0.1016 0,0.05503 -0.2032,0.2794 -0.2032,0.220133 -0.402166,0.414866 0.05503,0.04233 0.08467,0.0762 0.05927,0.0508 0.05927,0.09313 0,0.02963 -0.0381,0.0762 0,0 -0.01693,0.01693 l 0.372533,-0.02117 h 0.04233 q 0.08467,0 0.143933,0.05503 0.05927,0.0508 0.05927,0.105834 0,0.0381 -0.02963,0.06773 -0.0254,0.0254 -0.03387,0.0381 -0.08043,0.127 -0.232833,0.321733 -0.1524,0.1905 -0.2286,0.1905 -0.03387,0 -0.03387,-0.0381 0,-0.0381 0.0381,-0.1016 0.1397,-0.220133 0.207434,-0.4064 l -0.376767,0.02117 z m 2.188632,-2.764364 q -0.207434,0.406399 -0.491067,0.745066 0.448733,0.372533 1.045633,0.601133 0.06773,0.0254 0.06773,0.05503 0,0.0381 -0.06773,0.1143 -0.06773,0.07197 -0.1143,0.07197 -0.0254,0 -0.207433,-0.08467 -0.182033,-0.0889 -0.423333,-0.237067 -0.237067,-0.1524 -0.465666,-0.342899 -0.224367,0.224366 -0.474133,0.393699 -0.245534,0.1651 -0.440267,0.258233 -0.194733,0.0889 -0.258233,0.0889 -0.0381,0 -0.0381,-0.0254 0,-0.04233 0.09737,-0.1016 0.533399,-0.317499 0.944032,-0.770466 -0.207433,-0.203199 -0.423333,-0.491066 -0.127,0.148167 -0.258233,0.254 -0.131233,0.105833 -0.169333,0.105833 -0.01693,0 -0.01693,-0.01693 0,-0.04233 0.05927,-0.118533 0.143934,-0.1778 0.2794,-0.402167 0.135467,-0.224366 0.220133,-0.414866 0.08467,-0.1905 0.08467,-0.2667 0,-0.0254 -0.0042,-0.04233 l -0.0042,-0.01693 q 0,-0.04233 0.04233,-0.04233 0.05503,0 0.148166,0.06773 0.09737,0.06773 0.09737,0.122766 0,0.0381 -0.06773,0.156633 -0.0635,0.118534 -0.09737,0.173567 l 0.863599,-0.05503 q 0.0889,-0.0085 0.173567,-0.0381 0.0254,-0.0085 0.04233,-0.0085 0.05503,0 0.131233,0.06773 0.08043,0.0635 0.08043,0.122767 0,0.0508 -0.0889,0.05927 z m -0.7112,1.909231 q -0.156633,0.4191 -0.406399,0.702733 -0.249767,0.2794 -0.478367,0.414866 -0.224366,0.135467 -0.287866,0.135467 -0.02963,0 -0.02963,-0.02117 0,-0.04657 0.09737,-0.118533 0.2794,-0.220133 0.499533,-0.499533 0.220133,-0.283633 0.3429,-0.601133 l -0.275167,0.0127 -0.110066,0.0042 q -0.07197,0 -0.122767,-0.02963 -0.0508,-0.02963 -0.09313,-0.143933 -0.0085,-0.01693 -0.0085,-0.04233 0,-0.0254 0.0254,-0.0254 0.01693,0 0.02963,0.0042 0.07197,0.0127 0.148166,0.0127 h 0.05503 l 0.427567,-0.02117 q 0.01693,-0.0635 0.02963,-0.1397 0.0127,-0.0762 0.0127,-0.1143 0,-0.04233 -0.01693,-0.1016 -0.0085,-0.0254 -0.0085,-0.0381 0,-0.04233 0.04657,-0.04233 0.0254,0 0.0889,0.02117 0.0635,0.02117 0.1143,0.05927 0.0508,0.03387 0.0508,0.08043 -0.0042,0.03387 -0.02117,0.110067 -0.0127,0.07197 -0.0381,0.1524 l 0.550333,-0.0254 0.07197,-0.0042 q 0.08043,0 0.131234,0.0508 0.0508,0.04657 0.0508,0.09737 0,0.02117 -0.01693,0.0508 -0.0127,0.02963 -0.0127,0.04233 -0.03387,0.414866 -0.122766,0.817033 -0.03387,0.160866 -0.0635,0.237066 -0.0254,0.0762 -0.08467,0.135467 -0.08467,0.08467 -0.143933,0.08467 -0.0508,0 -0.2032,-0.105833 -0.1524,-0.1016 -0.283633,-0.224366 -0.131233,-0.118534 -0.131233,-0.160867 0,-0.02963 0.0381,-0.02963 0.04657,0 0.127,0.04233 0.105833,0.0508 0.241299,0.105833 0.1397,0.05503 0.1651,0.05503 0.0254,0 0.06773,-0.1143 0.04233,-0.118534 0.08043,-0.338667 0.04233,-0.220133 0.06773,-0.516466 z m -0.397933,-1.811865 q 0.194733,0.2667 0.436033,0.4953 0.2032,-0.249767 0.3683,-0.575733 l -0.778933,0.04657 z"
           style="stroke-width:0.264583"
           id="path22" />
        <path
           d="m 46.895648,70.006329 q -0.186266,0.381 -0.452966,0.6604 0.4953,0.342899 1.126066,0.524933 0.0508,0.0127 0.0508,0.04657 0,0.01693 -0.02963,0.06773 -0.02963,0.04657 -0.07197,0.0889 -0.04233,0.0381 -0.0889,0.0381 -0.0381,0 -0.2286,-0.0762 -0.186266,-0.08043 -0.436033,-0.220133 -0.249766,-0.1397 -0.478366,-0.313266 -0.237067,0.211666 -0.491066,0.351366 -0.254,0.135467 -0.448733,0.2032 -0.1905,0.0635 -0.237067,0.0635 -0.04233,0 -0.04233,-0.02117 0,-0.04657 0.1143,-0.101599 0.550333,-0.2794 0.922866,-0.643467 -0.2286,-0.203199 -0.402167,-0.414866 -0.165099,0.1778 -0.317499,0.325966 -0.148167,0.143934 -0.220133,0.143934 -0.02117,0 -0.02117,-0.02117 0,-0.04233 0.0635,-0.122767 0.2159,-0.266699 0.440266,-0.613832 0.224367,-0.351367 0.224367,-0.554567 v -0.0381 q 0,-0.0381 0.02963,-0.0381 0.03387,0 0.09313,0.03387 0.0635,0.03387 0.110067,0.08467 0.0508,0.04657 0.0508,0.0889 0,0.0254 -0.0085,0.0381 -0.0508,0.110066 -0.143933,0.262466 l 0.825499,-0.0508 q 0.110067,-0.0042 0.1905,-0.0381 0.03387,-0.0127 0.05503,-0.0127 0.05927,0 0.131234,0.07197 0.0762,0.06773 0.0762,0.105833 0,0.05503 -0.08467,0.0635 z m -0.486832,3.039531 q 0,0.1016 -0.06773,0.1016 -0.0381,0 -0.1016,-0.0381 -0.05927,-0.03387 -0.08043,-0.05927 -0.02117,-0.02117 -0.02117,-0.05927 0,-0.0254 0.0042,-0.0381 0.02117,-0.156633 0.02117,-0.2794 l 0.0127,-0.605366 v -0.313267 l -0.605366,0.03387 q -0.04233,0.0042 -0.09737,0.0042 -0.04657,0 -0.09737,-0.02963 -0.04657,-0.03387 -0.0889,-0.156633 -0.0042,-0.0085 -0.0042,-0.0254 0,-0.02117 0.0254,-0.02117 l 0.0254,0.0042 q 0.07197,0.0127 0.143933,0.0127 h 0.04657 l 0.647699,-0.02963 0.0042,-0.275166 q 0,-0.105833 -0.0508,-0.182033 -0.0127,-0.02117 -0.0127,-0.02963 0,-0.0254 0.0508,-0.0254 0.1016,0 0.173567,0.0381 0.0762,0.03387 0.0762,0.08467 v 0.381 l 0.558799,-0.0254 q 0.0889,-0.0085 0.135467,-0.02117 0.0085,-0.0042 0.02963,-0.0042 0.04233,0 0.08467,0.03387 0.04657,0.02963 0.0762,0.07197 0.02963,0.04233 0.02963,0.05927 0,0.02963 -0.0254,0.04657 -0.0254,0.0127 -0.0635,0.0127 l -0.825499,0.03387 v 0.313266 z m -2.154765,-2.142065 q -0.110067,0.182033 -0.309033,0.440266 -0.198967,0.254 -0.275167,0.254 -0.0254,0 -0.0254,-0.02963 0,-0.03387 0.04657,-0.1143 0.296333,-0.465666 0.491066,-0.880533 0.194733,-0.414866 0.283633,-0.694266 0.09313,-0.279399 0.09313,-0.368299 l -0.0042,-0.05503 v -0.01693 q 0,-0.0381 0.04657,-0.0381 0.0635,0 0.1651,0.05927 0.101599,0.05927 0.101599,0.105833 0,0.03387 -0.110066,0.321733 -0.110067,0.287866 -0.262467,0.588433 v 2.531531 q 0,0.0381 -0.02117,0.05927 -0.02117,0.02117 -0.05503,0.02117 -0.07197,0 -0.1397,-0.0508 -0.06773,-0.0508 -0.06773,-0.122766 0,-0.0254 0.0042,-0.04233 0.02117,-0.118534 0.02117,-0.2286 z m 0.537633,-0.368299 q 0,-0.07197 -0.0085,-0.122767 -0.0085,-0.0508 -0.03387,-0.1016 -0.0127,-0.0254 -0.0127,-0.04233 0,-0.0254 0.02963,-0.0254 0.02117,0 0.08043,0.01693 0.0635,0.0127 0.118533,0.0508 0.05927,0.03387 0.05927,0.09313 v 0.02963 l 0.01693,1.926165 q 0,0.05503 -0.0127,0.08467 -0.0127,0.0254 -0.04657,0.0254 -0.04657,0 -0.127,-0.0508 -0.08043,-0.0508 -0.08043,-0.1143 0,-0.02963 0.0042,-0.0508 0.01693,-0.09737 0.01693,-0.279399 z m 1.037165,-0.436033 q 0.182034,0.224366 0.423333,0.419099 0.207433,-0.232833 0.325967,-0.491066 l -0.7239,0.04233 z m 1.667932,2.679697 q 0,0.04233 -0.06773,0.09737 -0.06773,0.05927 -0.1143,0.05927 -0.0381,0 -0.0889,-0.0762 -0.2286,-0.359833 -0.554566,-0.702733 -0.04233,-0.04233 -0.04233,-0.0762 0,-0.0381 0.04657,-0.08043 0.04657,-0.04657 0.08043,-0.04657 0.03387,0 0.0889,0.05503 0.262467,0.249767 0.4572,0.478367 0.194733,0.228599 0.194733,0.292099 z m -1.820332,-0.791632 q 0,-0.05503 0.0381,-0.05503 0.05503,0 0.156634,0.0762 0.105833,0.07197 0.105833,0.122767 0,0.0254 -0.02117,0.05927 -0.169333,0.258234 -0.351366,0.436033 -0.182033,0.173567 -0.321733,0.262467 -0.1397,0.0889 -0.182033,0.0889 -0.03387,0 -0.03387,-0.02963 0,-0.0381 0.0889,-0.135466 0.275166,-0.2794 0.486833,-0.643466 0.03387,-0.05927 0.03387,-0.1397 z"
           style="stroke-width:0.264583"
           id="path24" />
        <path
           d="m 48.593205,70.730229 q -0.1778,0 -0.232833,-0.207433 l -0.0042,-0.02117 q 0,-0.02117 0.0254,-0.02117 l 0.0254,0.0042 q 0.08467,0.02117 0.186266,0.02117 h 0.0381 l 0.2921,-0.01693 0.0042,-0.338667 -0.524933,0.02963 q -0.0381,0.0042 -0.09737,0.0042 -0.07197,0 -0.118534,-0.03387 -0.04657,-0.0381 -0.09313,-0.165099 -0.0042,-0.0085 -0.0042,-0.02117 0,-0.02117 0.02117,-0.02117 0.01693,0 0.0254,0.0042 0.0635,0.01693 0.169334,0.01693 h 0.0508 l 0.571499,-0.03387 0.0042,-0.364066 q 0,-0.09737 -0.04233,-0.160867 -0.01693,-0.02117 -0.01693,-0.04657 0,-0.02963 0.04657,-0.02963 0.04657,0 0.127,0.0254 0.08043,0.0254 0.110067,0.0508 0.02963,0.0254 0.02963,0.07197 l -0.0085,0.436033 0.482599,-0.02963 q 0.08467,-0.0085 0.156633,-0.02963 0.0085,-0.0042 0.0254,-0.0042 0.04657,0 0.118534,0.05927 0.0762,0.05503 0.0762,0.110066 0,0.02963 -0.02117,0.04657 -0.02117,0.01693 -0.05503,0.02117 l -0.783166,0.04657 -0.0085,0.338667 0.182033,-0.0127 q 0.0762,-0.0042 0.160867,-0.02963 0.0085,-0.0042 0.0254,-0.0042 0.04657,0 0.118533,0.0635 0.07197,0.0635 0.07197,0.1143 0,0.05503 -0.0762,0.0635 l -0.9779,0.05927 z m 1.816099,-0.194733 q -0.0889,0.224366 -0.2413,0.482599 -0.148167,0.254 -0.211667,0.254 -0.02117,0 -0.02117,-0.0381 0,-0.04233 0.0254,-0.110067 0.122766,-0.304799 0.224366,-0.634999 0.1016,-0.334433 0.160867,-0.592666 0.05927,-0.258233 0.05927,-0.334433 0,-0.05503 -0.0127,-0.105834 -0.0042,-0.0085 -0.0042,-0.0254 0,-0.04233 0.05503,-0.04233 0.07197,0 0.1651,0.0508 0.09737,0.04657 0.09737,0.110067 0,0.0254 -0.06773,0.275166 -0.0635,0.245533 -0.1397,0.465666 l 0.948266,-0.06773 0.06773,-0.0042 q 0.0635,0 0.122766,0.0508 0.0635,0.04657 0.0635,0.1016 0,0.02963 -0.0254,0.0635 -0.02117,0.02963 -0.02963,0.04233 -0.0042,0.0085 -0.105833,0.182033 -0.09737,0.169333 -0.220134,0.338666 -0.122766,0.169334 -0.173566,0.169334 -0.03387,0 -0.03387,-0.04657 0,-0.04233 0.02963,-0.1016 0.131233,-0.287866 0.207433,-0.541866 z m -1.824566,0.685799 q -0.08043,0 -0.122766,-0.03387 -0.08467,-0.08467 -0.110067,-0.182033 l -0.0042,-0.01693 q 0,-0.0254 0.0254,-0.0254 0.01693,0 0.0254,0.0042 0.0635,0.02117 0.173566,0.02117 h 0.0508 l 0.681567,-0.04657 q 0.07197,-0.0042 0.156633,-0.0254 0.0085,-0.0042 0.0254,-0.0042 0.0508,0 0.118533,0.05927 0.07197,0.05927 0.07197,0.118534 0,0.02963 -0.0254,0.04657 -0.02117,0.01693 -0.05503,0.02117 l -0.931332,0.05927 z m 1.968499,-0.186267 q 0,-0.08043 -0.02963,-0.152399 l -0.0085,-0.03387 q 0,-0.0381 0.05503,-0.0381 0.05927,0 0.1651,0.0381 0.105833,0.0381 0.105833,0.1143 0,0.02963 -0.0042,0.04657 -0.02963,0.254 -0.05503,0.397933 0.389466,0.905933 1.083732,1.507066 0.0635,0.0508 0.0635,0.08043 0,0.0254 -0.0889,0.08043 -0.08467,0.05503 -0.122767,0.05503 -0.04657,0 -0.241299,-0.207434 -0.1905,-0.207433 -0.410633,-0.520699 -0.220133,-0.313266 -0.372533,-0.630766 -0.127,0.393699 -0.364067,0.702733 -0.237066,0.309033 -0.469899,0.486832 -0.2286,0.1778 -0.309033,0.1778 -0.0381,0 -0.0381,-0.03387 0,-0.04657 0.07197,-0.105834 0.537633,-0.482599 0.753533,-0.990599 0.2159,-0.507999 0.2159,-0.944032 z m -0.618066,1.354666 q 0,0.03387 -0.05503,0.0889 -0.05503,0.05503 -0.1143,0.05503 -0.04657,0 -0.08467,-0.0635 -0.1524,-0.262466 -0.3429,-0.499533 -0.01693,-0.01693 -0.01693,-0.0381 0,-0.04233 0.0635,-0.08467 0.0635,-0.04233 0.08467,-0.04233 0.0381,0 0.1524,0.127 0.1143,0.127 0.211667,0.275167 0.1016,0.143933 0.1016,0.182033 z m -0.778933,0.0635 v 0.571499 q 0,0.03387 -0.02117,0.05503 -0.02117,0.0254 -0.05927,0.0254 -0.0635,0 -0.143934,-0.05927 -0.0762,-0.05503 -0.0762,-0.110067 l 0.0042,-0.0381 q 0.02117,-0.211667 0.02117,-0.347134 l 0.0085,-0.156633 0.0085,-0.706966 -0.579966,0.02963 h -0.0889 q -0.07197,0 -0.127,-0.03387 -0.05503,-0.03387 -0.1016,-0.169333 l -0.0042,-0.01693 q 0,-0.0254 0.0254,-0.0254 0.01693,0 0.0254,0.0042 0.0635,0.01693 0.169333,0.01693 h 0.05503 l 1.367366,-0.07197 q 0.08043,-0.0042 0.156633,-0.02963 0.0085,-0.0042 0.0254,-0.0042 0.04233,0 0.118533,0.05927 0.0762,0.05927 0.0762,0.118534 0,0.0635 -0.0762,0.07197 l -0.791633,0.0381 z m -0.745066,-0.588433 q 0,-0.0508 0.03387,-0.0508 0.01693,0 0.07197,0.03387 0.05503,0.03387 0.09737,0.08043 0.04233,0.04233 0.04233,0.08043 0,0.02117 -0.0127,0.04233 -0.1143,0.224366 -0.254,0.380999 -0.135466,0.156633 -0.245533,0.237067 -0.110066,0.08043 -0.135466,0.08043 -0.02117,0 -0.02117,-0.02117 0,-0.03387 0.05503,-0.1143 0.2032,-0.300566 0.275167,-0.465666 0.0762,-0.1651 0.09313,-0.283633 z"
           style="stroke-width:0.264583"
           id="path26" />
      </g>
    </g>
  </g>
</svg>
